<?xml version="1.0" encoding="UTF-8"?>
<svg version="1.1" viewBox="0 0 804 331.4" xml:space="preserve" xmlns="http://www.w3.org/2000/svg">
<title>ANSI US QWERTY (Windows) Enter/Return</title>
<desc>ANSI US QWERTY keyboard layout for Windows with the location of the Enter and Return keys highlighted</desc>
<style type="text/css">
	.st0{fill:#EEEEEE;stroke:#DDDDDD;}
	.st1{fill:#CCCCCC;stroke:#000000;stroke-width:2;}
	.st2{fill:#CC0000;stroke:#000000;stroke-width:2;}
	.st3{fill:#339900;stroke:#000000;stroke-width:2;}
	.st4{fill:#FCFCFC;}
	.st5{fill:#FF6666;}
	.st6{fill:#66CC33;}
	.st7{fill:#FFFFFF;}
</style>




<g transform="translate(-141.67 -108.18)"><path class="st0" d="m139.67 99.882h1213c3.3 0 6 2.7 6 6v336c0 3.3-2.7 6-6 6h-1213c-3.3 0-6-2.7-6-6v-336c0-3.3 2.7-6 6-6z"/><path class="st1" d="m146.67 109.18h38c2.2 0 4 1.8 4 4v38c0 2.2-1.8 4-4 4h-38c-2.2 0-4-1.8-4-4v-38c0-2.3 1.8-4 4-4z"/><path class="st1" d="m254.67 109.18h38c2.2 0 4 1.8 4 4v38c0 2.2-1.8 4-4 4h-38c-2.2 0-4-1.8-4-4v-38c0-2.3 1.8-4 4-4z"/><path class="st1" d="m308.67 109.18h38c2.2 0 4 1.8 4 4v38c0 2.2-1.8 4-4 4h-38c-2.2 0-4-1.8-4-4v-38c0-2.3 1.8-4 4-4z"/><path class="st1" d="m362.67 109.18h38c2.2 0 4 1.8 4 4v38c0 2.2-1.8 4-4 4h-38c-2.2 0-4-1.8-4-4v-38c0-2.3 1.8-4 4-4z"/><path class="st1" d="m416.67 109.18h38c2.2 0 4 1.8 4 4v38c0 2.2-1.8 4-4 4h-38c-2.2 0-4-1.8-4-4v-38c0-2.3 1.8-4 4-4z"/><path class="st1" d="m497.67 109.18h38c2.2 0 4 1.8 4 4v38c0 2.2-1.8 4-4 4h-38c-2.2 0-4-1.8-4-4v-38c0-2.3 1.8-4 4-4z"/><path class="st1" d="m551.67 109.18h38c2.2 0 4 1.8 4 4v38c0 2.2-1.8 4-4 4h-38c-2.2 0-4-1.8-4-4v-38c0-2.3 1.8-4 4-4z"/><path class="st1" d="m605.67 109.18h38c2.2 0 4 1.8 4 4v38c0 2.2-1.8 4-4 4h-38c-2.2 0-4-1.8-4-4v-38c0-2.3 1.8-4 4-4z"/><path class="st1" d="m659.67 109.18h38c2.2 0 4 1.8 4 4v38c0 2.2-1.8 4-4 4h-38c-2.2 0-4-1.8-4-4v-38c0-2.3 1.8-4 4-4z"/><path class="st1" d="m740.67 109.18h38c2.2 0 4 1.8 4 4v38c0 2.2-1.8 4-4 4h-38c-2.2 0-4-1.8-4-4v-38c0-2.3 1.8-4 4-4z"/><path class="st1" d="m794.67 109.18h38c2.2 0 4 1.8 4 4v38c0 2.2-1.8 4-4 4h-38c-2.2 0-4-1.8-4-4v-38c0-2.3 1.8-4 4-4z"/><path class="st1" d="m848.67 109.18h38c2.2 0 4 1.8 4 4v38c0 2.2-1.8 4-4 4h-38c-2.2 0-4-1.8-4-4v-38c0-2.3 1.8-4 4-4z"/><path class="st1" d="m902.67 109.18h38c2.2 0 4 1.8 4 4v38c0 2.2-1.8 4-4 4h-38c-2.2 0-4-1.8-4-4v-38c0-2.3 1.8-4 4-4z"/><path class="st1" d="m970.17 109.18h38c2.2 0 4 1.8 4 4v38c0 2.2-1.8 4-4 4h-38c-2.2 0-4-1.8-4-4v-38c0-2.3 1.8-4 4-4z"/><path class="st1" d="m1024.2 109.18h38c2.2 0 4 1.8 4 4v38c0 2.2-1.8 4-4 4h-38c-2.2 0-4-1.8-4-4v-38c0-2.3 1.8-4 4-4z"/><path class="st1" d="m1078.2 109.18h38c2.2 0 4 1.8 4 4v38c0 2.2-1.8 4-4 4h-38c-2.2 0-4-1.8-4-4v-38c0-2.3 1.8-4 4-4z"/><path class="st1" d="m146.67 176.58h38c2.2 0 4 1.8 4 4v38c0 2.2-1.8 4-4 4h-38c-2.2 0-4-1.8-4-4v-38c0-2.2 1.8-4 4-4z"/><path class="st1" d="m200.67 176.58h38c2.2 0 4 1.8 4 4v38c0 2.2-1.8 4-4 4h-38c-2.2 0-4-1.8-4-4v-38c0-2.2 1.8-4 4-4z" fill="#666600"/><path class="st1" d="m254.67 176.58h38c2.2 0 4 1.8 4 4v38c0 2.2-1.8 4-4 4h-38c-2.2 0-4-1.8-4-4v-38c0-2.2 1.8-4 4-4z" fill="#660000"/><path class="st1" d="m308.67 176.58h38c2.2 0 4 1.8 4 4v38c0 2.2-1.8 4-4 4h-38c-2.2 0-4-1.8-4-4v-38c0-2.2 1.8-4 4-4z" fill="#cc0000"/><path class="st1" d="m362.67 176.58h38c2.2 0 4 1.8 4 4v38c0 2.2-1.8 4-4 4h-38c-2.2 0-4-1.8-4-4v-38c0-2.2 1.8-4 4-4z" fill="#cc0000"/><path class="st1" d="m416.67 176.58h38c2.2 0 4 1.8 4 4v38c0 2.2-1.8 4-4 4h-38c-2.2 0-4-1.8-4-4v-38c0-2.2 1.8-4 4-4z" fill="#660000"/><path class="st1" d="m470.67 176.58h38c2.2 0 4 1.8 4 4v38c0 2.2-1.8 4-4 4h-38c-2.2 0-4-1.8-4-4v-38c0-2.2 1.8-4 4-4z" fill="#006600"/><path class="st1" d="m524.67 176.58h38c2.2 0 4 1.8 4 4v38c0 2.2-1.8 4-4 4h-38c-2.2 0-4-1.8-4-4v-38c0-2.2 1.8-4 4-4z" fill="#00cc00"/><path class="st1" d="m578.67 176.58h38c2.2 0 4 1.8 4 4v38c0 2.2-1.8 4-4 4h-38c-2.2 0-4-1.8-4-4v-38c0-2.2 1.8-4 4-4z" fill="#00cc00"/><path class="st1" d="m632.67 176.58h38c2.2 0 4 1.8 4 4v38c0 2.2-1.8 4-4 4h-38c-2.2 0-4-1.8-4-4v-38c0-2.2 1.8-4 4-4z" fill="#006600"/><path class="st1" d="m686.67 176.58h38c2.2 0 4 1.8 4 4v38c0 2.2-1.8 4-4 4h-38c-2.2 0-4-1.8-4-4v-38c0-2.2 1.8-4 4-4z" fill="#006666"/><path class="st1" d="m740.67 176.58h38c2.2 0 4 1.8 4 4v38c0 2.2-1.8 4-4 4h-38c-2.2 0-4-1.8-4-4v-38c0-2.2 1.8-4 4-4z" fill="#00cccc"/><path class="st1" d="m794.67 176.58h38c2.2 0 4 1.8 4 4v38c0 2.2-1.8 4-4 4h-38c-2.2 0-4-1.8-4-4v-38c0-2.2 1.8-4 4-4z" fill="#00cccc"/><path class="st1" d="m848.67 176.58h92c2.2 0 4 1.8 4 4v38c0 2.2-1.8 4-4 4h-92c-2.2 0-4-1.8-4-4v-38c0-2.2 1.8-4 4-4z" fill="#006666"/><path class="st1" d="m970.17 176.58h38c2.2 0 4 1.8 4 4v38c0 2.2-1.8 4-4 4h-38c-2.2 0-4-1.8-4-4v-38c0-2.2 1.8-4 4-4z"/><path class="st1" d="m1024.2 176.58h38c2.2 0 4 1.8 4 4v38c0 2.2-1.8 4-4 4h-38c-2.2 0-4-1.8-4-4v-38c0-2.2 1.8-4 4-4z"/><path class="st1" d="m1078.2 176.58h38c2.2 0 4 1.8 4 4v38c0 2.2-1.8 4-4 4h-38c-2.2 0-4-1.8-4-4v-38c0-2.2 1.8-4 4-4z"/><path class="st1" d="m1145.7 176.58h38c2.2 0 4 1.8 4 4v38c0 2.2-1.8 4-4 4h-38c-2.2 0-4-1.8-4-4v-38c0-2.2 1.8-4 4-4z"/><path class="st1" d="m1199.7 176.58h38c2.2 0 4 1.8 4 4v38c0 2.2-1.8 4-4 4h-38c-2.2 0-4-1.8-4-4v-38c0-2.2 1.8-4 4-4z"/><path class="st1" d="m1253.7 176.58h38c2.2 0 4 1.8 4 4v38c0 2.2-1.8 4-4 4h-38c-2.2 0-4-1.8-4-4v-38c0-2.2 1.8-4 4-4z"/><path class="st1" d="m1307.7 176.58h38c2.2 0 4 1.8 4 4v38c0 2.2-1.8 4-4 4h-38c-2.2 0-4-1.8-4-4v-38c0-2.2 1.8-4 4-4z"/><path class="st1" d="m146.67 230.58h65c2.2 0 4 1.8 4 4v38c0 2.2-1.8 4-4 4h-65c-2.2 0-4-1.8-4-4v-38c0-2.2 1.8-4 4-4z"/><path class="st1" d="m227.67 230.58h38c2.2 0 4 1.8 4 4v38c0 2.2-1.8 4-4 4h-38c-2.2 0-4-1.8-4-4v-38c0-2.2 1.8-4 4-4z" fill="#cccc00"/><path class="st1" d="m281.67 230.58h38c2.2 0 4 1.8 4 4v38c0 2.2-1.8 4-4 4h-38c-2.2 0-4-1.8-4-4v-38c0-2.2 1.8-4 4-4z" fill="#cc0000"/><path class="st1" d="m335.67 230.58h38c2.2 0 4 1.8 4 4v38c0 2.2-1.8 4-4 4h-38c-2.2 0-4-1.8-4-4v-38c0-2.2 1.8-4 4-4z" fill="#cc0000"/><path class="st1" d="m389.67 230.58h38c2.2 0 4 1.8 4 4v38c0 2.2-1.8 4-4 4h-38c-2.2 0-4-1.8-4-4v-38c0-2.2 1.8-4 4-4z" fill="#660000"/><path class="st1" d="m443.67 230.58h38c2.2 0 4 1.8 4 4v38c0 2.2-1.8 4-4 4h-38c-2.2 0-4-1.8-4-4v-38c0-2.2 1.8-4 4-4z" fill="#cc0000"/><path class="st1" d="m497.67 230.58h38c2.2 0 4 1.8 4 4v38c0 2.2-1.8 4-4 4h-38c-2.2 0-4-1.8-4-4v-38c0-2.2 1.8-4 4-4z" fill="#00cc00"/><path class="st1" d="m551.67 230.58h38c2.2 0 4 1.8 4 4v38c0 2.2-1.8 4-4 4h-38c-2.2 0-4-1.8-4-4v-38c0-2.2 1.8-4 4-4z" fill="#00cc00"/><path class="st1" d="m605.67 230.58h38c2.2 0 4 1.8 4 4v38c0 2.2-1.8 4-4 4h-38c-2.2 0-4-1.8-4-4v-38c0-2.2 1.8-4 4-4z" fill="#006600"/><path class="st1" d="m659.67 230.58h38c2.2 0 4 1.8 4 4v38c0 2.2-1.8 4-4 4h-38c-2.2 0-4-1.8-4-4v-38c0-2.2 1.8-4 4-4z" fill="#00cc00"/><path class="st1" d="m713.67 230.58h38c2.2 0 4 1.8 4 4v38c0 2.2-1.8 4-4 4h-38c-2.2 0-4-1.8-4-4v-38c0-2.2 1.8-4 4-4z" fill="#00cccc"/><path class="st1" d="m767.67 230.58h38c2.2 0 4 1.8 4 4v38c0 2.2-1.8 4-4 4h-38c-2.2 0-4-1.8-4-4v-38c0-2.2 1.8-4 4-4z" fill="#00cccc"/><path class="st1" d="m821.67 230.58h38c2.2 0 4 1.8 4 4v38c0 2.2-1.8 4-4 4h-38c-2.2 0-4-1.8-4-4v-38c0-2.2 1.8-4 4-4z" fill="#006666"/><path class="st1" d="m875.67 230.58h65c2.2 0 4 1.8 4 4v38c0 2.2-1.8 4-4 4h-65c-2.2 0-4-1.8-4-4v-38c0-2.2 1.8-4 4-4z" fill="#00cccc"/><path class="st1" d="m970.17 230.58h38c2.2 0 4 1.8 4 4v38c0 2.2-1.8 4-4 4h-38c-2.2 0-4-1.8-4-4v-38c0-2.2 1.8-4 4-4z"/><path class="st1" d="m1024.2 230.58h38c2.2 0 4 1.8 4 4v38c0 2.2-1.8 4-4 4h-38c-2.2 0-4-1.8-4-4v-38c0-2.2 1.8-4 4-4z"/><path class="st1" d="m1078.2 230.58h38c2.2 0 4 1.8 4 4v38c0 2.2-1.8 4-4 4h-38c-2.2 0-4-1.8-4-4v-38c0-2.2 1.8-4 4-4z"/><path class="st1" d="m1145.7 230.58h38c2.2 0 4 1.8 4 4v38c0 2.2-1.8 4-4 4h-38c-2.2 0-4-1.8-4-4v-38c0-2.2 1.8-4 4-4z"/><path class="st1" d="m1199.7 230.58h38c2.2 0 4 1.8 4 4v38c0 2.2-1.8 4-4 4h-38c-2.2 0-4-1.8-4-4v-38c0-2.2 1.8-4 4-4z"/><path class="st1" d="m1253.7 230.58h38c2.2 0 4 1.8 4 4v38c0 2.2-1.8 4-4 4h-38c-2.2 0-4-1.8-4-4v-38c0-2.2 1.8-4 4-4z"/><path class="st1" d="m1307.7 230.58h38c2.2 0 4 1.8 4 4v92c0 2.2-1.8 4-4 4h-38c-2.2 0-4-1.8-4-4v-92c0-2.2 1.8-4 4-4z"/><path class="st1" d="m146.67 284.58h78.5c2.2 0 4 1.8 4 4v38c0 2.2-1.8 4-4 4h-78.5c-2.2 0-4-1.8-4-4v-38c0-2.2 1.8-4 4-4z"/><path class="st1" d="m241.17 284.58h38c2.2 0 4 1.8 4 4v38c0 2.2-1.8 4-4 4h-38c-2.2 0-4-1.8-4-4v-38c0-2.2 1.8-4 4-4z" fill="#cc0000"/><path class="st1" d="m295.17 284.58h38c2.2 0 4 1.8 4 4v38c0 2.2-1.8 4-4 4h-38c-2.2 0-4-1.8-4-4v-38c0-2.2 1.8-4 4-4z" fill="#660000"/><path class="st1" d="m349.17 284.58h38c2.2 0 4 1.8 4 4v38c0 2.2-1.8 4-4 4h-38c-2.2 0-4-1.8-4-4v-38c0-2.2 1.8-4 4-4z" fill="#660000"/><path class="st1" d="m403.17 284.58h38c2.2 0 4 1.8 4 4v38c0 2.2-1.8 4-4 4h-38c-2.2 0-4-1.8-4-4v-38c0-2.2 1.8-4 4-4z" fill="#cc0000"/><path class="st1" d="m457.17 284.58h38c2.2 0 4 1.8 4 4v38c0 2.2-1.8 4-4 4h-38c-2.2 0-4-1.8-4-4v-38c0-2.2 1.8-4 4-4z" fill="#00cc00"/><path class="st1" d="m511.17 284.58h38c2.2 0 4 1.8 4 4v38c0 2.2-1.8 4-4 4h-38c-2.2 0-4-1.8-4-4v-38c0-2.2 1.8-4 4-4z" fill="#006600"/><path class="st1" d="m565.17 284.58h38c2.2 0 4 1.8 4 4v38c0 2.2-1.8 4-4 4h-38c-2.2 0-4-1.8-4-4v-38c0-2.2 1.8-4 4-4z" fill="#006600"/><path class="st1" d="m619.17 284.58h38c2.2 0 4 1.8 4 4v38c0 2.2-1.8 4-4 4h-38c-2.2 0-4-1.8-4-4v-38c0-2.2 1.8-4 4-4z" fill="#00cc00"/><path class="st1" d="m673.17 284.58h38c2.2 0 4 1.8 4 4v38c0 2.2-1.8 4-4 4h-38c-2.2 0-4-1.8-4-4v-38c0-2.2 1.8-4 4-4z" fill="#00cccc"/><path class="st1" d="m727.17 284.58h38c2.2 0 4 1.8 4 4v38c0 2.2-1.8 4-4 4h-38c-2.2 0-4-1.8-4-4v-38c0-2.2 1.8-4 4-4z" fill="#006666"/><path class="st1" d="m781.17 284.58h38c2.2 0 4 1.8 4 4v38c0 2.2-1.8 4-4 4h-38c-2.2 0-4-1.8-4-4v-38c0-2.2 1.8-4 4-4z" fill="#006666"/><path class="st2" d="m835.17 284.58h105.5c2.2 0 4 1.8 4 4v38c0 2.2-1.8 4-4 4h-105.5c-2.2 0-4-1.8-4-4v-38c0-2.2 1.8-4 4-4z" fill="#00cccc"/><path class="st1" d="m1145.7 284.58h38c2.2 0 4 1.8 4 4v38c0 2.2-1.8 4-4 4h-38c-2.2 0-4-1.8-4-4v-38c0-2.2 1.8-4 4-4z"/><path class="st1" d="m1199.7 284.58h38c2.2 0 4 1.8 4 4v38c0 2.2-1.8 4-4 4h-38c-2.2 0-4-1.8-4-4v-38c0-2.2 1.8-4 4-4z"/><path class="st1" d="m1253.7 284.58h38c2.2 0 4 1.8 4 4v38c0 2.2-1.8 4-4 4h-38c-2.2 0-4-1.8-4-4v-38c0-2.2 1.8-4 4-4z"/><path class="st1" d="m146.67 338.58h105.5c2.2 0 4 1.8 4 4v38c0 2.2-1.8 4-4 4h-105.5c-2.2 0-4-1.8-4-4v-38c0-2.2 1.8-4 4-4z"/><path class="st1" d="m268.17 338.58h38c2.2 0 4 1.8 4 4v38c0 2.2-1.8 4-4 4h-38c-2.2 0-4-1.8-4-4v-38c0-2.2 1.8-4 4-4z" fill="#660000"/><path class="st1" d="m322.17 338.58h38c2.2 0 4 1.8 4 4v38c0 2.2-1.8 4-4 4h-38c-2.2 0-4-1.8-4-4v-38c0-2.2 1.8-4 4-4z" fill="#cc0000"/><path class="st1" d="m376.17 338.58h38c2.2 0 4 1.8 4 4v38c0 2.2-1.8 4-4 4h-38c-2.2 0-4-1.8-4-4v-38c0-2.2 1.8-4 4-4z" fill="#cc0000"/><path class="st1" d="m430.17 338.58h38c2.2 0 4 1.8 4 4v38c0 2.2-1.8 4-4 4h-38c-2.2 0-4-1.8-4-4v-38c0-2.2 1.8-4 4-4z" fill="#660000"/><path class="st1" d="m484.17 338.58h38c2.2 0 4 1.8 4 4v38c0 2.2-1.8 4-4 4h-38c-2.2 0-4-1.8-4-4v-38c0-2.2 1.8-4 4-4z" fill="#006600"/><path class="st1" d="m538.17 338.58h38c2.2 0 4 1.8 4 4v38c0 2.2-1.8 4-4 4h-38c-2.2 0-4-1.8-4-4v-38c0-2.2 1.8-4 4-4z" fill="#00cc00"/><path class="st1" d="m592.17 338.58h38c2.2 0 4 1.8 4 4v38c0 2.2-1.8 4-4 4h-38c-2.2 0-4-1.8-4-4v-38c0-2.2 1.8-4 4-4z" fill="#00cc00"/><path class="st1" d="m646.17 338.58h38c2.2 0 4 1.8 4 4v38c0 2.2-1.8 4-4 4h-38c-2.2 0-4-1.8-4-4v-38c0-2.2 1.8-4 4-4z" fill="#006600"/><path class="st1" d="m700.17 338.58h38c2.2 0 4 1.8 4 4v38c0 2.2-1.8 4-4 4h-38c-2.2 0-4-1.8-4-4v-38c0-2.2 1.8-4 4-4z" fill="#006666"/><path class="st1" d="m754.17 338.58h38c2.2 0 4 1.8 4 4v38c0 2.2-1.8 4-4 4h-38c-2.2 0-4-1.8-4-4v-38c0-2.2 1.8-4 4-4z" fill="#00cccc"/><path class="st1" d="m808.17 338.58h132.5c2.2 0 4 1.8 4 4v38c0 2.2-1.8 4-4 4h-132.5c-2.2 0-4-1.8-4-4v-38c0-2.2 1.8-4 4-4z" fill="#00cccc"/><path class="st1" d="m1024.2 338.58h38c2.2 0 4 1.8 4 4v38c0 2.2-1.8 4-4 4h-38c-2.2 0-4-1.8-4-4v-38c0-2.2 1.8-4 4-4z"/><path class="st1" d="m1145.7 338.58h38c2.2 0 4 1.8 4 4v38c0 2.2-1.8 4-4 4h-38c-2.2 0-4-1.8-4-4v-38c0-2.2 1.8-4 4-4z"/><path class="st1" d="m1199.7 338.58h38c2.2 0 4 1.8 4 4v38c0 2.2-1.8 4-4 4h-38c-2.2 0-4-1.8-4-4v-38c0-2.2 1.8-4 4-4z"/><path class="st1" d="m1253.7 338.58h38c2.2 0 4 1.8 4 4v38c0 2.2-1.8 4-4 4h-38c-2.2 0-4-1.8-4-4v-38c0-2.2 1.8-4 4-4z"/><path class="st3" d="m1307.7 338.58h38c2.2 0 4 1.8 4 4v92c0 2.2-1.8 4-4 4h-38c-2.2 0-4-1.8-4-4v-92c0-2.2 1.8-4 4-4z"/><path class="st1" d="m146.67 392.58h51.5c2.2 0 4 1.8 4 4v38c0 2.2-1.8 4-4 4h-51.5c-2.2 0-4-1.8-4-4v-38c0-2.2 1.8-4 4-4z"/><path class="st1" d="m214.17 392.58h51.5c2.2 0 4 1.8 4 4v38c0 2.2-1.8 4-4 4h-51.5c-2.2 0-4-1.8-4-4v-38c0-2.2 1.8-4 4-4z"/><path class="st1" d="m281.67 392.58h51.5c2.2 0 4 1.8 4 4v38c0 2.2-1.8 4-4 4h-51.5c-2.2 0-4-1.8-4-4v-38c0-2.2 1.8-4 4-4z"/><path class="st1" d="m349.17 392.58h321.5c2.2 0 4 1.8 4 4v38c0 2.2-1.8 4-4 4h-321.5c-2.2 0-4-1.8-4-4v-38c0-2.2 1.8-4 4-4z"/><path class="st1" d="m686.67 392.58h51.5c2.2 0 4 1.8 4 4v38c0 2.2-1.8 4-4 4h-51.5c-2.2 0-4-1.8-4-4v-38c0-2.2 1.8-4 4-4z"/><path class="st1" d="m754.17 392.58h51.5c2.2 0 4 1.8 4 4v38c0 2.2-1.8 4-4 4h-51.5c-2.2 0-4-1.8-4-4v-38c0-2.2 1.8-4 4-4z"/><path class="st1" d="m821.67 392.58h51.5c2.2 0 4 1.8 4 4v38c0 2.2-1.8 4-4 4h-51.5c-2.2 0-4-1.8-4-4v-38c0-2.2 1.8-4 4-4z"/><path class="st1" d="m889.17 392.58h51.5c2.2 0 4 1.8 4 4v38c0 2.2-1.8 4-4 4h-51.5c-2.2 0-4-1.8-4-4v-38c0-2.2 1.8-4 4-4z"/><path class="st1" d="m970.17 392.58h38c2.2 0 4 1.8 4 4v38c0 2.2-1.8 4-4 4h-38c-2.2 0-4-1.8-4-4v-38c0-2.2 1.8-4 4-4z"/><path class="st1" d="m1024.2 392.58h38c2.2 0 4 1.8 4 4v38c0 2.2-1.8 4-4 4h-38c-2.2 0-4-1.8-4-4v-38c0-2.2 1.8-4 4-4z"/><path class="st1" d="m1078.2 392.58h38c2.2 0 4 1.8 4 4v38c0 2.2-1.8 4-4 4h-38c-2.2 0-4-1.8-4-4v-38c0-2.2 1.8-4 4-4z"/><path class="st1" d="m1145.7 392.58h92c2.2 0 4 1.8 4 4v38c0 2.2-1.8 4-4 4h-92c-2.2 0-4-1.8-4-4v-38c0-2.2 1.8-4 4-4z"/><path class="st1" d="m1253.7 392.58h38c2.2 0 4 1.8 4 4v38c0 2.2-1.8 4-4 4h-38c-2.2 0-4-1.8-4-4v-38c0-2.2 1.8-4 4-4z"/><path class="st4" d="m147.67 110.18h36c2.2 0 4 1.8 4 4v34c0 2.2-1.8 4-4 4h-36c-2.2 0-4-1.8-4-4v-34c0-2.3 1.8-4 4-4z"/><path class="st4" d="m255.67 110.18h36c2.2 0 4 1.8 4 4v34c0 2.2-1.8 4-4 4h-36c-2.2 0-4-1.8-4-4v-34c0-2.3 1.8-4 4-4z"/><path class="st4" d="m309.67 110.18h36c2.2 0 4 1.8 4 4v34c0 2.2-1.8 4-4 4h-36c-2.2 0-4-1.8-4-4v-34c0-2.3 1.8-4 4-4z"/><path class="st4" d="m363.67 110.18h36c2.2 0 4 1.8 4 4v34c0 2.2-1.8 4-4 4h-36c-2.2 0-4-1.8-4-4v-34c0-2.3 1.8-4 4-4z"/><path class="st4" d="m417.67 110.18h36c2.2 0 4 1.8 4 4v34c0 2.2-1.8 4-4 4h-36c-2.2 0-4-1.8-4-4v-34c0-2.3 1.8-4 4-4z"/><path class="st4" d="m498.67 110.18h36c2.2 0 4 1.8 4 4v34c0 2.2-1.8 4-4 4h-36c-2.2 0-4-1.8-4-4v-34c0-2.3 1.8-4 4-4z"/><path class="st4" d="m552.67 110.18h36c2.2 0 4 1.8 4 4v34c0 2.2-1.8 4-4 4h-36c-2.2 0-4-1.8-4-4v-34c0-2.3 1.8-4 4-4z"/><path class="st4" d="m606.67 110.18h36c2.2 0 4 1.8 4 4v34c0 2.2-1.8 4-4 4h-36c-2.2 0-4-1.8-4-4v-34c0-2.3 1.8-4 4-4z"/><path class="st4" d="m660.67 110.18h36c2.2 0 4 1.8 4 4v34c0 2.2-1.8 4-4 4h-36c-2.2 0-4-1.8-4-4v-34c0-2.3 1.8-4 4-4z"/><path class="st4" d="m741.67 110.18h36c2.2 0 4 1.8 4 4v34c0 2.2-1.8 4-4 4h-36c-2.2 0-4-1.8-4-4v-34c0-2.3 1.8-4 4-4z"/><path class="st4" d="m795.67 110.18h36c2.2 0 4 1.8 4 4v34c0 2.2-1.8 4-4 4h-36c-2.2 0-4-1.8-4-4v-34c0-2.3 1.8-4 4-4z"/><path class="st4" d="m849.67 110.18h36c2.2 0 4 1.8 4 4v34c0 2.2-1.8 4-4 4h-36c-2.2 0-4-1.8-4-4v-34c0-2.3 1.8-4 4-4z"/><path class="st4" d="m903.67 110.18h36c2.2 0 4 1.8 4 4v34c0 2.2-1.8 4-4 4h-36c-2.2 0-4-1.8-4-4v-34c0-2.3 1.8-4 4-4z"/><path class="st4" d="m971.17 110.18h36c2.2 0 4 1.8 4 4v34c0 2.2-1.8 4-4 4h-36c-2.2 0-4-1.8-4-4v-34c0-2.3 1.8-4 4-4z"/><path class="st4" d="m1025.2 110.18h36c2.2 0 4 1.8 4 4v34c0 2.2-1.8 4-4 4h-36c-2.2 0-4-1.8-4-4v-34c0-2.3 1.8-4 4-4z"/><path class="st4" d="m1079.2 110.18h36c2.2 0 4 1.8 4 4v34c0 2.2-1.8 4-4 4h-36c-2.2 0-4-1.8-4-4v-34c0-2.3 1.8-4 4-4z"/><path class="st4" d="m147.67 177.58h36c2.2 0 4 1.8 4 4v34c0 2.2-1.8 4-4 4h-36c-2.2 0-4-1.8-4-4v-34c0-2.2 1.8-4 4-4z"/><path class="st4" d="m201.67 177.58h36c2.2 0 4 1.8 4 4v34c0 2.2-1.8 4-4 4h-36c-2.2 0-4-1.8-4-4v-34c0-2.2 1.8-4 4-4z" fill="#cccc00"/><path class="st4" d="m255.67 177.58h36c2.2 0 4 1.8 4 4v34c0 2.2-1.8 4-4 4h-36c-2.2 0-4-1.8-4-4v-34c0-2.2 1.8-4 4-4z" fill="#cc0000"/><path class="st4" d="m309.67 177.58h36c2.2 0 4 1.8 4 4v34c0 2.2-1.8 4-4 4h-36c-2.2 0-4-1.8-4-4v-34c0-2.2 1.8-4 4-4z" fill="#ff6666"/><path class="st4" d="m363.67 177.58h36c2.2 0 4 1.8 4 4v34c0 2.2-1.8 4-4 4h-36c-2.2 0-4-1.8-4-4v-34c0-2.2 1.8-4 4-4z" fill="#ff6666"/><path class="st4" d="m417.67 177.58h36c2.2 0 4 1.8 4 4v34c0 2.2-1.8 4-4 4h-36c-2.2 0-4-1.8-4-4v-34c0-2.2 1.8-4 4-4z" fill="#cc0000"/><path class="st4" d="m471.67 177.58h36c2.2 0 4 1.8 4 4v34c0 2.2-1.8 4-4 4h-36c-2.2 0-4-1.8-4-4v-34c0-2.2 1.8-4 4-4z" fill="#00cc00"/><path class="st4" d="m525.67 177.58h36c2.2 0 4 1.8 4 4v34c0 2.2-1.8 4-4 4h-36c-2.2 0-4-1.8-4-4v-34c0-2.2 1.8-4 4-4z" fill="#66ff66"/><path class="st4" d="m579.67 177.58h36c2.2 0 4 1.8 4 4v34c0 2.2-1.8 4-4 4h-36c-2.2 0-4-1.8-4-4v-34c0-2.2 1.8-4 4-4z" fill="#66ff66"/><path class="st4" d="m633.67 177.58h36c2.2 0 4 1.8 4 4v34c0 2.2-1.8 4-4 4h-36c-2.2 0-4-1.8-4-4v-34c0-2.2 1.8-4 4-4z" fill="#00cc00"/><path class="st4" d="m687.67 177.58h36c2.2 0 4 1.8 4 4v34c0 2.2-1.8 4-4 4h-36c-2.2 0-4-1.8-4-4v-34c0-2.2 1.8-4 4-4z" fill="#00cccc"/><path class="st4" d="m741.67 177.58h36c2.2 0 4 1.8 4 4v34c0 2.2-1.8 4-4 4h-36c-2.2 0-4-1.8-4-4v-34c0-2.2 1.8-4 4-4z" fill="#66ffff"/><path class="st4" d="m795.67 177.58h36c2.2 0 4 1.8 4 4v34c0 2.2-1.8 4-4 4h-36c-2.2 0-4-1.8-4-4v-34c0-2.2 1.8-4 4-4z" fill="#66ffff"/><path class="st4" d="m849.67 177.58h90c2.2 0 4 1.8 4 4v34c0 2.2-1.8 4-4 4h-90c-2.2 0-4-1.8-4-4v-34c0-2.2 1.8-4 4-4z" fill="#00cccc"/><path class="st4" d="m971.17 177.58h36c2.2 0 4 1.8 4 4v34c0 2.2-1.8 4-4 4h-36c-2.2 0-4-1.8-4-4v-34c0-2.2 1.8-4 4-4z"/><path class="st4" d="m1025.2 177.58h36c2.2 0 4 1.8 4 4v34c0 2.2-1.8 4-4 4h-36c-2.2 0-4-1.8-4-4v-34c0-2.2 1.8-4 4-4z"/><path class="st4" d="m1079.2 177.58h36c2.2 0 4 1.8 4 4v34c0 2.2-1.8 4-4 4h-36c-2.2 0-4-1.8-4-4v-34c0-2.2 1.8-4 4-4z"/><path class="st4" d="m1146.7 177.58h36c2.2 0 4 1.8 4 4v34c0 2.2-1.8 4-4 4h-36c-2.2 0-4-1.8-4-4v-34c0-2.2 1.8-4 4-4z"/><path class="st4" d="m1200.7 177.58h36c2.2 0 4 1.8 4 4v34c0 2.2-1.8 4-4 4h-36c-2.2 0-4-1.8-4-4v-34c0-2.2 1.8-4 4-4z"/><path class="st4" d="m1254.7 177.58h36c2.2 0 4 1.8 4 4v34c0 2.2-1.8 4-4 4h-36c-2.2 0-4-1.8-4-4v-34c0-2.2 1.8-4 4-4z"/><path class="st4" d="m1308.7 177.58h36c2.2 0 4 1.8 4 4v34c0 2.2-1.8 4-4 4h-36c-2.2 0-4-1.8-4-4v-34c0-2.2 1.8-4 4-4z"/><path class="st4" d="m147.67 231.58h63c2.2 0 4 1.8 4 4v34c0 2.2-1.8 4-4 4h-63c-2.2 0-4-1.8-4-4v-34c0-2.2 1.8-4 4-4z"/><path class="st4" d="m228.67 231.58h36c2.2 0 4 1.8 4 4v34c0 2.2-1.8 4-4 4h-36c-2.2 0-4-1.8-4-4v-34c0-2.2 1.8-4 4-4z" fill="#ffff66"/><path class="st4" d="m282.67 231.58h36c2.2 0 4 1.8 4 4v34c0 2.2-1.8 4-4 4h-36c-2.2 0-4-1.8-4-4v-34c0-2.2 1.8-4 4-4z" fill="#ff6666"/><path class="st4" d="m336.67 231.58h36c2.2 0 4 1.8 4 4v34c0 2.2-1.8 4-4 4h-36c-2.2 0-4-1.8-4-4v-34c0-2.2 1.8-4 4-4z" fill="#ff6666"/><path class="st4" d="m390.67 231.58h36c2.2 0 4 1.8 4 4v34c0 2.2-1.8 4-4 4h-36c-2.2 0-4-1.8-4-4v-34c0-2.2 1.8-4 4-4z" fill="#cc0000"/><path class="st4" d="m444.67 231.58h36c2.2 0 4 1.8 4 4v34c0 2.2-1.8 4-4 4h-36c-2.2 0-4-1.8-4-4v-34c0-2.2 1.8-4 4-4z" fill="#ff6666"/><path class="st4" d="m498.67 231.58h36c2.2 0 4 1.8 4 4v34c0 2.2-1.8 4-4 4h-36c-2.2 0-4-1.8-4-4v-34c0-2.2 1.8-4 4-4z" fill="#66ff66"/><path class="st4" d="m552.67 231.58h36c2.2 0 4 1.8 4 4v34c0 2.2-1.8 4-4 4h-36c-2.2 0-4-1.8-4-4v-34c0-2.2 1.8-4 4-4z" fill="#66ff66"/><path class="st4" d="m606.67 231.58h36c2.2 0 4 1.8 4 4v34c0 2.2-1.8 4-4 4h-36c-2.2 0-4-1.8-4-4v-34c0-2.2 1.8-4 4-4z" fill="#00cc00"/><path class="st4" d="m660.67 231.58h36c2.2 0 4 1.8 4 4v34c0 2.2-1.8 4-4 4h-36c-2.2 0-4-1.8-4-4v-34c0-2.2 1.8-4 4-4z" fill="#66ff66"/><path class="st4" d="m714.67 231.58h36c2.2 0 4 1.8 4 4v34c0 2.2-1.8 4-4 4h-36c-2.2 0-4-1.8-4-4v-34c0-2.2 1.8-4 4-4z" fill="#66ffff"/><path class="st4" d="m768.67 231.58h36c2.2 0 4 1.8 4 4v34c0 2.2-1.8 4-4 4h-36c-2.2 0-4-1.8-4-4v-34c0-2.2 1.8-4 4-4z" fill="#66ffff"/><path class="st4" d="m822.67 231.58h36c2.2 0 4 1.8 4 4v34c0 2.2-1.8 4-4 4h-36c-2.2 0-4-1.8-4-4v-34c0-2.2 1.8-4 4-4z" fill="#00cccc"/><path class="st4" d="m876.67 231.58h63c2.2 0 4 1.8 4 4v34c0 2.2-1.8 4-4 4h-63c-2.2 0-4-1.8-4-4v-34c0-2.2 1.8-4 4-4z" fill="#66ffff"/><path class="st4" d="m971.17 231.58h36c2.2 0 4 1.8 4 4v34c0 2.2-1.8 4-4 4h-36c-2.2 0-4-1.8-4-4v-34c0-2.2 1.8-4 4-4z"/><path class="st4" d="m1025.2 231.58h36c2.2 0 4 1.8 4 4v34c0 2.2-1.8 4-4 4h-36c-2.2 0-4-1.8-4-4v-34c0-2.2 1.8-4 4-4z"/><path class="st4" d="m1079.2 231.58h36c2.2 0 4 1.8 4 4v34c0 2.2-1.8 4-4 4h-36c-2.2 0-4-1.8-4-4v-34c0-2.2 1.8-4 4-4z"/><path class="st4" d="m1146.7 231.58h36c2.2 0 4 1.8 4 4v34c0 2.2-1.8 4-4 4h-36c-2.2 0-4-1.8-4-4v-34c0-2.2 1.8-4 4-4z"/><path class="st4" d="m1200.7 231.58h36c2.2 0 4 1.8 4 4v34c0 2.2-1.8 4-4 4h-36c-2.2 0-4-1.8-4-4v-34c0-2.2 1.8-4 4-4z"/><path class="st4" d="m1254.7 231.58h36c2.2 0 4 1.8 4 4v34c0 2.2-1.8 4-4 4h-36c-2.2 0-4-1.8-4-4v-34c0-2.2 1.8-4 4-4z"/><path class="st4" d="m1308.7 231.58h36c2.2 0 4 1.8 4 4v88c0 2.2-1.8 4-4 4h-36c-2.2 0-4-1.8-4-4v-88c0-2.2 1.8-4 4-4z"/><path class="st4" d="m147.67 285.58h76.5c2.2 0 4 1.8 4 4v34c0 2.2-1.8 4-4 4h-76.5c-2.2 0-4-1.8-4-4v-34c0-2.2 1.8-4 4-4z"/><path class="st4" d="m242.17 285.58h36c2.2 0 4 1.8 4 4v34c0 2.2-1.8 4-4 4h-36c-2.2 0-4-1.8-4-4v-34c0-2.2 1.8-4 4-4z" fill="#ff6666"/><path class="st4" d="m296.17 285.58h36c2.2 0 4 1.8 4 4v34c0 2.2-1.8 4-4 4h-36c-2.2 0-4-1.8-4-4v-34c0-2.2 1.8-4 4-4z" fill="#cc0000"/><path class="st4" d="m350.17 285.58h36c2.2 0 4 1.8 4 4v34c0 2.2-1.8 4-4 4h-36c-2.2 0-4-1.8-4-4v-34c0-2.2 1.8-4 4-4z" fill="#cc0000"/><path class="st4" d="m404.17 285.58h36c2.2 0 4 1.8 4 4v34c0 2.2-1.8 4-4 4h-36c-2.2 0-4-1.8-4-4v-34c0-2.2 1.8-4 4-4z" fill="#ff6666"/><path class="st4" d="m458.17 285.58h36c2.2 0 4 1.8 4 4v34c0 2.2-1.8 4-4 4h-36c-2.2 0-4-1.8-4-4v-34c0-2.2 1.8-4 4-4z" fill="#66ff66"/><path class="st4" d="m512.17 285.58h36c2.2 0 4 1.8 4 4v34c0 2.2-1.8 4-4 4h-36c-2.2 0-4-1.8-4-4v-34c0-2.2 1.8-4 4-4z" fill="#00cc00"/><path class="st4" d="m566.17 285.58h36c2.2 0 4 1.8 4 4v34c0 2.2-1.8 4-4 4h-36c-2.2 0-4-1.8-4-4v-34c0-2.2 1.8-4 4-4z" fill="#00cc00"/><path class="st4" d="m620.17 285.58h36c2.2 0 4 1.8 4 4v34c0 2.2-1.8 4-4 4h-36c-2.2 0-4-1.8-4-4v-34c0-2.2 1.8-4 4-4z" fill="#00cc00"/><path class="st4" d="m620.17 285.58h36c2.2 0 4 1.8 4 4v34c0 2.2-1.8 4-4 4h-36c-2.2 0-4-1.8-4-4v-34c0-2.2 1.8-4 4-4z" fill="#00cc00"/><path class="st4" d="m620.17 285.58h36c2.2 0 4 1.8 4 4v34c0 2.2-1.8 4-4 4h-36c-2.2 0-4-1.8-4-4v-34c0-2.2 1.8-4 4-4z" fill="#00cc00"/><path class="st4" d="m620.17 285.58h36c2.2 0 4 1.8 4 4v34c0 2.2-1.8 4-4 4h-36c-2.2 0-4-1.8-4-4v-34c0-2.2 1.8-4 4-4z" fill="#66ff66"/><path class="st4" d="m674.17 285.58h36c2.2 0 4 1.8 4 4v34c0 2.2-1.8 4-4 4h-36c-2.2 0-4-1.8-4-4v-34c0-2.2 1.8-4 4-4z" fill="#00cccc"/><path class="st4" d="m674.17 285.58h36c2.2 0 4 1.8 4 4v34c0 2.2-1.8 4-4 4h-36c-2.2 0-4-1.8-4-4v-34c0-2.2 1.8-4 4-4z" fill="#00cccc"/><path class="st4" d="m674.17 285.58h36c2.2 0 4 1.8 4 4v34c0 2.2-1.8 4-4 4h-36c-2.2 0-4-1.8-4-4v-34c0-2.2 1.8-4 4-4z" fill="#00cccc"/><path class="st4" d="m674.17 285.58h36c2.2 0 4 1.8 4 4v34c0 2.2-1.8 4-4 4h-36c-2.2 0-4-1.8-4-4v-34c0-2.2 1.8-4 4-4z" fill="#66ffff"/><path class="st4" d="m728.17 285.58h36c2.2 0 4 1.8 4 4v34c0 2.2-1.8 4-4 4h-36c-2.2 0-4-1.8-4-4v-34c0-2.2 1.8-4 4-4z" fill="#00cccc"/><path class="st4" d="m782.17 285.58h36c2.2 0 4 1.8 4 4v34c0 2.2-1.8 4-4 4h-36c-2.2 0-4-1.8-4-4v-34c0-2.2 1.8-4 4-4z" fill="#00cccc"/><path class="st5" d="m836.17 285.58h103.5c2.2 0 4 1.8 4 4v34c0 2.2-1.8 4-4 4h-103.5c-2.2 0-4-1.8-4-4v-34c0-2.2 1.8-4 4-4z" fill="#66ffff"/><path class="st4" d="m1146.7 285.58h36c2.2 0 4 1.8 4 4v34c0 2.2-1.8 4-4 4h-36c-2.2 0-4-1.8-4-4v-34c0-2.2 1.8-4 4-4z"/><path class="st4" d="m1200.7 285.58h36c2.2 0 4 1.8 4 4v34c0 2.2-1.8 4-4 4h-36c-2.2 0-4-1.8-4-4v-34c0-2.2 1.8-4 4-4z"/><path class="st4" d="m1254.7 285.58h36c2.2 0 4 1.8 4 4v34c0 2.2-1.8 4-4 4h-36c-2.2 0-4-1.8-4-4v-34c0-2.2 1.8-4 4-4z"/><path class="st4" d="m147.67 339.58h103.5c2.2 0 4 1.8 4 4v34c0 2.2-1.8 4-4 4h-103.5c-2.2 0-4-1.8-4-4v-34c0-2.2 1.8-4 4-4z"/><path class="st4" d="m269.17 339.58h36c2.2 0 4 1.8 4 4v34c0 2.2-1.8 4-4 4h-36c-2.2 0-4-1.8-4-4v-34c0-2.2 1.8-4 4-4z" fill="#cc0000"/><path class="st4" d="m323.17 339.58h36c2.2 0 4 1.8 4 4v34c0 2.2-1.8 4-4 4h-36c-2.2 0-4-1.8-4-4v-34c0-2.2 1.8-4 4-4z" fill="#ff6666"/><path class="st4" d="m377.17 339.58h36c2.2 0 4 1.8 4 4v34c0 2.2-1.8 4-4 4h-36c-2.2 0-4-1.8-4-4v-34c0-2.2 1.8-4 4-4z" fill="#ff6666"/><path class="st4" d="m431.17 339.58h36c2.2 0 4 1.8 4 4v34c0 2.2-1.8 4-4 4h-36c-2.2 0-4-1.8-4-4v-34c0-2.2 1.8-4 4-4z" fill="#cc0000"/><path class="st4" d="m485.17 339.58h36c2.2 0 4 1.8 4 4v34c0 2.2-1.8 4-4 4h-36c-2.2 0-4-1.8-4-4v-34c0-2.2 1.8-4 4-4z" fill="#00cc00"/><path class="st4" d="m539.17 339.58h36c2.2 0 4 1.8 4 4v34c0 2.2-1.8 4-4 4h-36c-2.2 0-4-1.8-4-4v-34c0-2.2 1.8-4 4-4z" fill="#66ff66"/><path class="st4" d="m593.17 339.58h36c2.2 0 4 1.8 4 4v34c0 2.2-1.8 4-4 4h-36c-2.2 0-4-1.8-4-4v-34c0-2.2 1.8-4 4-4z" fill="#66ff66"/><path class="st4" d="m647.17 339.58h36c2.2 0 4 1.8 4 4v34c0 2.2-1.8 4-4 4h-36c-2.2 0-4-1.8-4-4v-34c0-2.2 1.8-4 4-4z" fill="#006600"/><path class="st4" d="m647.17 339.58h36c2.2 0 4 1.8 4 4v34c0 2.2-1.8 4-4 4h-36c-2.2 0-4-1.8-4-4v-34c0-2.2 1.8-4 4-4z" fill="#006600"/><path class="st4" d="m647.17 339.58h36c2.2 0 4 1.8 4 4v34c0 2.2-1.8 4-4 4h-36c-2.2 0-4-1.8-4-4v-34c0-2.2 1.8-4 4-4z" fill="#006600"/><path class="st4" d="m647.17 339.58h36c2.2 0 4 1.8 4 4v34c0 2.2-1.8 4-4 4h-36c-2.2 0-4-1.8-4-4v-34c0-2.2 1.8-4 4-4z" fill="#006600"/><path class="st4" d="m647.17 339.58h36c2.2 0 4 1.8 4 4v34c0 2.2-1.8 4-4 4h-36c-2.2 0-4-1.8-4-4v-34c0-2.2 1.8-4 4-4z" fill="#00cc00"/><path class="st4" d="m701.17 339.58h36c2.2 0 4 1.8 4 4v34c0 2.2-1.8 4-4 4h-36c-2.2 0-4-1.8-4-4v-34c0-2.2 1.8-4 4-4z" fill="#006666"/><path class="st4" d="m701.17 339.58h36c2.2 0 4 1.8 4 4v34c0 2.2-1.8 4-4 4h-36c-2.2 0-4-1.8-4-4v-34c0-2.2 1.8-4 4-4z" fill="#006666"/><path class="st4" d="m701.17 339.58h36c2.2 0 4 1.8 4 4v34c0 2.2-1.8 4-4 4h-36c-2.2 0-4-1.8-4-4v-34c0-2.2 1.8-4 4-4z" fill="#006666"/><path class="st4" d="m701.17 339.58h36c2.2 0 4 1.8 4 4v34c0 2.2-1.8 4-4 4h-36c-2.2 0-4-1.8-4-4v-34c0-2.2 1.8-4 4-4z" fill="#006666"/><path class="st4" d="m701.17 339.58h36c2.2 0 4 1.8 4 4v34c0 2.2-1.8 4-4 4h-36c-2.2 0-4-1.8-4-4v-34c0-2.2 1.8-4 4-4z" fill="#00cccc"/><path class="st4" d="m755.17 339.58h36c2.2 0 4 1.8 4 4v34c0 2.2-1.8 4-4 4h-36c-2.2 0-4-1.8-4-4v-34c0-2.2 1.8-4 4-4z" fill="#66ffff"/><path class="st4" d="m809.17 339.58h130.5c2.2 0 4 1.8 4 4v34c0 2.2-1.8 4-4 4h-130.5c-2.2 0-4-1.8-4-4v-34c0-2.2 1.8-4 4-4z" fill="#66ffff"/><path class="st4" d="m1025.2 339.58h36c2.2 0 4 1.8 4 4v34c0 2.2-1.8 4-4 4h-36c-2.2 0-4-1.8-4-4v-34c0-2.2 1.8-4 4-4z"/><path class="st4" d="m1146.7 339.58h36c2.2 0 4 1.8 4 4v34c0 2.2-1.8 4-4 4h-36c-2.2 0-4-1.8-4-4v-34c0-2.2 1.8-4 4-4z"/><path class="st4" d="m1200.7 339.58h36c2.2 0 4 1.8 4 4v34c0 2.2-1.8 4-4 4h-36c-2.2 0-4-1.8-4-4v-34c0-2.2 1.8-4 4-4z"/><path class="st4" d="m1254.7 339.58h36c2.2 0 4 1.8 4 4v34c0 2.2-1.8 4-4 4h-36c-2.2 0-4-1.8-4-4v-34c0-2.2 1.8-4 4-4z"/><path class="st6" d="m1308.7 339.58h36c2.2 0 4 1.8 4 4v88c0 2.2-1.8 4-4 4h-36c-2.2 0-4-1.8-4-4v-88c0-2.2 1.8-4 4-4z"/><path class="st4" d="m147.67 393.58h49.5c2.2 0 4 1.8 4 4v34c0 2.2-1.8 4-4 4h-49.5c-2.2 0-4-1.8-4-4v-34c0-2.2 1.8-4 4-4z"/><path class="st4" d="m215.17 393.58h49.5c2.2 0 4 1.8 4 4v34c0 2.2-1.8 4-4 4h-49.5c-2.2 0-4-1.8-4-4v-34c0-2.2 1.8-4 4-4z"/><path class="st4" d="m282.67 393.58h49.5c2.2 0 4 1.8 4 4v34c0 2.2-1.8 4-4 4h-49.5c-2.2 0-4-1.8-4-4v-34c0-2.2 1.8-4 4-4z"/><path class="st4" d="m350.17 393.58h319.5c2.2 0 4 1.8 4 4v34c0 2.2-1.8 4-4 4h-319.5c-2.2 0-4-1.8-4-4v-34c0-2.2 1.8-4 4-4z"/><path class="st4" d="m687.67 393.58h49.5c2.2 0 4 1.8 4 4v34c0 2.2-1.8 4-4 4h-49.5c-2.2 0-4-1.8-4-4v-34c0-2.2 1.8-4 4-4z"/><path class="st4" d="m755.17 393.58h49.5c2.2 0 4 1.8 4 4v34c0 2.2-1.8 4-4 4h-49.5c-2.2 0-4-1.8-4-4v-34c0-2.2 1.8-4 4-4z"/><path class="st4" d="m822.67 393.58h49.5c2.2 0 4 1.8 4 4v34c0 2.2-1.8 4-4 4h-49.5c-2.2 0-4-1.8-4-4v-34c0-2.2 1.8-4 4-4z"/><path class="st4" d="m890.17 393.58h49.5c2.2 0 4 1.8 4 4v34c0 2.2-1.8 4-4 4h-49.5c-2.2 0-4-1.8-4-4v-34c0-2.2 1.8-4 4-4z"/><path class="st4" d="m971.17 393.58h36c2.2 0 4 1.8 4 4v34c0 2.2-1.8 4-4 4h-36c-2.2 0-4-1.8-4-4v-34c0-2.2 1.8-4 4-4z"/><path class="st4" d="m1025.2 393.58h36c2.2 0 4 1.8 4 4v34c0 2.2-1.8 4-4 4h-36c-2.2 0-4-1.8-4-4v-34c0-2.2 1.8-4 4-4z"/><path class="st4" d="m1079.2 393.58h36c2.2 0 4 1.8 4 4v34c0 2.2-1.8 4-4 4h-36c-2.2 0-4-1.8-4-4v-34c0-2.2 1.8-4 4-4z"/><path class="st4" d="m1146.7 393.58h90c2.2 0 4 1.8 4 4v34c0 2.2-1.8 4-4 4h-90c-2.2 0-4-1.8-4-4v-34c0-2.2 1.8-4 4-4z"/><path class="st4" d="m1254.7 393.58h36c2.2 0 4 1.8 4 4v34c0 2.2-1.8 4-4 4h-36c-2.2 0-4-1.8-4-4v-34c0-2.2 1.8-4 4-4z"/><path class="st5" d="m661.53 517.24h103.5c2.2 0 4 1.8 4 4v34c0 2.2-1.8 4-4 4h-103.5c-2.2 0-4-1.8-4-4v-34c0-2.2 1.8-4 4-4z" fill="#ff6666"/><path class="st5" d="m569.34 557.68h103.5c2.2 0 4 1.8 4 4v34c0 2.2-1.8 4-4 4h-103.5c-2.2 0-4-1.8-4-4v-34c0-2.2 1.8-4 4-4z" fill="#ff6666"/><path class="st2" d="m650.73 549.87h105.5c2.2 0 4 1.8 4 4v38c0 2.2-1.8 4-4 4h-105.5c-2.2 0-4-1.8-4-4v-38c0-2.2 1.8-4 4-4z" fill="#cc0000" stroke="#000000" stroke-width="2"/><path class="st5" d="m314.84 541.61h103.5c2.2 0 4 1.8 4 4v34c0 2.2-1.8 4-4 4h-103.5c-2.2 0-4-1.8-4-4v-34c0-2.2 1.8-4 4-4z" fill="#ff66ff"/><path class="st2" d="m317.65 580.78h105.5c2.2 0 4 1.8 4 4v38c0 2.2-1.8 4-4 4h-105.5c-2.2 0-4-1.8-4-4v-38c0-2.2 1.8-4 4-4z" fill="#cc00cc" stroke="#000000" stroke-width="2"/><path class="st5" d="m150.29 521.81h103.5c2.2 0 4 1.8 4 4v34c0 2.2-1.8 4-4 4h-103.5c-2.2 0-4-1.8-4-4v-34c0-2.2 1.8-4 4-4z" fill="#cc00cc"/><path class="st2" d="m153.11 560.98h105.5c2.2 0 4 1.8 4 4v38c0 2.2-1.8 4-4 4h-105.5c-2.2 0-4-1.8-4-4v-38c0-2.2 1.8-4 4-4z" fill="#cc00cc" stroke="#000000" stroke-width="2"/><path class="st5" d="m594.04 641.51h103.5c2.2 0 4 1.8 4 4v34c0 2.2-1.8 4-4 4h-103.5c-2.2 0-4-1.8-4-4v-34c0-2.2 1.8-4 4-4z" fill="#ffff66"/><path class="st2" d="m596.86 680.69h105.5c2.2 0 4 1.8 4 4v38c0 2.2-1.8 4-4 4h-105.5c-2.2 0-4-1.8-4-4v-38c0-2.2 1.8-4 4-4z" fill="#cccc00" stroke="#000000" stroke-width="2"/><path class="st5" d="m767.12 613.3h103.5c2.2 0 4 1.8 4 4v34c0 2.2-1.8 4-4 4h-103.5c-2.2 0-4-1.8-4-4v-34c0-2.2 1.8-4 4-4z" fill="#66ff66"/><path class="st2" d="m769.93 652.47h105.5c2.2 0 4 1.8 4 4v38c0 2.2-1.8 4-4 4h-105.5c-2.2 0-4-1.8-4-4v-38c0-2.2 1.8-4 4-4z" fill="#00cc00" stroke="#000000" stroke-width="2"/><path class="st5" d="m907.41 483.68h103.5c2.2 0 4 1.8 4 4v34c0 2.2-1.8 4-4 4h-103.5c-2.2 0-4-1.8-4-4v-34c0-2.2 1.8-4 4-4z" fill="#6666ff"/><path class="st2" d="m910.23 522.86h105.5c2.2 0 4 1.8 4 4v38c0 2.2-1.8 4-4 4h-105.5c-2.2 0-4-1.8-4-4v-38c0-2.2 1.8-4 4-4z" fill="#0000cc" stroke="#000000" stroke-width="2"/><path class="st5" d="m377.51 670.49h103.5c2.2 0 4 1.8 4 4v34c0 2.2-1.8 4-4 4h-103.5c-2.2 0-4-1.8-4-4v-34c0-2.2 1.8-4 4-4z" fill="#66ffff"/><path class="st2" d="m380.32 709.66h105.5c2.2 0 4 1.8 4 4v38c0 2.2-1.8 4-4 4h-105.5c-2.2 0-4-1.8-4-4v-38c0-2.2 1.8-4 4-4z" fill="#00cccc" stroke="#000000" stroke-width="2"/><path class="st1" d="m422.76 472.13h38c2.2 0 4 1.8 4 4v38c0 2.2-1.8 4-4 4h-38c-2.2 0-4-1.8-4-4v-38c0-2.2 1.8-4 4-4z" fill="#5c705c" stroke="#000000" stroke-width="2"/><path class="st1" d="m476.76 472.13h38c2.2 0 4 1.8 4 4v38c0 2.2-1.8 4-4 4h-38c-2.2 0-4-1.8-4-4v-38c0-2.2 1.8-4 4-4z" fill="#006600" stroke="#000000" stroke-width="2"/><path class="st4" d="m423.38 454.45h36c2.2 0 4 1.8 4 4v34c0 2.2-1.8 4-4 4h-36c-2.2 0-4-1.8-4-4v-34c0-2.2 1.8-4 4-4z" fill="#abbaab"/><path class="st4" d="m477.76 453.69h36c2.2 0 4 1.8 4 4v34c0 2.2-1.8 4-4 4h-36c-2.2 0-4-1.8-4-4v-34c0-2.2 1.8-4 4-4z" fill="#00cc00"/><path class="st1" d="m537.13 474.37h38c2.2 0 4 1.8 4 4v38c0 2.2-1.8 4-4 4h-38c-2.2 0-4-1.8-4-4v-38c0-2.2 1.8-4 4-4z" fill="#705c5c" stroke="#000000" stroke-width="2"/><path class="st4" d="m537.75 456.69h36c2.2 0 4 1.8 4 4v34c0 2.2-1.8 4-4 4h-36c-2.2 0-4-1.8-4-4v-34c0-2.2 1.8-4 4-4z" fill="#baabab"/><path class="st1" d="m63.621 458.27h51.5c2.2 0 4 1.8 4 4v38c0 2.2-1.8 4-4 4h-51.5c-2.2 0-4-1.8-4-4v-38c0-2.2 1.8-4 4-4z" fill="#cccccc" stroke="#000000" stroke-width="2"/><path class="st4" d="m45.212 446.33h49.5c2.2 0 4 1.8 4 4v34c0 2.2-1.8 4-4 4h-49.5c-2.2 0-4-1.8-4-4v-34c0-2.2 1.8-4 4-4z" fill="#fcfcfc"/><path class="st1" d="m597.11 477.23h38c2.2 0 4 1.8 4 4v38c0 2.2-1.8 4-4 4h-38c-2.2 0-4-1.8-4-4v-38c0-2.2 1.8-4 4-4z" fill="#660000" stroke="#000000" stroke-width="2"/><path class="st4" d="m598.11 458.79h36c2.2 0 4 1.8 4 4v34c0 2.2-1.8 4-4 4h-36c-2.2 0-4-1.8-4-4v-34c0-2.2 1.8-4 4-4z" fill="#cc0000"/><path class="st1" d="m656.53 474.51h38c2.2 0 4 1.8 4 4v38c0 2.2-1.8 4-4 4h-38c-2.2 0-4-1.8-4-4v-38c0-2.2 1.8-4 4-4z" fill="#666600" stroke="#000000" stroke-width="2"/><path class="st4" d="m658.18 457.36h36c2.2 0 4 1.8 4 4v34c0 2.2-1.8 4-4 4h-36c-2.2 0-4-1.8-4-4v-34c0-2.2 1.8-4 4-4z" fill="#cccc00"/><path class="st1" d="m348.78 475.97h38c2.2 0 4 1.8 4 4v38c0 2.2-1.8 4-4 4h-38c-2.2 0-4-1.8-4-4v-38c0-2.2 1.8-4 4-4z" fill="#006666" stroke="#000000" stroke-width="2"/><path class="st4" d="m349.78 457.53h36c2.2 0 4 1.8 4 4v34c0 2.2-1.8 4-4 4h-36c-2.2 0-4-1.8-4-4v-34c0-2.2 1.8-4 4-4z" fill="#00cccc"/><path class="st1" d="m714.27 473.37h38c2.2 0 4 1.8 4 4v38c0 2.2-1.8 4-4 4h-38c-2.2 0-4-1.8-4-4v-38c0-2.2 1.8-4 4-4z" fill="#660066" stroke="#000000" stroke-width="2"/><path class="st4" d="m708.19 455.08h36c2.2 0 4 1.8 4 4v34c0 2.2-1.8 4-4 4h-36c-2.2 0-4-1.8-4-4v-34c0-2.2 1.8-4 4-4z" fill="#cc00cc"/><path class="st1" d="m814.43 468.31h38c2.2 0 4 1.8 4 4v38c0 2.2-1.8 4-4 4h-38c-2.2 0-4-1.8-4-4v-38c0-2.2 1.8-4 4-4z" fill="#000066" stroke="#000000" stroke-width="2"/><path class="st4" d="m808.35 450.02h36c2.2 0 4 1.8 4 4v34c0 2.2-1.8 4-4 4h-36c-2.2 0-4-1.8-4-4v-34c0-2.2 1.8-4 4-4z" fill="#0000cc"/></g><g transform="translate(-8.5 -8.8)"><g transform="matrix(2 0 0 2 -85.348 -261.77)"><path d="m239 207.2c0 3.5-2.2 5-4.8 5h-2.7v-9.9h2.7c2.7-.1 4.8 1.4 4.8 4.9zm-1.5 0c0-2.1-1-3.5-3.3-3.5h-1.2v7h1.2c2.3 0 3.3-1.4 3.3-3.5z"/></g><path d="m352.01 212.97c-1.4 2.4-3.8 3.8-6.8 3.8-5.2 0-8.4-4.2-8.4-10.2 0-6 3.2-10.2 8.4-10.2 3.2 0 5.4 1.4 6.8 3.8l-2.6 1.6c-1-1.6-2-2.4-4.2-2.4-3.4 0-5.4 2.8-5.4 7.2 0 4.4 1.8 7.2 5.4 7.2 2 0 3.4-.8 4.4-2.4z" stroke-width="2"/><g transform="matrix(2 0 0 2 -19.479 -44.393)"><path d="m225 158.2h-6.6v-9.9h6.4v1.4h-4.9v2.5h2.8v1.4h-2.8v3.1h5.1z"/></g><g transform="matrix(2 0 0 2 -31.678 -207.06)"><path d="m225 158.2h-6.6v-9.9h6.4v1.4h-4.9v2.5h2.8v1.4h-2.8v3.1h5.1z"/></g><g transform="matrix(2 0 0 2 -193.56 -369.58)"><path d="m373.8 263.1c0 2-1.2 3-3.4 3h-3.9v-9.9h4.1c1.7 0 2.8.9 2.8 2.6 0 1-.5 1.6-1.3 2 .9.2 1.7 1 1.7 2.3zm-1.8-4.2c0-.7-.4-1.3-1.4-1.3h-2.7v2.6h2.7c1 0 1.4-.6 1.4-1.3zm.4 4.3c0-1-.6-1.6-1.8-1.6h-2.7v3.3h2.7c1.3-.1 1.8-.8 1.8-1.7z"/></g><g transform="matrix(2 0 0 2 -220.74 -315.4)"><path d="m347 208.3c0 2.6-1.6 4-3.8 4-2.6 0-4.2-2.1-4.2-5.1s1.6-5.1 4.2-5.1c1.6 0 2.7.7 3.4 1.9l-1.3.8c-.5-.8-1-1.2-2.1-1.2-1.7 0-2.7 1.4-2.7 3.6s.9 3.6 2.7 3.6c1.6 0 2.3-1.1 2.3-2.2h-1.6v-1.4h3.1z"/></g><g transform="matrix(2 0 0 2 -208.88 -154.1)"><path d="m347 208.3c0 2.6-1.6 4-3.8 4-2.6 0-4.2-2.1-4.2-5.1s1.6-5.1 4.2-5.1c1.6 0 2.7.7 3.4 1.9l-1.3.8c-.5-.8-1-1.2-2.1-1.2-1.7 0-2.7 1.4-2.7 3.6s.9 3.6 2.7 3.6c1.6 0 2.3-1.1 2.3-2.2h-1.6v-1.4h3.1z"/></g><g transform="matrix(2 0 0 2 250.84 -207.39)"><path d="m131.4 212.2h-1.6l-.8-2.4h-4l-.8 2.4h-1.5l3.6-9.9h1.6zm-2.9-3.7-.8-2.3c-.2-.7-.6-1.9-.8-2.3-.1.4-.5 1.6-.7 2.3l-.8 2.3z"/></g><g transform="matrix(2 0 0 2 -139.83 -261.78)"><path d="m292.6 203.7h-4.9v2.6h2.8v1.5h-2.8v4.4h-1.5v-9.9h6.4z"/></g><g transform="translate(108.4 273.56)"><g transform="matrix(1.5152 0 0 1.5152 196.6 -426.97)"><path d="m131.4 212.2h-1.6l-.8-2.4h-4l-.8 2.4h-1.5l3.6-9.9h1.6zm-2.9-3.7-.8-2.3c-.2-.7-.6-1.9-.8-2.3-.1.4-.5 1.6-.7 2.3l-.8 2.3z"/></g><g transform="matrix(1.4706 0 0 1.4706 -129.01 -433.42)"><path d="m347 208.3c0 2.6-1.6 4-3.8 4-2.6 0-4.2-2.1-4.2-5.1s1.6-5.1 4.2-5.1c1.6 0 2.7.7 3.4 1.9l-1.3.8c-.5-.8-1-1.2-2.1-1.2-1.7 0-2.7 1.4-2.7 3.6s.9 3.6 2.7 3.6c1.6 0 2.3-1.1 2.3-2.2h-1.6v-1.4h3.1z"/></g><g transform="translate(52.642 -.49316)" stroke-width=".73529" aria-label="♭"><path d="m342.95-119.74h.30159l.0335.0402v6.4406h.0201q1.1393-1.5884 2.1111-1.5884 1.5214.0201 1.6554 1.7425-.19436 2.8484-4.1418 3.4381l-.0201-.0201v-10.013zm.3351 7.198v2.3792q2.8014-.6635 2.8014-2.7076.0871-1.1527-.99189-1.2131-.79754 0-1.8095 1.5415z"/></g><path d="m388.67-126.2h-1.2879v1.7424h-1.0606v-1.7424h-1.7424v1.7424h-1.0606v-1.7424h-1.2879v-.98485h1.2879v-2.0455h-1.2879v-1.0606h1.2879v-1.7424h1.0606v1.7424h1.7424v-1.7424h1.0606v1.7424h1.2879v.98486h-1.2879v2.0455h1.2879zm-2.3485-.98485v-2.0455h-1.7424v2.0455z" stroke-width=".75758"/></g><g transform="translate(-21.755 281.98)"><g transform="matrix(1.5144 0 0 1.5144 52.41 -397.01)"><path d="m239 207.2c0 3.5-2.2 5-4.8 5h-2.7v-9.9h2.7c2.7-.1 4.8 1.4 4.8 4.9zm-1.5 0c0-2.1-1-3.5-3.3-3.5h-1.2v7h1.2c2.3 0 3.3-1.4 3.3-3.5z"/></g><g transform="matrix(1.4955 0 0 1.4955 91.626 -295.45)"><path d="m225 158.2h-6.6v-9.9h6.4v1.4h-4.9v2.5h2.8v1.4h-2.8v3.1h5.1z"/></g><g transform="translate(86.889 46.016)" stroke-width=".73529" aria-label="♭"><path d="m342.95-119.74h.30159l.0335.0402v6.4406h.0201q1.1393-1.5884 2.1111-1.5884 1.5214.0201 1.6554 1.7425-.19436 2.8484-4.1418 3.4381l-.0201-.0201v-10.013zm.3351 7.198v2.3792q2.8014-.6635 2.8014-2.7076.0871-1.1527-.99189-1.2131-.79754 0-1.8095 1.5415z"/></g><path d="m421.92-81.011h-1.2879v1.7424h-1.0606v-1.7424h-1.7424v1.7424h-1.0606v-1.7424h-1.2879v-.98485h1.2879v-2.0455h-1.2879v-1.0606h1.2879v-1.7424h1.0606v1.7424h1.7424v-1.7424h1.0606v1.7424h1.2879v.98486h-1.2879v2.0455h1.2879zm-2.3485-.98485v-2.0455h-1.7424v2.0455z" stroke-width=".75758"/></g><g transform="translate(120.61 325.94)"><path d="m331.21-126.31h-1.2879v1.7424h-1.0606v-1.7424h-1.7424v1.7424h-1.0606v-1.7424h-1.2879v-.98485h1.2879v-2.0455h-1.2879v-1.0606h1.2879v-1.7424h1.0606v1.7424h1.7424v-1.7424h1.0606v1.7424h1.2879v.98486h-1.2879v2.0455h1.2879zm-2.3485-.98485v-2.0455h-1.7424v2.0455z" stroke-width=".75758"/><g transform="matrix(1.5152 0 0 1.5152 -117.12 -442.84)"><path d="m292.6 203.7h-4.9v2.6h2.8v1.5h-2.8v4.4h-1.5v-9.9h6.4z"/></g><g transform="matrix(1.4706 0 0 1.4706 -169.28 -417.6)"><path d="m347 208.3c0 2.6-1.6 4-3.8 4-2.6 0-4.2-2.1-4.2-5.1s1.6-5.1 4.2-5.1c1.6 0 2.7.7 3.4 1.9l-1.3.8c-.5-.8-1-1.2-2.1-1.2-1.7 0-2.7 1.4-2.7 3.6s.9 3.6 2.7 3.6c1.6 0 2.3-1.1 2.3-2.2h-1.6v-1.4h3.1z"/></g><g stroke-width=".73529" aria-label="♭"><path d="m342.95-119.74h.30159l.0335.0402v6.4406h.0201q1.1393-1.5884 2.1111-1.5884 1.5214.0201 1.6554 1.7425-.19436 2.8484-4.1418 3.4381l-.0201-.0201v-10.013zm.3351 7.198v2.3792q2.8014-.6635 2.8014-2.7076.0871-1.1527-.99189-1.2131-.79754 0-1.8095 1.5415z"/></g></g><g transform="translate(7.636 336.36)"><g transform="matrix(1.4706 0 0 1.4706 -31.451 -467.42)"><path d="m265.8 264.4c-.7 1.2-1.9 1.9-3.4 1.9-2.6 0-4.2-2.1-4.2-5.1s1.6-5.1 4.2-5.1c1.6 0 2.7.7 3.4 1.9l-1.3.8c-.5-.8-1-1.2-2.1-1.2-1.7 0-2.7 1.4-2.7 3.6s.9 3.6 2.7 3.6c1 0 1.7-.4 2.2-1.2z"/></g><g transform="matrix(1.5098 0 0 1.5098 14.435 -380.19)"><path d="m239 207.2c0 3.5-2.2 5-4.8 5h-2.7v-9.9h2.7c2.7-.1 4.8 1.4 4.8 4.9zm-1.5 0c0-2.1-1-3.5-3.3-3.5h-1.2v7h1.2c2.3 0 3.3-1.4 3.3-3.5z"/></g><g transform="translate(33.805 45.221)" stroke-width=".73529" aria-label="♭"><path d="m342.95-119.74h.30159l.0335.0402v6.4406h.0201q1.1393-1.5884 2.1111-1.5884 1.5214.0201 1.6554 1.7425-.19436 2.8484-4.1418 3.4381l-.0201-.0201v-10.013zm.3351 7.198v2.3792q2.8014-.6635 2.8014-2.7076.0871-1.1527-.99189-1.2131-.79754 0-1.8095 1.5415z"/></g><path d="m366.38-81.331h-1.2879v1.7424h-1.0606v-1.7424h-1.7424v1.7424h-1.0606v-1.7424h-1.2879v-.98485h1.2879v-2.0455h-1.2879v-1.0606h1.2879v-1.7424h1.0606v1.7424h1.7424v-1.7424h1.0606v1.7424h1.2879v.98486h-1.2879v2.0455h1.2879zm-2.3485-.98485v-2.0455h-1.7424v2.0455z" stroke-width=".75758"/></g><g transform="translate(-6.8983 173.98)"><g transform="matrix(1.4706 0 0 1.4706 -31.451 -467.42)"><path d="m265.8 264.4c-.7 1.2-1.9 1.9-3.4 1.9-2.6 0-4.2-2.1-4.2-5.1s1.6-5.1 4.2-5.1c1.6 0 2.7.7 3.4 1.9l-1.3.8c-.5-.8-1-1.2-2.1-1.2-1.7 0-2.7 1.4-2.7 3.6s.9 3.6 2.7 3.6c1 0 1.7-.4 2.2-1.2z"/></g><g transform="matrix(1.5098 0 0 1.5098 14.435 -380.19)"><path d="m239 207.2c0 3.5-2.2 5-4.8 5h-2.7v-9.9h2.7c2.7-.1 4.8 1.4 4.8 4.9zm-1.5 0c0-2.1-1-3.5-3.3-3.5h-1.2v7h1.2c2.3 0 3.3-1.4 3.3-3.5z"/></g><g transform="translate(33.805 45.221)" stroke-width=".73529" aria-label="♭"><path d="m342.95-119.74h.30159l.0335.0402v6.4406h.0201q1.1393-1.5884 2.1111-1.5884 1.5214.0201 1.6554 1.7425-.19436 2.8484-4.1418 3.4381l-.0201-.0201v-10.013zm.3351 7.198v2.3792q2.8014-.6635 2.8014-2.7076.0871-1.1527-.99189-1.2131-.79754 0-1.8095 1.5415z"/></g><path d="m366.38-81.331h-1.2879v1.7424h-1.0606v-1.7424h-1.7424v1.7424h-1.0606v-1.7424h-1.2879v-.98485h1.2879v-2.0455h-1.2879v-1.0606h1.2879v-1.7424h1.0606v1.7424h1.7424v-1.7424h1.0606v1.7424h1.2879v.98486h-1.2879v2.0455h1.2879zm-2.3485-.98485v-2.0455h-1.7424v2.0455z" stroke-width=".75758"/></g><g transform="translate(79.748 219.99)"><g transform="matrix(1.5152 0 0 1.5152 -115.9 -507.91)"><path d="m373.8 263.1c0 2-1.2 3-3.4 3h-3.9v-9.9h4.1c1.7 0 2.8.9 2.8 2.6 0 1-.5 1.6-1.3 2 .9.2 1.7 1 1.7 2.3zm-1.8-4.2c0-.7-.4-1.3-1.4-1.3h-2.7v2.6h2.7c1 0 1.4-.6 1.4-1.3zm.4 4.3c0-1-.6-1.6-1.8-1.6h-2.7v3.3h2.7c1.3-.1 1.8-.8 1.8-1.7z"/></g><g transform="matrix(1.5152 0 0 1.5152 237.05 -443.08)"><path d="m131.4 212.2h-1.6l-.8-2.4h-4l-.8 2.4h-1.5l3.6-9.9h1.6zm-2.9-3.7-.8-2.3c-.2-.7-.6-1.9-.8-2.3-.1.4-.5 1.6-.7 2.3l-.8 2.3z"/></g><g transform="translate(109.2 .64233)" stroke-width=".73529" aria-label="♭"><path d="m342.95-119.74h.30159l.0335.0402v6.4406h.0201q1.1393-1.5884 2.1111-1.5884 1.5214.0201 1.6554 1.7425-.19436 2.8484-4.1418 3.4381l-.0201-.0201v-10.013zm.3351 7.198v2.3792q2.8014-.6635 2.8014-2.7076.0871-1.1527-.99189-1.2131-.79754 0-1.8095 1.5415z"/></g><path d="m441.51-127.49h-1.2879v1.7424h-1.0606v-1.7424h-1.7424v1.7424h-1.0606v-1.7424h-1.2879v-.98485h1.2879v-2.0455h-1.2879v-1.0606h1.2879v-1.7424h1.0606v1.7424h1.7424v-1.7424h1.0606v1.7424h1.2879v.98486h-1.2879v2.0455h1.2879zm-2.3485-.98485v-2.0455h-1.7424v2.0455z" stroke-width=".75758"/></g><g transform="matrix(2 0 0 2 -625.88 -369.35)"><path d="m373.8 263.1c0 2-1.2 3-3.4 3h-3.9v-9.9h4.1c1.7 0 2.8.9 2.8 2.6 0 1-.5 1.6-1.3 2 .9.2 1.7 1 1.7 2.3zm-1.8-4.2c0-.7-.4-1.3-1.4-1.3h-2.7v2.6h2.7c1 0 1.4-.6 1.4-1.3zm.4 4.3c0-1-.6-1.6-1.8-1.6h-2.7v3.3h2.7c1.3-.1 1.8-.8 1.8-1.7z"/></g><g transform="translate(-352.58 220.23)"><g transform="matrix(1.5152 0 0 1.5152 -115.9 -507.91)"><path d="m373.8 263.1c0 2-1.2 3-3.4 3h-3.9v-9.9h4.1c1.7 0 2.8.9 2.8 2.6 0 1-.5 1.6-1.3 2 .9.2 1.7 1 1.7 2.3zm-1.8-4.2c0-.7-.4-1.3-1.4-1.3h-2.7v2.6h2.7c1 0 1.4-.6 1.4-1.3zm.4 4.3c0-1-.6-1.6-1.8-1.6h-2.7v3.3h2.7c1.3-.1 1.8-.8 1.8-1.7z"/></g><g transform="matrix(1.5152 0 0 1.5152 237.05 -443.08)"><path d="m131.4 212.2h-1.6l-.8-2.4h-4l-.8 2.4h-1.5l3.6-9.9h1.6zm-2.9-3.7-.8-2.3c-.2-.7-.6-1.9-.8-2.3-.1.4-.5 1.6-.7 2.3l-.8 2.3z"/></g><g transform="translate(109.2 .64233)" stroke-width=".73529" aria-label="♭"><path d="m342.95-119.74h.30159l.0335.0402v6.4406h.0201q1.1393-1.5884 2.1111-1.5884 1.5214.0201 1.6554 1.7425-.19436 2.8484-4.1418 3.4381l-.0201-.0201v-10.013zm.3351 7.198v2.3792q2.8014-.6635 2.8014-2.7076.0871-1.1527-.99189-1.2131-.79754 0-1.8095 1.5415z"/></g><path d="m441.51-127.49h-1.2879v1.7424h-1.0606v-1.7424h-1.7424v1.7424h-1.0606v-1.7424h-1.2879v-.98485h1.2879v-2.0455h-1.2879v-1.0606h1.2879v-1.7424h1.0606v1.7424h1.7424v-1.7424h1.0606v1.7424h1.2879v.98486h-1.2879v2.0455h1.2879zm-2.3485-.98485v-2.0455h-1.7424v2.0455z" stroke-width=".75758"/></g><g transform="translate(93.218 381.47)"><g transform="matrix(1.5152 0 0 1.5152 -115.9 -507.91)"><path d="m373.8 263.1c0 2-1.2 3-3.4 3h-3.9v-9.9h4.1c1.7 0 2.8.9 2.8 2.6 0 1-.5 1.6-1.3 2 .9.2 1.7 1 1.7 2.3zm-1.8-4.2c0-.7-.4-1.3-1.4-1.3h-2.7v2.6h2.7c1 0 1.4-.6 1.4-1.3zm.4 4.3c0-1-.6-1.6-1.8-1.6h-2.7v3.3h2.7c1.3-.1 1.8-.8 1.8-1.7z"/></g><g transform="matrix(1.5152 0 0 1.5152 237.05 -443.08)"><path d="m131.4 212.2h-1.6l-.8-2.4h-4l-.8 2.4h-1.5l3.6-9.9h1.6zm-2.9-3.7-.8-2.3c-.2-.7-.6-1.9-.8-2.3-.1.4-.5 1.6-.7 2.3l-.8 2.3z"/></g><g transform="translate(109.2 .64233)" stroke-width=".73529" aria-label="♭"><path d="m342.95-119.74h.30159l.0335.0402v6.4406h.0201q1.1393-1.5884 2.1111-1.5884 1.5214.0201 1.6554 1.7425-.19436 2.8484-4.1418 3.4381l-.0201-.0201v-10.013zm.3351 7.198v2.3792q2.8014-.6635 2.8014-2.7076.0871-1.1527-.99189-1.2131-.79754 0-1.8095 1.5415z"/></g><path d="m441.51-127.49h-1.2879v1.7424h-1.0606v-1.7424h-1.7424v1.7424h-1.0606v-1.7424h-1.2879v-.98485h1.2879v-2.0455h-1.2879v-1.0606h1.2879v-1.7424h1.0606v1.7424h1.7424v-1.7424h1.0606v1.7424h1.2879v.98486h-1.2879v2.0455h1.2879zm-2.3485-.98485v-2.0455h-1.7424v2.0455z" stroke-width=".75758"/></g><g transform="translate(-92.496 5.781)"><g transform="matrix(2 0 0 2 -208.18 -266.89)"><path d="m239 207.2c0 3.5-2.2 5-4.8 5h-2.7v-9.9h2.7c2.7-.1 4.8 1.4 4.8 4.9zm-1.5 0c0-2.1-1-3.5-3.3-3.5h-1.2v7h1.2c2.3 0 3.3-1.4 3.3-3.5z"/></g><path d="m226.94 207.85c-1.4 2.4-3.8 3.8-6.8 3.8-5.2 0-8.4-4.2-8.4-10.2 0-6 3.2-10.2 8.4-10.2 3.2 0 5.4 1.4 6.8 3.8l-2.6 1.6c-1-1.6-2-2.4-4.2-2.4-3.4 0-5.4 2.8-5.4 7.2 0 4.4 1.8 7.2 5.4 7.2 2 0 3.4-.8 4.4-2.4z" stroke-width="2"/><g transform="matrix(2 0 0 2 -142.31 -49.51)"><path d="m225 158.2h-6.6v-9.9h6.4v1.4h-4.9v2.5h2.8v1.4h-2.8v3.1h5.1z"/></g><g transform="matrix(2 0 0 2 -154.51 -212.18)"><path d="m225 158.2h-6.6v-9.9h6.4v1.4h-4.9v2.5h2.8v1.4h-2.8v3.1h5.1z"/></g><g transform="matrix(2 0 0 2 -316.39 -374.69)"><path d="m373.8 263.1c0 2-1.2 3-3.4 3h-3.9v-9.9h4.1c1.7 0 2.8.9 2.8 2.6 0 1-.5 1.6-1.3 2 .9.2 1.7 1 1.7 2.3zm-1.8-4.2c0-.7-.4-1.3-1.4-1.3h-2.7v2.6h2.7c1 0 1.4-.6 1.4-1.3zm.4 4.3c0-1-.6-1.6-1.8-1.6h-2.7v3.3h2.7c1.3-.1 1.8-.8 1.8-1.7z"/></g><g transform="matrix(2 0 0 2 -343.57 -320.52)"><path d="m347 208.3c0 2.6-1.6 4-3.8 4-2.6 0-4.2-2.1-4.2-5.1s1.6-5.1 4.2-5.1c1.6 0 2.7.7 3.4 1.9l-1.3.8c-.5-.8-1-1.2-2.1-1.2-1.7 0-2.7 1.4-2.7 3.6s.9 3.6 2.7 3.6c1.6 0 2.3-1.1 2.3-2.2h-1.6v-1.4h3.1z"/></g><g transform="matrix(2 0 0 2 -331.71 -159.21)"><path d="m347 208.3c0 2.6-1.6 4-3.8 4-2.6 0-4.2-2.1-4.2-5.1s1.6-5.1 4.2-5.1c1.6 0 2.7.7 3.4 1.9l-1.3.8c-.5-.8-1-1.2-2.1-1.2-1.7 0-2.7 1.4-2.7 3.6s.9 3.6 2.7 3.6c1.6 0 2.3-1.1 2.3-2.2h-1.6v-1.4h3.1z"/></g><g transform="matrix(2 0 0 2 128.01 -212.5)"><path d="m131.4 212.2h-1.6l-.8-2.4h-4l-.8 2.4h-1.5l3.6-9.9h1.6zm-2.9-3.7-.8-2.3c-.2-.7-.6-1.9-.8-2.3-.1.4-.5 1.6-.7 2.3l-.8 2.3z"/></g><g transform="matrix(2 0 0 2 -262.66 -266.89)"><path d="m292.6 203.7h-4.9v2.6h2.8v1.5h-2.8v4.4h-1.5v-9.9h6.4z"/></g><g transform="translate(-14.429 268.44)"><g transform="matrix(1.5152 0 0 1.5152 196.6 -426.97)"><path d="m131.4 212.2h-1.6l-.8-2.4h-4l-.8 2.4h-1.5l3.6-9.9h1.6zm-2.9-3.7-.8-2.3c-.2-.7-.6-1.9-.8-2.3-.1.4-.5 1.6-.7 2.3l-.8 2.3z"/></g><g transform="matrix(1.4706 0 0 1.4706 -129.01 -433.42)"><path d="m347 208.3c0 2.6-1.6 4-3.8 4-2.6 0-4.2-2.1-4.2-5.1s1.6-5.1 4.2-5.1c1.6 0 2.7.7 3.4 1.9l-1.3.8c-.5-.8-1-1.2-2.1-1.2-1.7 0-2.7 1.4-2.7 3.6s.9 3.6 2.7 3.6c1.6 0 2.3-1.1 2.3-2.2h-1.6v-1.4h3.1z"/></g><g transform="translate(52.642 -.49316)" stroke-width=".73529" aria-label="♭"><path d="m342.95-119.74h.30159l.0335.0402v6.4406h.0201q1.1393-1.5884 2.1111-1.5884 1.5214.0201 1.6554 1.7425-.19436 2.8484-4.1418 3.4381l-.0201-.0201v-10.013zm.3351 7.198v2.3792q2.8014-.6635 2.8014-2.7076.0871-1.1527-.99189-1.2131-.79754 0-1.8095 1.5415z"/></g><path d="m388.67-126.2h-1.2879v1.7424h-1.0606v-1.7424h-1.7424v1.7424h-1.0606v-1.7424h-1.2879v-.98485h1.2879v-2.0455h-1.2879v-1.0606h1.2879v-1.7424h1.0606v1.7424h1.7424v-1.7424h1.0606v1.7424h1.2879v.98486h-1.2879v2.0455h1.2879zm-2.3485-.98485v-2.0455h-1.7424v2.0455z" stroke-width=".75758"/></g><g transform="translate(-144.58 276.86)"><g transform="matrix(1.5144 0 0 1.5144 52.41 -397.01)"><path d="m239 207.2c0 3.5-2.2 5-4.8 5h-2.7v-9.9h2.7c2.7-.1 4.8 1.4 4.8 4.9zm-1.5 0c0-2.1-1-3.5-3.3-3.5h-1.2v7h1.2c2.3 0 3.3-1.4 3.3-3.5z"/></g><g transform="matrix(1.4955 0 0 1.4955 91.626 -295.45)"><path d="m225 158.2h-6.6v-9.9h6.4v1.4h-4.9v2.5h2.8v1.4h-2.8v3.1h5.1z"/></g><g transform="translate(86.889 46.016)" stroke-width=".73529" aria-label="♭"><path d="m342.95-119.74h.30159l.0335.0402v6.4406h.0201q1.1393-1.5884 2.1111-1.5884 1.5214.0201 1.6554 1.7425-.19436 2.8484-4.1418 3.4381l-.0201-.0201v-10.013zm.3351 7.198v2.3792q2.8014-.6635 2.8014-2.7076.0871-1.1527-.99189-1.2131-.79754 0-1.8095 1.5415z"/></g><path d="m421.92-81.011h-1.2879v1.7424h-1.0606v-1.7424h-1.7424v1.7424h-1.0606v-1.7424h-1.2879v-.98485h1.2879v-2.0455h-1.2879v-1.0606h1.2879v-1.7424h1.0606v1.7424h1.7424v-1.7424h1.0606v1.7424h1.2879v.98486h-1.2879v2.0455h1.2879zm-2.3485-.98485v-2.0455h-1.7424v2.0455z" stroke-width=".75758"/></g><g transform="translate(-2.2203 320.83)"><path d="m331.21-126.31h-1.2879v1.7424h-1.0606v-1.7424h-1.7424v1.7424h-1.0606v-1.7424h-1.2879v-.98485h1.2879v-2.0455h-1.2879v-1.0606h1.2879v-1.7424h1.0606v1.7424h1.7424v-1.7424h1.0606v1.7424h1.2879v.98486h-1.2879v2.0455h1.2879zm-2.3485-.98485v-2.0455h-1.7424v2.0455z" stroke-width=".75758"/><g transform="matrix(1.5152 0 0 1.5152 -117.12 -442.84)"><path d="m292.6 203.7h-4.9v2.6h2.8v1.5h-2.8v4.4h-1.5v-9.9h6.4z"/></g><g transform="matrix(1.4706 0 0 1.4706 -169.28 -417.6)"><path d="m347 208.3c0 2.6-1.6 4-3.8 4-2.6 0-4.2-2.1-4.2-5.1s1.6-5.1 4.2-5.1c1.6 0 2.7.7 3.4 1.9l-1.3.8c-.5-.8-1-1.2-2.1-1.2-1.7 0-2.7 1.4-2.7 3.6s.9 3.6 2.7 3.6c1.6 0 2.3-1.1 2.3-2.2h-1.6v-1.4h3.1z"/></g><g stroke-width=".73529" aria-label="♭"><path d="m342.95-119.74h.30159l.0335.0402v6.4406h.0201q1.1393-1.5884 2.1111-1.5884 1.5214.0201 1.6554 1.7425-.19436 2.8484-4.1418 3.4381l-.0201-.0201v-10.013zm.3351 7.198v2.3792q2.8014-.6635 2.8014-2.7076.0871-1.1527-.99189-1.2131-.79754 0-1.8095 1.5415z"/></g></g><g transform="translate(-115.19 331.24)"><g transform="matrix(1.4706 0 0 1.4706 -31.451 -467.42)"><path d="m265.8 264.4c-.7 1.2-1.9 1.9-3.4 1.9-2.6 0-4.2-2.1-4.2-5.1s1.6-5.1 4.2-5.1c1.6 0 2.7.7 3.4 1.9l-1.3.8c-.5-.8-1-1.2-2.1-1.2-1.7 0-2.7 1.4-2.7 3.6s.9 3.6 2.7 3.6c1 0 1.7-.4 2.2-1.2z"/></g><g transform="matrix(1.5098 0 0 1.5098 14.435 -380.19)"><path d="m239 207.2c0 3.5-2.2 5-4.8 5h-2.7v-9.9h2.7c2.7-.1 4.8 1.4 4.8 4.9zm-1.5 0c0-2.1-1-3.5-3.3-3.5h-1.2v7h1.2c2.3 0 3.3-1.4 3.3-3.5z"/></g><g transform="translate(33.805 45.221)" stroke-width=".73529" aria-label="♭"><path d="m342.95-119.74h.30159l.0335.0402v6.4406h.0201q1.1393-1.5884 2.1111-1.5884 1.5214.0201 1.6554 1.7425-.19436 2.8484-4.1418 3.4381l-.0201-.0201v-10.013zm.3351 7.198v2.3792q2.8014-.6635 2.8014-2.7076.0871-1.1527-.99189-1.2131-.79754 0-1.8095 1.5415z"/></g><path d="m366.38-81.331h-1.2879v1.7424h-1.0606v-1.7424h-1.7424v1.7424h-1.0606v-1.7424h-1.2879v-.98485h1.2879v-2.0455h-1.2879v-1.0606h1.2879v-1.7424h1.0606v1.7424h1.7424v-1.7424h1.0606v1.7424h1.2879v.98486h-1.2879v2.0455h1.2879zm-2.3485-.98485v-2.0455h-1.7424v2.0455z" stroke-width=".75758"/></g><g transform="translate(-129.73 168.87)"><g transform="matrix(1.4706 0 0 1.4706 -31.451 -467.42)"><path d="m265.8 264.4c-.7 1.2-1.9 1.9-3.4 1.9-2.6 0-4.2-2.1-4.2-5.1s1.6-5.1 4.2-5.1c1.6 0 2.7.7 3.4 1.9l-1.3.8c-.5-.8-1-1.2-2.1-1.2-1.7 0-2.7 1.4-2.7 3.6s.9 3.6 2.7 3.6c1 0 1.7-.4 2.2-1.2z"/></g><g transform="matrix(1.5098 0 0 1.5098 14.435 -380.19)"><path d="m239 207.2c0 3.5-2.2 5-4.8 5h-2.7v-9.9h2.7c2.7-.1 4.8 1.4 4.8 4.9zm-1.5 0c0-2.1-1-3.5-3.3-3.5h-1.2v7h1.2c2.3 0 3.3-1.4 3.3-3.5z"/></g><g transform="translate(33.805 45.221)" stroke-width=".73529" aria-label="♭"><path d="m342.95-119.74h.30159l.0335.0402v6.4406h.0201q1.1393-1.5884 2.1111-1.5884 1.5214.0201 1.6554 1.7425-.19436 2.8484-4.1418 3.4381l-.0201-.0201v-10.013zm.3351 7.198v2.3792q2.8014-.6635 2.8014-2.7076.0871-1.1527-.99189-1.2131-.79754 0-1.8095 1.5415z"/></g><path d="m366.38-81.331h-1.2879v1.7424h-1.0606v-1.7424h-1.7424v1.7424h-1.0606v-1.7424h-1.2879v-.98485h1.2879v-2.0455h-1.2879v-1.0606h1.2879v-1.7424h1.0606v1.7424h1.7424v-1.7424h1.0606v1.7424h1.2879v.98486h-1.2879v2.0455h1.2879zm-2.3485-.98485v-2.0455h-1.7424v2.0455z" stroke-width=".75758"/></g><g transform="translate(-43.081 214.88)"><g transform="matrix(1.5152 0 0 1.5152 -115.9 -507.91)"><path d="m373.8 263.1c0 2-1.2 3-3.4 3h-3.9v-9.9h4.1c1.7 0 2.8.9 2.8 2.6 0 1-.5 1.6-1.3 2 .9.2 1.7 1 1.7 2.3zm-1.8-4.2c0-.7-.4-1.3-1.4-1.3h-2.7v2.6h2.7c1 0 1.4-.6 1.4-1.3zm.4 4.3c0-1-.6-1.6-1.8-1.6h-2.7v3.3h2.7c1.3-.1 1.8-.8 1.8-1.7z"/></g><g transform="matrix(1.5152 0 0 1.5152 237.05 -443.08)"><path d="m131.4 212.2h-1.6l-.8-2.4h-4l-.8 2.4h-1.5l3.6-9.9h1.6zm-2.9-3.7-.8-2.3c-.2-.7-.6-1.9-.8-2.3-.1.4-.5 1.6-.7 2.3l-.8 2.3z"/></g><g transform="translate(109.2 .64233)" stroke-width=".73529" aria-label="♭"><path d="m342.95-119.74h.30159l.0335.0402v6.4406h.0201q1.1393-1.5884 2.1111-1.5884 1.5214.0201 1.6554 1.7425-.19436 2.8484-4.1418 3.4381l-.0201-.0201v-10.013zm.3351 7.198v2.3792q2.8014-.6635 2.8014-2.7076.0871-1.1527-.99189-1.2131-.79754 0-1.8095 1.5415z"/></g><path d="m441.51-127.49h-1.2879v1.7424h-1.0606v-1.7424h-1.7424v1.7424h-1.0606v-1.7424h-1.2879v-.98485h1.2879v-2.0455h-1.2879v-1.0606h1.2879v-1.7424h1.0606v1.7424h1.7424v-1.7424h1.0606v1.7424h1.2879v.98486h-1.2879v2.0455h1.2879zm-2.3485-.98485v-2.0455h-1.7424v2.0455z" stroke-width=".75758"/></g><g transform="translate(-29.611 376.35)"><g transform="matrix(1.5152 0 0 1.5152 -115.9 -507.91)"><path d="m373.8 263.1c0 2-1.2 3-3.4 3h-3.9v-9.9h4.1c1.7 0 2.8.9 2.8 2.6 0 1-.5 1.6-1.3 2 .9.2 1.7 1 1.7 2.3zm-1.8-4.2c0-.7-.4-1.3-1.4-1.3h-2.7v2.6h2.7c1 0 1.4-.6 1.4-1.3zm.4 4.3c0-1-.6-1.6-1.8-1.6h-2.7v3.3h2.7c1.3-.1 1.8-.8 1.8-1.7z"/></g><g transform="matrix(1.5152 0 0 1.5152 237.05 -443.08)"><path d="m131.4 212.2h-1.6l-.8-2.4h-4l-.8 2.4h-1.5l3.6-9.9h1.6zm-2.9-3.7-.8-2.3c-.2-.7-.6-1.9-.8-2.3-.1.4-.5 1.6-.7 2.3l-.8 2.3z"/></g><g transform="translate(109.2 .64233)" stroke-width=".73529" aria-label="♭"><path d="m342.95-119.74h.30159l.0335.0402v6.4406h.0201q1.1393-1.5884 2.1111-1.5884 1.5214.0201 1.6554 1.7425-.19436 2.8484-4.1418 3.4381l-.0201-.0201v-10.013zm.3351 7.198v2.3792q2.8014-.6635 2.8014-2.7076.0871-1.1527-.99189-1.2131-.79754 0-1.8095 1.5415z"/></g><path d="m441.51-127.49h-1.2879v1.7424h-1.0606v-1.7424h-1.7424v1.7424h-1.0606v-1.7424h-1.2879v-.98485h1.2879v-2.0455h-1.2879v-1.0606h1.2879v-1.7424h1.0606v1.7424h1.7424v-1.7424h1.0606v1.7424h1.2879v.98486h-1.2879v2.0455h1.2879zm-2.3485-.98485v-2.0455h-1.7424v2.0455z" stroke-width=".75758"/></g></g><g transform="translate(7.9821 5.7007)"><g transform="matrix(2 0 0 2 122.99 -267)"><path d="m239 207.2c0 3.5-2.2 5-4.8 5h-2.7v-9.9h2.7c2.7-.1 4.8 1.4 4.8 4.9zm-1.5 0c0-2.1-1-3.5-3.3-3.5h-1.2v7h1.2c2.3 0 3.3-1.4 3.3-3.5z"/></g><path d="m560.36 207.74c-1.4 2.4-3.8 3.8-6.8 3.8-5.2 0-8.4-4.2-8.4-10.2 0-6 3.2-10.2 8.4-10.2 3.2 0 5.4 1.4 6.8 3.8l-2.6 1.6c-1-1.6-2-2.4-4.2-2.4-3.4 0-5.4 2.8-5.4 7.2 0 4.4 1.8 7.2 5.4 7.2 2 0 3.4-.8 4.4-2.4z" stroke-width="2"/><g transform="matrix(2 0 0 2 188.86 -49.623)"><path d="m225 158.2h-6.6v-9.9h6.4v1.4h-4.9v2.5h2.8v1.4h-2.8v3.1h5.1z"/></g><g transform="matrix(2 0 0 2 176.66 -212.29)"><path d="m225 158.2h-6.6v-9.9h6.4v1.4h-4.9v2.5h2.8v1.4h-2.8v3.1h5.1z"/></g><g transform="matrix(2 0 0 2 14.783 -374.81)"><path d="m373.8 263.1c0 2-1.2 3-3.4 3h-3.9v-9.9h4.1c1.7 0 2.8.9 2.8 2.6 0 1-.5 1.6-1.3 2 .9.2 1.7 1 1.7 2.3zm-1.8-4.2c0-.7-.4-1.3-1.4-1.3h-2.7v2.6h2.7c1 0 1.4-.6 1.4-1.3zm.4 4.3c0-1-.6-1.6-1.8-1.6h-2.7v3.3h2.7c1.3-.1 1.8-.8 1.8-1.7z"/></g><g transform="matrix(2 0 0 2 -12.4 -320.63)"><path d="m347 208.3c0 2.6-1.6 4-3.8 4-2.6 0-4.2-2.1-4.2-5.1s1.6-5.1 4.2-5.1c1.6 0 2.7.7 3.4 1.9l-1.3.8c-.5-.8-1-1.2-2.1-1.2-1.7 0-2.7 1.4-2.7 3.6s.9 3.6 2.7 3.6c1.6 0 2.3-1.1 2.3-2.2h-1.6v-1.4h3.1z"/></g><g transform="matrix(2 0 0 2 -.54382 -159.33)"><path d="m347 208.3c0 2.6-1.6 4-3.8 4-2.6 0-4.2-2.1-4.2-5.1s1.6-5.1 4.2-5.1c1.6 0 2.7.7 3.4 1.9l-1.3.8c-.5-.8-1-1.2-2.1-1.2-1.7 0-2.7 1.4-2.7 3.6s.9 3.6 2.7 3.6c1.6 0 2.3-1.1 2.3-2.2h-1.6v-1.4h3.1z"/></g><g transform="matrix(2 0 0 2 459.18 -212.62)"><path d="m131.4 212.2h-1.6l-.8-2.4h-4l-.8 2.4h-1.5l3.6-9.9h1.6zm-2.9-3.7-.8-2.3c-.2-.7-.6-1.9-.8-2.3-.1.4-.5 1.6-.7 2.3l-.8 2.3z"/></g><g transform="matrix(2 0 0 2 68.512 -267.01)"><path d="m292.6 203.7h-4.9v2.6h2.8v1.5h-2.8v4.4h-1.5v-9.9h6.4z"/></g><g transform="translate(316.74 268.33)"><g transform="matrix(1.5152 0 0 1.5152 196.6 -426.97)"><path d="m131.4 212.2h-1.6l-.8-2.4h-4l-.8 2.4h-1.5l3.6-9.9h1.6zm-2.9-3.7-.8-2.3c-.2-.7-.6-1.9-.8-2.3-.1.4-.5 1.6-.7 2.3l-.8 2.3z"/></g><g transform="matrix(1.4706 0 0 1.4706 -129.01 -433.42)"><path d="m347 208.3c0 2.6-1.6 4-3.8 4-2.6 0-4.2-2.1-4.2-5.1s1.6-5.1 4.2-5.1c1.6 0 2.7.7 3.4 1.9l-1.3.8c-.5-.8-1-1.2-2.1-1.2-1.7 0-2.7 1.4-2.7 3.6s.9 3.6 2.7 3.6c1.6 0 2.3-1.1 2.3-2.2h-1.6v-1.4h3.1z"/></g><g transform="translate(52.642 -.49316)" stroke-width=".73529" aria-label="♭"><path d="m342.95-119.74h.30159l.0335.0402v6.4406h.0201q1.1393-1.5884 2.1111-1.5884 1.5214.0201 1.6554 1.7425-.19436 2.8484-4.1418 3.4381l-.0201-.0201v-10.013zm.3351 7.198v2.3792q2.8014-.6635 2.8014-2.7076.0871-1.1527-.99189-1.2131-.79754 0-1.8095 1.5415z"/></g><path d="m388.67-126.2h-1.2879v1.7424h-1.0606v-1.7424h-1.7424v1.7424h-1.0606v-1.7424h-1.2879v-.98485h1.2879v-2.0455h-1.2879v-1.0606h1.2879v-1.7424h1.0606v1.7424h1.7424v-1.7424h1.0606v1.7424h1.2879v.98486h-1.2879v2.0455h1.2879zm-2.3485-.98485v-2.0455h-1.7424v2.0455z" stroke-width=".75758"/></g><g transform="translate(186.59 276.75)"><g transform="matrix(1.5144 0 0 1.5144 52.41 -397.01)"><path d="m239 207.2c0 3.5-2.2 5-4.8 5h-2.7v-9.9h2.7c2.7-.1 4.8 1.4 4.8 4.9zm-1.5 0c0-2.1-1-3.5-3.3-3.5h-1.2v7h1.2c2.3 0 3.3-1.4 3.3-3.5z"/></g><g transform="matrix(1.4955 0 0 1.4955 91.626 -295.45)"><path d="m225 158.2h-6.6v-9.9h6.4v1.4h-4.9v2.5h2.8v1.4h-2.8v3.1h5.1z"/></g><g transform="translate(86.889 46.016)" stroke-width=".73529" aria-label="♭"><path d="m342.95-119.74h.30159l.0335.0402v6.4406h.0201q1.1393-1.5884 2.1111-1.5884 1.5214.0201 1.6554 1.7425-.19436 2.8484-4.1418 3.4381l-.0201-.0201v-10.013zm.3351 7.198v2.3792q2.8014-.6635 2.8014-2.7076.0871-1.1527-.99189-1.2131-.79754 0-1.8095 1.5415z"/></g><path d="m421.92-81.011h-1.2879v1.7424h-1.0606v-1.7424h-1.7424v1.7424h-1.0606v-1.7424h-1.2879v-.98485h1.2879v-2.0455h-1.2879v-1.0606h1.2879v-1.7424h1.0606v1.7424h1.7424v-1.7424h1.0606v1.7424h1.2879v.98486h-1.2879v2.0455h1.2879zm-2.3485-.98485v-2.0455h-1.7424v2.0455z" stroke-width=".75758"/></g><g transform="translate(328.95 320.71)"><path d="m331.21-126.31h-1.2879v1.7424h-1.0606v-1.7424h-1.7424v1.7424h-1.0606v-1.7424h-1.2879v-.98485h1.2879v-2.0455h-1.2879v-1.0606h1.2879v-1.7424h1.0606v1.7424h1.7424v-1.7424h1.0606v1.7424h1.2879v.98486h-1.2879v2.0455h1.2879zm-2.3485-.98485v-2.0455h-1.7424v2.0455z" stroke-width=".75758"/><g transform="matrix(1.5152 0 0 1.5152 -117.12 -442.84)"><path d="m292.6 203.7h-4.9v2.6h2.8v1.5h-2.8v4.4h-1.5v-9.9h6.4z"/></g><g transform="matrix(1.4706 0 0 1.4706 -169.28 -417.6)"><path d="m347 208.3c0 2.6-1.6 4-3.8 4-2.6 0-4.2-2.1-4.2-5.1s1.6-5.1 4.2-5.1c1.6 0 2.7.7 3.4 1.9l-1.3.8c-.5-.8-1-1.2-2.1-1.2-1.7 0-2.7 1.4-2.7 3.6s.9 3.6 2.7 3.6c1.6 0 2.3-1.1 2.3-2.2h-1.6v-1.4h3.1z"/></g><g stroke-width=".73529" aria-label="♭"><path d="m342.95-119.74h.30159l.0335.0402v6.4406h.0201q1.1393-1.5884 2.1111-1.5884 1.5214.0201 1.6554 1.7425-.19436 2.8484-4.1418 3.4381l-.0201-.0201v-10.013zm.3351 7.198v2.3792q2.8014-.6635 2.8014-2.7076.0871-1.1527-.99189-1.2131-.79754 0-1.8095 1.5415z"/></g></g><g transform="translate(215.98 331.13)"><g transform="matrix(1.4706 0 0 1.4706 -31.451 -467.42)"><path d="m265.8 264.4c-.7 1.2-1.9 1.9-3.4 1.9-2.6 0-4.2-2.1-4.2-5.1s1.6-5.1 4.2-5.1c1.6 0 2.7.7 3.4 1.9l-1.3.8c-.5-.8-1-1.2-2.1-1.2-1.7 0-2.7 1.4-2.7 3.6s.9 3.6 2.7 3.6c1 0 1.7-.4 2.2-1.2z"/></g><g transform="matrix(1.5098 0 0 1.5098 14.435 -380.19)"><path d="m239 207.2c0 3.5-2.2 5-4.8 5h-2.7v-9.9h2.7c2.7-.1 4.8 1.4 4.8 4.9zm-1.5 0c0-2.1-1-3.5-3.3-3.5h-1.2v7h1.2c2.3 0 3.3-1.4 3.3-3.5z"/></g><g transform="translate(33.805 45.221)" stroke-width=".73529" aria-label="♭"><path d="m342.95-119.74h.30159l.0335.0402v6.4406h.0201q1.1393-1.5884 2.1111-1.5884 1.5214.0201 1.6554 1.7425-.19436 2.8484-4.1418 3.4381l-.0201-.0201v-10.013zm.3351 7.198v2.3792q2.8014-.6635 2.8014-2.7076.0871-1.1527-.99189-1.2131-.79754 0-1.8095 1.5415z"/></g><path d="m366.38-81.331h-1.2879v1.7424h-1.0606v-1.7424h-1.7424v1.7424h-1.0606v-1.7424h-1.2879v-.98485h1.2879v-2.0455h-1.2879v-1.0606h1.2879v-1.7424h1.0606v1.7424h1.7424v-1.7424h1.0606v1.7424h1.2879v.98486h-1.2879v2.0455h1.2879zm-2.3485-.98485v-2.0455h-1.7424v2.0455z" stroke-width=".75758"/></g><g transform="translate(201.44 168.75)"><g transform="matrix(1.4706 0 0 1.4706 -31.451 -467.42)"><path d="m265.8 264.4c-.7 1.2-1.9 1.9-3.4 1.9-2.6 0-4.2-2.1-4.2-5.1s1.6-5.1 4.2-5.1c1.6 0 2.7.7 3.4 1.9l-1.3.8c-.5-.8-1-1.2-2.1-1.2-1.7 0-2.7 1.4-2.7 3.6s.9 3.6 2.7 3.6c1 0 1.7-.4 2.2-1.2z"/></g><g transform="matrix(1.5098 0 0 1.5098 14.435 -380.19)"><path d="m239 207.2c0 3.5-2.2 5-4.8 5h-2.7v-9.9h2.7c2.7-.1 4.8 1.4 4.8 4.9zm-1.5 0c0-2.1-1-3.5-3.3-3.5h-1.2v7h1.2c2.3 0 3.3-1.4 3.3-3.5z"/></g><g transform="translate(33.805 45.221)" stroke-width=".73529" aria-label="♭"><path d="m342.95-119.74h.30159l.0335.0402v6.4406h.0201q1.1393-1.5884 2.1111-1.5884 1.5214.0201 1.6554 1.7425-.19436 2.8484-4.1418 3.4381l-.0201-.0201v-10.013zm.3351 7.198v2.3792q2.8014-.6635 2.8014-2.7076.0871-1.1527-.99189-1.2131-.79754 0-1.8095 1.5415z"/></g><path d="m366.38-81.331h-1.2879v1.7424h-1.0606v-1.7424h-1.7424v1.7424h-1.0606v-1.7424h-1.2879v-.98485h1.2879v-2.0455h-1.2879v-1.0606h1.2879v-1.7424h1.0606v1.7424h1.7424v-1.7424h1.0606v1.7424h1.2879v.98486h-1.2879v2.0455h1.2879zm-2.3485-.98485v-2.0455h-1.7424v2.0455z" stroke-width=".75758"/></g><g transform="translate(288.09 214.76)"><g transform="matrix(1.5152 0 0 1.5152 -115.9 -507.91)"><path d="m373.8 263.1c0 2-1.2 3-3.4 3h-3.9v-9.9h4.1c1.7 0 2.8.9 2.8 2.6 0 1-.5 1.6-1.3 2 .9.2 1.7 1 1.7 2.3zm-1.8-4.2c0-.7-.4-1.3-1.4-1.3h-2.7v2.6h2.7c1 0 1.4-.6 1.4-1.3zm.4 4.3c0-1-.6-1.6-1.8-1.6h-2.7v3.3h2.7c1.3-.1 1.8-.8 1.8-1.7z"/></g><g transform="matrix(1.5152 0 0 1.5152 237.05 -443.08)"><path d="m131.4 212.2h-1.6l-.8-2.4h-4l-.8 2.4h-1.5l3.6-9.9h1.6zm-2.9-3.7-.8-2.3c-.2-.7-.6-1.9-.8-2.3-.1.4-.5 1.6-.7 2.3l-.8 2.3z"/></g><g transform="translate(109.2 .64233)" stroke-width=".73529" aria-label="♭"><path d="m342.95-119.74h.30159l.0335.0402v6.4406h.0201q1.1393-1.5884 2.1111-1.5884 1.5214.0201 1.6554 1.7425-.19436 2.8484-4.1418 3.4381l-.0201-.0201v-10.013zm.3351 7.198v2.3792q2.8014-.6635 2.8014-2.7076.0871-1.1527-.99189-1.2131-.79754 0-1.8095 1.5415z"/></g><path d="m441.51-127.49h-1.2879v1.7424h-1.0606v-1.7424h-1.7424v1.7424h-1.0606v-1.7424h-1.2879v-.98485h1.2879v-2.0455h-1.2879v-1.0606h1.2879v-1.7424h1.0606v1.7424h1.7424v-1.7424h1.0606v1.7424h1.2879v.98486h-1.2879v2.0455h1.2879zm-2.3485-.98485v-2.0455h-1.7424v2.0455z" stroke-width=".75758"/></g></g></g><g><text x="267.50146" y="186.2906" fill="#800000" font-family="'CMU Concrete'" font-size="8.5537px" letter-spacing="0px" stroke-width=".64153" word-spacing="0px" style="line-height:1" xml:space="preserve"><tspan x="267.50146" y="186.2906" fill="#800000" font-family="'CMU Concrete'" stroke-width=".64153">220 Hz</tspan></text><rect x="273.32" y="214.18" width="15.635" height=".53914" fill="#660000" stroke="#660000" stroke-linecap="round" stroke-linejoin="round" stroke-width="3.0236" style="paint-order:markers fill stroke"/><rect x="435.76" y="214.74" width="15.635" height=".53914" fill="#008000" stroke="#006600" stroke-linecap="round" stroke-linejoin="round" stroke-width="3.0236" style="paint-order:markers fill stroke"/><text x="483.42935" y="186.05241" fill="#008000" font-family="'CMU Concrete'" font-size="8.5537px" letter-spacing="0px" stroke-width=".64153" word-spacing="0px" style="line-height:1" xml:space="preserve"><tspan x="483.42935" y="186.05241" fill="#008000" font-family="'CMU Concrete'" stroke-width=".64153">440 Hz</tspan></text><text x="699.63452" y="186.01276" fill="#008080" font-family="'CMU Concrete'" font-size="8.5537px" letter-spacing="0px" stroke-width=".64153" word-spacing="0px" style="line-height:1" xml:space="preserve"><tspan x="699.63452" y="186.01276" fill="#008080" font-family="'CMU Concrete'" stroke-width=".64153">880 Hz</tspan></text></g></svg>
