<?xml version="1.0" encoding="UTF-8"?>
<svg version="1.1" viewBox="0 0 804 331.4" xml:space="preserve" xmlns="http://www.w3.org/2000/svg">
<title>ANSI US QWERTY (Windows) Enter/Return</title>
<desc>ANSI US QWERTY keyboard layout for Windows with the location of the Enter and Return keys highlighted</desc>
<style type="text/css">
	.st0{fill:#EEEEEE;stroke:#DDDDDD;}
	.st1{fill:#CCCCCC;stroke:#000000;stroke-width:2;}
	.st2{fill:#CC0000;stroke:#000000;stroke-width:2;}
	.st3{fill:#339900;stroke:#000000;stroke-width:2;}
	.st4{fill:#FCFCFC;}
	.st5{fill:#FF6666;}
	.st6{fill:#66CC33;}
	.st7{fill:#FFFFFF;}
</style>




<g transform="translate(-141.67 -108.18)"><path class="st0" d="m139.67 99.882h1213c3.3 0 6 2.7 6 6v336c0 3.3-2.7 6-6 6h-1213c-3.3 0-6-2.7-6-6v-336c0-3.3 2.7-6 6-6z"/><path class="st1" d="m146.67 109.18h38c2.2 0 4 1.8 4 4v38c0 2.2-1.8 4-4 4h-38c-2.2 0-4-1.8-4-4v-38c0-2.3 1.8-4 4-4z"/><path class="st1" d="m254.67 109.18h38c2.2 0 4 1.8 4 4v38c0 2.2-1.8 4-4 4h-38c-2.2 0-4-1.8-4-4v-38c0-2.3 1.8-4 4-4z"/><path class="st1" d="m308.67 109.18h38c2.2 0 4 1.8 4 4v38c0 2.2-1.8 4-4 4h-38c-2.2 0-4-1.8-4-4v-38c0-2.3 1.8-4 4-4z"/><path class="st1" d="m362.67 109.18h38c2.2 0 4 1.8 4 4v38c0 2.2-1.8 4-4 4h-38c-2.2 0-4-1.8-4-4v-38c0-2.3 1.8-4 4-4z"/><path class="st1" d="m416.67 109.18h38c2.2 0 4 1.8 4 4v38c0 2.2-1.8 4-4 4h-38c-2.2 0-4-1.8-4-4v-38c0-2.3 1.8-4 4-4z"/><path class="st1" d="m497.67 109.18h38c2.2 0 4 1.8 4 4v38c0 2.2-1.8 4-4 4h-38c-2.2 0-4-1.8-4-4v-38c0-2.3 1.8-4 4-4z"/><path class="st1" d="m551.67 109.18h38c2.2 0 4 1.8 4 4v38c0 2.2-1.8 4-4 4h-38c-2.2 0-4-1.8-4-4v-38c0-2.3 1.8-4 4-4z"/><path class="st1" d="m605.67 109.18h38c2.2 0 4 1.8 4 4v38c0 2.2-1.8 4-4 4h-38c-2.2 0-4-1.8-4-4v-38c0-2.3 1.8-4 4-4z"/><path class="st1" d="m659.67 109.18h38c2.2 0 4 1.8 4 4v38c0 2.2-1.8 4-4 4h-38c-2.2 0-4-1.8-4-4v-38c0-2.3 1.8-4 4-4z"/><path class="st1" d="m740.67 109.18h38c2.2 0 4 1.8 4 4v38c0 2.2-1.8 4-4 4h-38c-2.2 0-4-1.8-4-4v-38c0-2.3 1.8-4 4-4z"/><path class="st1" d="m794.67 109.18h38c2.2 0 4 1.8 4 4v38c0 2.2-1.8 4-4 4h-38c-2.2 0-4-1.8-4-4v-38c0-2.3 1.8-4 4-4z"/><path class="st1" d="m848.67 109.18h38c2.2 0 4 1.8 4 4v38c0 2.2-1.8 4-4 4h-38c-2.2 0-4-1.8-4-4v-38c0-2.3 1.8-4 4-4z"/><path class="st1" d="m902.67 109.18h38c2.2 0 4 1.8 4 4v38c0 2.2-1.8 4-4 4h-38c-2.2 0-4-1.8-4-4v-38c0-2.3 1.8-4 4-4z"/><path class="st1" d="m970.17 109.18h38c2.2 0 4 1.8 4 4v38c0 2.2-1.8 4-4 4h-38c-2.2 0-4-1.8-4-4v-38c0-2.3 1.8-4 4-4z"/><path class="st1" d="m1024.2 109.18h38c2.2 0 4 1.8 4 4v38c0 2.2-1.8 4-4 4h-38c-2.2 0-4-1.8-4-4v-38c0-2.3 1.8-4 4-4z"/><path class="st1" d="m1078.2 109.18h38c2.2 0 4 1.8 4 4v38c0 2.2-1.8 4-4 4h-38c-2.2 0-4-1.8-4-4v-38c0-2.3 1.8-4 4-4z"/><path class="st1" d="m146.67 176.58h38c2.2 0 4 1.8 4 4v38c0 2.2-1.8 4-4 4h-38c-2.2 0-4-1.8-4-4v-38c0-2.2 1.8-4 4-4z"/><path class="st1" d="m200.67 176.58h38c2.2 0 4 1.8 4 4v38c0 2.2-1.8 4-4 4h-38c-2.2 0-4-1.8-4-4v-38c0-2.2 1.8-4 4-4z" fill="#cccc00"/><path class="st1" d="m254.67 176.58h38c2.2 0 4 1.8 4 4v38c0 2.2-1.8 4-4 4h-38c-2.2 0-4-1.8-4-4v-38c0-2.2 1.8-4 4-4z" fill="#cccc00"/><path class="st1" d="m308.67 176.58h38c2.2 0 4 1.8 4 4v38c0 2.2-1.8 4-4 4h-38c-2.2 0-4-1.8-4-4v-38c0-2.2 1.8-4 4-4z" fill="#cc0000"/><path class="st1" d="m362.67 176.58h38c2.2 0 4 1.8 4 4v38c0 2.2-1.8 4-4 4h-38c-2.2 0-4-1.8-4-4v-38c0-2.2 1.8-4 4-4z" fill="#cc0000"/><path class="st1" d="m416.67 176.58h38c2.2 0 4 1.8 4 4v38c0 2.2-1.8 4-4 4h-38c-2.2 0-4-1.8-4-4v-38c0-2.2 1.8-4 4-4z" fill="#00cc00"/><path class="st1" d="m470.67 176.58h38c2.2 0 4 1.8 4 4v38c0 2.2-1.8 4-4 4h-38c-2.2 0-4-1.8-4-4v-38c0-2.2 1.8-4 4-4z" fill="#00cc00"/><path class="st1" d="m524.67 176.58h38c2.2 0 4 1.8 4 4v38c0 2.2-1.8 4-4 4h-38c-2.2 0-4-1.8-4-4v-38c0-2.2 1.8-4 4-4z" fill="#00cccc"/><path class="st1" d="m578.67 176.58h38c2.2 0 4 1.8 4 4v38c0 2.2-1.8 4-4 4h-38c-2.2 0-4-1.8-4-4v-38c0-2.2 1.8-4 4-4z" fill="#00cccc"/><path class="st1" d="m632.67 176.58h38c2.2 0 4 1.8 4 4v38c0 2.2-1.8 4-4 4h-38c-2.2 0-4-1.8-4-4v-38c0-2.2 1.8-4 4-4z" fill="#cc00cc"/><path class="st1" d="m686.67 176.58h38c2.2 0 4 1.8 4 4v38c0 2.2-1.8 4-4 4h-38c-2.2 0-4-1.8-4-4v-38c0-2.2 1.8-4 4-4z" fill="#cc00cc"/><path class="st1" d="m740.67 176.58h38c2.2 0 4 1.8 4 4v38c0 2.2-1.8 4-4 4h-38c-2.2 0-4-1.8-4-4v-38c0-2.2 1.8-4 4-4z" fill="#0000cc"/><path class="st1" d="m794.67 176.58h38c2.2 0 4 1.8 4 4v38c0 2.2-1.8 4-4 4h-38c-2.2 0-4-1.8-4-4v-38c0-2.2 1.8-4 4-4z" fill="#0000cc"/><path class="st1" d="m848.67 176.58h92c2.2 0 4 1.8 4 4v38c0 2.2-1.8 4-4 4h-92c-2.2 0-4-1.8-4-4v-38c0-2.2 1.8-4 4-4z"/><path class="st1" d="m970.17 176.58h38c2.2 0 4 1.8 4 4v38c0 2.2-1.8 4-4 4h-38c-2.2 0-4-1.8-4-4v-38c0-2.2 1.8-4 4-4z"/><path class="st1" d="m1024.2 176.58h38c2.2 0 4 1.8 4 4v38c0 2.2-1.8 4-4 4h-38c-2.2 0-4-1.8-4-4v-38c0-2.2 1.8-4 4-4z"/><path class="st1" d="m1078.2 176.58h38c2.2 0 4 1.8 4 4v38c0 2.2-1.8 4-4 4h-38c-2.2 0-4-1.8-4-4v-38c0-2.2 1.8-4 4-4z"/><path class="st1" d="m1145.7 176.58h38c2.2 0 4 1.8 4 4v38c0 2.2-1.8 4-4 4h-38c-2.2 0-4-1.8-4-4v-38c0-2.2 1.8-4 4-4z"/><path class="st1" d="m1199.7 176.58h38c2.2 0 4 1.8 4 4v38c0 2.2-1.8 4-4 4h-38c-2.2 0-4-1.8-4-4v-38c0-2.2 1.8-4 4-4z"/><path class="st1" d="m1253.7 176.58h38c2.2 0 4 1.8 4 4v38c0 2.2-1.8 4-4 4h-38c-2.2 0-4-1.8-4-4v-38c0-2.2 1.8-4 4-4z"/><path class="st1" d="m1307.7 176.58h38c2.2 0 4 1.8 4 4v38c0 2.2-1.8 4-4 4h-38c-2.2 0-4-1.8-4-4v-38c0-2.2 1.8-4 4-4z"/><path class="st1" d="m146.67 230.58h65c2.2 0 4 1.8 4 4v38c0 2.2-1.8 4-4 4h-65c-2.2 0-4-1.8-4-4v-38c0-2.2 1.8-4 4-4z"/><path class="st1" d="m227.67 230.58h38c2.2 0 4 1.8 4 4v38c0 2.2-1.8 4-4 4h-38c-2.2 0-4-1.8-4-4v-38c0-2.2 1.8-4 4-4z" fill="#cccc00"/><path class="st1" d="m281.67 230.58h38c2.2 0 4 1.8 4 4v38c0 2.2-1.8 4-4 4h-38c-2.2 0-4-1.8-4-4v-38c0-2.2 1.8-4 4-4z" fill="#cccc00"/><path class="st1" d="m335.67 230.58h38c2.2 0 4 1.8 4 4v38c0 2.2-1.8 4-4 4h-38c-2.2 0-4-1.8-4-4v-38c0-2.2 1.8-4 4-4z" fill="#cc0000"/><path class="st1" d="m389.67 230.58h38c2.2 0 4 1.8 4 4v38c0 2.2-1.8 4-4 4h-38c-2.2 0-4-1.8-4-4v-38c0-2.2 1.8-4 4-4z" fill="#cc0000"/><path class="st1" d="m443.67 230.58h38c2.2 0 4 1.8 4 4v38c0 2.2-1.8 4-4 4h-38c-2.2 0-4-1.8-4-4v-38c0-2.2 1.8-4 4-4z" fill="#00cc00"/><path class="st1" d="m497.67 230.58h38c2.2 0 4 1.8 4 4v38c0 2.2-1.8 4-4 4h-38c-2.2 0-4-1.8-4-4v-38c0-2.2 1.8-4 4-4z" fill="#00cc00"/><path class="st1" d="m551.67 230.58h38c2.2 0 4 1.8 4 4v38c0 2.2-1.8 4-4 4h-38c-2.2 0-4-1.8-4-4v-38c0-2.2 1.8-4 4-4z" fill="#00cccc"/><path class="st1" d="m605.67 230.58h38c2.2 0 4 1.8 4 4v38c0 2.2-1.8 4-4 4h-38c-2.2 0-4-1.8-4-4v-38c0-2.2 1.8-4 4-4z" fill="#00cccc"/><path class="st1" d="m659.67 230.58h38c2.2 0 4 1.8 4 4v38c0 2.2-1.8 4-4 4h-38c-2.2 0-4-1.8-4-4v-38c0-2.2 1.8-4 4-4z" fill="#cc00cc"/><path class="st1" d="m713.67 230.58h38c2.2 0 4 1.8 4 4v38c0 2.2-1.8 4-4 4h-38c-2.2 0-4-1.8-4-4v-38c0-2.2 1.8-4 4-4z" fill="#cc00cc"/><path class="st1" d="m767.67 230.58h38c2.2 0 4 1.8 4 4v38c0 2.2-1.8 4-4 4h-38c-2.2 0-4-1.8-4-4v-38c0-2.2 1.8-4 4-4z" fill="#0000cc"/><path class="st1" d="m821.67 230.58h38c2.2 0 4 1.8 4 4v38c0 2.2-1.8 4-4 4h-38c-2.2 0-4-1.8-4-4v-38c0-2.2 1.8-4 4-4z" fill="#0000cc"/><path class="st1" d="m875.67 230.58h65c2.2 0 4 1.8 4 4v38c0 2.2-1.8 4-4 4h-65c-2.2 0-4-1.8-4-4v-38c0-2.2 1.8-4 4-4z"/><path class="st1" d="m970.17 230.58h38c2.2 0 4 1.8 4 4v38c0 2.2-1.8 4-4 4h-38c-2.2 0-4-1.8-4-4v-38c0-2.2 1.8-4 4-4z"/><path class="st1" d="m1024.2 230.58h38c2.2 0 4 1.8 4 4v38c0 2.2-1.8 4-4 4h-38c-2.2 0-4-1.8-4-4v-38c0-2.2 1.8-4 4-4z"/><path class="st1" d="m1078.2 230.58h38c2.2 0 4 1.8 4 4v38c0 2.2-1.8 4-4 4h-38c-2.2 0-4-1.8-4-4v-38c0-2.2 1.8-4 4-4z"/><path class="st1" d="m1145.7 230.58h38c2.2 0 4 1.8 4 4v38c0 2.2-1.8 4-4 4h-38c-2.2 0-4-1.8-4-4v-38c0-2.2 1.8-4 4-4z"/><path class="st1" d="m1199.7 230.58h38c2.2 0 4 1.8 4 4v38c0 2.2-1.8 4-4 4h-38c-2.2 0-4-1.8-4-4v-38c0-2.2 1.8-4 4-4z"/><path class="st1" d="m1253.7 230.58h38c2.2 0 4 1.8 4 4v38c0 2.2-1.8 4-4 4h-38c-2.2 0-4-1.8-4-4v-38c0-2.2 1.8-4 4-4z"/><path class="st1" d="m1307.7 230.58h38c2.2 0 4 1.8 4 4v92c0 2.2-1.8 4-4 4h-38c-2.2 0-4-1.8-4-4v-92c0-2.2 1.8-4 4-4z"/><path class="st1" d="m146.67 284.58h78.5c2.2 0 4 1.8 4 4v38c0 2.2-1.8 4-4 4h-78.5c-2.2 0-4-1.8-4-4v-38c0-2.2 1.8-4 4-4z"/><path class="st1" d="m241.17 284.58h38c2.2 0 4 1.8 4 4v38c0 2.2-1.8 4-4 4h-38c-2.2 0-4-1.8-4-4v-38c0-2.2 1.8-4 4-4z" fill="#cccc00"/><path class="st1" d="m295.17 284.58h38c2.2 0 4 1.8 4 4v38c0 2.2-1.8 4-4 4h-38c-2.2 0-4-1.8-4-4v-38c0-2.2 1.8-4 4-4z" fill="#cccc00"/><path class="st1" d="m349.17 284.58h38c2.2 0 4 1.8 4 4v38c0 2.2-1.8 4-4 4h-38c-2.2 0-4-1.8-4-4v-38c0-2.2 1.8-4 4-4z" fill="#cc0000"/><path class="st1" d="m403.17 284.58h38c2.2 0 4 1.8 4 4v38c0 2.2-1.8 4-4 4h-38c-2.2 0-4-1.8-4-4v-38c0-2.2 1.8-4 4-4z" fill="#cc0000"/><path class="st1" d="m457.17 284.58h38c2.2 0 4 1.8 4 4v38c0 2.2-1.8 4-4 4h-38c-2.2 0-4-1.8-4-4v-38c0-2.2 1.8-4 4-4z" fill="#00cc00"/><path class="st1" d="m511.17 284.58h38c2.2 0 4 1.8 4 4v38c0 2.2-1.8 4-4 4h-38c-2.2 0-4-1.8-4-4v-38c0-2.2 1.8-4 4-4z" fill="#00cc00"/><path class="st1" d="m565.17 284.58h38c2.2 0 4 1.8 4 4v38c0 2.2-1.8 4-4 4h-38c-2.2 0-4-1.8-4-4v-38c0-2.2 1.8-4 4-4z" fill="#00cccc"/><path class="st1" d="m619.17 284.58h38c2.2 0 4 1.8 4 4v38c0 2.2-1.8 4-4 4h-38c-2.2 0-4-1.8-4-4v-38c0-2.2 1.8-4 4-4z" fill="#00cccc"/><path class="st1" d="m673.17 284.58h38c2.2 0 4 1.8 4 4v38c0 2.2-1.8 4-4 4h-38c-2.2 0-4-1.8-4-4v-38c0-2.2 1.8-4 4-4z" fill="#cc00cc"/><path class="st1" d="m727.17 284.58h38c2.2 0 4 1.8 4 4v38c0 2.2-1.8 4-4 4h-38c-2.2 0-4-1.8-4-4v-38c0-2.2 1.8-4 4-4z" fill="#cc00cc"/><path class="st1" d="m781.17 284.58h38c2.2 0 4 1.8 4 4v38c0 2.2-1.8 4-4 4h-38c-2.2 0-4-1.8-4-4v-38c0-2.2 1.8-4 4-4z" fill="#0000cc"/><path class="st2" d="m835.17 284.58h105.5c2.2 0 4 1.8 4 4v38c0 2.2-1.8 4-4 4h-105.5c-2.2 0-4-1.8-4-4v-38c0-2.2 1.8-4 4-4z" fill="#0000cc"/><path class="st1" d="m1145.7 284.58h38c2.2 0 4 1.8 4 4v38c0 2.2-1.8 4-4 4h-38c-2.2 0-4-1.8-4-4v-38c0-2.2 1.8-4 4-4z"/><path class="st1" d="m1199.7 284.58h38c2.2 0 4 1.8 4 4v38c0 2.2-1.8 4-4 4h-38c-2.2 0-4-1.8-4-4v-38c0-2.2 1.8-4 4-4z"/><path class="st1" d="m1253.7 284.58h38c2.2 0 4 1.8 4 4v38c0 2.2-1.8 4-4 4h-38c-2.2 0-4-1.8-4-4v-38c0-2.2 1.8-4 4-4z"/><path class="st1" d="m146.67 338.58h105.5c2.2 0 4 1.8 4 4v38c0 2.2-1.8 4-4 4h-105.5c-2.2 0-4-1.8-4-4v-38c0-2.2 1.8-4 4-4z"/><path class="st1" d="m268.17 338.58h38c2.2 0 4 1.8 4 4v38c0 2.2-1.8 4-4 4h-38c-2.2 0-4-1.8-4-4v-38c0-2.2 1.8-4 4-4z" fill="#666600"/><path class="st1" d="m322.17 338.58h38c2.2 0 4 1.8 4 4v38c0 2.2-1.8 4-4 4h-38c-2.2 0-4-1.8-4-4v-38c0-2.2 1.8-4 4-4z" fill="#cccc00"/><path class="st1" d="m376.17 338.58h38c2.2 0 4 1.8 4 4v38c0 2.2-1.8 4-4 4h-38c-2.2 0-4-1.8-4-4v-38c0-2.2 1.8-4 4-4z" fill="#660000"/><path class="st1" d="m430.17 338.58h38c2.2 0 4 1.8 4 4v38c0 2.2-1.8 4-4 4h-38c-2.2 0-4-1.8-4-4v-38c0-2.2 1.8-4 4-4z" fill="#cc0000"/><path class="st1" d="m484.17 338.58h38c2.2 0 4 1.8 4 4v38c0 2.2-1.8 4-4 4h-38c-2.2 0-4-1.8-4-4v-38c0-2.2 1.8-4 4-4z" fill="#006600"/><path class="st1" d="m538.17 338.58h38c2.2 0 4 1.8 4 4v38c0 2.2-1.8 4-4 4h-38c-2.2 0-4-1.8-4-4v-38c0-2.2 1.8-4 4-4z" fill="#00cc00"/><path class="st1" d="m592.17 338.58h38c2.2 0 4 1.8 4 4v38c0 2.2-1.8 4-4 4h-38c-2.2 0-4-1.8-4-4v-38c0-2.2 1.8-4 4-4z" fill="#006666"/><path class="st1" d="m646.17 338.58h38c2.2 0 4 1.8 4 4v38c0 2.2-1.8 4-4 4h-38c-2.2 0-4-1.8-4-4v-38c0-2.2 1.8-4 4-4z" fill="#00cccc"/><path class="st1" d="m700.17 338.58h38c2.2 0 4 1.8 4 4v38c0 2.2-1.8 4-4 4h-38c-2.2 0-4-1.8-4-4v-38c0-2.2 1.8-4 4-4z" fill="#660066"/><path class="st1" d="m754.17 338.58h38c2.2 0 4 1.8 4 4v38c0 2.2-1.8 4-4 4h-38c-2.2 0-4-1.8-4-4v-38c0-2.2 1.8-4 4-4z" fill="#cc00cc"/><path class="st1" d="m808.17 338.58h132.5c2.2 0 4 1.8 4 4v38c0 2.2-1.8 4-4 4h-132.5c-2.2 0-4-1.8-4-4v-38c0-2.2 1.8-4 4-4z" fill="#0000cc"/><path class="st1" d="m1024.2 338.58h38c2.2 0 4 1.8 4 4v38c0 2.2-1.8 4-4 4h-38c-2.2 0-4-1.8-4-4v-38c0-2.2 1.8-4 4-4z"/><path class="st1" d="m1145.7 338.58h38c2.2 0 4 1.8 4 4v38c0 2.2-1.8 4-4 4h-38c-2.2 0-4-1.8-4-4v-38c0-2.2 1.8-4 4-4z"/><path class="st1" d="m1199.7 338.58h38c2.2 0 4 1.8 4 4v38c0 2.2-1.8 4-4 4h-38c-2.2 0-4-1.8-4-4v-38c0-2.2 1.8-4 4-4z"/><path class="st1" d="m1253.7 338.58h38c2.2 0 4 1.8 4 4v38c0 2.2-1.8 4-4 4h-38c-2.2 0-4-1.8-4-4v-38c0-2.2 1.8-4 4-4z"/><path class="st3" d="m1307.7 338.58h38c2.2 0 4 1.8 4 4v92c0 2.2-1.8 4-4 4h-38c-2.2 0-4-1.8-4-4v-92c0-2.2 1.8-4 4-4z"/><path class="st1" d="m146.67 392.58h51.5c2.2 0 4 1.8 4 4v38c0 2.2-1.8 4-4 4h-51.5c-2.2 0-4-1.8-4-4v-38c0-2.2 1.8-4 4-4z"/><path class="st1" d="m214.17 392.58h51.5c2.2 0 4 1.8 4 4v38c0 2.2-1.8 4-4 4h-51.5c-2.2 0-4-1.8-4-4v-38c0-2.2 1.8-4 4-4z"/><path class="st1" d="m281.67 392.58h51.5c2.2 0 4 1.8 4 4v38c0 2.2-1.8 4-4 4h-51.5c-2.2 0-4-1.8-4-4v-38c0-2.2 1.8-4 4-4z"/><path class="st1" d="m349.17 392.58h321.5c2.2 0 4 1.8 4 4v38c0 2.2-1.8 4-4 4h-321.5c-2.2 0-4-1.8-4-4v-38c0-2.2 1.8-4 4-4z"/><path class="st1" d="m686.67 392.58h51.5c2.2 0 4 1.8 4 4v38c0 2.2-1.8 4-4 4h-51.5c-2.2 0-4-1.8-4-4v-38c0-2.2 1.8-4 4-4z"/><path class="st1" d="m754.17 392.58h51.5c2.2 0 4 1.8 4 4v38c0 2.2-1.8 4-4 4h-51.5c-2.2 0-4-1.8-4-4v-38c0-2.2 1.8-4 4-4z"/><path class="st1" d="m821.67 392.58h51.5c2.2 0 4 1.8 4 4v38c0 2.2-1.8 4-4 4h-51.5c-2.2 0-4-1.8-4-4v-38c0-2.2 1.8-4 4-4z"/><path class="st1" d="m889.17 392.58h51.5c2.2 0 4 1.8 4 4v38c0 2.2-1.8 4-4 4h-51.5c-2.2 0-4-1.8-4-4v-38c0-2.2 1.8-4 4-4z"/><path class="st1" d="m970.17 392.58h38c2.2 0 4 1.8 4 4v38c0 2.2-1.8 4-4 4h-38c-2.2 0-4-1.8-4-4v-38c0-2.2 1.8-4 4-4z"/><path class="st1" d="m1024.2 392.58h38c2.2 0 4 1.8 4 4v38c0 2.2-1.8 4-4 4h-38c-2.2 0-4-1.8-4-4v-38c0-2.2 1.8-4 4-4z"/><path class="st1" d="m1078.2 392.58h38c2.2 0 4 1.8 4 4v38c0 2.2-1.8 4-4 4h-38c-2.2 0-4-1.8-4-4v-38c0-2.2 1.8-4 4-4z"/><path class="st1" d="m1145.7 392.58h92c2.2 0 4 1.8 4 4v38c0 2.2-1.8 4-4 4h-92c-2.2 0-4-1.8-4-4v-38c0-2.2 1.8-4 4-4z"/><path class="st1" d="m1253.7 392.58h38c2.2 0 4 1.8 4 4v38c0 2.2-1.8 4-4 4h-38c-2.2 0-4-1.8-4-4v-38c0-2.2 1.8-4 4-4z"/><path class="st4" d="m147.67 110.18h36c2.2 0 4 1.8 4 4v34c0 2.2-1.8 4-4 4h-36c-2.2 0-4-1.8-4-4v-34c0-2.3 1.8-4 4-4z"/><path class="st4" d="m255.67 110.18h36c2.2 0 4 1.8 4 4v34c0 2.2-1.8 4-4 4h-36c-2.2 0-4-1.8-4-4v-34c0-2.3 1.8-4 4-4z"/><path class="st4" d="m309.67 110.18h36c2.2 0 4 1.8 4 4v34c0 2.2-1.8 4-4 4h-36c-2.2 0-4-1.8-4-4v-34c0-2.3 1.8-4 4-4z"/><path class="st4" d="m363.67 110.18h36c2.2 0 4 1.8 4 4v34c0 2.2-1.8 4-4 4h-36c-2.2 0-4-1.8-4-4v-34c0-2.3 1.8-4 4-4z"/><path class="st4" d="m417.67 110.18h36c2.2 0 4 1.8 4 4v34c0 2.2-1.8 4-4 4h-36c-2.2 0-4-1.8-4-4v-34c0-2.3 1.8-4 4-4z"/><path class="st4" d="m498.67 110.18h36c2.2 0 4 1.8 4 4v34c0 2.2-1.8 4-4 4h-36c-2.2 0-4-1.8-4-4v-34c0-2.3 1.8-4 4-4z"/><path class="st4" d="m552.67 110.18h36c2.2 0 4 1.8 4 4v34c0 2.2-1.8 4-4 4h-36c-2.2 0-4-1.8-4-4v-34c0-2.3 1.8-4 4-4z"/><path class="st4" d="m606.67 110.18h36c2.2 0 4 1.8 4 4v34c0 2.2-1.8 4-4 4h-36c-2.2 0-4-1.8-4-4v-34c0-2.3 1.8-4 4-4z"/><path class="st4" d="m660.67 110.18h36c2.2 0 4 1.8 4 4v34c0 2.2-1.8 4-4 4h-36c-2.2 0-4-1.8-4-4v-34c0-2.3 1.8-4 4-4z"/><path class="st4" d="m741.67 110.18h36c2.2 0 4 1.8 4 4v34c0 2.2-1.8 4-4 4h-36c-2.2 0-4-1.8-4-4v-34c0-2.3 1.8-4 4-4z"/><path class="st4" d="m795.67 110.18h36c2.2 0 4 1.8 4 4v34c0 2.2-1.8 4-4 4h-36c-2.2 0-4-1.8-4-4v-34c0-2.3 1.8-4 4-4z"/><path class="st4" d="m849.67 110.18h36c2.2 0 4 1.8 4 4v34c0 2.2-1.8 4-4 4h-36c-2.2 0-4-1.8-4-4v-34c0-2.3 1.8-4 4-4z"/><path class="st4" d="m903.67 110.18h36c2.2 0 4 1.8 4 4v34c0 2.2-1.8 4-4 4h-36c-2.2 0-4-1.8-4-4v-34c0-2.3 1.8-4 4-4z"/><path class="st4" d="m971.17 110.18h36c2.2 0 4 1.8 4 4v34c0 2.2-1.8 4-4 4h-36c-2.2 0-4-1.8-4-4v-34c0-2.3 1.8-4 4-4z"/><path class="st4" d="m1025.2 110.18h36c2.2 0 4 1.8 4 4v34c0 2.2-1.8 4-4 4h-36c-2.2 0-4-1.8-4-4v-34c0-2.3 1.8-4 4-4z"/><path class="st4" d="m1079.2 110.18h36c2.2 0 4 1.8 4 4v34c0 2.2-1.8 4-4 4h-36c-2.2 0-4-1.8-4-4v-34c0-2.3 1.8-4 4-4z"/><path class="st4" d="m147.67 177.58h36c2.2 0 4 1.8 4 4v34c0 2.2-1.8 4-4 4h-36c-2.2 0-4-1.8-4-4v-34c0-2.2 1.8-4 4-4z"/><path class="st4" d="m201.67 177.58h36c2.2 0 4 1.8 4 4v34c0 2.2-1.8 4-4 4h-36c-2.2 0-4-1.8-4-4v-34c0-2.2 1.8-4 4-4z" fill="#ffff66"/><path class="st4" d="m255.67 177.58h36c2.2 0 4 1.8 4 4v34c0 2.2-1.8 4-4 4h-36c-2.2 0-4-1.8-4-4v-34c0-2.2 1.8-4 4-4z" fill="#ffff66"/><path class="st4" d="m309.67 177.58h36c2.2 0 4 1.8 4 4v34c0 2.2-1.8 4-4 4h-36c-2.2 0-4-1.8-4-4v-34c0-2.2 1.8-4 4-4z" fill="#ff6666"/><path class="st4" d="m363.67 177.58h36c2.2 0 4 1.8 4 4v34c0 2.2-1.8 4-4 4h-36c-2.2 0-4-1.8-4-4v-34c0-2.2 1.8-4 4-4z" fill="#ff6666"/><path class="st4" d="m417.67 177.58h36c2.2 0 4 1.8 4 4v34c0 2.2-1.8 4-4 4h-36c-2.2 0-4-1.8-4-4v-34c0-2.2 1.8-4 4-4z" fill="#66ff66"/><path class="st4" d="m471.67 177.58h36c2.2 0 4 1.8 4 4v34c0 2.2-1.8 4-4 4h-36c-2.2 0-4-1.8-4-4v-34c0-2.2 1.8-4 4-4z" fill="#66ff66"/><path class="st4" d="m525.67 177.58h36c2.2 0 4 1.8 4 4v34c0 2.2-1.8 4-4 4h-36c-2.2 0-4-1.8-4-4v-34c0-2.2 1.8-4 4-4z" fill="#66ffff"/><path class="st4" d="m579.67 177.58h36c2.2 0 4 1.8 4 4v34c0 2.2-1.8 4-4 4h-36c-2.2 0-4-1.8-4-4v-34c0-2.2 1.8-4 4-4z" fill="#66ffff"/><path class="st4" d="m633.67 177.58h36c2.2 0 4 1.8 4 4v34c0 2.2-1.8 4-4 4h-36c-2.2 0-4-1.8-4-4v-34c0-2.2 1.8-4 4-4z" fill="#ff66ff"/><path class="st4" d="m687.67 177.58h36c2.2 0 4 1.8 4 4v34c0 2.2-1.8 4-4 4h-36c-2.2 0-4-1.8-4-4v-34c0-2.2 1.8-4 4-4z" fill="#ff66ff"/><path class="st4" d="m741.67 177.58h36c2.2 0 4 1.8 4 4v34c0 2.2-1.8 4-4 4h-36c-2.2 0-4-1.8-4-4v-34c0-2.2 1.8-4 4-4z" fill="#6666ff"/><path class="st4" d="m795.67 177.58h36c2.2 0 4 1.8 4 4v34c0 2.2-1.8 4-4 4h-36c-2.2 0-4-1.8-4-4v-34c0-2.2 1.8-4 4-4z" fill="#6666ff"/><path class="st4" d="m849.67 177.58h90c2.2 0 4 1.8 4 4v34c0 2.2-1.8 4-4 4h-90c-2.2 0-4-1.8-4-4v-34c0-2.2 1.8-4 4-4z"/><path class="st4" d="m971.17 177.58h36c2.2 0 4 1.8 4 4v34c0 2.2-1.8 4-4 4h-36c-2.2 0-4-1.8-4-4v-34c0-2.2 1.8-4 4-4z"/><path class="st4" d="m1025.2 177.58h36c2.2 0 4 1.8 4 4v34c0 2.2-1.8 4-4 4h-36c-2.2 0-4-1.8-4-4v-34c0-2.2 1.8-4 4-4z"/><path class="st4" d="m1079.2 177.58h36c2.2 0 4 1.8 4 4v34c0 2.2-1.8 4-4 4h-36c-2.2 0-4-1.8-4-4v-34c0-2.2 1.8-4 4-4z"/><path class="st4" d="m1146.7 177.58h36c2.2 0 4 1.8 4 4v34c0 2.2-1.8 4-4 4h-36c-2.2 0-4-1.8-4-4v-34c0-2.2 1.8-4 4-4z"/><path class="st4" d="m1200.7 177.58h36c2.2 0 4 1.8 4 4v34c0 2.2-1.8 4-4 4h-36c-2.2 0-4-1.8-4-4v-34c0-2.2 1.8-4 4-4z"/><path class="st4" d="m1254.7 177.58h36c2.2 0 4 1.8 4 4v34c0 2.2-1.8 4-4 4h-36c-2.2 0-4-1.8-4-4v-34c0-2.2 1.8-4 4-4z"/><path class="st4" d="m1308.7 177.58h36c2.2 0 4 1.8 4 4v34c0 2.2-1.8 4-4 4h-36c-2.2 0-4-1.8-4-4v-34c0-2.2 1.8-4 4-4z"/><path class="st4" d="m147.67 231.58h63c2.2 0 4 1.8 4 4v34c0 2.2-1.8 4-4 4h-63c-2.2 0-4-1.8-4-4v-34c0-2.2 1.8-4 4-4z"/><path class="st4" d="m228.67 231.58h36c2.2 0 4 1.8 4 4v34c0 2.2-1.8 4-4 4h-36c-2.2 0-4-1.8-4-4v-34c0-2.2 1.8-4 4-4z" fill="#ffff66"/><path class="st4" d="m282.67 231.58h36c2.2 0 4 1.8 4 4v34c0 2.2-1.8 4-4 4h-36c-2.2 0-4-1.8-4-4v-34c0-2.2 1.8-4 4-4z" fill="#ffff66"/><path class="st4" d="m336.67 231.58h36c2.2 0 4 1.8 4 4v34c0 2.2-1.8 4-4 4h-36c-2.2 0-4-1.8-4-4v-34c0-2.2 1.8-4 4-4z" fill="#ff6666"/><path class="st4" d="m390.67 231.58h36c2.2 0 4 1.8 4 4v34c0 2.2-1.8 4-4 4h-36c-2.2 0-4-1.8-4-4v-34c0-2.2 1.8-4 4-4z" fill="#ff6666"/><path class="st4" d="m444.67 231.58h36c2.2 0 4 1.8 4 4v34c0 2.2-1.8 4-4 4h-36c-2.2 0-4-1.8-4-4v-34c0-2.2 1.8-4 4-4z" fill="#66ff66"/><path class="st4" d="m498.67 231.58h36c2.2 0 4 1.8 4 4v34c0 2.2-1.8 4-4 4h-36c-2.2 0-4-1.8-4-4v-34c0-2.2 1.8-4 4-4z" fill="#66ff66"/><path class="st4" d="m552.67 231.58h36c2.2 0 4 1.8 4 4v34c0 2.2-1.8 4-4 4h-36c-2.2 0-4-1.8-4-4v-34c0-2.2 1.8-4 4-4z" fill="#66ffff"/><path class="st4" d="m606.67 231.58h36c2.2 0 4 1.8 4 4v34c0 2.2-1.8 4-4 4h-36c-2.2 0-4-1.8-4-4v-34c0-2.2 1.8-4 4-4z" fill="#66ffff"/><path class="st4" d="m660.67 231.58h36c2.2 0 4 1.8 4 4v34c0 2.2-1.8 4-4 4h-36c-2.2 0-4-1.8-4-4v-34c0-2.2 1.8-4 4-4z" fill="#ff66ff"/><path class="st4" d="m714.67 231.58h36c2.2 0 4 1.8 4 4v34c0 2.2-1.8 4-4 4h-36c-2.2 0-4-1.8-4-4v-34c0-2.2 1.8-4 4-4z" fill="#ff66ff"/><path class="st4" d="m768.67 231.58h36c2.2 0 4 1.8 4 4v34c0 2.2-1.8 4-4 4h-36c-2.2 0-4-1.8-4-4v-34c0-2.2 1.8-4 4-4z" fill="#6666ff"/><path class="st4" d="m822.67 231.58h36c2.2 0 4 1.8 4 4v34c0 2.2-1.8 4-4 4h-36c-2.2 0-4-1.8-4-4v-34c0-2.2 1.8-4 4-4z" fill="#6666ff"/><path class="st4" d="m876.67 231.58h63c2.2 0 4 1.8 4 4v34c0 2.2-1.8 4-4 4h-63c-2.2 0-4-1.8-4-4v-34c0-2.2 1.8-4 4-4z"/><path class="st4" d="m971.17 231.58h36c2.2 0 4 1.8 4 4v34c0 2.2-1.8 4-4 4h-36c-2.2 0-4-1.8-4-4v-34c0-2.2 1.8-4 4-4z"/><path class="st4" d="m1025.2 231.58h36c2.2 0 4 1.8 4 4v34c0 2.2-1.8 4-4 4h-36c-2.2 0-4-1.8-4-4v-34c0-2.2 1.8-4 4-4z"/><path class="st4" d="m1079.2 231.58h36c2.2 0 4 1.8 4 4v34c0 2.2-1.8 4-4 4h-36c-2.2 0-4-1.8-4-4v-34c0-2.2 1.8-4 4-4z"/><path class="st4" d="m1146.7 231.58h36c2.2 0 4 1.8 4 4v34c0 2.2-1.8 4-4 4h-36c-2.2 0-4-1.8-4-4v-34c0-2.2 1.8-4 4-4z"/><path class="st4" d="m1200.7 231.58h36c2.2 0 4 1.8 4 4v34c0 2.2-1.8 4-4 4h-36c-2.2 0-4-1.8-4-4v-34c0-2.2 1.8-4 4-4z"/><path class="st4" d="m1254.7 231.58h36c2.2 0 4 1.8 4 4v34c0 2.2-1.8 4-4 4h-36c-2.2 0-4-1.8-4-4v-34c0-2.2 1.8-4 4-4z"/><path class="st4" d="m1308.7 231.58h36c2.2 0 4 1.8 4 4v88c0 2.2-1.8 4-4 4h-36c-2.2 0-4-1.8-4-4v-88c0-2.2 1.8-4 4-4z"/><path class="st4" d="m147.67 285.58h76.5c2.2 0 4 1.8 4 4v34c0 2.2-1.8 4-4 4h-76.5c-2.2 0-4-1.8-4-4v-34c0-2.2 1.8-4 4-4z"/><path class="st4" d="m242.17 285.58h36c2.2 0 4 1.8 4 4v34c0 2.2-1.8 4-4 4h-36c-2.2 0-4-1.8-4-4v-34c0-2.2 1.8-4 4-4z" fill="#ffff66"/><path class="st4" d="m296.17 285.58h36c2.2 0 4 1.8 4 4v34c0 2.2-1.8 4-4 4h-36c-2.2 0-4-1.8-4-4v-34c0-2.2 1.8-4 4-4z" fill="#ffff66"/><path class="st4" d="m350.17 285.58h36c2.2 0 4 1.8 4 4v34c0 2.2-1.8 4-4 4h-36c-2.2 0-4-1.8-4-4v-34c0-2.2 1.8-4 4-4z" fill="#ff6666"/><path class="st4" d="m404.17 285.58h36c2.2 0 4 1.8 4 4v34c0 2.2-1.8 4-4 4h-36c-2.2 0-4-1.8-4-4v-34c0-2.2 1.8-4 4-4z" fill="#ff6666"/><path class="st4" d="m458.17 285.58h36c2.2 0 4 1.8 4 4v34c0 2.2-1.8 4-4 4h-36c-2.2 0-4-1.8-4-4v-34c0-2.2 1.8-4 4-4z" fill="#66ff66"/><path class="st4" d="m512.17 285.58h36c2.2 0 4 1.8 4 4v34c0 2.2-1.8 4-4 4h-36c-2.2 0-4-1.8-4-4v-34c0-2.2 1.8-4 4-4z" fill="#66ff66"/><path class="st4" d="m566.17 285.58h36c2.2 0 4 1.8 4 4v34c0 2.2-1.8 4-4 4h-36c-2.2 0-4-1.8-4-4v-34c0-2.2 1.8-4 4-4z" fill="#66ffff"/><path class="st4" d="m620.17 285.58h36c2.2 0 4 1.8 4 4v34c0 2.2-1.8 4-4 4h-36c-2.2 0-4-1.8-4-4v-34c0-2.2 1.8-4 4-4z" fill="#66ffff"/><path class="st4" d="m674.17 285.58h36c2.2 0 4 1.8 4 4v34c0 2.2-1.8 4-4 4h-36c-2.2 0-4-1.8-4-4v-34c0-2.2 1.8-4 4-4z" fill="#ff66ff"/><path class="st4" d="m728.17 285.58h36c2.2 0 4 1.8 4 4v34c0 2.2-1.8 4-4 4h-36c-2.2 0-4-1.8-4-4v-34c0-2.2 1.8-4 4-4z" fill="#ff66ff"/><path class="st4" d="m782.17 285.58h36c2.2 0 4 1.8 4 4v34c0 2.2-1.8 4-4 4h-36c-2.2 0-4-1.8-4-4v-34c0-2.2 1.8-4 4-4z" fill="#6666ff"/><path class="st5" d="m836.17 285.58h103.5c2.2 0 4 1.8 4 4v34c0 2.2-1.8 4-4 4h-103.5c-2.2 0-4-1.8-4-4v-34c0-2.2 1.8-4 4-4z" fill="#6666ff"/><path class="st4" d="m1146.7 285.58h36c2.2 0 4 1.8 4 4v34c0 2.2-1.8 4-4 4h-36c-2.2 0-4-1.8-4-4v-34c0-2.2 1.8-4 4-4z"/><path class="st4" d="m1200.7 285.58h36c2.2 0 4 1.8 4 4v34c0 2.2-1.8 4-4 4h-36c-2.2 0-4-1.8-4-4v-34c0-2.2 1.8-4 4-4z"/><path class="st4" d="m1254.7 285.58h36c2.2 0 4 1.8 4 4v34c0 2.2-1.8 4-4 4h-36c-2.2 0-4-1.8-4-4v-34c0-2.2 1.8-4 4-4z"/><path class="st4" d="m147.67 339.58h103.5c2.2 0 4 1.8 4 4v34c0 2.2-1.8 4-4 4h-103.5c-2.2 0-4-1.8-4-4v-34c0-2.2 1.8-4 4-4z"/><path class="st4" d="m269.17 339.58h36c2.2 0 4 1.8 4 4v34c0 2.2-1.8 4-4 4h-36c-2.2 0-4-1.8-4-4v-34c0-2.2 1.8-4 4-4z" fill="#cccc00"/><path class="st4" d="m323.17 339.58h36c2.2 0 4 1.8 4 4v34c0 2.2-1.8 4-4 4h-36c-2.2 0-4-1.8-4-4v-34c0-2.2 1.8-4 4-4z" fill="#ffff66"/><path class="st4" d="m377.17 339.58h36c2.2 0 4 1.8 4 4v34c0 2.2-1.8 4-4 4h-36c-2.2 0-4-1.8-4-4v-34c0-2.2 1.8-4 4-4z" fill="#cc0000"/><path class="st4" d="m431.17 339.58h36c2.2 0 4 1.8 4 4v34c0 2.2-1.8 4-4 4h-36c-2.2 0-4-1.8-4-4v-34c0-2.2 1.8-4 4-4z" fill="#ff6666"/><path class="st4" d="m485.17 339.58h36c2.2 0 4 1.8 4 4v34c0 2.2-1.8 4-4 4h-36c-2.2 0-4-1.8-4-4v-34c0-2.2 1.8-4 4-4z" fill="#00cc00"/><path class="st4" d="m539.17 339.58h36c2.2 0 4 1.8 4 4v34c0 2.2-1.8 4-4 4h-36c-2.2 0-4-1.8-4-4v-34c0-2.2 1.8-4 4-4z" fill="#66ff66"/><path class="st4" d="m593.17 339.58h36c2.2 0 4 1.8 4 4v34c0 2.2-1.8 4-4 4h-36c-2.2 0-4-1.8-4-4v-34c0-2.2 1.8-4 4-4z" fill="#00cccc"/><path class="st4" d="m647.17 339.58h36c2.2 0 4 1.8 4 4v34c0 2.2-1.8 4-4 4h-36c-2.2 0-4-1.8-4-4v-34c0-2.2 1.8-4 4-4z" fill="#66ffff"/><path class="st4" d="m701.17 339.58h36c2.2 0 4 1.8 4 4v34c0 2.2-1.8 4-4 4h-36c-2.2 0-4-1.8-4-4v-34c0-2.2 1.8-4 4-4z" fill="#cc00cc"/><path class="st4" d="m755.17 339.58h36c2.2 0 4 1.8 4 4v34c0 2.2-1.8 4-4 4h-36c-2.2 0-4-1.8-4-4v-34c0-2.2 1.8-4 4-4z" fill="#ff66ff"/><path class="st4" d="m809.17 339.58h130.5c2.2 0 4 1.8 4 4v34c0 2.2-1.8 4-4 4h-130.5c-2.2 0-4-1.8-4-4v-34c0-2.2 1.8-4 4-4z" fill="#6666ff"/><path class="st4" d="m1025.2 339.58h36c2.2 0 4 1.8 4 4v34c0 2.2-1.8 4-4 4h-36c-2.2 0-4-1.8-4-4v-34c0-2.2 1.8-4 4-4z"/><path class="st4" d="m1146.7 339.58h36c2.2 0 4 1.8 4 4v34c0 2.2-1.8 4-4 4h-36c-2.2 0-4-1.8-4-4v-34c0-2.2 1.8-4 4-4z"/><path class="st4" d="m1200.7 339.58h36c2.2 0 4 1.8 4 4v34c0 2.2-1.8 4-4 4h-36c-2.2 0-4-1.8-4-4v-34c0-2.2 1.8-4 4-4z"/><path class="st4" d="m1254.7 339.58h36c2.2 0 4 1.8 4 4v34c0 2.2-1.8 4-4 4h-36c-2.2 0-4-1.8-4-4v-34c0-2.2 1.8-4 4-4z"/><path class="st6" d="m1308.7 339.58h36c2.2 0 4 1.8 4 4v88c0 2.2-1.8 4-4 4h-36c-2.2 0-4-1.8-4-4v-88c0-2.2 1.8-4 4-4z"/><path class="st4" d="m147.67 393.58h49.5c2.2 0 4 1.8 4 4v34c0 2.2-1.8 4-4 4h-49.5c-2.2 0-4-1.8-4-4v-34c0-2.2 1.8-4 4-4z"/><path class="st4" d="m215.17 393.58h49.5c2.2 0 4 1.8 4 4v34c0 2.2-1.8 4-4 4h-49.5c-2.2 0-4-1.8-4-4v-34c0-2.2 1.8-4 4-4z"/><path class="st4" d="m282.67 393.58h49.5c2.2 0 4 1.8 4 4v34c0 2.2-1.8 4-4 4h-49.5c-2.2 0-4-1.8-4-4v-34c0-2.2 1.8-4 4-4z"/><path class="st4" d="m350.17 393.58h319.5c2.2 0 4 1.8 4 4v34c0 2.2-1.8 4-4 4h-319.5c-2.2 0-4-1.8-4-4v-34c0-2.2 1.8-4 4-4z"/><path class="st4" d="m687.67 393.58h49.5c2.2 0 4 1.8 4 4v34c0 2.2-1.8 4-4 4h-49.5c-2.2 0-4-1.8-4-4v-34c0-2.2 1.8-4 4-4z"/><path class="st4" d="m755.17 393.58h49.5c2.2 0 4 1.8 4 4v34c0 2.2-1.8 4-4 4h-49.5c-2.2 0-4-1.8-4-4v-34c0-2.2 1.8-4 4-4z"/><path class="st4" d="m822.67 393.58h49.5c2.2 0 4 1.8 4 4v34c0 2.2-1.8 4-4 4h-49.5c-2.2 0-4-1.8-4-4v-34c0-2.2 1.8-4 4-4z"/><path class="st4" d="m890.17 393.58h49.5c2.2 0 4 1.8 4 4v34c0 2.2-1.8 4-4 4h-49.5c-2.2 0-4-1.8-4-4v-34c0-2.2 1.8-4 4-4z"/><path class="st4" d="m971.17 393.58h36c2.2 0 4 1.8 4 4v34c0 2.2-1.8 4-4 4h-36c-2.2 0-4-1.8-4-4v-34c0-2.2 1.8-4 4-4z"/><path class="st4" d="m1025.2 393.58h36c2.2 0 4 1.8 4 4v34c0 2.2-1.8 4-4 4h-36c-2.2 0-4-1.8-4-4v-34c0-2.2 1.8-4 4-4z"/><path class="st4" d="m1079.2 393.58h36c2.2 0 4 1.8 4 4v34c0 2.2-1.8 4-4 4h-36c-2.2 0-4-1.8-4-4v-34c0-2.2 1.8-4 4-4z"/><path class="st4" d="m1146.7 393.58h90c2.2 0 4 1.8 4 4v34c0 2.2-1.8 4-4 4h-90c-2.2 0-4-1.8-4-4v-34c0-2.2 1.8-4 4-4z"/><path class="st4" d="m1254.7 393.58h36c2.2 0 4 1.8 4 4v34c0 2.2-1.8 4-4 4h-36c-2.2 0-4-1.8-4-4v-34c0-2.2 1.8-4 4-4z"/><path class="st5" d="m661.53 517.24h103.5c2.2 0 4 1.8 4 4v34c0 2.2-1.8 4-4 4h-103.5c-2.2 0-4-1.8-4-4v-34c0-2.2 1.8-4 4-4z" fill="#ff6666"/><path class="st5" d="m569.34 557.68h103.5c2.2 0 4 1.8 4 4v34c0 2.2-1.8 4-4 4h-103.5c-2.2 0-4-1.8-4-4v-34c0-2.2 1.8-4 4-4z" fill="#ff6666"/><path class="st2" d="m650.73 549.87h105.5c2.2 0 4 1.8 4 4v38c0 2.2-1.8 4-4 4h-105.5c-2.2 0-4-1.8-4-4v-38c0-2.2 1.8-4 4-4z" fill="#cc0000" stroke="#000000" stroke-width="2"/><path class="st5" d="m314.84 541.61h103.5c2.2 0 4 1.8 4 4v34c0 2.2-1.8 4-4 4h-103.5c-2.2 0-4-1.8-4-4v-34c0-2.2 1.8-4 4-4z" fill="#ff66ff"/><path class="st2" d="m317.65 580.78h105.5c2.2 0 4 1.8 4 4v38c0 2.2-1.8 4-4 4h-105.5c-2.2 0-4-1.8-4-4v-38c0-2.2 1.8-4 4-4z" fill="#cc00cc" stroke="#000000" stroke-width="2"/><path class="st5" d="m150.29 521.81h103.5c2.2 0 4 1.8 4 4v34c0 2.2-1.8 4-4 4h-103.5c-2.2 0-4-1.8-4-4v-34c0-2.2 1.8-4 4-4z" fill="#cc00cc"/><path class="st2" d="m153.11 560.98h105.5c2.2 0 4 1.8 4 4v38c0 2.2-1.8 4-4 4h-105.5c-2.2 0-4-1.8-4-4v-38c0-2.2 1.8-4 4-4z" fill="#cc00cc" stroke="#000000" stroke-width="2"/><path class="st5" d="m594.04 641.51h103.5c2.2 0 4 1.8 4 4v34c0 2.2-1.8 4-4 4h-103.5c-2.2 0-4-1.8-4-4v-34c0-2.2 1.8-4 4-4z" fill="#ffff66"/><path class="st2" d="m596.86 680.69h105.5c2.2 0 4 1.8 4 4v38c0 2.2-1.8 4-4 4h-105.5c-2.2 0-4-1.8-4-4v-38c0-2.2 1.8-4 4-4z" fill="#cccc00" stroke="#000000" stroke-width="2"/><path class="st5" d="m767.12 613.3h103.5c2.2 0 4 1.8 4 4v34c0 2.2-1.8 4-4 4h-103.5c-2.2 0-4-1.8-4-4v-34c0-2.2 1.8-4 4-4z" fill="#66ff66"/><path class="st2" d="m769.93 652.47h105.5c2.2 0 4 1.8 4 4v38c0 2.2-1.8 4-4 4h-105.5c-2.2 0-4-1.8-4-4v-38c0-2.2 1.8-4 4-4z" fill="#00cc00" stroke="#000000" stroke-width="2"/><path class="st5" d="m907.41 483.68h103.5c2.2 0 4 1.8 4 4v34c0 2.2-1.8 4-4 4h-103.5c-2.2 0-4-1.8-4-4v-34c0-2.2 1.8-4 4-4z" fill="#6666ff"/><path class="st2" d="m910.23 522.86h105.5c2.2 0 4 1.8 4 4v38c0 2.2-1.8 4-4 4h-105.5c-2.2 0-4-1.8-4-4v-38c0-2.2 1.8-4 4-4z" fill="#0000cc" stroke="#000000" stroke-width="2"/><path class="st5" d="m377.51 670.49h103.5c2.2 0 4 1.8 4 4v34c0 2.2-1.8 4-4 4h-103.5c-2.2 0-4-1.8-4-4v-34c0-2.2 1.8-4 4-4z" fill="#66ffff"/><path class="st2" d="m380.32 709.66h105.5c2.2 0 4 1.8 4 4v38c0 2.2-1.8 4-4 4h-105.5c-2.2 0-4-1.8-4-4v-38c0-2.2 1.8-4 4-4z" fill="#00cccc" stroke="#000000" stroke-width="2"/><path class="st1" d="m488.65 453.07h38c2.2 0 4 1.8 4 4v38c0 2.2-1.8 4-4 4h-38c-2.2 0-4-1.8-4-4v-38c0-2.2 1.8-4 4-4z" fill="#006600" stroke="#000000" stroke-width="2"/><path class="st4" d="m489.65 454.07h36c2.2 0 4 1.8 4 4v34c0 2.2-1.8 4-4 4h-36c-2.2 0-4-1.8-4-4v-34c0-2.2 1.8-4 4-4z" fill="#00cc00"/><path class="st1" d="m264.44 455.35h38c2.2 0 4 1.8 4 4v38c0 2.2-1.8 4-4 4h-38c-2.2 0-4-1.8-4-4v-38c0-2.2 1.8-4 4-4z" fill="#660000" stroke="#000000" stroke-width="2"/><path class="st4" d="m265.44 456.35h36c2.2 0 4 1.8 4 4v34c0 2.2-1.8 4-4 4h-36c-2.2 0-4-1.8-4-4v-34c0-2.2 1.8-4 4-4z" fill="#cc0000"/><path class="st1" d="m599.2 459.38h38c2.2 0 4 1.8 4 4v38c0 2.2-1.8 4-4 4h-38c-2.2 0-4-1.8-4-4v-38c0-2.2 1.8-4 4-4z" fill="#006666" stroke="#000000" stroke-width="2"/><path class="st4" d="m600.2 460.38h36c2.2 0 4 1.8 4 4v34c0 2.2-1.8 4-4 4h-36c-2.2 0-4-1.8-4-4v-34c0-2.2 1.8-4 4-4z" fill="#00cccc"/><path class="st1" d="m797.97 460.86h38c2.2 0 4 1.8 4 4v38c0 2.2-1.8 4-4 4h-38c-2.2 0-4-1.8-4-4v-38c0-2.2 1.8-4 4-4z" fill="#660066" stroke="#000000" stroke-width="2"/><path class="st4" d="m798.97 461.86h36c2.2 0 4 1.8 4 4v34c0 2.2-1.8 4-4 4h-36c-2.2 0-4-1.8-4-4v-34c0-2.2 1.8-4 4-4z" fill="#cc00cc"/><path class="st1" d="m381.45 459.88h38c2.2 0 4 1.8 4 4v38c0 2.2-1.8 4-4 4h-38c-2.2 0-4-1.8-4-4v-38c0-2.2 1.8-4 4-4z" fill="#666600" stroke="#000000" stroke-width="2"/><path class="st4" d="m382.45 460.88h36c2.2 0 4 1.8 4 4v34c0 2.2-1.8 4-4 4h-36c-2.2 0-4-1.8-4-4v-34c0-2.2 1.8-4 4-4z" fill="#cccc00"/><path class="st1" d="m700.27 465.77h38c2.2 0 4 1.8 4 4v38c0 2.2-1.8 4-4 4h-38c-2.2 0-4-1.8-4-4v-38c0-2.2 1.8-4 4-4z" fill="#000066" stroke="#000000" stroke-width="2"/><path class="st4" d="m694.19 447.48h36c2.2 0 4 1.8 4 4v34c0 2.2-1.8 4-4 4h-36c-2.2 0-4-1.8-4-4v-34c0-2.2 1.8-4 4-4z" fill="#0000cc"/></g><g transform="translate(-8.5 -8.8)"><g transform="matrix(2 0 0 2 -315.65 -97.551)"><path d="m225 158.2h-6.6v-9.9h6.4v1.4h-4.9v2.5h2.8v1.4h-2.8v3.1h5.1z"/></g><g transform="matrix(2 0 0 2 -74.45 -206.27)"><path d="m131.4 212.2h-1.6l-.8-2.4h-4l-.8 2.4h-1.5l3.6-9.9h1.6zm-2.9-3.7-.8-2.3c-.2-.7-.6-1.9-.8-2.3-.1.4-.5 1.6-.7 2.3l-.8 2.3z"/></g><g transform="matrix(2 0 0 2 -355.66 -259.91)"><path d="m239 207.2c0 3.5-2.2 5-4.8 5h-2.7v-9.9h2.7c2.7-.1 4.8 1.4 4.8 4.9zm-1.5 0c0-2.1-1-3.5-3.3-3.5h-1.2v7h1.2c2.3 0 3.3-1.4 3.3-3.5z"/></g><g transform="matrix(2 0 0 2 -439.99 -314.1)"><path d="m292.6 203.7h-4.9v2.6h2.8v1.5h-2.8v4.4h-1.5v-9.9h6.4z"/></g><g transform="matrix(2 0 0 2 -517.62 -260.18)"><path d="m347 208.3c0 2.6-1.6 4-3.8 4-2.6 0-4.2-2.1-4.2-5.1s1.6-5.1 4.2-5.1c1.6 0 2.7.7 3.4 1.9l-1.3.8c-.5-.8-1-1.2-2.1-1.2-1.7 0-2.7 1.4-2.7 3.6s.9 3.6 2.7 3.6c1.6 0 2.3-1.1 2.3-2.2h-1.6v-1.4h3.1z"/></g><g transform="matrix(2 0 0 2 -436.79 -422.68)"><path d="m265.8 264.4c-.7 1.2-1.9 1.9-3.4 1.9-2.6 0-4.2-2.1-4.2-5.1s1.6-5.1 4.2-5.1c1.6 0 2.7.7 3.4 1.9l-1.3.8c-.5-.8-1-1.2-2.1-1.2-1.7 0-2.7 1.4-2.7 3.6s.9 3.6 2.7 3.6c1 0 1.7-.4 2.2-1.2z"/></g><g transform="matrix(2 0 0 2 -531.64 -261.26)"><path d="m373.8 263.1c0 2-1.2 3-3.4 3h-3.9v-9.9h4.1c1.7 0 2.8.9 2.8 2.6 0 1-.5 1.6-1.3 2 .9.2 1.7 1 1.7 2.3zm-1.8-4.2c0-.7-.4-1.3-1.4-1.3h-2.7v2.6h2.7c1 0 1.4-.6 1.4-1.3zm.4 4.3c0-1-.6-1.6-1.8-1.6h-2.7v3.3h2.7c1.3-.1 1.8-.8 1.8-1.7z"/></g><g transform="matrix(2 0 0 2 -206.86 -96.135)"><path d="m225 158.2h-6.6v-9.9h6.4v1.4h-4.9v2.5h2.8v1.4h-2.8v3.1h5.1z"/></g><g transform="matrix(2 0 0 2 34.885 -207.28)"><path d="m131.4 212.2h-1.6l-.8-2.4h-4l-.8 2.4h-1.5l3.6-9.9h1.6zm-2.9-3.7-.8-2.3c-.2-.7-.6-1.9-.8-2.3-.1.4-.5 1.6-.7 2.3l-.8 2.3z"/></g><g transform="matrix(2 0 0 2 -247.94 -259.03)"><path d="m239 207.2c0 3.5-2.2 5-4.8 5h-2.7v-9.9h2.7c2.7-.1 4.8 1.4 4.8 4.9zm-1.5 0c0-2.1-1-3.5-3.3-3.5h-1.2v7h1.2c2.3 0 3.3-1.4 3.3-3.5z"/></g><g transform="matrix(2 0 0 2 -331.19 -312.68)"><path d="m292.6 203.7h-4.9v2.6h2.8v1.5h-2.8v4.4h-1.5v-9.9h6.4z"/></g><g transform="matrix(2 0 0 2 -408.83 -258.77)"><path d="m347 208.3c0 2.6-1.6 4-3.8 4-2.6 0-4.2-2.1-4.2-5.1s1.6-5.1 4.2-5.1c1.6 0 2.7.7 3.4 1.9l-1.3.8c-.5-.8-1-1.2-2.1-1.2-1.7 0-2.7 1.4-2.7 3.6s.9 3.6 2.7 3.6c1.6 0 2.3-1.1 2.3-2.2h-1.6v-1.4h3.1z"/></g><g transform="matrix(2 0 0 2 -330.18 -424.41)"><path d="m265.8 264.4c-.7 1.2-1.9 1.9-3.4 1.9-2.6 0-4.2-2.1-4.2-5.1s1.6-5.1 4.2-5.1c1.6 0 2.7.7 3.4 1.9l-1.3.8c-.5-.8-1-1.2-2.1-1.2-1.7 0-2.7 1.4-2.7 3.6s.9 3.6 2.7 3.6c1 0 1.7-.4 2.2-1.2z"/></g><g transform="matrix(2 0 0 2 -422.84 -259.84)"><path d="m373.8 263.1c0 2-1.2 3-3.4 3h-3.9v-9.9h4.1c1.7 0 2.8.9 2.8 2.6 0 1-.5 1.6-1.3 2 .9.2 1.7 1 1.7 2.3zm-1.8-4.2c0-.7-.4-1.3-1.4-1.3h-2.7v2.6h2.7c1 0 1.4-.6 1.4-1.3zm.4 4.3c0-1-.6-1.6-1.8-1.6h-2.7v3.3h2.7c1.3-.1 1.8-.8 1.8-1.7z"/></g><g transform="matrix(2 0 0 2 -97.951 -98.292)"><path d="m225 158.2h-6.6v-9.9h6.4v1.4h-4.9v2.5h2.8v1.4h-2.8v3.1h5.1z"/></g><g transform="matrix(2 0 0 2 143.25 -207.01)"><path d="m131.4 212.2h-1.6l-.8-2.4h-4l-.8 2.4h-1.5l3.6-9.9h1.6zm-2.9-3.7-.8-2.3c-.2-.7-.6-1.9-.8-2.3-.1.4-.5 1.6-.7 2.3l-.8 2.3z"/></g><g transform="matrix(2 0 0 2 -139.29 -259.7)"><path d="m239 207.2c0 3.5-2.2 5-4.8 5h-2.7v-9.9h2.7c2.7-.1 4.8 1.4 4.8 4.9zm-1.5 0c0-2.1-1-3.5-3.3-3.5h-1.2v7h1.2c2.3 0 3.3-1.4 3.3-3.5z"/></g><g transform="matrix(2 0 0 2 -222.28 -314.84)"><path d="m292.6 203.7h-4.9v2.6h2.8v1.5h-2.8v4.4h-1.5v-9.9h6.4z"/></g><g transform="matrix(2 0 0 2 -302.4 -259.02)"><path d="m347 208.3c0 2.6-1.6 4-3.8 4-2.6 0-4.2-2.1-4.2-5.1s1.6-5.1 4.2-5.1c1.6 0 2.7.7 3.4 1.9l-1.3.8c-.5-.8-1-1.2-2.1-1.2-1.7 0-2.7 1.4-2.7 3.6s.9 3.6 2.7 3.6c1.6 0 2.3-1.1 2.3-2.2h-1.6v-1.4h3.1z"/></g><g transform="matrix(2 0 0 2 -221.24 -424.09)"><path d="m265.8 264.4c-.7 1.2-1.9 1.9-3.4 1.9-2.6 0-4.2-2.1-4.2-5.1s1.6-5.1 4.2-5.1c1.6 0 2.7.7 3.4 1.9l-1.3.8c-.5-.8-1-1.2-2.1-1.2-1.7 0-2.7 1.4-2.7 3.6s.9 3.6 2.7 3.6c1 0 1.7-.4 2.2-1.2z"/></g><g transform="matrix(2 0 0 2 -313.94 -262)"><path d="m373.8 263.1c0 2-1.2 3-3.4 3h-3.9v-9.9h4.1c1.7 0 2.8.9 2.8 2.6 0 1-.5 1.6-1.3 2 .9.2 1.7 1 1.7 2.3zm-1.8-4.2c0-.7-.4-1.3-1.4-1.3h-2.7v2.6h2.7c1 0 1.4-.6 1.4-1.3zm.4 4.3c0-1-.6-1.6-1.8-1.6h-2.7v3.3h2.7c1.3-.1 1.8-.8 1.8-1.7z"/></g><g transform="matrix(2 0 0 2 7.7201 -99.909)"><path d="m225 158.2h-6.6v-9.9h6.4v1.4h-4.9v2.5h2.8v1.4h-2.8v3.1h5.1z"/></g><g transform="matrix(2 0 0 2 251.08 -205.93)"><path d="m131.4 212.2h-1.6l-.8-2.4h-4l-.8 2.4h-1.5l3.6-9.9h1.6zm-2.9-3.7-.8-2.3c-.2-.7-.6-1.9-.8-2.3-.1.4-.5 1.6-.7 2.3l-.8 2.3z"/></g><g transform="matrix(2 0 0 2 -30.133 -259.57)"><path d="m239 207.2c0 3.5-2.2 5-4.8 5h-2.7v-9.9h2.7c2.7-.1 4.8 1.4 4.8 4.9zm-1.5 0c0-2.1-1-3.5-3.3-3.5h-1.2v7h1.2c2.3 0 3.3-1.4 3.3-3.5z"/></g><g transform="matrix(2 0 0 2 -114.46 -313.76)"><path d="m292.6 203.7h-4.9v2.6h2.8v1.5h-2.8v4.4h-1.5v-9.9h6.4z"/></g><g transform="matrix(2 0 0 2 -192.09 -259.84)"><path d="m347 208.3c0 2.6-1.6 4-3.8 4-2.6 0-4.2-2.1-4.2-5.1s1.6-5.1 4.2-5.1c1.6 0 2.7.7 3.4 1.9l-1.3.8c-.5-.8-1-1.2-2.1-1.2-1.7 0-2.7 1.4-2.7 3.6s.9 3.6 2.7 3.6c1.6 0 2.3-1.1 2.3-2.2h-1.6v-1.4h3.1z"/></g><g transform="matrix(2 0 0 2 -114.89 -423.89)"><path d="m265.8 264.4c-.7 1.2-1.9 1.9-3.4 1.9-2.6 0-4.2-2.1-4.2-5.1s1.6-5.1 4.2-5.1c1.6 0 2.7.7 3.4 1.9l-1.3.8c-.5-.8-1-1.2-2.1-1.2-1.7 0-2.7 1.4-2.7 3.6s.9 3.6 2.7 3.6c1 0 1.7-.4 2.2-1.2z"/></g><g transform="matrix(2 0 0 2 -206.11 -260.92)"><path d="m373.8 263.1c0 2-1.2 3-3.4 3h-3.9v-9.9h4.1c1.7 0 2.8.9 2.8 2.6 0 1-.5 1.6-1.3 2 .9.2 1.7 1 1.7 2.3zm-1.8-4.2c0-.7-.4-1.3-1.4-1.3h-2.7v2.6h2.7c1 0 1.4-.6 1.4-1.3zm.4 4.3c0-1-.6-1.6-1.8-1.6h-2.7v3.3h2.7c1.3-.1 1.8-.8 1.8-1.7z"/></g><g transform="matrix(2 0 0 2 117.7 -98.292)"><path d="m225 158.2h-6.6v-9.9h6.4v1.4h-4.9v2.5h2.8v1.4h-2.8v3.1h5.1z"/></g><g transform="matrix(2 0 0 2 358.91 -207.01)"><path d="m131.4 212.2h-1.6l-.8-2.4h-4l-.8 2.4h-1.5l3.6-9.9h1.6zm-2.9-3.7-.8-2.3c-.2-.7-.6-1.9-.8-2.3-.1.4-.5 1.6-.7 2.3l-.8 2.3z"/></g><g transform="matrix(2 0 0 2 77.695 -260.65)"><path d="m239 207.2c0 3.5-2.2 5-4.8 5h-2.7v-9.9h2.7c2.7-.1 4.8 1.4 4.8 4.9zm-1.5 0c0-2.1-1-3.5-3.3-3.5h-1.2v7h1.2c2.3 0 3.3-1.4 3.3-3.5z"/></g><g transform="matrix(2 0 0 2 -6.6286 -314.84)"><path d="m292.6 203.7h-4.9v2.6h2.8v1.5h-2.8v4.4h-1.5v-9.9h6.4z"/></g><g transform="matrix(2 0 0 2 -84.264 -260.92)"><path d="m347 208.3c0 2.6-1.6 4-3.8 4-2.6 0-4.2-2.1-4.2-5.1s1.6-5.1 4.2-5.1c1.6 0 2.7.7 3.4 1.9l-1.3.8c-.5-.8-1-1.2-2.1-1.2-1.7 0-2.7 1.4-2.7 3.6s.9 3.6 2.7 3.6c1.6 0 2.3-1.1 2.3-2.2h-1.6v-1.4h3.1z"/></g><g transform="matrix(2 0 0 2 -5.5173 -423.82)"><path d="m265.8 264.4c-.7 1.2-1.9 1.9-3.4 1.9-2.6 0-4.2-2.1-4.2-5.1s1.6-5.1 4.2-5.1c1.6 0 2.7.7 3.4 1.9l-1.3.8c-.5-.8-1-1.2-2.1-1.2-1.7 0-2.7 1.4-2.7 3.6s.9 3.6 2.7 3.6c1 0 1.7-.4 2.2-1.2z"/></g><g transform="matrix(2 0 0 2 -98.282 -262)"><path d="m373.8 263.1c0 2-1.2 3-3.4 3h-3.9v-9.9h4.1c1.7 0 2.8.9 2.8 2.6 0 1-.5 1.6-1.3 2 .9.2 1.7 1 1.7 2.3zm-1.8-4.2c0-.7-.4-1.3-1.4-1.3h-2.7v2.6h2.7c1 0 1.4-.6 1.4-1.3zm.4 4.3c0-1-.6-1.6-1.8-1.6h-2.7v3.3h2.7c1.3-.1 1.8-.8 1.8-1.7z"/></g><g transform="matrix(2 0 0 2 224.24 -97.047)"><path d="m225 158.2h-6.6v-9.9h6.4v1.4h-4.9v2.5h2.8v1.4h-2.8v3.1h5.1z"/></g><g transform="matrix(2 0 0 2 184.23 -259.4)"><path d="m239 207.2c0 3.5-2.2 5-4.8 5h-2.7v-9.9h2.7c2.7-.1 4.8 1.4 4.8 4.9zm-1.5 0c0-2.1-1-3.5-3.3-3.5h-1.2v7h1.2c2.3 0 3.3-1.4 3.3-3.5z"/></g><g transform="matrix(2 0 0 2 99.911 -313.59)"><path d="m292.6 203.7h-4.9v2.6h2.8v1.5h-2.8v4.4h-1.5v-9.9h6.4z"/></g><g transform="matrix(2 0 0 2 103.11 -422.71)"><path d="m265.8 264.4c-.7 1.2-1.9 1.9-3.4 1.9-2.6 0-4.2-2.1-4.2-5.1s1.6-5.1 4.2-5.1c1.6 0 2.7.7 3.4 1.9l-1.3.8c-.5-.8-1-1.2-2.1-1.2-1.7 0-2.7 1.4-2.7 3.6s.9 3.6 2.7 3.6c1 0 1.7-.4 2.2-1.2z"/></g><g transform="matrix(2 0 0 2 20.225 -261.87)"><path d="m347 208.3c0 2.6-1.6 4-3.8 4-2.6 0-4.2-2.1-4.2-5.1s1.6-5.1 4.2-5.1c1.6 0 2.7.7 3.4 1.9l-1.3.8c-.5-.8-1-1.2-2.1-1.2-1.7 0-2.7 1.4-2.7 3.6s.9 3.6 2.7 3.6c1.6 0 2.3-1.1 2.3-2.2h-1.6v-1.4h3.1z"/></g><g transform="matrix(2 0 0 2 475.58 -207.51)"><path d="m131.4 212.2h-1.6l-.8-2.4h-4l-.8 2.4h-1.5l3.6-9.9h1.6zm-2.9-3.7-.8-2.3c-.2-.7-.6-1.9-.8-2.3-.1.4-.5 1.6-.7 2.3l-.8 2.3z"/></g><g transform="matrix(2 0 0 2 15.526 -261.94)"><path d="m373.8 263.1c0 2-1.2 3-3.4 3h-3.9v-9.9h4.1c1.7 0 2.8.9 2.8 2.6 0 1-.5 1.6-1.3 2 .9.2 1.7 1 1.7 2.3zm-1.8-4.2c0-.7-.4-1.3-1.4-1.3h-2.7v2.6h2.7c1 0 1.4-.6 1.4-1.3zm.4 4.3c0-1-.6-1.6-1.8-1.6h-2.7v3.3h2.7c1.3-.1 1.8-.8 1.8-1.7z"/></g><rect x="281.03" y="222.89" width="15.635" height=".53914" fill="#cc0000" stroke="#cc0000" stroke-linecap="round" stroke-linejoin="round" stroke-width="3.0236" style="paint-order:markers fill stroke"/><rect x="443.48" y="222.49" width="15.635" height=".53914" fill="#808000" stroke="#00cccc" stroke-linecap="round" stroke-linejoin="round" stroke-width="3.0236" style="paint-order:markers fill stroke"/><g transform="translate(-148.32 162.8)"><g transform="matrix(.75758 0 0 .75758 97.907 -107.21)"><path d="m272.24 265.18h-1.7v2.3h-1.4v-2.3h-2.3v2.3h-1.4v-2.3h-1.7v-1.3h1.7v-2.7h-1.7v-1.4h1.7v-2.3h1.4v2.3h2.3v-2.3h1.4v2.3h1.7v1.3h-1.7v2.7h1.7zm-3.1-1.3v-2.7h-2.3v2.7z"/><g transform="matrix(2,0,0,2,-319.55,-152.64)"><path d="m292.6 203.7h-4.9v2.6h2.8v1.5h-2.8v4.4h-1.5v-9.9h6.4z"/></g></g><g transform="matrix(.73529 0 0 .73529 426.3 156.69)"><g transform="matrix(2,0,0,2,-846.8,-481.84)"><path d="m347 208.3c0 2.6-1.6 4-3.8 4-2.6 0-4.2-2.1-4.2-5.1s1.6-5.1 4.2-5.1c1.6 0 2.7.7 3.4 1.9l-1.3.8c-.5-.8-1-1.2-2.1-1.2-1.7 0-2.7 1.4-2.7 3.6s.9 3.6 2.7 3.6c1.6 0 2.3-1.1 2.3-2.2h-1.6v-1.4h3.1z"/></g><text x="-151.87219" y="-63.103462" font-family="'Century Schoolbook'" font-size="18.667px" font-weight="bold" letter-spacing="0px" word-spacing="0px" style="line-height:1" xml:space="preserve"><tspan x="-151.87219" y="-63.103462" font-family="'Century Schoolbook'" font-size="18.667px" font-weight="bold">♭</tspan></text></g></g><g transform="translate(-40.048 161.27)"><g transform="matrix(.75758 0 0 .75758 97.907 -107.21)"><path d="m272.24 265.18h-1.7v2.3h-1.4v-2.3h-2.3v2.3h-1.4v-2.3h-1.7v-1.3h1.7v-2.7h-1.7v-1.4h1.7v-2.3h1.4v2.3h2.3v-2.3h1.4v2.3h1.7v1.3h-1.7v2.7h1.7zm-3.1-1.3v-2.7h-2.3v2.7z"/><g transform="matrix(2,0,0,2,-319.55,-152.64)"><path d="m292.6 203.7h-4.9v2.6h2.8v1.5h-2.8v4.4h-1.5v-9.9h6.4z"/></g></g><g transform="matrix(.73529 0 0 .73529 426.3 156.69)"><g transform="matrix(2,0,0,2,-846.8,-481.84)"><path d="m347 208.3c0 2.6-1.6 4-3.8 4-2.6 0-4.2-2.1-4.2-5.1s1.6-5.1 4.2-5.1c1.6 0 2.7.7 3.4 1.9l-1.3.8c-.5-.8-1-1.2-2.1-1.2-1.7 0-2.7 1.4-2.7 3.6s.9 3.6 2.7 3.6c1.6 0 2.3-1.1 2.3-2.2h-1.6v-1.4h3.1z"/></g><text x="-151.87219" y="-63.103462" font-family="'Century Schoolbook'" font-size="18.667px" font-weight="bold" letter-spacing="0px" word-spacing="0px" style="line-height:1" xml:space="preserve"><tspan x="-151.87219" y="-63.103462" font-family="'Century Schoolbook'" font-size="18.667px" font-weight="bold">♭</tspan></text></g></g><g transform="translate(65.934 161.66)"><g transform="matrix(.75758 0 0 .75758 97.907 -107.21)"><path d="m272.24 265.18h-1.7v2.3h-1.4v-2.3h-2.3v2.3h-1.4v-2.3h-1.7v-1.3h1.7v-2.7h-1.7v-1.4h1.7v-2.3h1.4v2.3h2.3v-2.3h1.4v2.3h1.7v1.3h-1.7v2.7h1.7zm-3.1-1.3v-2.7h-2.3v2.7z"/><g transform="matrix(2,0,0,2,-319.55,-152.64)"><path d="m292.6 203.7h-4.9v2.6h2.8v1.5h-2.8v4.4h-1.5v-9.9h6.4z"/></g></g><g transform="matrix(.73529 0 0 .73529 426.3 156.69)"><g transform="matrix(2,0,0,2,-846.8,-481.84)"><path d="m347 208.3c0 2.6-1.6 4-3.8 4-2.6 0-4.2-2.1-4.2-5.1s1.6-5.1 4.2-5.1c1.6 0 2.7.7 3.4 1.9l-1.3.8c-.5-.8-1-1.2-2.1-1.2-1.7 0-2.7 1.4-2.7 3.6s.9 3.6 2.7 3.6c1.6 0 2.3-1.1 2.3-2.2h-1.6v-1.4h3.1z"/></g><text x="-151.87219" y="-63.103462" font-family="'Century Schoolbook'" font-size="18.667px" font-weight="bold" letter-spacing="0px" word-spacing="0px" style="line-height:1" xml:space="preserve"><tspan x="-151.87219" y="-63.103462" font-family="'Century Schoolbook'" font-size="18.667px" font-weight="bold">♭</tspan></text></g></g><g transform="translate(174.2 162.8)"><g transform="matrix(.75758 0 0 .75758 97.907 -107.21)"><path d="m272.24 265.18h-1.7v2.3h-1.4v-2.3h-2.3v2.3h-1.4v-2.3h-1.7v-1.3h1.7v-2.7h-1.7v-1.4h1.7v-2.3h1.4v2.3h2.3v-2.3h1.4v2.3h1.7v1.3h-1.7v2.7h1.7zm-3.1-1.3v-2.7h-2.3v2.7z"/><g transform="matrix(2,0,0,2,-319.55,-152.64)"><path d="m292.6 203.7h-4.9v2.6h2.8v1.5h-2.8v4.4h-1.5v-9.9h6.4z"/></g></g><g transform="matrix(.73529 0 0 .73529 426.3 156.69)"><g transform="matrix(2,0,0,2,-846.8,-481.84)"><path d="m347 208.3c0 2.6-1.6 4-3.8 4-2.6 0-4.2-2.1-4.2-5.1s1.6-5.1 4.2-5.1c1.6 0 2.7.7 3.4 1.9l-1.3.8c-.5-.8-1-1.2-2.1-1.2-1.7 0-2.7 1.4-2.7 3.6s.9 3.6 2.7 3.6c1.6 0 2.3-1.1 2.3-2.2h-1.6v-1.4h3.1z"/></g><text x="-151.87219" y="-63.103462" font-family="'Century Schoolbook'" font-size="18.667px" font-weight="bold" letter-spacing="0px" word-spacing="0px" style="line-height:1" xml:space="preserve"><tspan x="-151.87219" y="-63.103462" font-family="'Century Schoolbook'" font-size="18.667px" font-weight="bold">♭</tspan></text></g></g><g transform="translate(282.85 161.66)"><g transform="matrix(.75758 0 0 .75758 97.907 -107.21)"><path d="m272.24 265.18h-1.7v2.3h-1.4v-2.3h-2.3v2.3h-1.4v-2.3h-1.7v-1.3h1.7v-2.7h-1.7v-1.4h1.7v-2.3h1.4v2.3h2.3v-2.3h1.4v2.3h1.7v1.3h-1.7v2.7h1.7zm-3.1-1.3v-2.7h-2.3v2.7z"/><g transform="matrix(2,0,0,2,-319.55,-152.64)"><path d="m292.6 203.7h-4.9v2.6h2.8v1.5h-2.8v4.4h-1.5v-9.9h6.4z"/></g></g><g transform="matrix(.73529 0 0 .73529 426.3 156.69)"><g transform="matrix(2,0,0,2,-846.8,-481.84)"><path d="m347 208.3c0 2.6-1.6 4-3.8 4-2.6 0-4.2-2.1-4.2-5.1s1.6-5.1 4.2-5.1c1.6 0 2.7.7 3.4 1.9l-1.3.8c-.5-.8-1-1.2-2.1-1.2-1.7 0-2.7 1.4-2.7 3.6s.9 3.6 2.7 3.6c1.6 0 2.3-1.1 2.3-2.2h-1.6v-1.4h3.1z"/></g><text x="-151.87219" y="-63.103462" font-family="'Century Schoolbook'" font-size="18.667px" font-weight="bold" letter-spacing="0px" word-spacing="0px" style="line-height:1" xml:space="preserve"><tspan x="-151.87219" y="-63.103462" font-family="'Century Schoolbook'" font-size="18.667px" font-weight="bold">♭</tspan></text></g></g></g><g font-family="'CMU Concrete'" font-size="8.5537px" letter-spacing="0px" stroke-width=".64153" word-spacing="0px"><text x="705.84924" y="185.53902" fill="#0000cc" style="line-height:1" xml:space="preserve"><tspan x="705.84924" y="185.53902" fill="#0000cc" font-family="'CMU Concrete'" stroke-width=".64153">1760 Hz</tspan></text><text x="267.70074" y="186.89594" fill="#cc0000" style="line-height:1" xml:space="preserve"><tspan x="267.70074" y="186.89594" fill="#cc0000" font-family="'CMU Concrete'" stroke-width=".64153">220 Hz</tspan></text><text x="160.26489" y="186.45058" fill="#cccc00" style="line-height:1" xml:space="preserve"><tspan x="160.26489" y="186.45058" fill="#cccc00" font-family="'CMU Concrete'" stroke-width=".64153">110 Hz</tspan></text><text x="483.46255" y="187.15942" fill="#008080" style="line-height:1" xml:space="preserve"><tspan x="483.46255" y="187.15942" fill="#008080" font-family="'CMU Concrete'" stroke-width=".64153">880 Hz</tspan></text><text x="592.05194" y="186.04622" fill="#cc00cc" style="line-height:1" xml:space="preserve"><tspan x="592.05194" y="186.04622" fill="#cc00cc" font-family="'CMU Concrete'" stroke-width=".64153">880 Hz</tspan></text><text x="375.94165" y="186.13315" fill="#008000" style="line-height:1" xml:space="preserve"><tspan x="375.94165" y="186.13315" fill="#008000" font-family="'CMU Concrete'" stroke-width=".64153">440 Hz</tspan></text></g></svg>
