<?xml version="1.0" encoding="UTF-8"?>
<svg version="1.1" viewBox="0 0 804 331.4" xml:space="preserve" xmlns="http://www.w3.org/2000/svg">
<title>ANSI US QWERTY (Windows) Enter/Return</title>
<desc>ANSI US QWERTY keyboard layout for Windows with the location of the Enter and Return keys highlighted</desc>
<style type="text/css">
	.st0{fill:#EEEEEE;stroke:#DDDDDD;}
	.st1{fill:#CCCCCC;stroke:#000000;stroke-width:2;}
	.st2{fill:#CC0000;stroke:#000000;stroke-width:2;}
	.st3{fill:#339900;stroke:#000000;stroke-width:2;}
	.st4{fill:#FCFCFC;}
	.st5{fill:#FF6666;}
	.st6{fill:#66CC33;}
	.st7{fill:#FFFFFF;}
</style>




<path class="st0" d="m-2-8.298h1213c3.3 0 6 2.7 6 6v336c0 3.3-2.7 6-6 6h-1213c-3.3 0-6-2.7-6-6v-336c0-3.3 2.7-6 6-6z"/><path class="st1" d="m5 1h38c2.2 0 4 1.8 4 4v38c0 2.2-1.8 4-4 4h-38c-2.2 0-4-1.8-4-4v-38c0-2.3 1.8-4 4-4z"/><path class="st1" d="m113 1h38c2.2 0 4 1.8 4 4v38c0 2.2-1.8 4-4 4h-38c-2.2 0-4-1.8-4-4v-38c0-2.3 1.8-4 4-4z"/><path class="st1" d="m167 1h38c2.2 0 4 1.8 4 4v38c0 2.2-1.8 4-4 4h-38c-2.2 0-4-1.8-4-4v-38c0-2.3 1.8-4 4-4z"/><path class="st1" d="m221 1h38c2.2 0 4 1.8 4 4v38c0 2.2-1.8 4-4 4h-38c-2.2 0-4-1.8-4-4v-38c0-2.3 1.8-4 4-4z"/><path class="st1" d="m275 1h38c2.2 0 4 1.8 4 4v38c0 2.2-1.8 4-4 4h-38c-2.2 0-4-1.8-4-4v-38c0-2.3 1.8-4 4-4z"/><path class="st1" d="m356 1h38c2.2 0 4 1.8 4 4v38c0 2.2-1.8 4-4 4h-38c-2.2 0-4-1.8-4-4v-38c0-2.3 1.8-4 4-4z"/><path class="st1" d="m410 1h38c2.2 0 4 1.8 4 4v38c0 2.2-1.8 4-4 4h-38c-2.2 0-4-1.8-4-4v-38c0-2.3 1.8-4 4-4z"/><path class="st1" d="m464 1h38c2.2 0 4 1.8 4 4v38c0 2.2-1.8 4-4 4h-38c-2.2 0-4-1.8-4-4v-38c0-2.3 1.8-4 4-4z"/><path class="st1" d="m518 1h38c2.2 0 4 1.8 4 4v38c0 2.2-1.8 4-4 4h-38c-2.2 0-4-1.8-4-4v-38c0-2.3 1.8-4 4-4z"/><path class="st1" d="m599 1h38c2.2 0 4 1.8 4 4v38c0 2.2-1.8 4-4 4h-38c-2.2 0-4-1.8-4-4v-38c0-2.3 1.8-4 4-4z"/><path class="st1" d="m653 1h38c2.2 0 4 1.8 4 4v38c0 2.2-1.8 4-4 4h-38c-2.2 0-4-1.8-4-4v-38c0-2.3 1.8-4 4-4z"/><path class="st1" d="m707 1h38c2.2 0 4 1.8 4 4v38c0 2.2-1.8 4-4 4h-38c-2.2 0-4-1.8-4-4v-38c0-2.3 1.8-4 4-4z"/><path class="st1" d="m761 1h38c2.2 0 4 1.8 4 4v38c0 2.2-1.8 4-4 4h-38c-2.2 0-4-1.8-4-4v-38c0-2.3 1.8-4 4-4z"/><path class="st1" d="m828.5 1h38c2.2 0 4 1.8 4 4v38c0 2.2-1.8 4-4 4h-38c-2.2 0-4-1.8-4-4v-38c0-2.3 1.8-4 4-4z"/><path class="st1" d="m882.53 1h38c2.2 0 4 1.8 4 4v38c0 2.2-1.8 4-4 4h-38c-2.2 0-4-1.8-4-4v-38c0-2.3 1.8-4 4-4z"/><path class="st1" d="m936.53 1h38c2.2 0 4 1.8 4 4v38c0 2.2-1.8 4-4 4h-38c-2.2 0-4-1.8-4-4v-38c0-2.3 1.8-4 4-4z"/><path class="st1" d="m5 68.4h38c2.2 0 4 1.8 4 4v38c0 2.2-1.8 4-4 4h-38c-2.2 0-4-1.8-4-4v-38c0-2.2 1.8-4 4-4z"/><path class="st1" d="m59 68.4h38c2.2 0 4 1.8 4 4v38c0 2.2-1.8 4-4 4h-38c-2.2 0-4-1.8-4-4v-38c0-2.2 1.8-4 4-4z" fill="#666600"/><path class="st1" d="m113 68.4h38c2.2 0 4 1.8 4 4v38c0 2.2-1.8 4-4 4h-38c-2.2 0-4-1.8-4-4v-38c0-2.2 1.8-4 4-4z" fill="#660000"/><path class="st1" d="m167 68.4h38c2.2 0 4 1.8 4 4v38c0 2.2-1.8 4-4 4h-38c-2.2 0-4-1.8-4-4v-38c0-2.2 1.8-4 4-4z" fill="#660000"/><path class="st1" d="m221 68.4h38c2.2 0 4 1.8 4 4v38c0 2.2-1.8 4-4 4h-38c-2.2 0-4-1.8-4-4v-38c0-2.2 1.8-4 4-4z" fill="#660000"/><path class="st1" d="m275 68.4h38c2.2 0 4 1.8 4 4v38c0 2.2-1.8 4-4 4h-38c-2.2 0-4-1.8-4-4v-38c0-2.2 1.8-4 4-4z" fill="#006600"/><path class="st1" d="m329 68.4h38c2.2 0 4 1.8 4 4v38c0 2.2-1.8 4-4 4h-38c-2.2 0-4-1.8-4-4v-38c0-2.2 1.8-4 4-4z" fill="#006600"/><path class="st1" d="m383 68.4h38c2.2 0 4 1.8 4 4v38c0 2.2-1.8 4-4 4h-38c-2.2 0-4-1.8-4-4v-38c0-2.2 1.8-4 4-4z" fill="#006600"/><path class="st1" d="m437 68.4h38c2.2 0 4 1.8 4 4v38c0 2.2-1.8 4-4 4h-38c-2.2 0-4-1.8-4-4v-38c0-2.2 1.8-4 4-4z" fill="#006666"/><path class="st1" d="m491 68.4h38c2.2 0 4 1.8 4 4v38c0 2.2-1.8 4-4 4h-38c-2.2 0-4-1.8-4-4v-38c0-2.2 1.8-4 4-4z" fill="#006666"/><path class="st1" d="m545 68.4h38c2.2 0 4 1.8 4 4v38c0 2.2-1.8 4-4 4h-38c-2.2 0-4-1.8-4-4v-38c0-2.2 1.8-4 4-4z" fill="#006666"/><path class="st1" d="m599 68.4h38c2.2 0 4 1.8 4 4v38c0 2.2-1.8 4-4 4h-38c-2.2 0-4-1.8-4-4v-38c0-2.2 1.8-4 4-4z" fill="#660066"/><path class="st1" d="m653 68.4h38c2.2 0 4 1.8 4 4v38c0 2.2-1.8 4-4 4h-38c-2.2 0-4-1.8-4-4v-38c0-2.2 1.8-4 4-4z" fill="#660066"/><path class="st1" d="m707 68.4h92c2.2 0 4 1.8 4 4v38c0 2.2-1.8 4-4 4h-92c-2.2 0-4-1.8-4-4v-38c0-2.2 1.8-4 4-4z" fill="#660066"/><path class="st1" d="m828.5 68.4h38c2.2 0 4 1.8 4 4v38c0 2.2-1.8 4-4 4h-38c-2.2 0-4-1.8-4-4v-38c0-2.2 1.8-4 4-4z"/><path class="st1" d="m882.53 68.4h38c2.2 0 4 1.8 4 4v38c0 2.2-1.8 4-4 4h-38c-2.2 0-4-1.8-4-4v-38c0-2.2 1.8-4 4-4z"/><path class="st1" d="m936.53 68.4h38c2.2 0 4 1.8 4 4v38c0 2.2-1.8 4-4 4h-38c-2.2 0-4-1.8-4-4v-38c0-2.2 1.8-4 4-4z"/><path class="st1" d="m1004 68.4h38c2.2 0 4 1.8 4 4v38c0 2.2-1.8 4-4 4h-38c-2.2 0-4-1.8-4-4v-38c0-2.2 1.8-4 4-4z"/><path class="st1" d="m1058 68.4h38c2.2 0 4 1.8 4 4v38c0 2.2-1.8 4-4 4h-38c-2.2 0-4-1.8-4-4v-38c0-2.2 1.8-4 4-4z"/><path class="st1" d="m1112 68.4h38c2.2 0 4 1.8 4 4v38c0 2.2-1.8 4-4 4h-38c-2.2 0-4-1.8-4-4v-38c0-2.2 1.8-4 4-4z"/><path class="st1" d="m1166 68.4h38c2.2 0 4 1.8 4 4v38c0 2.2-1.8 4-4 4h-38c-2.2 0-4-1.8-4-4v-38c0-2.2 1.8-4 4-4z"/><path class="st1" d="m5 122.4h65c2.2 0 4 1.8 4 4v38c0 2.2-1.8 4-4 4h-65c-2.2 0-4-1.8-4-4v-38c0-2.2 1.8-4 4-4z"/><path class="st1" d="m86 122.4h38c2.2 0 4 1.8 4 4v38c0 2.2-1.8 4-4 4h-38c-2.2 0-4-1.8-4-4v-38c0-2.2 1.8-4 4-4z" fill="#cc0000"/><path class="st1" d="m140 122.4h38c2.2 0 4 1.8 4 4v38c0 2.2-1.8 4-4 4h-38c-2.2 0-4-1.8-4-4v-38c0-2.2 1.8-4 4-4z" fill="#cc0000"/><path class="st1" d="m194 122.4h38c2.2 0 4 1.8 4 4v38c0 2.2-1.8 4-4 4h-38c-2.2 0-4-1.8-4-4v-38c0-2.2 1.8-4 4-4z" fill="#cc0000"/><path class="st1" d="m248 122.4h38c2.2 0 4 1.8 4 4v38c0 2.2-1.8 4-4 4h-38c-2.2 0-4-1.8-4-4v-38c0-2.2 1.8-4 4-4z" fill="#00cc00"/><path class="st1" d="m302 122.4h38c2.2 0 4 1.8 4 4v38c0 2.2-1.8 4-4 4h-38c-2.2 0-4-1.8-4-4v-38c0-2.2 1.8-4 4-4z" fill="#00cc00"/><path class="st1" d="m356 122.4h38c2.2 0 4 1.8 4 4v38c0 2.2-1.8 4-4 4h-38c-2.2 0-4-1.8-4-4v-38c0-2.2 1.8-4 4-4z" fill="#00cc00"/><path class="st1" d="m410 122.4h38c2.2 0 4 1.8 4 4v38c0 2.2-1.8 4-4 4h-38c-2.2 0-4-1.8-4-4v-38c0-2.2 1.8-4 4-4z" fill="#00cccc"/><path class="st1" d="m464 122.4h38c2.2 0 4 1.8 4 4v38c0 2.2-1.8 4-4 4h-38c-2.2 0-4-1.8-4-4v-38c0-2.2 1.8-4 4-4z" fill="#00cccc"/><path class="st1" d="m518 122.4h38c2.2 0 4 1.8 4 4v38c0 2.2-1.8 4-4 4h-38c-2.2 0-4-1.8-4-4v-38c0-2.2 1.8-4 4-4z" fill="#00cccc"/><path class="st1" d="m572 122.4h38c2.2 0 4 1.8 4 4v38c0 2.2-1.8 4-4 4h-38c-2.2 0-4-1.8-4-4v-38c0-2.2 1.8-4 4-4z" fill="#cc00cc"/><path class="st1" d="m626 122.4h38c2.2 0 4 1.8 4 4v38c0 2.2-1.8 4-4 4h-38c-2.2 0-4-1.8-4-4v-38c0-2.2 1.8-4 4-4z" fill="#cc00cc"/><path class="st1" d="m680 122.4h38c2.2 0 4 1.8 4 4v38c0 2.2-1.8 4-4 4h-38c-2.2 0-4-1.8-4-4v-38c0-2.2 1.8-4 4-4z" fill="#cc00cc"/><path class="st1" d="m734 122.4h65c2.2 0 4 1.8 4 4v38c0 2.2-1.8 4-4 4h-65c-2.2 0-4-1.8-4-4v-38c0-2.2 1.8-4 4-4z" fill="#0000cc"/><path class="st1" d="m828.5 122.4h38c2.2 0 4 1.8 4 4v38c0 2.2-1.8 4-4 4h-38c-2.2 0-4-1.8-4-4v-38c0-2.2 1.8-4 4-4z"/><path class="st1" d="m882.53 122.4h38c2.2 0 4 1.8 4 4v38c0 2.2-1.8 4-4 4h-38c-2.2 0-4-1.8-4-4v-38c0-2.2 1.8-4 4-4z"/><path class="st1" d="m936.53 122.4h38c2.2 0 4 1.8 4 4v38c0 2.2-1.8 4-4 4h-38c-2.2 0-4-1.8-4-4v-38c0-2.2 1.8-4 4-4z"/><path class="st1" d="m1004 122.4h38c2.2 0 4 1.8 4 4v38c0 2.2-1.8 4-4 4h-38c-2.2 0-4-1.8-4-4v-38c0-2.2 1.8-4 4-4z"/><path class="st1" d="m1058 122.4h38c2.2 0 4 1.8 4 4v38c0 2.2-1.8 4-4 4h-38c-2.2 0-4-1.8-4-4v-38c0-2.2 1.8-4 4-4z"/><path class="st1" d="m1112 122.4h38c2.2 0 4 1.8 4 4v38c0 2.2-1.8 4-4 4h-38c-2.2 0-4-1.8-4-4v-38c0-2.2 1.8-4 4-4z"/><path class="st1" d="m1166 122.4h38c2.2 0 4 1.8 4 4v92c0 2.2-1.8 4-4 4h-38c-2.2 0-4-1.8-4-4v-92c0-2.2 1.8-4 4-4z"/><path class="st1" d="m5 176.4h78.5c2.2 0 4 1.8 4 4v38c0 2.2-1.8 4-4 4h-78.5c-2.2 0-4-1.8-4-4v-38c0-2.2 1.8-4 4-4z"/><path class="st1" d="m99.5 176.4h38c2.2 0 4 1.8 4 4v38c0 2.2-1.8 4-4 4h-38c-2.2 0-4-1.8-4-4v-38c0-2.2 1.8-4 4-4z" fill="#cc0000"/><path class="st1" d="m153.5 176.4h38c2.2 0 4 1.8 4 4v38c0 2.2-1.8 4-4 4h-38c-2.2 0-4-1.8-4-4v-38c0-2.2 1.8-4 4-4z" fill="#cc0000"/><path class="st1" d="m207.5 176.4h38c2.2 0 4 1.8 4 4v38c0 2.2-1.8 4-4 4h-38c-2.2 0-4-1.8-4-4v-38c0-2.2 1.8-4 4-4z" fill="#cc0000"/><path class="st1" d="m261.5 176.4h38c2.2 0 4 1.8 4 4v38c0 2.2-1.8 4-4 4h-38c-2.2 0-4-1.8-4-4v-38c0-2.2 1.8-4 4-4z" fill="#00cc00"/><path class="st1" d="m315.5 176.4h38c2.2 0 4 1.8 4 4v38c0 2.2-1.8 4-4 4h-38c-2.2 0-4-1.8-4-4v-38c0-2.2 1.8-4 4-4z" fill="#00cc00"/><path class="st1" d="m369.5 176.4h38c2.2 0 4 1.8 4 4v38c0 2.2-1.8 4-4 4h-38c-2.2 0-4-1.8-4-4v-38c0-2.2 1.8-4 4-4z" fill="#00cc00"/><path class="st1" d="m423.5 176.4h38c2.2 0 4 1.8 4 4v38c0 2.2-1.8 4-4 4h-38c-2.2 0-4-1.8-4-4v-38c0-2.2 1.8-4 4-4z" fill="#00cccc"/><path class="st1" d="m477.5 176.4h38c2.2 0 4 1.8 4 4v38c0 2.2-1.8 4-4 4h-38c-2.2 0-4-1.8-4-4v-38c0-2.2 1.8-4 4-4z" fill="#00cccc"/><path class="st1" d="m531.5 176.4h38c2.2 0 4 1.8 4 4v38c0 2.2-1.8 4-4 4h-38c-2.2 0-4-1.8-4-4v-38c0-2.2 1.8-4 4-4z" fill="#00cccc"/><path class="st1" d="m585.5 176.4h38c2.2 0 4 1.8 4 4v38c0 2.2-1.8 4-4 4h-38c-2.2 0-4-1.8-4-4v-38c0-2.2 1.8-4 4-4z" fill="#cc00cc"/><path class="st1" d="m639.5 176.4h38c2.2 0 4 1.8 4 4v38c0 2.2-1.8 4-4 4h-38c-2.2 0-4-1.8-4-4v-38c0-2.2 1.8-4 4-4z" fill="#cc00cc"/><path class="st2" d="m693.5 176.4h105.5c2.2 0 4 1.8 4 4v38c0 2.2-1.8 4-4 4h-105.5c-2.2 0-4-1.8-4-4v-38c0-2.2 1.8-4 4-4z" fill="#cc00cc"/><path class="st1" d="m1004 176.4h38c2.2 0 4 1.8 4 4v38c0 2.2-1.8 4-4 4h-38c-2.2 0-4-1.8-4-4v-38c0-2.2 1.8-4 4-4z"/><path class="st1" d="m1058 176.4h38c2.2 0 4 1.8 4 4v38c0 2.2-1.8 4-4 4h-38c-2.2 0-4-1.8-4-4v-38c0-2.2 1.8-4 4-4z"/><path class="st1" d="m1112 176.4h38c2.2 0 4 1.8 4 4v38c0 2.2-1.8 4-4 4h-38c-2.2 0-4-1.8-4-4v-38c0-2.2 1.8-4 4-4z"/><path class="st1" d="m5 230.4h105.5c2.2 0 4 1.8 4 4v38c0 2.2-1.8 4-4 4h-105.5c-2.2 0-4-1.8-4-4v-38c0-2.2 1.8-4 4-4z"/><path class="st1" d="m126.5 230.4h38c2.2 0 4 1.8 4 4v38c0 2.2-1.8 4-4 4h-38c-2.2 0-4-1.8-4-4v-38c0-2.2 1.8-4 4-4z" fill="#660000"/><path class="st1" d="m180.5 230.4h38c2.2 0 4 1.8 4 4v38c0 2.2-1.8 4-4 4h-38c-2.2 0-4-1.8-4-4v-38c0-2.2 1.8-4 4-4z" fill="#660000"/><path class="st1" d="m234.5 230.4h38c2.2 0 4 1.8 4 4v38c0 2.2-1.8 4-4 4h-38c-2.2 0-4-1.8-4-4v-38c0-2.2 1.8-4 4-4z" fill="#cc0000"/><path class="st1" d="m288.5 230.4h38c2.2 0 4 1.8 4 4v38c0 2.2-1.8 4-4 4h-38c-2.2 0-4-1.8-4-4v-38c0-2.2 1.8-4 4-4z" fill="#006600"/><path class="st1" d="m342.5 230.4h38c2.2 0 4 1.8 4 4v38c0 2.2-1.8 4-4 4h-38c-2.2 0-4-1.8-4-4v-38c0-2.2 1.8-4 4-4z" fill="#006600"/><path class="st1" d="m396.5 230.4h38c2.2 0 4 1.8 4 4v38c0 2.2-1.8 4-4 4h-38c-2.2 0-4-1.8-4-4v-38c0-2.2 1.8-4 4-4z" fill="#00cc00"/><path class="st1" d="m450.5 230.4h38c2.2 0 4 1.8 4 4v38c0 2.2-1.8 4-4 4h-38c-2.2 0-4-1.8-4-4v-38c0-2.2 1.8-4 4-4z" fill="#006666"/><path class="st1" d="m504.5 230.4h38c2.2 0 4 1.8 4 4v38c0 2.2-1.8 4-4 4h-38c-2.2 0-4-1.8-4-4v-38c0-2.2 1.8-4 4-4z" fill="#006666"/><path class="st1" d="m558.5 230.4h38c2.2 0 4 1.8 4 4v38c0 2.2-1.8 4-4 4h-38c-2.2 0-4-1.8-4-4v-38c0-2.2 1.8-4 4-4z" fill="#00cccc"/><path class="st1" d="m612.5 230.4h38c2.2 0 4 1.8 4 4v38c0 2.2-1.8 4-4 4h-38c-2.2 0-4-1.8-4-4v-38c0-2.2 1.8-4 4-4z" fill="#660066"/><path class="st1" d="m666.5 230.4h132.5c2.2 0 4 1.8 4 4v38c0 2.2-1.8 4-4 4h-132.5c-2.2 0-4-1.8-4-4v-38c0-2.2 1.8-4 4-4z" fill="#660066"/><path class="st1" d="m882.53 230.4h38c2.2 0 4 1.8 4 4v38c0 2.2-1.8 4-4 4h-38c-2.2 0-4-1.8-4-4v-38c0-2.2 1.8-4 4-4z"/><path class="st1" d="m1004 230.4h38c2.2 0 4 1.8 4 4v38c0 2.2-1.8 4-4 4h-38c-2.2 0-4-1.8-4-4v-38c0-2.2 1.8-4 4-4z"/><path class="st1" d="m1058 230.4h38c2.2 0 4 1.8 4 4v38c0 2.2-1.8 4-4 4h-38c-2.2 0-4-1.8-4-4v-38c0-2.2 1.8-4 4-4z"/><path class="st1" d="m1112 230.4h38c2.2 0 4 1.8 4 4v38c0 2.2-1.8 4-4 4h-38c-2.2 0-4-1.8-4-4v-38c0-2.2 1.8-4 4-4z"/><path class="st3" d="m1166 230.4h38c2.2 0 4 1.8 4 4v92c0 2.2-1.8 4-4 4h-38c-2.2 0-4-1.8-4-4v-92c0-2.2 1.8-4 4-4z"/><path class="st1" d="m5 284.4h51.5c2.2 0 4 1.8 4 4v38c0 2.2-1.8 4-4 4h-51.5c-2.2 0-4-1.8-4-4v-38c0-2.2 1.8-4 4-4z"/><path class="st1" d="m72.5 284.4h51.5c2.2 0 4 1.8 4 4v38c0 2.2-1.8 4-4 4h-51.5c-2.2 0-4-1.8-4-4v-38c0-2.2 1.8-4 4-4z"/><path class="st1" d="m140 284.4h51.5c2.2 0 4 1.8 4 4v38c0 2.2-1.8 4-4 4h-51.5c-2.2 0-4-1.8-4-4v-38c0-2.2 1.8-4 4-4z"/><path class="st1" d="m207.5 284.4h321.5c2.2 0 4 1.8 4 4v38c0 2.2-1.8 4-4 4h-321.5c-2.2 0-4-1.8-4-4v-38c0-2.2 1.8-4 4-4z"/><path class="st1" d="m545 284.4h51.5c2.2 0 4 1.8 4 4v38c0 2.2-1.8 4-4 4h-51.5c-2.2 0-4-1.8-4-4v-38c0-2.2 1.8-4 4-4z"/><path class="st1" d="m612.5 284.4h51.5c2.2 0 4 1.8 4 4v38c0 2.2-1.8 4-4 4h-51.5c-2.2 0-4-1.8-4-4v-38c0-2.2 1.8-4 4-4z"/><path class="st1" d="m680 284.4h51.5c2.2 0 4 1.8 4 4v38c0 2.2-1.8 4-4 4h-51.5c-2.2 0-4-1.8-4-4v-38c0-2.2 1.8-4 4-4z"/><path class="st1" d="m747.5 284.4h51.5c2.2 0 4 1.8 4 4v38c0 2.2-1.8 4-4 4h-51.5c-2.2 0-4-1.8-4-4v-38c0-2.2 1.8-4 4-4z"/><path class="st1" d="m828.5 284.4h38c2.2 0 4 1.8 4 4v38c0 2.2-1.8 4-4 4h-38c-2.2 0-4-1.8-4-4v-38c0-2.2 1.8-4 4-4z"/><path class="st1" d="m882.53 284.4h38c2.2 0 4 1.8 4 4v38c0 2.2-1.8 4-4 4h-38c-2.2 0-4-1.8-4-4v-38c0-2.2 1.8-4 4-4z"/><path class="st1" d="m936.53 284.4h38c2.2 0 4 1.8 4 4v38c0 2.2-1.8 4-4 4h-38c-2.2 0-4-1.8-4-4v-38c0-2.2 1.8-4 4-4z"/><path class="st1" d="m1004 284.4h92c2.2 0 4 1.8 4 4v38c0 2.2-1.8 4-4 4h-92c-2.2 0-4-1.8-4-4v-38c0-2.2 1.8-4 4-4z"/><path class="st1" d="m1112 284.4h38c2.2 0 4 1.8 4 4v38c0 2.2-1.8 4-4 4h-38c-2.2 0-4-1.8-4-4v-38c0-2.2 1.8-4 4-4z"/><path class="st4" d="m6 2h36c2.2 0 4 1.8 4 4v34c0 2.2-1.8 4-4 4h-36c-2.2 0-4-1.8-4-4v-34c0-2.3 1.8-4 4-4z"/><path class="st4" d="m114 2h36c2.2 0 4 1.8 4 4v34c0 2.2-1.8 4-4 4h-36c-2.2 0-4-1.8-4-4v-34c0-2.3 1.8-4 4-4z"/><path class="st4" d="m168 2h36c2.2 0 4 1.8 4 4v34c0 2.2-1.8 4-4 4h-36c-2.2 0-4-1.8-4-4v-34c0-2.3 1.8-4 4-4z"/><path class="st4" d="m222 2h36c2.2 0 4 1.8 4 4v34c0 2.2-1.8 4-4 4h-36c-2.2 0-4-1.8-4-4v-34c0-2.3 1.8-4 4-4z"/><path class="st4" d="m276 2h36c2.2 0 4 1.8 4 4v34c0 2.2-1.8 4-4 4h-36c-2.2 0-4-1.8-4-4v-34c0-2.3 1.8-4 4-4z"/><path class="st4" d="m357 2h36c2.2 0 4 1.8 4 4v34c0 2.2-1.8 4-4 4h-36c-2.2 0-4-1.8-4-4v-34c0-2.3 1.8-4 4-4z"/><path class="st4" d="m411 2h36c2.2 0 4 1.8 4 4v34c0 2.2-1.8 4-4 4h-36c-2.2 0-4-1.8-4-4v-34c0-2.3 1.8-4 4-4z"/><path class="st4" d="m465 2h36c2.2 0 4 1.8 4 4v34c0 2.2-1.8 4-4 4h-36c-2.2 0-4-1.8-4-4v-34c0-2.3 1.8-4 4-4z"/><path class="st4" d="m519 2h36c2.2 0 4 1.8 4 4v34c0 2.2-1.8 4-4 4h-36c-2.2 0-4-1.8-4-4v-34c0-2.3 1.8-4 4-4z"/><path class="st4" d="m600 2h36c2.2 0 4 1.8 4 4v34c0 2.2-1.8 4-4 4h-36c-2.2 0-4-1.8-4-4v-34c0-2.3 1.8-4 4-4z"/><path class="st4" d="m654 2h36c2.2 0 4 1.8 4 4v34c0 2.2-1.8 4-4 4h-36c-2.2 0-4-1.8-4-4v-34c0-2.3 1.8-4 4-4z"/><path class="st4" d="m708 2h36c2.2 0 4 1.8 4 4v34c0 2.2-1.8 4-4 4h-36c-2.2 0-4-1.8-4-4v-34c0-2.3 1.8-4 4-4z"/><path class="st4" d="m762 2h36c2.2 0 4 1.8 4 4v34c0 2.2-1.8 4-4 4h-36c-2.2 0-4-1.8-4-4v-34c0-2.3 1.8-4 4-4z"/><path class="st4" d="m829.5 2h36c2.2 0 4 1.8 4 4v34c0 2.2-1.8 4-4 4h-36c-2.2 0-4-1.8-4-4v-34c0-2.3 1.8-4 4-4z"/><path class="st4" d="m883.53 2h36c2.2 0 4 1.8 4 4v34c0 2.2-1.8 4-4 4h-36c-2.2 0-4-1.8-4-4v-34c0-2.3 1.8-4 4-4z"/><path class="st4" d="m937.53 2h36c2.2 0 4 1.8 4 4v34c0 2.2-1.8 4-4 4h-36c-2.2 0-4-1.8-4-4v-34c0-2.3 1.8-4 4-4z"/><path class="st4" d="m6 69.4h36c2.2 0 4 1.8 4 4v34c0 2.2-1.8 4-4 4h-36c-2.2 0-4-1.8-4-4v-34c0-2.2 1.8-4 4-4z"/><path class="st4" d="m60 69.4h36c2.2 0 4 1.8 4 4v34c0 2.2-1.8 4-4 4h-36c-2.2 0-4-1.8-4-4v-34c0-2.2 1.8-4 4-4z" fill="#cccc00"/><path class="st4" d="m114 69.4h36c2.2 0 4 1.8 4 4v34c0 2.2-1.8 4-4 4h-36c-2.2 0-4-1.8-4-4v-34c0-2.2 1.8-4 4-4z" fill="#cc0000"/><path class="st4" d="m168 69.4h36c2.2 0 4 1.8 4 4v34c0 2.2-1.8 4-4 4h-36c-2.2 0-4-1.8-4-4v-34c0-2.2 1.8-4 4-4z" fill="#cc0000"/><path class="st4" d="m222 69.4h36c2.2 0 4 1.8 4 4v34c0 2.2-1.8 4-4 4h-36c-2.2 0-4-1.8-4-4v-34c0-2.2 1.8-4 4-4z" fill="#cc0000"/><path class="st4" d="m276 69.4h36c2.2 0 4 1.8 4 4v34c0 2.2-1.8 4-4 4h-36c-2.2 0-4-1.8-4-4v-34c0-2.2 1.8-4 4-4z" fill="#00cc00"/><path class="st4" d="m330 69.4h36c2.2 0 4 1.8 4 4v34c0 2.2-1.8 4-4 4h-36c-2.2 0-4-1.8-4-4v-34c0-2.2 1.8-4 4-4z" fill="#00cc00"/><path class="st4" d="m384 69.4h36c2.2 0 4 1.8 4 4v34c0 2.2-1.8 4-4 4h-36c-2.2 0-4-1.8-4-4v-34c0-2.2 1.8-4 4-4z" fill="#00cc00"/><path class="st4" d="m438 69.4h36c2.2 0 4 1.8 4 4v34c0 2.2-1.8 4-4 4h-36c-2.2 0-4-1.8-4-4v-34c0-2.2 1.8-4 4-4z" fill="#00cccc"/><path class="st4" d="m492 69.4h36c2.2 0 4 1.8 4 4v34c0 2.2-1.8 4-4 4h-36c-2.2 0-4-1.8-4-4v-34c0-2.2 1.8-4 4-4z" fill="#00cccc"/><path class="st4" d="m546 69.4h36c2.2 0 4 1.8 4 4v34c0 2.2-1.8 4-4 4h-36c-2.2 0-4-1.8-4-4v-34c0-2.2 1.8-4 4-4z" fill="#00cccc"/><path class="st4" d="m600 69.4h36c2.2 0 4 1.8 4 4v34c0 2.2-1.8 4-4 4h-36c-2.2 0-4-1.8-4-4v-34c0-2.2 1.8-4 4-4z" fill="#cc00cc"/><path class="st4" d="m654 69.4h36c2.2 0 4 1.8 4 4v34c0 2.2-1.8 4-4 4h-36c-2.2 0-4-1.8-4-4v-34c0-2.2 1.8-4 4-4z" fill="#cc00cc"/><path class="st4" d="m708 69.4h90c2.2 0 4 1.8 4 4v34c0 2.2-1.8 4-4 4h-90c-2.2 0-4-1.8-4-4v-34c0-2.2 1.8-4 4-4z" fill="#cc00cc"/><path class="st4" d="m829.5 69.4h36c2.2 0 4 1.8 4 4v34c0 2.2-1.8 4-4 4h-36c-2.2 0-4-1.8-4-4v-34c0-2.2 1.8-4 4-4z"/><path class="st4" d="m883.53 69.4h36c2.2 0 4 1.8 4 4v34c0 2.2-1.8 4-4 4h-36c-2.2 0-4-1.8-4-4v-34c0-2.2 1.8-4 4-4z"/><path class="st4" d="m937.53 69.4h36c2.2 0 4 1.8 4 4v34c0 2.2-1.8 4-4 4h-36c-2.2 0-4-1.8-4-4v-34c0-2.2 1.8-4 4-4z"/><path class="st4" d="m1005 69.4h36c2.2 0 4 1.8 4 4v34c0 2.2-1.8 4-4 4h-36c-2.2 0-4-1.8-4-4v-34c0-2.2 1.8-4 4-4z"/><path class="st4" d="m1059 69.4h36c2.2 0 4 1.8 4 4v34c0 2.2-1.8 4-4 4h-36c-2.2 0-4-1.8-4-4v-34c0-2.2 1.8-4 4-4z"/><path class="st4" d="m1113 69.4h36c2.2 0 4 1.8 4 4v34c0 2.2-1.8 4-4 4h-36c-2.2 0-4-1.8-4-4v-34c0-2.2 1.8-4 4-4z"/><path class="st4" d="m1167 69.4h36c2.2 0 4 1.8 4 4v34c0 2.2-1.8 4-4 4h-36c-2.2 0-4-1.8-4-4v-34c0-2.2 1.8-4 4-4z"/><path class="st4" d="m6 123.4h63c2.2 0 4 1.8 4 4v34c0 2.2-1.8 4-4 4h-63c-2.2 0-4-1.8-4-4v-34c0-2.2 1.8-4 4-4z"/><path class="st4" d="m87 123.4h36c2.2 0 4 1.8 4 4v34c0 2.2-1.8 4-4 4h-36c-2.2 0-4-1.8-4-4v-34c0-2.2 1.8-4 4-4z" fill="#ff6666"/><path class="st4" d="m141 123.4h36c2.2 0 4 1.8 4 4v34c0 2.2-1.8 4-4 4h-36c-2.2 0-4-1.8-4-4v-34c0-2.2 1.8-4 4-4z" fill="#ff6666"/><path class="st4" d="m195 123.4h36c2.2 0 4 1.8 4 4v34c0 2.2-1.8 4-4 4h-36c-2.2 0-4-1.8-4-4v-34c0-2.2 1.8-4 4-4z" fill="#ff6666"/><path class="st4" d="m249 123.4h36c2.2 0 4 1.8 4 4v34c0 2.2-1.8 4-4 4h-36c-2.2 0-4-1.8-4-4v-34c0-2.2 1.8-4 4-4z" fill="#66ff66"/><path class="st4" d="m303 123.4h36c2.2 0 4 1.8 4 4v34c0 2.2-1.8 4-4 4h-36c-2.2 0-4-1.8-4-4v-34c0-2.2 1.8-4 4-4z" fill="#66ff66"/><path class="st4" d="m357 123.4h36c2.2 0 4 1.8 4 4v34c0 2.2-1.8 4-4 4h-36c-2.2 0-4-1.8-4-4v-34c0-2.2 1.8-4 4-4z" fill="#66ff66"/><path class="st4" d="m411 123.4h36c2.2 0 4 1.8 4 4v34c0 2.2-1.8 4-4 4h-36c-2.2 0-4-1.8-4-4v-34c0-2.2 1.8-4 4-4z" fill="#66ffff"/><path class="st4" d="m465 123.4h36c2.2 0 4 1.8 4 4v34c0 2.2-1.8 4-4 4h-36c-2.2 0-4-1.8-4-4v-34c0-2.2 1.8-4 4-4z" fill="#66ffff"/><path class="st4" d="m519 123.4h36c2.2 0 4 1.8 4 4v34c0 2.2-1.8 4-4 4h-36c-2.2 0-4-1.8-4-4v-34c0-2.2 1.8-4 4-4z" fill="#66ffff"/><path class="st4" d="m573 123.4h36c2.2 0 4 1.8 4 4v34c0 2.2-1.8 4-4 4h-36c-2.2 0-4-1.8-4-4v-34c0-2.2 1.8-4 4-4z" fill="#ff66ff"/><path class="st4" d="m627 123.4h36c2.2 0 4 1.8 4 4v34c0 2.2-1.8 4-4 4h-36c-2.2 0-4-1.8-4-4v-34c0-2.2 1.8-4 4-4z" fill="#ff66ff"/><path class="st4" d="m681 123.4h36c2.2 0 4 1.8 4 4v34c0 2.2-1.8 4-4 4h-36c-2.2 0-4-1.8-4-4v-34c0-2.2 1.8-4 4-4z" fill="#ff66ff"/><path class="st4" d="m735 123.4h63c2.2 0 4 1.8 4 4v34c0 2.2-1.8 4-4 4h-63c-2.2 0-4-1.8-4-4v-34c0-2.2 1.8-4 4-4z" fill="#6666ff"/><path class="st4" d="m829.5 123.4h36c2.2 0 4 1.8 4 4v34c0 2.2-1.8 4-4 4h-36c-2.2 0-4-1.8-4-4v-34c0-2.2 1.8-4 4-4z"/><path class="st4" d="m883.53 123.4h36c2.2 0 4 1.8 4 4v34c0 2.2-1.8 4-4 4h-36c-2.2 0-4-1.8-4-4v-34c0-2.2 1.8-4 4-4z"/><path class="st4" d="m937.53 123.4h36c2.2 0 4 1.8 4 4v34c0 2.2-1.8 4-4 4h-36c-2.2 0-4-1.8-4-4v-34c0-2.2 1.8-4 4-4z"/><path class="st4" d="m1005 123.4h36c2.2 0 4 1.8 4 4v34c0 2.2-1.8 4-4 4h-36c-2.2 0-4-1.8-4-4v-34c0-2.2 1.8-4 4-4z"/><path class="st4" d="m1059 123.4h36c2.2 0 4 1.8 4 4v34c0 2.2-1.8 4-4 4h-36c-2.2 0-4-1.8-4-4v-34c0-2.2 1.8-4 4-4z"/><path class="st4" d="m1113 123.4h36c2.2 0 4 1.8 4 4v34c0 2.2-1.8 4-4 4h-36c-2.2 0-4-1.8-4-4v-34c0-2.2 1.8-4 4-4z"/><path class="st4" d="m1167 123.4h36c2.2 0 4 1.8 4 4v88c0 2.2-1.8 4-4 4h-36c-2.2 0-4-1.8-4-4v-88c0-2.2 1.8-4 4-4z"/><path class="st4" d="m6 177.4h76.5c2.2 0 4 1.8 4 4v34c0 2.2-1.8 4-4 4h-76.5c-2.2 0-4-1.8-4-4v-34c0-2.2 1.8-4 4-4z"/><path class="st4" d="m100.5 177.4h36c2.2 0 4 1.8 4 4v34c0 2.2-1.8 4-4 4h-36c-2.2 0-4-1.8-4-4v-34c0-2.2 1.8-4 4-4z" fill="#ff6666"/><path class="st4" d="m154.5 177.4h36c2.2 0 4 1.8 4 4v34c0 2.2-1.8 4-4 4h-36c-2.2 0-4-1.8-4-4v-34c0-2.2 1.8-4 4-4z" fill="#ff6666"/><path class="st4" d="m208.5 177.4h36c2.2 0 4 1.8 4 4v34c0 2.2-1.8 4-4 4h-36c-2.2 0-4-1.8-4-4v-34c0-2.2 1.8-4 4-4z" fill="#ff6666"/><path class="st4" d="m262.5 177.4h36c2.2 0 4 1.8 4 4v34c0 2.2-1.8 4-4 4h-36c-2.2 0-4-1.8-4-4v-34c0-2.2 1.8-4 4-4z" fill="#66ff66"/><path class="st4" d="m316.5 177.4h36c2.2 0 4 1.8 4 4v34c0 2.2-1.8 4-4 4h-36c-2.2 0-4-1.8-4-4v-34c0-2.2 1.8-4 4-4z" fill="#66ff66"/><path class="st4" d="m370.5 177.4h36c2.2 0 4 1.8 4 4v34c0 2.2-1.8 4-4 4h-36c-2.2 0-4-1.8-4-4v-34c0-2.2 1.8-4 4-4z" fill="#66ff66"/><path class="st4" d="m424.5 177.4h36c2.2 0 4 1.8 4 4v34c0 2.2-1.8 4-4 4h-36c-2.2 0-4-1.8-4-4v-34c0-2.2 1.8-4 4-4z" fill="#66ffff"/><path class="st4" d="m478.5 177.4h36c2.2 0 4 1.8 4 4v34c0 2.2-1.8 4-4 4h-36c-2.2 0-4-1.8-4-4v-34c0-2.2 1.8-4 4-4z" fill="#00cccc"/><path class="st4" d="m478.5 177.4h36c2.2 0 4 1.8 4 4v34c0 2.2-1.8 4-4 4h-36c-2.2 0-4-1.8-4-4v-34c0-2.2 1.8-4 4-4z" fill="#00cccc"/><path class="st4" d="m478.5 177.4h36c2.2 0 4 1.8 4 4v34c0 2.2-1.8 4-4 4h-36c-2.2 0-4-1.8-4-4v-34c0-2.2 1.8-4 4-4z" fill="#00cccc"/><path class="st4" d="m478.5 177.4h36c2.2 0 4 1.8 4 4v34c0 2.2-1.8 4-4 4h-36c-2.2 0-4-1.8-4-4v-34c0-2.2 1.8-4 4-4z" fill="#66ffff"/><path class="st4" d="m532.5 177.4h36c2.2 0 4 1.8 4 4v34c0 2.2-1.8 4-4 4h-36c-2.2 0-4-1.8-4-4v-34c0-2.2 1.8-4 4-4z" fill="#00cccc"/><path class="st4" d="m532.5 177.4h36c2.2 0 4 1.8 4 4v34c0 2.2-1.8 4-4 4h-36c-2.2 0-4-1.8-4-4v-34c0-2.2 1.8-4 4-4z" fill="#00cccc"/><path class="st4" d="m532.5 177.4h36c2.2 0 4 1.8 4 4v34c0 2.2-1.8 4-4 4h-36c-2.2 0-4-1.8-4-4v-34c0-2.2 1.8-4 4-4z" fill="#00cccc"/><path class="st4" d="m532.5 177.4h36c2.2 0 4 1.8 4 4v34c0 2.2-1.8 4-4 4h-36c-2.2 0-4-1.8-4-4v-34c0-2.2 1.8-4 4-4z" fill="#66ffff"/><path class="st4" d="m586.5 177.4h36c2.2 0 4 1.8 4 4v34c0 2.2-1.8 4-4 4h-36c-2.2 0-4-1.8-4-4v-34c0-2.2 1.8-4 4-4z" fill="#ff66ff"/><path class="st4" d="m640.5 177.4h36c2.2 0 4 1.8 4 4v34c0 2.2-1.8 4-4 4h-36c-2.2 0-4-1.8-4-4v-34c0-2.2 1.8-4 4-4z" fill="#ff66ff"/><path class="st5" d="m694.5 177.4h103.5c2.2 0 4 1.8 4 4v34c0 2.2-1.8 4-4 4h-103.5c-2.2 0-4-1.8-4-4v-34c0-2.2 1.8-4 4-4z" fill="#ff66ff"/><path class="st4" d="m1005 177.4h36c2.2 0 4 1.8 4 4v34c0 2.2-1.8 4-4 4h-36c-2.2 0-4-1.8-4-4v-34c0-2.2 1.8-4 4-4z"/><path class="st4" d="m1059 177.4h36c2.2 0 4 1.8 4 4v34c0 2.2-1.8 4-4 4h-36c-2.2 0-4-1.8-4-4v-34c0-2.2 1.8-4 4-4z"/><path class="st4" d="m1113 177.4h36c2.2 0 4 1.8 4 4v34c0 2.2-1.8 4-4 4h-36c-2.2 0-4-1.8-4-4v-34c0-2.2 1.8-4 4-4z"/><path class="st4" d="m6 231.4h103.5c2.2 0 4 1.8 4 4v34c0 2.2-1.8 4-4 4h-103.5c-2.2 0-4-1.8-4-4v-34c0-2.2 1.8-4 4-4z"/><path class="st4" d="m127.5 231.4h36c2.2 0 4 1.8 4 4v34c0 2.2-1.8 4-4 4h-36c-2.2 0-4-1.8-4-4v-34c0-2.2 1.8-4 4-4z" fill="#cc0000"/><path class="st4" d="m181.5 231.4h36c2.2 0 4 1.8 4 4v34c0 2.2-1.8 4-4 4h-36c-2.2 0-4-1.8-4-4v-34c0-2.2 1.8-4 4-4z" fill="#cc0000"/><path class="st4" d="m235.5 231.4h36c2.2 0 4 1.8 4 4v34c0 2.2-1.8 4-4 4h-36c-2.2 0-4-1.8-4-4v-34c0-2.2 1.8-4 4-4z" fill="#ff6666"/><path class="st4" d="m289.5 231.4h36c2.2 0 4 1.8 4 4v34c0 2.2-1.8 4-4 4h-36c-2.2 0-4-1.8-4-4v-34c0-2.2 1.8-4 4-4z" fill="#00cc00"/><path class="st4" d="m343.5 231.4h36c2.2 0 4 1.8 4 4v34c0 2.2-1.8 4-4 4h-36c-2.2 0-4-1.8-4-4v-34c0-2.2 1.8-4 4-4z" fill="#00cc00"/><path class="st4" d="m397.5 231.4h36c2.2 0 4 1.8 4 4v34c0 2.2-1.8 4-4 4h-36c-2.2 0-4-1.8-4-4v-34c0-2.2 1.8-4 4-4z" fill="#66ff66"/><path class="st4" d="m451.5 231.4h36c2.2 0 4 1.8 4 4v34c0 2.2-1.8 4-4 4h-36c-2.2 0-4-1.8-4-4v-34c0-2.2 1.8-4 4-4z" fill="#00cccc"/><path class="st4" d="m505.5 231.4h36c2.2 0 4 1.8 4 4v34c0 2.2-1.8 4-4 4h-36c-2.2 0-4-1.8-4-4v-34c0-2.2 1.8-4 4-4z" fill="#006666"/><path class="st4" d="m505.5 231.4h36c2.2 0 4 1.8 4 4v34c0 2.2-1.8 4-4 4h-36c-2.2 0-4-1.8-4-4v-34c0-2.2 1.8-4 4-4z" fill="#006666"/><path class="st4" d="m505.5 231.4h36c2.2 0 4 1.8 4 4v34c0 2.2-1.8 4-4 4h-36c-2.2 0-4-1.8-4-4v-34c0-2.2 1.8-4 4-4z" fill="#006666"/><path class="st4" d="m505.5 231.4h36c2.2 0 4 1.8 4 4v34c0 2.2-1.8 4-4 4h-36c-2.2 0-4-1.8-4-4v-34c0-2.2 1.8-4 4-4z" fill="#006666"/><path class="st4" d="m505.5 231.4h36c2.2 0 4 1.8 4 4v34c0 2.2-1.8 4-4 4h-36c-2.2 0-4-1.8-4-4v-34c0-2.2 1.8-4 4-4z" fill="#00cccc"/><path class="st4" d="m559.5 231.4h36c2.2 0 4 1.8 4 4v34c0 2.2-1.8 4-4 4h-36c-2.2 0-4-1.8-4-4v-34c0-2.2 1.8-4 4-4z" fill="#006666"/><path class="st4" d="m559.5 231.4h36c2.2 0 4 1.8 4 4v34c0 2.2-1.8 4-4 4h-36c-2.2 0-4-1.8-4-4v-34c0-2.2 1.8-4 4-4z" fill="#006666"/><path class="st4" d="m559.5 231.4h36c2.2 0 4 1.8 4 4v34c0 2.2-1.8 4-4 4h-36c-2.2 0-4-1.8-4-4v-34c0-2.2 1.8-4 4-4z" fill="#006666"/><path class="st4" d="m559.5 231.4h36c2.2 0 4 1.8 4 4v34c0 2.2-1.8 4-4 4h-36c-2.2 0-4-1.8-4-4v-34c0-2.2 1.8-4 4-4z" fill="#006666"/><path class="st4" d="m559.5 231.4h36c2.2 0 4 1.8 4 4v34c0 2.2-1.8 4-4 4h-36c-2.2 0-4-1.8-4-4v-34c0-2.2 1.8-4 4-4z" fill="#66ffff"/><path class="st4" d="m613.5 231.4h36c2.2 0 4 1.8 4 4v34c0 2.2-1.8 4-4 4h-36c-2.2 0-4-1.8-4-4v-34c0-2.2 1.8-4 4-4z" fill="#cc00cc"/><path class="st4" d="m667.5 231.4h130.5c2.2 0 4 1.8 4 4v34c0 2.2-1.8 4-4 4h-130.5c-2.2 0-4-1.8-4-4v-34c0-2.2 1.8-4 4-4z" fill="#cc00cc"/><path class="st4" d="m883.53 231.4h36c2.2 0 4 1.8 4 4v34c0 2.2-1.8 4-4 4h-36c-2.2 0-4-1.8-4-4v-34c0-2.2 1.8-4 4-4z"/><path class="st4" d="m1005 231.4h36c2.2 0 4 1.8 4 4v34c0 2.2-1.8 4-4 4h-36c-2.2 0-4-1.8-4-4v-34c0-2.2 1.8-4 4-4z"/><path class="st4" d="m1059 231.4h36c2.2 0 4 1.8 4 4v34c0 2.2-1.8 4-4 4h-36c-2.2 0-4-1.8-4-4v-34c0-2.2 1.8-4 4-4z"/><path class="st4" d="m1113 231.4h36c2.2 0 4 1.8 4 4v34c0 2.2-1.8 4-4 4h-36c-2.2 0-4-1.8-4-4v-34c0-2.2 1.8-4 4-4z"/><path class="st6" d="m1167 231.4h36c2.2 0 4 1.8 4 4v88c0 2.2-1.8 4-4 4h-36c-2.2 0-4-1.8-4-4v-88c0-2.2 1.8-4 4-4z"/><path class="st4" d="m6 285.4h49.5c2.2 0 4 1.8 4 4v34c0 2.2-1.8 4-4 4h-49.5c-2.2 0-4-1.8-4-4v-34c0-2.2 1.8-4 4-4z"/><path class="st4" d="m73.5 285.4h49.5c2.2 0 4 1.8 4 4v34c0 2.2-1.8 4-4 4h-49.5c-2.2 0-4-1.8-4-4v-34c0-2.2 1.8-4 4-4z"/><path class="st4" d="m141 285.4h49.5c2.2 0 4 1.8 4 4v34c0 2.2-1.8 4-4 4h-49.5c-2.2 0-4-1.8-4-4v-34c0-2.2 1.8-4 4-4z"/><path class="st4" d="m208.5 285.4h319.5c2.2 0 4 1.8 4 4v34c0 2.2-1.8 4-4 4h-319.5c-2.2 0-4-1.8-4-4v-34c0-2.2 1.8-4 4-4z"/><path class="st4" d="m546 285.4h49.5c2.2 0 4 1.8 4 4v34c0 2.2-1.8 4-4 4h-49.5c-2.2 0-4-1.8-4-4v-34c0-2.2 1.8-4 4-4z"/><path class="st4" d="m613.5 285.4h49.5c2.2 0 4 1.8 4 4v34c0 2.2-1.8 4-4 4h-49.5c-2.2 0-4-1.8-4-4v-34c0-2.2 1.8-4 4-4z"/><path class="st4" d="m681 285.4h49.5c2.2 0 4 1.8 4 4v34c0 2.2-1.8 4-4 4h-49.5c-2.2 0-4-1.8-4-4v-34c0-2.2 1.8-4 4-4z"/><path class="st4" d="m748.5 285.4h49.5c2.2 0 4 1.8 4 4v34c0 2.2-1.8 4-4 4h-49.5c-2.2 0-4-1.8-4-4v-34c0-2.2 1.8-4 4-4z"/><path class="st4" d="m829.5 285.4h36c2.2 0 4 1.8 4 4v34c0 2.2-1.8 4-4 4h-36c-2.2 0-4-1.8-4-4v-34c0-2.2 1.8-4 4-4z"/><path class="st4" d="m883.53 285.4h36c2.2 0 4 1.8 4 4v34c0 2.2-1.8 4-4 4h-36c-2.2 0-4-1.8-4-4v-34c0-2.2 1.8-4 4-4z"/><path class="st4" d="m937.53 285.4h36c2.2 0 4 1.8 4 4v34c0 2.2-1.8 4-4 4h-36c-2.2 0-4-1.8-4-4v-34c0-2.2 1.8-4 4-4z"/><path class="st4" d="m1005 285.4h90c2.2 0 4 1.8 4 4v34c0 2.2-1.8 4-4 4h-90c-2.2 0-4-1.8-4-4v-34c0-2.2 1.8-4 4-4z"/><path class="st4" d="m1113 285.4h36c2.2 0 4 1.8 4 4v34c0 2.2-1.8 4-4 4h-36c-2.2 0-4-1.8-4-4v-34c0-2.2 1.8-4 4-4z"/><path class="st5" d="m519.86 409.06h103.5c2.2 0 4 1.8 4 4v34c0 2.2-1.8 4-4 4h-103.5c-2.2 0-4-1.8-4-4v-34c0-2.2 1.8-4 4-4z" fill="#ff6666"/><path class="st5" d="m427.67 449.5h103.5c2.2 0 4 1.8 4 4v34c0 2.2-1.8 4-4 4h-103.5c-2.2 0-4-1.8-4-4v-34c0-2.2 1.8-4 4-4z" fill="#ff6666"/><path class="st2" d="m509.06 441.69h105.5c2.2 0 4 1.8 4 4v38c0 2.2-1.8 4-4 4h-105.5c-2.2 0-4-1.8-4-4v-38c0-2.2 1.8-4 4-4z" fill="#cc0000" stroke="#000000" stroke-width="2"/><path class="st5" d="m173.17 433.43h103.5c2.2 0 4 1.8 4 4v34c0 2.2-1.8 4-4 4h-103.5c-2.2 0-4-1.8-4-4v-34c0-2.2 1.8-4 4-4z" fill="#ff66ff"/><path class="st2" d="m175.98 472.6h105.5c2.2 0 4 1.8 4 4v38c0 2.2-1.8 4-4 4h-105.5c-2.2 0-4-1.8-4-4v-38c0-2.2 1.8-4 4-4z" fill="#cc00cc" stroke="#000000" stroke-width="2"/><path class="st5" d="m8.62 413.63h103.5c2.2 0 4 1.8 4 4v34c0 2.2-1.8 4-4 4h-103.5c-2.2 0-4-1.8-4-4v-34c0-2.2 1.8-4 4-4z" fill="#cc00cc"/><path class="st2" d="m11.44 452.8h105.5c2.2 0 4 1.8 4 4v38c0 2.2-1.8 4-4 4h-105.5c-2.2 0-4-1.8-4-4v-38c0-2.2 1.8-4 4-4z" fill="#cc00cc" stroke="#000000" stroke-width="2"/><path class="st5" d="m452.37 533.33h103.5c2.2 0 4 1.8 4 4v34c0 2.2-1.8 4-4 4h-103.5c-2.2 0-4-1.8-4-4v-34c0-2.2 1.8-4 4-4z" fill="#ffff66"/><path class="st2" d="m455.19 572.51h105.5c2.2 0 4 1.8 4 4v38c0 2.2-1.8 4-4 4h-105.5c-2.2 0-4-1.8-4-4v-38c0-2.2 1.8-4 4-4z" fill="#cccc00" stroke="#000000" stroke-width="2"/><path class="st5" d="m625.45 505.12h103.5c2.2 0 4 1.8 4 4v34c0 2.2-1.8 4-4 4h-103.5c-2.2 0-4-1.8-4-4v-34c0-2.2 1.8-4 4-4z" fill="#66ff66"/><path class="st2" d="m628.26 544.29h105.5c2.2 0 4 1.8 4 4v38c0 2.2-1.8 4-4 4h-105.5c-2.2 0-4-1.8-4-4v-38c0-2.2 1.8-4 4-4z" fill="#00cc00" stroke="#000000" stroke-width="2"/><path class="st5" d="m765.74 375.5h103.5c2.2 0 4 1.8 4 4v34c0 2.2-1.8 4-4 4h-103.5c-2.2 0-4-1.8-4-4v-34c0-2.2 1.8-4 4-4z" fill="#6666ff"/><path class="st2" d="m768.56 414.68h105.5c2.2 0 4 1.8 4 4v38c0 2.2-1.8 4-4 4h-105.5c-2.2 0-4-1.8-4-4v-38c0-2.2 1.8-4 4-4z" fill="#0000cc" stroke="#000000" stroke-width="2"/><path class="st5" d="m235.84 562.31h103.5c2.2 0 4 1.8 4 4v34c0 2.2-1.8 4-4 4h-103.5c-2.2 0-4-1.8-4-4v-34c0-2.2 1.8-4 4-4z" fill="#66ffff"/><path class="st2" d="m238.65 601.48h105.5c2.2 0 4 1.8 4 4v38c0 2.2-1.8 4-4 4h-105.5c-2.2 0-4-1.8-4-4v-38c0-2.2 1.8-4 4-4z" fill="#00cccc" stroke="#000000" stroke-width="2"/><path class="st1" d="m281.09 363.95h38c2.2 0 4 1.8 4 4v38c0 2.2-1.8 4-4 4h-38c-2.2 0-4-1.8-4-4v-38c0-2.2 1.8-4 4-4z" fill="#5c705c" stroke="#000000" stroke-width="2"/><path class="st1" d="m335.09 363.95h38c2.2 0 4 1.8 4 4v38c0 2.2-1.8 4-4 4h-38c-2.2 0-4-1.8-4-4v-38c0-2.2 1.8-4 4-4z" fill="#006600" stroke="#000000" stroke-width="2"/><path class="st4" d="m281.71 346.27h36c2.2 0 4 1.8 4 4v34c0 2.2-1.8 4-4 4h-36c-2.2 0-4-1.8-4-4v-34c0-2.2 1.8-4 4-4z" fill="#abbaab"/><path class="st4" d="m336.09 345.51h36c2.2 0 4 1.8 4 4v34c0 2.2-1.8 4-4 4h-36c-2.2 0-4-1.8-4-4v-34c0-2.2 1.8-4 4-4z" fill="#00cc00"/><path class="st1" d="m395.46 366.19h38c2.2 0 4 1.8 4 4v38c0 2.2-1.8 4-4 4h-38c-2.2 0-4-1.8-4-4v-38c0-2.2 1.8-4 4-4z" fill="#705c5c" stroke="#000000" stroke-width="2"/><path class="st4" d="m396.08 348.51h36c2.2 0 4 1.8 4 4v34c0 2.2-1.8 4-4 4h-36c-2.2 0-4-1.8-4-4v-34c0-2.2 1.8-4 4-4z" fill="#baabab"/><path class="st1" d="m-78.049 350.09h51.5c2.2 0 4 1.8 4 4v38c0 2.2-1.8 4-4 4h-51.5c-2.2 0-4-1.8-4-4v-38c0-2.2 1.8-4 4-4z" fill="#cccccc" stroke="#000000" stroke-width="2"/><path class="st4" d="m-96.458 338.15h49.5c2.2 0 4 1.8 4 4v34c0 2.2-1.8 4-4 4h-49.5c-2.2 0-4-1.8-4-4v-34c0-2.2 1.8-4 4-4z" fill="#fcfcfc"/><path class="st1" d="m455.44 369.05h38c2.2 0 4 1.8 4 4v38c0 2.2-1.8 4-4 4h-38c-2.2 0-4-1.8-4-4v-38c0-2.2 1.8-4 4-4z" fill="#660000" stroke="#000000" stroke-width="2"/><path class="st4" d="m456.44 350.61h36c2.2 0 4 1.8 4 4v34c0 2.2-1.8 4-4 4h-36c-2.2 0-4-1.8-4-4v-34c0-2.2 1.8-4 4-4z" fill="#cc0000"/><path class="st1" d="m514.86 366.33h38c2.2 0 4 1.8 4 4v38c0 2.2-1.8 4-4 4h-38c-2.2 0-4-1.8-4-4v-38c0-2.2 1.8-4 4-4z" fill="#666600" stroke="#000000" stroke-width="2"/><path class="st4" d="m516.51 349.18h36c2.2 0 4 1.8 4 4v34c0 2.2-1.8 4-4 4h-36c-2.2 0-4-1.8-4-4v-34c0-2.2 1.8-4 4-4z" fill="#cccc00"/><path class="st1" d="m207.11 367.79h38c2.2 0 4 1.8 4 4v38c0 2.2-1.8 4-4 4h-38c-2.2 0-4-1.8-4-4v-38c0-2.2 1.8-4 4-4z" fill="#006666" stroke="#000000" stroke-width="2"/><path class="st4" d="m208.11 349.35h36c2.2 0 4 1.8 4 4v34c0 2.2-1.8 4-4 4h-36c-2.2 0-4-1.8-4-4v-34c0-2.2 1.8-4 4-4z" fill="#00cccc"/><path class="st1" d="m572.6 365.19h38c2.2 0 4 1.8 4 4v38c0 2.2-1.8 4-4 4h-38c-2.2 0-4-1.8-4-4v-38c0-2.2 1.8-4 4-4z" fill="#660066" stroke="#000000" stroke-width="2"/><path class="st4" d="m566.52 346.9h36c2.2 0 4 1.8 4 4v34c0 2.2-1.8 4-4 4h-36c-2.2 0-4-1.8-4-4v-34c0-2.2 1.8-4 4-4z" fill="#cc00cc"/><path class="st1" d="m672.76 360.13h38c2.2 0 4 1.8 4 4v38c0 2.2-1.8 4-4 4h-38c-2.2 0-4-1.8-4-4v-38c0-2.2 1.8-4 4-4z" fill="#000066" stroke="#000000" stroke-width="2"/><path class="st4" d="m666.68 341.84h36c2.2 0 4 1.8 4 4v34c0 2.2-1.8 4-4 4h-36c-2.2 0-4-1.8-4-4v-34c0-2.2 1.8-4 4-4z" fill="#0000cc"/><g transform="translate(-8.5 -8.8)"><g transform="translate(.4542 -.056775)" fill="#cc00cc"><circle cx="615.09" cy="135.36" r="1" style="paint-order:markers fill stroke"/><circle cx="617.75" cy="135.36" r="1" style="paint-order:markers fill stroke"/></g><g transform="translate(959.67 122.38)"><g transform="matrix(2 0 0 2 -1062.7 -265.46)"><path d="m373.8 263.1c0 2-1.2 3-3.4 3h-3.9v-9.9h4.1c1.7 0 2.8.9 2.8 2.6 0 1-.5 1.6-1.3 2 .9.2 1.7 1 1.7 2.3zm-1.8-4.2c0-.7-.4-1.3-1.4-1.3h-2.7v2.6h2.7c1 0 1.4-.6 1.4-1.3zm.4 4.3c0-1-.6-1.6-1.8-1.6h-2.7v3.3h2.7c1.3-.1 1.8-.8 1.8-1.7z"/></g><path d="m-305.07 258.56h-1.7v2.3h-1.4v-2.3h-2.3v2.3h-1.4v-2.3h-1.7v-1.3h1.7v-2.7h-1.7v-1.4h1.7v-2.3h1.4v2.3h2.3v-2.3h1.4v2.3h1.7v1.3h-1.7v2.7h1.7zm-3.1-1.3v-2.7h-2.3v2.7z"/></g><g transform="matrix(2 0 0 2 -290.16 -205.23)"><path d="m239 207.2c0 3.5-2.2 5-4.8 5h-2.7v-9.9h2.7c2.7-.1 4.8 1.4 4.8 4.9zm-1.5 0c0-2.1-1-3.5-3.3-3.5h-1.2v7h1.2c2.3 0 3.3-1.4 3.3-3.5z"/></g><g transform="matrix(2 0 0 2 -811.24 163.64)"><path d="m292.6 203.7h-4.9v2.6h2.8v1.5h-2.8v4.4h-1.5v-9.9h6.4z"/></g><text x="-227.70001" y="583.08942" font-family="'Century Schoolbook'" font-size="13.333px" letter-spacing="0px" word-spacing="0px" style="line-height:1" xml:space="preserve"><tspan x="-227.70001" y="583.08942" font-family="Arial" font-size="13.333px" font-weight="bold">♭</tspan></text><g transform="matrix(2 0 0 2 -209.16 -97.311)"><path d="m225 158.2h-6.6v-9.9h6.4v1.4h-4.9v2.5h2.8v1.4h-2.8v3.1h5.1z"/></g><g transform="matrix(2 0 0 2 -476.54 -259.82)"><path d="m373.8 263.1c0 2-1.2 3-3.4 3h-3.9v-9.9h4.1c1.7 0 2.8.9 2.8 2.6 0 1-.5 1.6-1.3 2 .9.2 1.7 1 1.7 2.3zm-1.8-4.2c0-.7-.4-1.3-1.4-1.3h-2.7v2.6h2.7c1 0 1.4-.6 1.4-1.3zm.4 4.3c0-1-.6-1.6-1.8-1.6h-2.7v3.3h2.7c1.3-.1 1.8-.8 1.8-1.7z"/></g><g transform="matrix(2 0 0 2 -518.83 -261.27)"><path d="m347 208.3c0 2.6-1.6 4-3.8 4-2.6 0-4.2-2.1-4.2-5.1s1.6-5.1 4.2-5.1c1.6 0 2.7.7 3.4 1.9l-1.3.8c-.5-.8-1-1.2-2.1-1.2-1.7 0-2.7 1.4-2.7 3.6s.9 3.6 2.7 3.6c1.6 0 2.3-1.1 2.3-2.2h-1.6v-1.4h3.1z"/></g><path d="m134.61 214.72c-1.4 2.4-3.8 3.8-6.8 3.8-5.2 0-8.4-4.2-8.4-10.2s3.2-10.2 8.4-10.2c3.2 0 5.4 1.4 6.8 3.8l-2.6 1.6c-1-1.6-2-2.4-4.2-2.4-3.4 0-5.4 2.8-5.4 7.2s1.8 7.2 5.4 7.2c2 0 3.4-.8 4.4-2.4z" stroke-width="2"/><g transform="matrix(2 0 0 2 -464.64 -261.87)"><path d="m292.6 203.7h-4.9v2.6h2.8v1.5h-2.8v4.4h-1.5v-9.9h6.4z"/></g><g transform="matrix(2 0 0 2 -32.944 -261.6)"><path d="m131.4 212.2h-1.6l-.8-2.4h-4l-.8 2.4h-1.5l3.6-9.9h1.6zm-2.9-3.7-.8-2.3c-.2-.7-.6-1.9-.8-2.3-.1.4-.5 1.6-.7 2.3l-.8 2.3z"/></g><g transform="matrix(2 0 0 2 -127.91 -205.76)"><path d="m239 207.2c0 3.5-2.2 5-4.8 5h-2.7v-9.9h2.7c2.7-.1 4.8 1.4 4.8 4.9zm-1.5 0c0-2.1-1-3.5-3.3-3.5h-1.2v7h1.2c2.3 0 3.3-1.4 3.3-3.5z"/></g><g transform="matrix(2 0 0 2 -46.915 -97.841)"><path d="m225 158.2h-6.6v-9.9h6.4v1.4h-4.9v2.5h2.8v1.4h-2.8v3.1h5.1z"/></g><g transform="matrix(2 0 0 2 -314.3 -260.35)"><path d="m373.8 263.1c0 2-1.2 3-3.4 3h-3.9v-9.9h4.1c1.7 0 2.8.9 2.8 2.6 0 1-.5 1.6-1.3 2 .9.2 1.7 1 1.7 2.3zm-1.8-4.2c0-.7-.4-1.3-1.4-1.3h-2.7v2.6h2.7c1 0 1.4-.6 1.4-1.3zm.4 4.3c0-1-.6-1.6-1.8-1.6h-2.7v3.3h2.7c1.3-.1 1.8-.8 1.8-1.7z"/></g><g transform="matrix(2 0 0 2 -356.59 -261.8)"><path d="m347 208.3c0 2.6-1.6 4-3.8 4-2.6 0-4.2-2.1-4.2-5.1s1.6-5.1 4.2-5.1c1.6 0 2.7.7 3.4 1.9l-1.3.8c-.5-.8-1-1.2-2.1-1.2-1.7 0-2.7 1.4-2.7 3.6s.9 3.6 2.7 3.6c1.6 0 2.3-1.1 2.3-2.2h-1.6v-1.4h3.1z"/></g><path d="m296.18 216.01c-1.4 2.4-3.8 3.8-6.8 3.8-5.2 0-8.4-4.2-8.4-10.2s3.2-10.2 8.4-10.2c3.2 0 5.4 1.4 6.8 3.8l-2.6 1.6c-1-1.6-2-2.4-4.2-2.4-3.4 0-5.4 2.8-5.4 7.2s1.8 7.2 5.4 7.2c2 0 3.4-.8 4.4-2.4z" stroke-width="2"/><g transform="matrix(2 0 0 2 -302.39 -262.4)"><path d="m292.6 203.7h-4.9v2.6h2.8v1.5h-2.8v4.4h-1.5v-9.9h6.4z"/></g><g transform="matrix(2 0 0 2 129.3 -262.13)"><path d="m131.4 212.2h-1.6l-.8-2.4h-4l-.8 2.4h-1.5l3.6-9.9h1.6zm-2.9-3.7-.8-2.3c-.2-.7-.6-1.9-.8-2.3-.1.4-.5 1.6-.7 2.3l-.8 2.3z"/></g><g transform="matrix(2 0 0 2 37.59 -205.8)"><path d="m239 207.2c0 3.5-2.2 5-4.8 5h-2.7v-9.9h2.7c2.7-.1 4.8 1.4 4.8 4.9zm-1.5 0c0-2.1-1-3.5-3.3-3.5h-1.2v7h1.2c2.3 0 3.3-1.4 3.3-3.5z"/></g><g transform="matrix(2 0 0 2 114.95 -97.199)"><path d="m225 158.2h-6.6v-9.9h6.4v1.4h-4.9v2.5h2.8v1.4h-2.8v3.1h5.1z"/></g><g transform="matrix(2 0 0 2 -152.43 -259.71)"><path d="m373.8 263.1c0 2-1.2 3-3.4 3h-3.9v-9.9h4.1c1.7 0 2.8.9 2.8 2.6 0 1-.5 1.6-1.3 2 .9.2 1.7 1 1.7 2.3zm-1.8-4.2c0-.7-.4-1.3-1.4-1.3h-2.7v2.6h2.7c1 0 1.4-.6 1.4-1.3zm.4 4.3c0-1-.6-1.6-1.8-1.6h-2.7v3.3h2.7c1.3-.1 1.8-.8 1.8-1.7z"/></g><g transform="matrix(2 0 0 2 -194.72 -261.16)"><path d="m347 208.3c0 2.6-1.6 4-3.8 4-2.6 0-4.2-2.1-4.2-5.1s1.6-5.1 4.2-5.1c1.6 0 2.7.7 3.4 1.9l-1.3.8c-.5-.8-1-1.2-2.1-1.2-1.7 0-2.7 1.4-2.7 3.6s.9 3.6 2.7 3.6c1.6 0 2.3-1.1 2.3-2.2h-1.6v-1.4h3.1z"/></g><path d="m458.72 214.83c-1.4 2.4-3.8 3.8-6.8 3.8-5.2 0-8.4-4.2-8.4-10.2s3.2-10.2 8.4-10.2c3.2 0 5.4 1.4 6.8 3.8l-2.6 1.6c-1-1.6-2-2.4-4.2-2.4-3.4 0-5.4 2.8-5.4 7.2s1.8 7.2 5.4 7.2c2 0 3.4-.8 4.4-2.4z" stroke-width="2"/><g transform="matrix(2 0 0 2 -140.52 -261.76)"><path d="m292.6 203.7h-4.9v2.6h2.8v1.5h-2.8v4.4h-1.5v-9.9h6.4z"/></g><g transform="matrix(2 0 0 2 291.17 -261.49)"><path d="m131.4 212.2h-1.6l-.8-2.4h-4l-.8 2.4h-1.5l3.6-9.9h1.6zm-2.9-3.7-.8-2.3c-.2-.7-.6-1.9-.8-2.3-.1.4-.5 1.6-.7 2.3l-.8 2.3z"/></g><g transform="matrix(2 0 0 2 197.11 -207.04)"><path d="m239 207.2c0 3.5-2.2 5-4.8 5h-2.7v-9.9h2.7c2.7-.1 4.8 1.4 4.8 4.9zm-1.5 0c0-2.1-1-3.5-3.3-3.5h-1.2v7h1.2c2.3 0 3.3-1.4 3.3-3.5z"/></g><g transform="matrix(2 0 0 2 276.5 -98.804)"><path d="m225 158.2h-6.6v-9.9h6.4v1.4h-4.9v2.5h2.8v1.4h-2.8v3.1h5.1z"/></g><g transform="matrix(2 0 0 2 -30.925 -259.23)"><path d="m347 208.3c0 2.6-1.6 4-3.8 4-2.6 0-4.2-2.1-4.2-5.1s1.6-5.1 4.2-5.1c1.6 0 2.7.7 3.4 1.9l-1.3.8c-.5-.8-1-1.2-2.1-1.2-1.7 0-2.7 1.4-2.7 3.6s.9 3.6 2.7 3.6c1.6 0 2.3-1.1 2.3-2.2h-1.6v-1.4h3.1z"/></g><path d="m620.08 214.56c-1.4 2.4-3.8 3.8-6.8 3.8-5.2 0-8.4-4.2-8.4-10.2s3.2-10.2 8.4-10.2c3.2 0 5.4 1.4 6.8 3.8l-2.6 1.6c-1-1.6-2-2.4-4.2-2.4-3.4 0-5.4 2.8-5.4 7.2s1.8 7.2 5.4 7.2c2 0 3.4-.8 4.4-2.4z" stroke-width="2"/><g transform="matrix(2 0 0 2 23.271 -259.83)"><path d="m292.6 203.7h-4.9v2.6h2.8v1.5h-2.8v4.4h-1.5v-9.9h6.4z"/></g><g transform="matrix(2 0 0 2 454.96 -259.56)"><path d="m131.4 212.2h-1.6l-.8-2.4h-4l-.8 2.4h-1.5l3.6-9.9h1.6zm-2.9-3.7-.8-2.3c-.2-.7-.6-1.9-.8-2.3-.1.4-.5 1.6-.7 2.3l-.8 2.3z"/></g><g transform="matrix(2 0 0 2 -638.1 -258.94)"><path d="m373.8 263.1c0 2-1.2 3-3.4 3h-3.9v-9.9h4.1c1.7 0 2.8.9 2.8 2.6 0 1-.5 1.6-1.3 2 .9.2 1.7 1 1.7 2.3zm-1.8-4.2c0-.7-.4-1.3-1.4-1.3h-2.7v2.6h2.7c1 0 1.4-.6 1.4-1.3zm.4 4.3c0-1-.6-1.6-1.8-1.6h-2.7v3.3h2.7c1.3-.1 1.8-.8 1.8-1.7z"/></g><g transform="matrix(2 0 0 2 182.51 -260.53)"><path d="m292.6 203.7h-4.9v2.6h2.8v1.5h-2.8v4.4h-1.5v-9.9h6.4z"/></g><g transform="translate(-324.02 1.0907)"><g transform="matrix(.75758 0 0 .75758 466.56 77.397)"><g transform="matrix(2,0,0,2,-806.36,-483.41)"><path d="m373.8 263.1c0 2-1.2 3-3.4 3h-3.9v-9.9h4.1c1.7 0 2.8.9 2.8 2.6 0 1-.5 1.6-1.3 2 .9.2 1.7 1 1.7 2.3zm-1.8-4.2c0-.7-.4-1.3-1.4-1.3h-2.7v2.6h2.7c1 0 1.4-.6 1.4-1.3zm.4 4.3c0-1-.6-1.6-1.8-1.6h-2.7v3.3h2.7c1.3-.1 1.8-.8 1.8-1.7z"/></g><text x="-58.423237" y="43.680428" font-family="'Century Schoolbook'" font-size="18.667px" font-weight="bold" letter-spacing="0px" word-spacing="0px" style="line-height:1" xml:space="preserve"><tspan x="-58.423237" y="43.680428" font-family="'Century Schoolbook'" font-size="18.667px" font-weight="bold">♭</tspan></text></g><g transform="matrix(.75758 0 0 .75758 428.95 -69.206)"><g transform="matrix(2,0,0,2,-290.83,-204.32)"><path d="m131.4 212.2h-1.6l-.8-2.4h-4l-.8 2.4h-1.5l3.6-9.9h1.6zm-2.9-3.7-.8-2.3c-.2-.7-.6-1.9-.8-2.3-.1.4-.5 1.6-.7 2.3l-.8 2.3z"/></g><path d="m-20.609 212.6h-1.7v2.3h-1.4v-2.3h-2.3v2.3h-1.4v-2.3h-1.7v-1.3h1.7v-2.7h-1.7v-1.4h1.7v-2.3h1.4v2.3h2.3v-2.3h1.4v2.3h1.7v1.3h-1.7v2.7h1.7zm-3.1-1.3v-2.7h-2.3v2.7z"/></g></g><text x="138.75157" y="198.03725" fill="#cc0000" font-family="'Century Schoolbook'" font-size="14.713px" font-weight="bold" letter-spacing="0px" stroke-width=".78818" word-spacing="0px" style="line-height:1" xml:space="preserve"><tspan x="138.75157" y="198.03725" fill="#cc0000" font-family="'Century Schoolbook'" font-size="14.713px" font-weight="bold" stroke-width=".78818">1</tspan></text><text x="193.64191" y="197.74803" fill="#cc0000" font-family="'Century Schoolbook'" font-size="14.713px" font-weight="bold" letter-spacing="0px" stroke-width=".78818" word-spacing="0px" style="line-height:1" xml:space="preserve"><tspan x="193.64191" y="197.74803" fill="#cc0000" font-family="'Century Schoolbook'" font-size="14.713px" font-weight="bold" stroke-width=".78818">2</tspan></text><text x="247.91902" y="197.58745" fill="#cc0000" font-family="'Century Schoolbook'" font-size="14.713px" font-weight="bold" letter-spacing="0px" stroke-width=".78818" word-spacing="0px" style="line-height:1" xml:space="preserve"><tspan x="247.91902" y="197.58745" fill="#cc0000" font-family="'Century Schoolbook'" font-size="14.713px" font-weight="bold" stroke-width=".78818">3</tspan></text><text x="234.91179" y="143.71179" fill="#cc0000" font-family="'Century Schoolbook'" font-size="14.713px" font-weight="bold" letter-spacing="0px" stroke-width=".78818" word-spacing="0px" style="line-height:1" xml:space="preserve"><tspan x="234.91179" y="143.71179" fill="#cc0000" font-family="'Century Schoolbook'" font-size="14.713px" font-weight="bold" stroke-width=".78818">6</tspan></text><text x="180.55437" y="143.55119" fill="#cc0000" font-family="'Century Schoolbook'" font-size="14.713px" font-weight="bold" letter-spacing="0px" stroke-width=".78818" word-spacing="0px" style="line-height:1" xml:space="preserve"><tspan x="180.55437" y="143.55119" fill="#cc0000" font-family="'Century Schoolbook'" font-size="14.713px" font-weight="bold" stroke-width=".78818">5</tspan></text><text x="126.11668" y="144.03296" fill="#cc0000" font-family="'Century Schoolbook'" font-size="14.713px" font-weight="bold" letter-spacing="0px" stroke-width=".78818" word-spacing="0px" style="line-height:1" xml:space="preserve"><tspan x="126.11668" y="144.03296" fill="#cc0000" font-family="'Century Schoolbook'" font-size="14.713px" font-weight="bold" stroke-width=".78818">4</tspan></text><text x="275.21817" y="251.78427" fill="#cc0000" font-family="'Century Schoolbook'" font-size="14.713px" font-weight="bold" letter-spacing="0px" stroke-width=".78818" word-spacing="0px" style="line-height:1" xml:space="preserve"><tspan x="275.21817" y="251.78427" fill="#cc0000" font-family="'Century Schoolbook'" font-size="14.713px" font-weight="bold" stroke-width=".78818">7</tspan></text><circle cx="184.9" cy="145.83" r="1.5" fill="#cc0000" style="paint-order:markers fill stroke"/><circle cx="239.58" cy="145.86" r="1.5" fill="#cc0000" style="paint-order:markers fill stroke"/><circle cx="252.27" cy="199.65" r="1.5" fill="#cc0000" style="paint-order:markers fill stroke"/><circle cx="197.83" cy="200.22" r="1.5" fill="#cc0000" style="paint-order:markers fill stroke"/><circle cx="143.31" cy="200.13" r="1.5" fill="#cc0000" style="paint-order:markers fill stroke"/><circle cx="131.13" cy="145.97" r="1.5" fill="#cc0000" style="paint-order:markers fill stroke"/><circle cx="279.57" cy="254.18" r="1.5" fill="#cc0000" style="paint-order:markers fill stroke"/><g transform="translate(-.81321 .40991)"><g transform="matrix(.75722 0 0 .75722 384.1 57.362)"><g transform="matrix(2 0 0 2 -713.17 -155.67)"><path d="m239 207.2c0 3.5-2.2 5-4.8 5h-2.7v-9.9h2.7c2.7-.1 4.8 1.4 4.8 4.9zm-1.5 0c0-2.1-1-3.5-3.3-3.5h-1.2v7h1.2c2.3 0 3.3-1.4 3.3-3.5z"/></g><path d="m-224.41 260.98h-1.7v2.3h-1.4v-2.3h-2.3v2.3h-1.4v-2.3h-1.7v-1.3h1.7v-2.7h-1.7v-1.4h1.7v-2.3h1.4v2.3h2.3v-2.3h1.4v2.3h1.7v1.3h-1.7v2.7h1.7zm-3.1-1.3v-2.7h-2.3v2.7z"/></g><g transform="matrix(.74776 0 0 .74776 120.03 350.6)"><g transform="matrix(2 0 0 2 -316.6 -413.97)"><path d="m225 158.2h-6.6v-9.9h6.4v1.4h-4.9v2.5h2.8v1.4h-2.8v3.1h5.1z"/></g><text x="132.94505" y="-103.37805" font-family="'Century Schoolbook'" font-size="18.667px" font-weight="bold" letter-spacing="0px" word-spacing="0px" style="line-height:1" xml:space="preserve"><tspan x="132.94505" y="-103.37805" font-family="'Century Schoolbook'" font-size="18.667px" font-weight="bold">♭</tspan></text></g></g><g transform="translate(.54938 1.7725)"><g transform="matrix(.73529 0 0 .73529 352.4 85.609)"><path d="m-266.31 228.23h-1.7v2.3h-1.4v-2.3h-2.3v2.3h-1.4v-2.3h-1.7v-1.3h1.7v-2.7h-1.7v-1.4h1.7v-2.3h1.4v2.3h2.3v-2.3h1.4v2.3h1.7v1.3h-1.7v2.7h1.7zm-3.1-1.3v-2.7h-2.3v2.7z"/><g transform="matrix(2 0 0 2 -807.23 -296.34)"><path d="m265.8 264.4c-.7 1.2-1.9 1.9-3.4 1.9-2.6 0-4.2-2.1-4.2-5.1s1.6-5.1 4.2-5.1c1.6 0 2.7.7 3.4 1.9l-1.3.8c-.5-.8-1-1.2-2.1-1.2-1.7 0-2.7 1.4-2.7 3.6s.9 3.6 2.7 3.6c1 0 1.7-.4 2.2-1.2z"/></g></g><g transform="matrix(.75489 0 0 .75489 123.74 335.92)"><g transform="matrix(2 0 0 2 -422.58 -504.68)"><path d="m239 207.2c0 3.5-2.2 5-4.8 5h-2.7v-9.9h2.7c2.7-.1 4.8 1.4 4.8 4.9zm-1.5 0c0-2.1-1-3.5-3.3-3.5h-1.2v7h1.2c2.3 0 3.3-1.4 3.3-3.5z"/></g><text x="56.475048" y="-86.50576" font-family="'Century Schoolbook'" font-size="18.667px" font-weight="bold" letter-spacing="0px" word-spacing="0px" style="line-height:1" xml:space="preserve"><tspan x="56.475048" y="-86.50576" font-family="'Century Schoolbook'" font-size="18.667px" font-weight="bold">♭</tspan></text></g></g><g transform="translate(-160.69 .8641)"><g transform="matrix(.75758 0 0 .75758 466.56 77.397)"><g transform="matrix(2 0 0 2 -806.36 -483.41)"><path d="m373.8 263.1c0 2-1.2 3-3.4 3h-3.9v-9.9h4.1c1.7 0 2.8.9 2.8 2.6 0 1-.5 1.6-1.3 2 .9.2 1.7 1 1.7 2.3zm-1.8-4.2c0-.7-.4-1.3-1.4-1.3h-2.7v2.6h2.7c1 0 1.4-.6 1.4-1.3zm.4 4.3c0-1-.6-1.6-1.8-1.6h-2.7v3.3h2.7c1.3-.1 1.8-.8 1.8-1.7z"/></g><text x="-58.423237" y="43.680428" font-family="'Century Schoolbook'" font-size="18.667px" font-weight="bold" letter-spacing="0px" word-spacing="0px" style="line-height:1" xml:space="preserve"><tspan x="-58.423237" y="43.680428" font-family="'Century Schoolbook'" font-size="18.667px" font-weight="bold">♭</tspan></text></g><g transform="matrix(.75758 0 0 .75758 428.95 -69.206)"><g transform="matrix(2 0 0 2 -290.83 -204.32)"><path d="m131.4 212.2h-1.6l-.8-2.4h-4l-.8 2.4h-1.5l3.6-9.9h1.6zm-2.9-3.7-.8-2.3c-.2-.7-.6-1.9-.8-2.3-.1.4-.5 1.6-.7 2.3l-.8 2.3z"/></g><path d="m-20.609 212.6h-1.7v2.3h-1.4v-2.3h-2.3v2.3h-1.4v-2.3h-1.7v-1.3h1.7v-2.7h-1.7v-1.4h1.7v-2.3h1.4v2.3h2.3v-2.3h1.4v2.3h1.7v1.3h-1.7v2.7h1.7zm-3.1-1.3v-2.7h-2.3v2.7z"/></g></g><g transform="translate(-162.51 .40991)"><g transform="matrix(.75758 0 0 .75758 443.38 157.91)"><g transform="matrix(2 0 0 2 -360.87 -482.25)"><path d="m131.4 212.2h-1.6l-.8-2.4h-4l-.8 2.4h-1.5l3.6-9.9h1.6zm-2.9-3.7-.8-2.3c-.2-.7-.6-1.9-.8-2.3-.1.4-.5 1.6-.7 2.3l-.8 2.3z"/></g><text x="-99.106789" y="-62.746986" font-family="'Century Schoolbook'" font-size="18.667px" font-weight="bold" letter-spacing="0px" word-spacing="0px" style="line-height:1" xml:space="preserve"><tspan x="-99.106789" y="-62.746986" font-family="'Century Schoolbook'" font-size="18.667px" font-weight="bold">♭</tspan></text></g><g transform="matrix(.73529 0 0 .73529 415.2 -63.25)"><g transform="matrix(2 0 0 2 -776.31 -204.86)"><path d="m347 208.3c0 2.6-1.6 4-3.8 4-2.6 0-4.2-2.1-4.2-5.1s1.6-5.1 4.2-5.1c1.6 0 2.7.7 3.4 1.9l-1.3.8c-.5-.8-1-1.2-2.1-1.2-1.7 0-2.7 1.4-2.7 3.6s.9 3.6 2.7 3.6c1.6 0 2.3-1.1 2.3-2.2h-1.6v-1.4h3.1z"/></g><path d="m-72.602 211.82h-1.7v2.3h-1.4v-2.3h-2.3v2.3h-1.4v-2.3h-1.7v-1.3h1.7v-2.7h-1.7v-1.4h1.7v-2.3h1.4v2.3h2.3v-2.3h1.4v2.3h1.7v1.3h-1.7v2.7h1.7zm-3.1-1.3v-2.7h-2.3v2.7z"/></g></g><g transform="translate(-162.05 -.044292)"><g transform="matrix(.75758 0 0 .75758 97.907 -107.21)"><path d="m272.24 265.18h-1.7v2.3h-1.4v-2.3h-2.3v2.3h-1.4v-2.3h-1.7v-1.3h1.7v-2.7h-1.7v-1.4h1.7v-2.3h1.4v2.3h2.3v-2.3h1.4v2.3h1.7v1.3h-1.7v2.7h1.7zm-3.1-1.3v-2.7h-2.3v2.7z"/><g transform="matrix(2 0 0 2 -319.55 -152.64)"><path d="m292.6 203.7h-4.9v2.6h2.8v1.5h-2.8v4.4h-1.5v-9.9h6.4z"/></g></g><g transform="matrix(.73529 0 0 .73529 426.3 156.69)"><g transform="matrix(2 0 0 2 -846.8 -481.84)"><path d="m347 208.3c0 2.6-1.6 4-3.8 4-2.6 0-4.2-2.1-4.2-5.1s1.6-5.1 4.2-5.1c1.6 0 2.7.7 3.4 1.9l-1.3.8c-.5-.8-1-1.2-2.1-1.2-1.7 0-2.7 1.4-2.7 3.6s.9 3.6 2.7 3.6c1.6 0 2.3-1.1 2.3-2.2h-1.6v-1.4h3.1z"/></g><text x="-151.87219" y="-63.103462" font-family="'Century Schoolbook'" font-size="18.667px" font-weight="bold" letter-spacing="0px" word-spacing="0px" style="line-height:1" xml:space="preserve"><tspan x="-151.87219" y="-63.103462" font-family="'Century Schoolbook'" font-size="18.667px" font-weight="bold">♭</tspan></text></g></g><g transform="translate(161.77 1.2835)"><g transform="matrix(.75722 0 0 .75722 384.1 57.362)"><g transform="matrix(2 0 0 2 -713.17 -155.67)"><path d="m239 207.2c0 3.5-2.2 5-4.8 5h-2.7v-9.9h2.7c2.7-.1 4.8 1.4 4.8 4.9zm-1.5 0c0-2.1-1-3.5-3.3-3.5h-1.2v7h1.2c2.3 0 3.3-1.4 3.3-3.5z"/></g><path d="m-224.41 260.98h-1.7v2.3h-1.4v-2.3h-2.3v2.3h-1.4v-2.3h-1.7v-1.3h1.7v-2.7h-1.7v-1.4h1.7v-2.3h1.4v2.3h2.3v-2.3h1.4v2.3h1.7v1.3h-1.7v2.7h1.7zm-3.1-1.3v-2.7h-2.3v2.7z"/></g><g transform="matrix(.74776 0 0 .74776 120.03 350.6)"><g transform="matrix(2 0 0 2 -316.6 -413.97)"><path d="m225 158.2h-6.6v-9.9h6.4v1.4h-4.9v2.5h2.8v1.4h-2.8v3.1h5.1z"/></g><text x="132.94505" y="-103.37805" font-family="'Century Schoolbook'" font-size="18.667px" font-weight="bold" letter-spacing="0px" word-spacing="0px" style="line-height:1" xml:space="preserve"><tspan x="132.94505" y="-103.37805" font-family="'Century Schoolbook'" font-size="18.667px" font-weight="bold">♭</tspan></text></g></g><g transform="translate(163.13 2.6461)"><g transform="matrix(.73529 0 0 .73529 352.4 85.609)"><path d="m-266.31 228.23h-1.7v2.3h-1.4v-2.3h-2.3v2.3h-1.4v-2.3h-1.7v-1.3h1.7v-2.7h-1.7v-1.4h1.7v-2.3h1.4v2.3h2.3v-2.3h1.4v2.3h1.7v1.3h-1.7v2.7h1.7zm-3.1-1.3v-2.7h-2.3v2.7z"/><g transform="matrix(2 0 0 2 -807.23 -296.34)"><path d="m265.8 264.4c-.7 1.2-1.9 1.9-3.4 1.9-2.6 0-4.2-2.1-4.2-5.1s1.6-5.1 4.2-5.1c1.6 0 2.7.7 3.4 1.9l-1.3.8c-.5-.8-1-1.2-2.1-1.2-1.7 0-2.7 1.4-2.7 3.6s.9 3.6 2.7 3.6c1 0 1.7-.4 2.2-1.2z"/></g></g><g transform="matrix(.75489 0 0 .75489 123.74 335.92)"><g transform="matrix(2 0 0 2 -422.58 -504.68)"><path d="m239 207.2c0 3.5-2.2 5-4.8 5h-2.7v-9.9h2.7c2.7-.1 4.8 1.4 4.8 4.9zm-1.5 0c0-2.1-1-3.5-3.3-3.5h-1.2v7h1.2c2.3 0 3.3-1.4 3.3-3.5z"/></g><text x="56.475048" y="-86.50576" font-family="'Century Schoolbook'" font-size="18.667px" font-weight="bold" letter-spacing="0px" word-spacing="0px" style="line-height:1" xml:space="preserve"><tspan x="56.475048" y="-86.50576" font-family="'Century Schoolbook'" font-size="18.667px" font-weight="bold">♭</tspan></text></g></g><g transform="translate(1.8887 1.7377)"><g transform="matrix(.75758 0 0 .75758 466.56 77.397)"><g transform="matrix(2 0 0 2 -806.36 -483.41)"><path d="m373.8 263.1c0 2-1.2 3-3.4 3h-3.9v-9.9h4.1c1.7 0 2.8.9 2.8 2.6 0 1-.5 1.6-1.3 2 .9.2 1.7 1 1.7 2.3zm-1.8-4.2c0-.7-.4-1.3-1.4-1.3h-2.7v2.6h2.7c1 0 1.4-.6 1.4-1.3zm.4 4.3c0-1-.6-1.6-1.8-1.6h-2.7v3.3h2.7c1.3-.1 1.8-.8 1.8-1.7z"/></g><text x="-58.423237" y="43.680428" font-family="'Century Schoolbook'" font-size="18.667px" font-weight="bold" letter-spacing="0px" word-spacing="0px" style="line-height:1" xml:space="preserve"><tspan x="-58.423237" y="43.680428" font-family="'Century Schoolbook'" font-size="18.667px" font-weight="bold">♭</tspan></text></g><g transform="matrix(.75758 0 0 .75758 428.95 -69.206)"><g transform="matrix(2 0 0 2 -290.83 -204.32)"><path d="m131.4 212.2h-1.6l-.8-2.4h-4l-.8 2.4h-1.5l3.6-9.9h1.6zm-2.9-3.7-.8-2.3c-.2-.7-.6-1.9-.8-2.3-.1.4-.5 1.6-.7 2.3l-.8 2.3z"/></g><path d="m-20.609 212.6h-1.7v2.3h-1.4v-2.3h-2.3v2.3h-1.4v-2.3h-1.7v-1.3h1.7v-2.7h-1.7v-1.4h1.7v-2.3h1.4v2.3h2.3v-2.3h1.4v2.3h1.7v1.3h-1.7v2.7h1.7zm-3.1-1.3v-2.7h-2.3v2.7z"/></g></g><g transform="translate(.071944 1.2835)"><g transform="matrix(.75758 0 0 .75758 443.38 157.91)"><g transform="matrix(2 0 0 2 -360.87 -482.25)"><path d="m131.4 212.2h-1.6l-.8-2.4h-4l-.8 2.4h-1.5l3.6-9.9h1.6zm-2.9-3.7-.8-2.3c-.2-.7-.6-1.9-.8-2.3-.1.4-.5 1.6-.7 2.3l-.8 2.3z"/></g><text x="-99.106789" y="-62.746986" font-family="'Century Schoolbook'" font-size="18.667px" font-weight="bold" letter-spacing="0px" word-spacing="0px" style="line-height:1" xml:space="preserve"><tspan x="-99.106789" y="-62.746986" font-family="'Century Schoolbook'" font-size="18.667px" font-weight="bold">♭</tspan></text></g><g transform="matrix(.73529 0 0 .73529 415.2 -63.25)"><g transform="matrix(2 0 0 2 -776.31 -204.86)"><path d="m347 208.3c0 2.6-1.6 4-3.8 4-2.6 0-4.2-2.1-4.2-5.1s1.6-5.1 4.2-5.1c1.6 0 2.7.7 3.4 1.9l-1.3.8c-.5-.8-1-1.2-2.1-1.2-1.7 0-2.7 1.4-2.7 3.6s.9 3.6 2.7 3.6c1.6 0 2.3-1.1 2.3-2.2h-1.6v-1.4h3.1z"/></g><path d="m-72.602 211.82h-1.7v2.3h-1.4v-2.3h-2.3v2.3h-1.4v-2.3h-1.7v-1.3h1.7v-2.7h-1.7v-1.4h1.7v-2.3h1.4v2.3h2.3v-2.3h1.4v2.3h1.7v1.3h-1.7v2.7h1.7zm-3.1-1.3v-2.7h-2.3v2.7z"/></g></g><g transform="translate(.52614 .82934)"><g transform="matrix(.75758 0 0 .75758 97.907 -107.21)"><path d="m272.24 265.18h-1.7v2.3h-1.4v-2.3h-2.3v2.3h-1.4v-2.3h-1.7v-1.3h1.7v-2.7h-1.7v-1.4h1.7v-2.3h1.4v2.3h2.3v-2.3h1.4v2.3h1.7v1.3h-1.7v2.7h1.7zm-3.1-1.3v-2.7h-2.3v2.7z"/><g transform="matrix(2 0 0 2 -319.55 -152.64)"><path d="m292.6 203.7h-4.9v2.6h2.8v1.5h-2.8v4.4h-1.5v-9.9h6.4z"/></g></g><g transform="matrix(.73529 0 0 .73529 426.3 156.69)"><g transform="matrix(2 0 0 2 -846.8 -481.84)"><path d="m347 208.3c0 2.6-1.6 4-3.8 4-2.6 0-4.2-2.1-4.2-5.1s1.6-5.1 4.2-5.1c1.6 0 2.7.7 3.4 1.9l-1.3.8c-.5-.8-1-1.2-2.1-1.2-1.7 0-2.7 1.4-2.7 3.6s.9 3.6 2.7 3.6c1.6 0 2.3-1.1 2.3-2.2h-1.6v-1.4h3.1z"/></g><text x="-151.87219" y="-63.103462" font-family="'Century Schoolbook'" font-size="18.667px" font-weight="bold" letter-spacing="0px" word-spacing="0px" style="line-height:1" xml:space="preserve"><tspan x="-151.87219" y="-63.103462" font-family="'Century Schoolbook'" font-size="18.667px" font-weight="bold">♭</tspan></text></g></g><g transform="translate(322.99 .6412)"><g transform="matrix(.75722 0 0 .75722 384.1 57.362)"><g transform="matrix(2 0 0 2 -713.17 -155.67)"><path d="m239 207.2c0 3.5-2.2 5-4.8 5h-2.7v-9.9h2.7c2.7-.1 4.8 1.4 4.8 4.9zm-1.5 0c0-2.1-1-3.5-3.3-3.5h-1.2v7h1.2c2.3 0 3.3-1.4 3.3-3.5z"/></g><path d="m-224.41 260.98h-1.7v2.3h-1.4v-2.3h-2.3v2.3h-1.4v-2.3h-1.7v-1.3h1.7v-2.7h-1.7v-1.4h1.7v-2.3h1.4v2.3h2.3v-2.3h1.4v2.3h1.7v1.3h-1.7v2.7h1.7zm-3.1-1.3v-2.7h-2.3v2.7z"/></g><g transform="matrix(.74776 0 0 .74776 120.03 350.6)"><g transform="matrix(2 0 0 2 -316.6 -413.97)"><path d="m225 158.2h-6.6v-9.9h6.4v1.4h-4.9v2.5h2.8v1.4h-2.8v3.1h5.1z"/></g><text x="132.94505" y="-103.37805" font-family="'Century Schoolbook'" font-size="18.667px" font-weight="bold" letter-spacing="0px" word-spacing="0px" style="line-height:1" xml:space="preserve"><tspan x="132.94505" y="-103.37805" font-family="'Century Schoolbook'" font-size="18.667px" font-weight="bold">♭</tspan></text></g></g><g transform="translate(324.35 2.0038)"><g transform="matrix(.73529 0 0 .73529 352.4 85.609)"><path d="m-266.31 228.23h-1.7v2.3h-1.4v-2.3h-2.3v2.3h-1.4v-2.3h-1.7v-1.3h1.7v-2.7h-1.7v-1.4h1.7v-2.3h1.4v2.3h2.3v-2.3h1.4v2.3h1.7v1.3h-1.7v2.7h1.7zm-3.1-1.3v-2.7h-2.3v2.7z"/><g transform="matrix(2 0 0 2 -807.23 -296.34)"><path d="m265.8 264.4c-.7 1.2-1.9 1.9-3.4 1.9-2.6 0-4.2-2.1-4.2-5.1s1.6-5.1 4.2-5.1c1.6 0 2.7.7 3.4 1.9l-1.3.8c-.5-.8-1-1.2-2.1-1.2-1.7 0-2.7 1.4-2.7 3.6s.9 3.6 2.7 3.6c1 0 1.7-.4 2.2-1.2z"/></g></g><g transform="matrix(.75489 0 0 .75489 123.74 335.92)"><g transform="matrix(2 0 0 2 -422.58 -504.68)"><path d="m239 207.2c0 3.5-2.2 5-4.8 5h-2.7v-9.9h2.7c2.7-.1 4.8 1.4 4.8 4.9zm-1.5 0c0-2.1-1-3.5-3.3-3.5h-1.2v7h1.2c2.3 0 3.3-1.4 3.3-3.5z"/></g><text x="56.475048" y="-86.50576" font-family="'Century Schoolbook'" font-size="18.667px" font-weight="bold" letter-spacing="0px" word-spacing="0px" style="line-height:1" xml:space="preserve"><tspan x="56.475048" y="-86.50576" font-family="'Century Schoolbook'" font-size="18.667px" font-weight="bold">♭</tspan></text></g></g><g transform="translate(163.11 1.0954)"><g transform="matrix(.75758 0 0 .75758 466.56 77.397)"><g transform="matrix(2 0 0 2 -806.36 -483.41)"><path d="m373.8 263.1c0 2-1.2 3-3.4 3h-3.9v-9.9h4.1c1.7 0 2.8.9 2.8 2.6 0 1-.5 1.6-1.3 2 .9.2 1.7 1 1.7 2.3zm-1.8-4.2c0-.7-.4-1.3-1.4-1.3h-2.7v2.6h2.7c1 0 1.4-.6 1.4-1.3zm.4 4.3c0-1-.6-1.6-1.8-1.6h-2.7v3.3h2.7c1.3-.1 1.8-.8 1.8-1.7z"/></g><text x="-58.423237" y="43.680428" font-family="'Century Schoolbook'" font-size="18.667px" font-weight="bold" letter-spacing="0px" word-spacing="0px" style="line-height:1" xml:space="preserve"><tspan x="-58.423237" y="43.680428" font-family="'Century Schoolbook'" font-size="18.667px" font-weight="bold">♭</tspan></text></g><g transform="matrix(.75758 0 0 .75758 428.95 -69.206)"><g transform="matrix(2 0 0 2 -290.83 -204.32)"><path d="m131.4 212.2h-1.6l-.8-2.4h-4l-.8 2.4h-1.5l3.6-9.9h1.6zm-2.9-3.7-.8-2.3c-.2-.7-.6-1.9-.8-2.3-.1.4-.5 1.6-.7 2.3l-.8 2.3z"/></g><path d="m-20.609 212.6h-1.7v2.3h-1.4v-2.3h-2.3v2.3h-1.4v-2.3h-1.7v-1.3h1.7v-2.7h-1.7v-1.4h1.7v-2.3h1.4v2.3h2.3v-2.3h1.4v2.3h1.7v1.3h-1.7v2.7h1.7zm-3.1-1.3v-2.7h-2.3v2.7z"/></g></g><g transform="translate(161.3 .6412)"><g transform="matrix(.75758 0 0 .75758 443.38 157.91)"><g transform="matrix(2 0 0 2 -360.87 -482.25)"><path d="m131.4 212.2h-1.6l-.8-2.4h-4l-.8 2.4h-1.5l3.6-9.9h1.6zm-2.9-3.7-.8-2.3c-.2-.7-.6-1.9-.8-2.3-.1.4-.5 1.6-.7 2.3l-.8 2.3z"/></g><text x="-99.106789" y="-62.746986" font-family="'Century Schoolbook'" font-size="18.667px" font-weight="bold" letter-spacing="0px" word-spacing="0px" style="line-height:1" xml:space="preserve"><tspan x="-99.106789" y="-62.746986" font-family="'Century Schoolbook'" font-size="18.667px" font-weight="bold">♭</tspan></text></g><g transform="matrix(.73529 0 0 .73529 415.2 -63.25)"><g transform="matrix(2 0 0 2 -776.31 -204.86)"><path d="m347 208.3c0 2.6-1.6 4-3.8 4-2.6 0-4.2-2.1-4.2-5.1s1.6-5.1 4.2-5.1c1.6 0 2.7.7 3.4 1.9l-1.3.8c-.5-.8-1-1.2-2.1-1.2-1.7 0-2.7 1.4-2.7 3.6s.9 3.6 2.7 3.6c1.6 0 2.3-1.1 2.3-2.2h-1.6v-1.4h3.1z"/></g><path d="m-72.602 211.82h-1.7v2.3h-1.4v-2.3h-2.3v2.3h-1.4v-2.3h-1.7v-1.3h1.7v-2.7h-1.7v-1.4h1.7v-2.3h1.4v2.3h2.3v-2.3h1.4v2.3h1.7v1.3h-1.7v2.7h1.7zm-3.1-1.3v-2.7h-2.3v2.7z"/></g></g><g transform="translate(161.75 .187)"><g transform="matrix(.75758 0 0 .75758 97.907 -107.21)"><path d="m272.24 265.18h-1.7v2.3h-1.4v-2.3h-2.3v2.3h-1.4v-2.3h-1.7v-1.3h1.7v-2.7h-1.7v-1.4h1.7v-2.3h1.4v2.3h2.3v-2.3h1.4v2.3h1.7v1.3h-1.7v2.7h1.7zm-3.1-1.3v-2.7h-2.3v2.7z"/><g transform="matrix(2 0 0 2 -319.55 -152.64)"><path d="m292.6 203.7h-4.9v2.6h2.8v1.5h-2.8v4.4h-1.5v-9.9h6.4z"/></g></g><g transform="matrix(.73529 0 0 .73529 426.3 156.69)"><g transform="matrix(2 0 0 2 -846.8 -481.84)"><path d="m347 208.3c0 2.6-1.6 4-3.8 4-2.6 0-4.2-2.1-4.2-5.1s1.6-5.1 4.2-5.1c1.6 0 2.7.7 3.4 1.9l-1.3.8c-.5-.8-1-1.2-2.1-1.2-1.7 0-2.7 1.4-2.7 3.6s.9 3.6 2.7 3.6c1.6 0 2.3-1.1 2.3-2.2h-1.6v-1.4h3.1z"/></g><text x="-151.87219" y="-63.103462" font-family="'Century Schoolbook'" font-size="18.667px" font-weight="bold" letter-spacing="0px" word-spacing="0px" style="line-height:1" xml:space="preserve"><tspan x="-151.87219" y="-63.103462" font-family="'Century Schoolbook'" font-size="18.667px" font-weight="bold">♭</tspan></text></g></g><g transform="translate(485.5 .32003)"><g transform="matrix(.75722 0 0 .75722 384.1 57.362)"><g transform="matrix(2 0 0 2 -713.17 -155.67)"><path d="m239 207.2c0 3.5-2.2 5-4.8 5h-2.7v-9.9h2.7c2.7-.1 4.8 1.4 4.8 4.9zm-1.5 0c0-2.1-1-3.5-3.3-3.5h-1.2v7h1.2c2.3 0 3.3-1.4 3.3-3.5z"/></g><path d="m-224.41 260.98h-1.7v2.3h-1.4v-2.3h-2.3v2.3h-1.4v-2.3h-1.7v-1.3h1.7v-2.7h-1.7v-1.4h1.7v-2.3h1.4v2.3h2.3v-2.3h1.4v2.3h1.7v1.3h-1.7v2.7h1.7zm-3.1-1.3v-2.7h-2.3v2.7z"/></g><g transform="matrix(.74776 0 0 .74776 120.03 350.6)"><g transform="matrix(2 0 0 2 -316.6 -413.97)"><path d="m225 158.2h-6.6v-9.9h6.4v1.4h-4.9v2.5h2.8v1.4h-2.8v3.1h5.1z"/></g><text x="132.94505" y="-103.37805" font-family="'Century Schoolbook'" font-size="18.667px" font-weight="bold" letter-spacing="0px" word-spacing="0px" style="line-height:1" xml:space="preserve"><tspan x="132.94505" y="-103.37805" font-family="'Century Schoolbook'" font-size="18.667px" font-weight="bold">♭</tspan></text></g></g><g transform="translate(486.86 1.6826)"><g transform="matrix(.73529 0 0 .73529 352.4 85.609)"><path d="m-266.31 228.23h-1.7v2.3h-1.4v-2.3h-2.3v2.3h-1.4v-2.3h-1.7v-1.3h1.7v-2.7h-1.7v-1.4h1.7v-2.3h1.4v2.3h2.3v-2.3h1.4v2.3h1.7v1.3h-1.7v2.7h1.7zm-3.1-1.3v-2.7h-2.3v2.7z"/><g transform="matrix(2 0 0 2 -807.23 -296.34)"><path d="m265.8 264.4c-.7 1.2-1.9 1.9-3.4 1.9-2.6 0-4.2-2.1-4.2-5.1s1.6-5.1 4.2-5.1c1.6 0 2.7.7 3.4 1.9l-1.3.8c-.5-.8-1-1.2-2.1-1.2-1.7 0-2.7 1.4-2.7 3.6s.9 3.6 2.7 3.6c1 0 1.7-.4 2.2-1.2z"/></g></g><g transform="matrix(.75489 0 0 .75489 123.74 335.92)"><g transform="matrix(2 0 0 2 -422.58 -504.68)"><path d="m239 207.2c0 3.5-2.2 5-4.8 5h-2.7v-9.9h2.7c2.7-.1 4.8 1.4 4.8 4.9zm-1.5 0c0-2.1-1-3.5-3.3-3.5h-1.2v7h1.2c2.3 0 3.3-1.4 3.3-3.5z"/></g><text x="56.475048" y="-86.50576" font-family="'Century Schoolbook'" font-size="18.667px" font-weight="bold" letter-spacing="0px" word-spacing="0px" style="line-height:1" xml:space="preserve"><tspan x="56.475048" y="-86.50576" font-family="'Century Schoolbook'" font-size="18.667px" font-weight="bold">♭</tspan></text></g></g><g transform="translate(325.62 .77423)"><g transform="matrix(.75758 0 0 .75758 466.56 77.397)"><g transform="matrix(2 0 0 2 -806.36 -483.41)"><path d="m373.8 263.1c0 2-1.2 3-3.4 3h-3.9v-9.9h4.1c1.7 0 2.8.9 2.8 2.6 0 1-.5 1.6-1.3 2 .9.2 1.7 1 1.7 2.3zm-1.8-4.2c0-.7-.4-1.3-1.4-1.3h-2.7v2.6h2.7c1 0 1.4-.6 1.4-1.3zm.4 4.3c0-1-.6-1.6-1.8-1.6h-2.7v3.3h2.7c1.3-.1 1.8-.8 1.8-1.7z"/></g><text x="-58.423237" y="43.680428" font-family="'Century Schoolbook'" font-size="18.667px" font-weight="bold" letter-spacing="0px" word-spacing="0px" style="line-height:1" xml:space="preserve"><tspan x="-58.423237" y="43.680428" font-family="'Century Schoolbook'" font-size="18.667px" font-weight="bold">♭</tspan></text></g><g transform="matrix(.75758 0 0 .75758 428.95 -69.206)"><g transform="matrix(2 0 0 2 -290.83 -204.32)"><path d="m131.4 212.2h-1.6l-.8-2.4h-4l-.8 2.4h-1.5l3.6-9.9h1.6zm-2.9-3.7-.8-2.3c-.2-.7-.6-1.9-.8-2.3-.1.4-.5 1.6-.7 2.3l-.8 2.3z"/></g><path d="m-20.609 212.6h-1.7v2.3h-1.4v-2.3h-2.3v2.3h-1.4v-2.3h-1.7v-1.3h1.7v-2.7h-1.7v-1.4h1.7v-2.3h1.4v2.3h2.3v-2.3h1.4v2.3h1.7v1.3h-1.7v2.7h1.7zm-3.1-1.3v-2.7h-2.3v2.7z"/></g></g><g transform="translate(323.81 .32003)"><g transform="matrix(.75758 0 0 .75758 443.38 157.91)"><g transform="matrix(2 0 0 2 -360.87 -482.25)"><path d="m131.4 212.2h-1.6l-.8-2.4h-4l-.8 2.4h-1.5l3.6-9.9h1.6zm-2.9-3.7-.8-2.3c-.2-.7-.6-1.9-.8-2.3-.1.4-.5 1.6-.7 2.3l-.8 2.3z"/></g><text x="-99.106789" y="-62.746986" font-family="'Century Schoolbook'" font-size="18.667px" font-weight="bold" letter-spacing="0px" word-spacing="0px" style="line-height:1" xml:space="preserve"><tspan x="-99.106789" y="-62.746986" font-family="'Century Schoolbook'" font-size="18.667px" font-weight="bold">♭</tspan></text></g><g transform="matrix(.73529 0 0 .73529 415.2 -63.25)"><g transform="matrix(2 0 0 2 -776.31 -204.86)"><path d="m347 208.3c0 2.6-1.6 4-3.8 4-2.6 0-4.2-2.1-4.2-5.1s1.6-5.1 4.2-5.1c1.6 0 2.7.7 3.4 1.9l-1.3.8c-.5-.8-1-1.2-2.1-1.2-1.7 0-2.7 1.4-2.7 3.6s.9 3.6 2.7 3.6c1.6 0 2.3-1.1 2.3-2.2h-1.6v-1.4h3.1z"/></g><path d="m-72.602 211.82h-1.7v2.3h-1.4v-2.3h-2.3v2.3h-1.4v-2.3h-1.7v-1.3h1.7v-2.7h-1.7v-1.4h1.7v-2.3h1.4v2.3h2.3v-2.3h1.4v2.3h1.7v1.3h-1.7v2.7h1.7zm-3.1-1.3v-2.7h-2.3v2.7z"/></g></g><g transform="translate(324.26 -.13417)"><g transform="matrix(.75758 0 0 .75758 97.907 -107.21)"><path d="m272.24 265.18h-1.7v2.3h-1.4v-2.3h-2.3v2.3h-1.4v-2.3h-1.7v-1.3h1.7v-2.7h-1.7v-1.4h1.7v-2.3h1.4v2.3h2.3v-2.3h1.4v2.3h1.7v1.3h-1.7v2.7h1.7zm-3.1-1.3v-2.7h-2.3v2.7z"/><g transform="matrix(2 0 0 2 -319.55 -152.64)"><path d="m292.6 203.7h-4.9v2.6h2.8v1.5h-2.8v4.4h-1.5v-9.9h6.4z"/></g></g><g transform="matrix(.73529 0 0 .73529 426.3 156.69)"><g transform="matrix(2 0 0 2 -846.8 -481.84)"><path d="m347 208.3c0 2.6-1.6 4-3.8 4-2.6 0-4.2-2.1-4.2-5.1s1.6-5.1 4.2-5.1c1.6 0 2.7.7 3.4 1.9l-1.3.8c-.5-.8-1-1.2-2.1-1.2-1.7 0-2.7 1.4-2.7 3.6s.9 3.6 2.7 3.6c1.6 0 2.3-1.1 2.3-2.2h-1.6v-1.4h3.1z"/></g><text x="-151.87219" y="-63.103462" font-family="'Century Schoolbook'" font-size="18.667px" font-weight="bold" letter-spacing="0px" word-spacing="0px" style="line-height:1" xml:space="preserve"><tspan x="-151.87219" y="-63.103462" font-family="'Century Schoolbook'" font-size="18.667px" font-weight="bold">♭</tspan></text></g></g><text x="300.25714" y="198.59178" fill="#00cc00" font-family="'Century Schoolbook'" font-size="14.713px" font-weight="bold" letter-spacing="0px" stroke-width=".78818" word-spacing="0px" style="line-height:1" xml:space="preserve"><tspan x="300.25714" y="198.59178" fill="#00cc00" font-family="'Century Schoolbook'" font-size="14.713px" font-weight="bold" stroke-width=".78818">1</tspan></text><text x="355.14746" y="198.30257" fill="#00cc00" font-family="'Century Schoolbook'" font-size="14.713px" font-weight="bold" letter-spacing="0px" stroke-width=".78818" word-spacing="0px" style="line-height:1" xml:space="preserve"><tspan x="355.14746" y="198.30257" fill="#00cc00" font-family="'Century Schoolbook'" font-size="14.713px" font-weight="bold" stroke-width=".78818">2</tspan></text><text x="409.42459" y="198.14198" fill="#00cc00" font-family="'Century Schoolbook'" font-size="14.713px" font-weight="bold" letter-spacing="0px" stroke-width=".78818" word-spacing="0px" style="line-height:1" xml:space="preserve"><tspan x="409.42459" y="198.14198" fill="#00cc00" font-family="'Century Schoolbook'" font-size="14.713px" font-weight="bold" stroke-width=".78818">3</tspan></text><text x="396.41736" y="144.26634" fill="#00cc00" font-family="'Century Schoolbook'" font-size="14.713px" font-weight="bold" letter-spacing="0px" stroke-width=".78818" word-spacing="0px" style="line-height:1" xml:space="preserve"><tspan x="396.41736" y="144.26634" fill="#00cc00" font-family="'Century Schoolbook'" font-size="14.713px" font-weight="bold" stroke-width=".78818">6</tspan></text><text x="342.05994" y="144.10574" fill="#00cc00" font-family="'Century Schoolbook'" font-size="14.713px" font-weight="bold" letter-spacing="0px" stroke-width=".78818" word-spacing="0px" style="line-height:1" xml:space="preserve"><tspan x="342.05994" y="144.10574" fill="#00cc00" font-family="'Century Schoolbook'" font-size="14.713px" font-weight="bold" stroke-width=".78818">5</tspan></text><text x="287.62225" y="144.58751" fill="#00cc00" font-family="'Century Schoolbook'" font-size="14.713px" font-weight="bold" letter-spacing="0px" stroke-width=".78818" word-spacing="0px" style="line-height:1" xml:space="preserve"><tspan x="287.62225" y="144.58751" fill="#00cc00" font-family="'Century Schoolbook'" font-size="14.713px" font-weight="bold" stroke-width=".78818">4</tspan></text><text x="436.72372" y="252.33881" fill="#00cc00" font-family="'Century Schoolbook'" font-size="14.713px" font-weight="bold" letter-spacing="0px" stroke-width=".78818" word-spacing="0px" style="line-height:1" xml:space="preserve"><tspan x="436.72372" y="252.33881" fill="#00cc00" font-family="'Century Schoolbook'" font-size="14.713px" font-weight="bold" stroke-width=".78818">7</tspan></text><text x="462.79935" y="200.94571" fill="#00cccc" font-family="'Century Schoolbook'" font-size="14.713px" font-weight="bold" letter-spacing="0px" stroke-width=".78818" word-spacing="0px" style="line-height:1" xml:space="preserve"><tspan x="462.79935" y="200.94571" fill="#00cccc" font-family="'Century Schoolbook'" font-size="14.713px" font-weight="bold" stroke-width=".78818">1</tspan></text><text x="517.6897" y="200.65649" fill="#00cccc" font-family="'Century Schoolbook'" font-size="14.713px" font-weight="bold" letter-spacing="0px" stroke-width=".78818" word-spacing="0px" style="line-height:1" xml:space="preserve"><tspan x="517.6897" y="200.65649" fill="#00cccc" font-family="'Century Schoolbook'" font-size="14.713px" font-weight="bold" stroke-width=".78818">2</tspan></text><text x="571.9668" y="200.49591" fill="#00cccc" font-family="'Century Schoolbook'" font-size="14.713px" font-weight="bold" letter-spacing="0px" stroke-width=".78818" word-spacing="0px" style="line-height:1" xml:space="preserve"><tspan x="571.9668" y="200.49591" fill="#00cccc" font-family="'Century Schoolbook'" font-size="14.713px" font-weight="bold" stroke-width=".78818">3</tspan></text><text x="558.95953" y="146.62025" fill="#00cccc" font-family="'Century Schoolbook'" font-size="14.713px" font-weight="bold" letter-spacing="0px" stroke-width=".78818" word-spacing="0px" style="line-height:1" xml:space="preserve"><tspan x="558.95953" y="146.62025" fill="#00cccc" font-family="'Century Schoolbook'" font-size="14.713px" font-weight="bold" stroke-width=".78818">6</tspan></text><text x="504.60214" y="146.45966" fill="#00cccc" font-family="'Century Schoolbook'" font-size="14.713px" font-weight="bold" letter-spacing="0px" stroke-width=".78818" word-spacing="0px" style="line-height:1" xml:space="preserve"><tspan x="504.60214" y="146.45966" fill="#00cccc" font-family="'Century Schoolbook'" font-size="14.713px" font-weight="bold" stroke-width=".78818">5</tspan></text><text x="450.16446" y="146.94142" fill="#00cccc" font-family="'Century Schoolbook'" font-size="14.713px" font-weight="bold" letter-spacing="0px" stroke-width=".78818" word-spacing="0px" style="line-height:1" xml:space="preserve"><tspan x="450.16446" y="146.94142" fill="#00cccc" font-family="'Century Schoolbook'" font-size="14.713px" font-weight="bold" stroke-width=".78818">4</tspan></text><text x="599.26593" y="254.69272" fill="#00cccc" font-family="'Century Schoolbook'" font-size="14.713px" font-weight="bold" letter-spacing="0px" stroke-width=".78818" word-spacing="0px" style="line-height:1" xml:space="preserve"><tspan x="599.26593" y="254.69272" fill="#00cccc" font-family="'Century Schoolbook'" font-size="14.713px" font-weight="bold" stroke-width=".78818">7</tspan></text><circle cx="455.24" cy="134.38" r="1.5" fill="#00cccc" style="paint-order:markers fill stroke"/><circle cx="508.8" cy="134.46" r="1.5" fill="#00cccc" style="paint-order:markers fill stroke"/><circle cx="563.48" cy="134.38" r="1.5" fill="#00cccc" style="paint-order:markers fill stroke"/><circle cx="576" cy="188.49" r="1.5" fill="#00cccc" style="paint-order:markers fill stroke"/><circle cx="522.05" cy="188.33" r="1.5" fill="#00cccc" style="paint-order:markers fill stroke"/><circle cx="466.96" cy="188.81" r="1.5" fill="#00cccc" style="paint-order:markers fill stroke"/><circle cx="604.02" cy="242.21" r="1.5" fill="#00cccc" style="paint-order:markers fill stroke"/><text x="624.90076" y="201.50047" fill="#cc00cc" font-family="'Century Schoolbook'" font-size="14.713px" font-weight="bold" letter-spacing="0px" stroke-width=".78818" word-spacing="0px" style="line-height:1" xml:space="preserve"><tspan x="624.90076" y="201.50047" fill="#cc00cc" font-family="'Century Schoolbook'" font-size="14.713px" font-weight="bold" stroke-width=".78818">1</tspan></text><text x="679.79114" y="201.21126" fill="#cc00cc" font-family="'Century Schoolbook'" font-size="14.713px" font-weight="bold" letter-spacing="0px" stroke-width=".78818" word-spacing="0px" style="line-height:1" xml:space="preserve"><tspan x="679.79114" y="201.21126" fill="#cc00cc" font-family="'Century Schoolbook'" font-size="14.713px" font-weight="bold" stroke-width=".78818">2</tspan></text><text x="734.06824" y="201.05067" fill="#cc00cc" font-family="'Century Schoolbook'" font-size="14.713px" font-weight="bold" letter-spacing="0px" stroke-width=".78818" word-spacing="0px" style="line-height:1" xml:space="preserve"><tspan x="734.06824" y="201.05067" fill="#cc00cc" font-family="'Century Schoolbook'" font-size="14.713px" font-weight="bold" stroke-width=".78818">3</tspan></text><text x="721.06097" y="147.17502" fill="#cc00cc" font-family="'Century Schoolbook'" font-size="14.713px" font-weight="bold" letter-spacing="0px" stroke-width=".78818" word-spacing="0px" style="line-height:1" xml:space="preserve"><tspan x="721.06097" y="147.17502" fill="#cc00cc" font-family="'Century Schoolbook'" font-size="14.713px" font-weight="bold" stroke-width=".78818">6</tspan></text><text x="666.70355" y="147.01442" fill="#cc00cc" font-family="'Century Schoolbook'" font-size="14.713px" font-weight="bold" letter-spacing="0px" stroke-width=".78818" word-spacing="0px" style="line-height:1" xml:space="preserve"><tspan x="666.70355" y="147.01442" fill="#cc00cc" font-family="'Century Schoolbook'" font-size="14.713px" font-weight="bold" stroke-width=".78818">5</tspan></text><text x="612.26587" y="147.49619" fill="#cc00cc" font-family="'Century Schoolbook'" font-size="14.713px" font-weight="bold" letter-spacing="0px" stroke-width=".78818" word-spacing="0px" style="line-height:1" xml:space="preserve"><tspan x="612.26587" y="147.49619" fill="#cc00cc" font-family="'Century Schoolbook'" font-size="14.713px" font-weight="bold" stroke-width=".78818">4</tspan></text><text x="850.57861" y="229.16" fill="#00cccc" font-family="'Century Schoolbook'" font-size="14.713px" font-weight="bold" letter-spacing="0px" stroke-width=".78818" word-spacing="0px" style="line-height:1" xml:space="preserve"><tspan x="850.57861" y="229.16" fill="#00cccc" font-family="'Century Schoolbook'" font-size="14.713px" font-weight="bold" stroke-width=".78818">7</tspan></text><g transform="translate(54.527 -.74904)" fill="#cc00cc"><circle cx="615.09" cy="135.36" r="1" style="paint-order:markers fill stroke"/><circle cx="617.75" cy="135.36" r="1" style="paint-order:markers fill stroke"/></g><g transform="translate(109.43 -.52195)" fill="#cc00cc"><circle cx="615.09" cy="135.36" r="1" style="paint-order:markers fill stroke"/><circle cx="617.75" cy="135.36" r="1" style="paint-order:markers fill stroke"/></g><g transform="translate(121.8 52.96)" fill="#cc00cc"><circle cx="615.09" cy="135.36" r="1" style="paint-order:markers fill stroke"/><circle cx="617.75" cy="135.36" r="1" style="paint-order:markers fill stroke"/></g><g transform="translate(67.869 53.982)" fill="#cc00cc"><circle cx="615.09" cy="135.36" r="1" style="paint-order:markers fill stroke"/><circle cx="617.75" cy="135.36" r="1" style="paint-order:markers fill stroke"/></g><g transform="translate(12.173 53.925)" fill="#cc00cc"><circle cx="615.09" cy="135.36" r="1" style="paint-order:markers fill stroke"/><circle cx="617.75" cy="135.36" r="1" style="paint-order:markers fill stroke"/></g></g><g><text x="199.48524" y="132.65019" fill="#800000" font-family="'CMU Concrete'" font-size="8.5537px" letter-spacing="0px" stroke-width=".64153" word-spacing="0px" style="line-height:1" xml:space="preserve"><tspan x="199.48524" y="132.65019" fill="#800000" font-family="'CMU Concrete'" stroke-width=".64153">220 Hz</tspan></text><rect x="273.32" y="214.18" width="15.635" height=".53914" fill="#008000" stroke="#008000" stroke-linecap="round" stroke-linejoin="round" stroke-width="3.0236" style="paint-order:markers fill stroke"/><rect x="435.76" y="214.74" width="15.635" height=".53914" fill="#008000" stroke="#008080" stroke-linecap="round" stroke-linejoin="round" stroke-width="3.0236" style="paint-order:markers fill stroke"/><text x="360.39127" y="131.93231" fill="#008000" font-family="'CMU Concrete'" font-size="8.5537px" letter-spacing="0px" stroke-width=".64153" word-spacing="0px" style="line-height:1" xml:space="preserve"><tspan x="360.39127" y="131.93231" fill="#008000" font-family="'CMU Concrete'" stroke-width=".64153">440 Hz</tspan></text><text x="523.31189" y="132.1675" fill="#008080" font-family="'CMU Concrete'" font-size="8.5537px" letter-spacing="0px" stroke-width=".64153" word-spacing="0px" style="line-height:1" xml:space="preserve"><tspan x="523.31189" y="132.1675" fill="#008080" font-family="'CMU Concrete'" stroke-width=".64153">880 Hz</tspan></text><text x="680.30072" y="132.6882" fill="#800080" font-family="'CMU Concrete'" font-size="8.5537px" letter-spacing="0px" stroke-width=".64153" word-spacing="0px" style="line-height:1" xml:space="preserve"><tspan x="680.30072" y="132.6882" fill="#800080" font-family="'CMU Concrete'" stroke-width=".64153">1760 Hz</tspan></text></g></svg>
