<?xml version="1.0" encoding="UTF-8"?>
<svg version="1.1" viewBox="0 0 804 331.4" xml:space="preserve" xmlns="http://www.w3.org/2000/svg">
<title>Isomorphic Wicki Hayden</title>
<desc>ANSI US QWERTY keyboard layout for Windows with the location of the Enter and Return keys highlighted</desc>
<style type="text/css">
	.st0{fill:#EEEEEE;stroke:#DDDDDD;}
	.st1{fill:#CCCCCC;stroke:#000000;stroke-width:2;}
	.st2{fill:#CC0000;stroke:#000000;stroke-width:2;}
	.st3{fill:#339900;stroke:#000000;stroke-width:2;}
	.st4{fill:#FCFCFC;}
	.st5{fill:#FF6666;}
	.st6{fill:#66CC33;}
	.st7{fill:#FFFFFF;}
</style>




<g transform="translate(-141.67 -108.18)"><path class="st0" d="m139.67 99.882h1213c3.3 0 6 2.7 6 6v336c0 3.3-2.7 6-6 6h-1213c-3.3 0-6-2.7-6-6v-336c0-3.3 2.7-6 6-6z"/><path class="st1" d="m146.67 109.18h38c2.2 0 4 1.8 4 4v38c0 2.2-1.8 4-4 4h-38c-2.2 0-4-1.8-4-4v-38c0-2.3 1.8-4 4-4z"/><path class="st1" d="m254.67 109.18h38c2.2 0 4 1.8 4 4v38c0 2.2-1.8 4-4 4h-38c-2.2 0-4-1.8-4-4v-38c0-2.3 1.8-4 4-4z"/><path class="st1" d="m308.67 109.18h38c2.2 0 4 1.8 4 4v38c0 2.2-1.8 4-4 4h-38c-2.2 0-4-1.8-4-4v-38c0-2.3 1.8-4 4-4z"/><path class="st1" d="m362.67 109.18h38c2.2 0 4 1.8 4 4v38c0 2.2-1.8 4-4 4h-38c-2.2 0-4-1.8-4-4v-38c0-2.3 1.8-4 4-4z"/><path class="st1" d="m416.67 109.18h38c2.2 0 4 1.8 4 4v38c0 2.2-1.8 4-4 4h-38c-2.2 0-4-1.8-4-4v-38c0-2.3 1.8-4 4-4z"/><path class="st1" d="m497.67 109.18h38c2.2 0 4 1.8 4 4v38c0 2.2-1.8 4-4 4h-38c-2.2 0-4-1.8-4-4v-38c0-2.3 1.8-4 4-4z"/><path class="st1" d="m551.67 109.18h38c2.2 0 4 1.8 4 4v38c0 2.2-1.8 4-4 4h-38c-2.2 0-4-1.8-4-4v-38c0-2.3 1.8-4 4-4z"/><path class="st1" d="m605.67 109.18h38c2.2 0 4 1.8 4 4v38c0 2.2-1.8 4-4 4h-38c-2.2 0-4-1.8-4-4v-38c0-2.3 1.8-4 4-4z"/><path class="st1" d="m659.67 109.18h38c2.2 0 4 1.8 4 4v38c0 2.2-1.8 4-4 4h-38c-2.2 0-4-1.8-4-4v-38c0-2.3 1.8-4 4-4z"/><path class="st1" d="m740.67 109.18h38c2.2 0 4 1.8 4 4v38c0 2.2-1.8 4-4 4h-38c-2.2 0-4-1.8-4-4v-38c0-2.3 1.8-4 4-4z"/><path class="st1" d="m794.67 109.18h38c2.2 0 4 1.8 4 4v38c0 2.2-1.8 4-4 4h-38c-2.2 0-4-1.8-4-4v-38c0-2.3 1.8-4 4-4z"/><path class="st1" d="m848.67 109.18h38c2.2 0 4 1.8 4 4v38c0 2.2-1.8 4-4 4h-38c-2.2 0-4-1.8-4-4v-38c0-2.3 1.8-4 4-4z"/><path class="st1" d="m902.67 109.18h38c2.2 0 4 1.8 4 4v38c0 2.2-1.8 4-4 4h-38c-2.2 0-4-1.8-4-4v-38c0-2.3 1.8-4 4-4z"/><path class="st1" d="m970.17 109.18h38c2.2 0 4 1.8 4 4v38c0 2.2-1.8 4-4 4h-38c-2.2 0-4-1.8-4-4v-38c0-2.3 1.8-4 4-4z"/><path class="st1" d="m1024.2 109.18h38c2.2 0 4 1.8 4 4v38c0 2.2-1.8 4-4 4h-38c-2.2 0-4-1.8-4-4v-38c0-2.3 1.8-4 4-4z"/><path class="st1" d="m1078.2 109.18h38c2.2 0 4 1.8 4 4v38c0 2.2-1.8 4-4 4h-38c-2.2 0-4-1.8-4-4v-38c0-2.3 1.8-4 4-4z"/><path class="st1" d="m146.67 176.58h38c2.2 0 4 1.8 4 4v38c0 2.2-1.8 4-4 4h-38c-2.2 0-4-1.8-4-4v-38c0-2.2 1.8-4 4-4z"/><path class="st1" d="m200.67 176.58h38c2.2 0 4 1.8 4 4v38c0 2.2-1.8 4-4 4h-38c-2.2 0-4-1.8-4-4v-38c0-2.2 1.8-4 4-4z" fill="#006600"/><path class="st1" d="m254.67 176.58h38c2.2 0 4 1.8 4 4v38c0 2.2-1.8 4-4 4h-38c-2.2 0-4-1.8-4-4v-38c0-2.2 1.8-4 4-4z" fill="#00cc00"/><path class="st1" d="m308.67 176.58h38c2.2 0 4 1.8 4 4v38c0 2.2-1.8 4-4 4h-38c-2.2 0-4-1.8-4-4v-38c0-2.2 1.8-4 4-4z" fill="#00cc00"/><path class="st1" d="m362.67 176.58h38c2.2 0 4 1.8 4 4v38c0 2.2-1.8 4-4 4h-38c-2.2 0-4-1.8-4-4v-38c0-2.2 1.8-4 4-4z" fill="#00cc00"/><path class="st1" d="m416.67 176.58h38c2.2 0 4 1.8 4 4v38c0 2.2-1.8 4-4 4h-38c-2.2 0-4-1.8-4-4v-38c0-2.2 1.8-4 4-4z" fill="#00cc00"/><path class="st1" d="m470.67 176.58h38c2.2 0 4 1.8 4 4v38c0 2.2-1.8 4-4 4h-38c-2.2 0-4-1.8-4-4v-38c0-2.2 1.8-4 4-4z" fill="#006666"/><path class="st1" d="m524.67 176.58h38c2.2 0 4 1.8 4 4v38c0 2.2-1.8 4-4 4h-38c-2.2 0-4-1.8-4-4v-38c0-2.2 1.8-4 4-4z" fill="#006666"/><path class="st1" d="m578.67 176.58h38c2.2 0 4 1.8 4 4v38c0 2.2-1.8 4-4 4h-38c-2.2 0-4-1.8-4-4v-38c0-2.2 1.8-4 4-4z" fill="#00cccc"/><path class="st1" d="m632.67 176.58h38c2.2 0 4 1.8 4 4v38c0 2.2-1.8 4-4 4h-38c-2.2 0-4-1.8-4-4v-38c0-2.2 1.8-4 4-4z" fill="#00cccc"/><path class="st1" d="m686.67 176.58h38c2.2 0 4 1.8 4 4v38c0 2.2-1.8 4-4 4h-38c-2.2 0-4-1.8-4-4v-38c0-2.2 1.8-4 4-4z" fill="#00cccc"/><path class="st1" d="m740.67 176.58h38c2.2 0 4 1.8 4 4v38c0 2.2-1.8 4-4 4h-38c-2.2 0-4-1.8-4-4v-38c0-2.2 1.8-4 4-4z" fill="#00cccc"/><path class="st1" d="m794.67 176.58h38c2.2 0 4 1.8 4 4v38c0 2.2-1.8 4-4 4h-38c-2.2 0-4-1.8-4-4v-38c0-2.2 1.8-4 4-4z" fill="#660066"/><path class="st1" d="m848.67 176.58h92c2.2 0 4 1.8 4 4v38c0 2.2-1.8 4-4 4h-92c-2.2 0-4-1.8-4-4v-38c0-2.2 1.8-4 4-4z" fill="#660066"/><path class="st1" d="m970.17 176.58h38c2.2 0 4 1.8 4 4v38c0 2.2-1.8 4-4 4h-38c-2.2 0-4-1.8-4-4v-38c0-2.2 1.8-4 4-4z"/><path class="st1" d="m1024.2 176.58h38c2.2 0 4 1.8 4 4v38c0 2.2-1.8 4-4 4h-38c-2.2 0-4-1.8-4-4v-38c0-2.2 1.8-4 4-4z"/><path class="st1" d="m1078.2 176.58h38c2.2 0 4 1.8 4 4v38c0 2.2-1.8 4-4 4h-38c-2.2 0-4-1.8-4-4v-38c0-2.2 1.8-4 4-4z"/><path class="st1" d="m1145.7 176.58h38c2.2 0 4 1.8 4 4v38c0 2.2-1.8 4-4 4h-38c-2.2 0-4-1.8-4-4v-38c0-2.2 1.8-4 4-4z"/><path class="st1" d="m1199.7 176.58h38c2.2 0 4 1.8 4 4v38c0 2.2-1.8 4-4 4h-38c-2.2 0-4-1.8-4-4v-38c0-2.2 1.8-4 4-4z"/><path class="st1" d="m1253.7 176.58h38c2.2 0 4 1.8 4 4v38c0 2.2-1.8 4-4 4h-38c-2.2 0-4-1.8-4-4v-38c0-2.2 1.8-4 4-4z"/><path class="st1" d="m1307.7 176.58h38c2.2 0 4 1.8 4 4v38c0 2.2-1.8 4-4 4h-38c-2.2 0-4-1.8-4-4v-38c0-2.2 1.8-4 4-4z"/><path class="st1" d="m146.67 230.58h65c2.2 0 4 1.8 4 4v38c0 2.2-1.8 4-4 4h-65c-2.2 0-4-1.8-4-4v-38c0-2.2 1.8-4 4-4z"/><path class="st1" d="m227.67 230.58h38c2.2 0 4 1.8 4 4v38c0 2.2-1.8 4-4 4h-38c-2.2 0-4-1.8-4-4v-38c0-2.2 1.8-4 4-4z" fill="#660000"/><path class="st1" d="m281.67 230.58h38c2.2 0 4 1.8 4 4v38c0 2.2-1.8 4-4 4h-38c-2.2 0-4-1.8-4-4v-38c0-2.2 1.8-4 4-4z" fill="#00cc00"/><path class="st1" d="m335.67 230.58h38c2.2 0 4 1.8 4 4v38c0 2.2-1.8 4-4 4h-38c-2.2 0-4-1.8-4-4v-38c0-2.2 1.8-4 4-4z" fill="#00cc00"/><path class="st1" d="m389.67 230.58h38c2.2 0 4 1.8 4 4v38c0 2.2-1.8 4-4 4h-38c-2.2 0-4-1.8-4-4v-38c0-2.2 1.8-4 4-4z" fill="#00cc00"/><path class="st1" d="m443.67 230.58h38c2.2 0 4 1.8 4 4v38c0 2.2-1.8 4-4 4h-38c-2.2 0-4-1.8-4-4v-38c0-2.2 1.8-4 4-4z" fill="#006600"/><path class="st1" d="m497.67 230.58h38c2.2 0 4 1.8 4 4v38c0 2.2-1.8 4-4 4h-38c-2.2 0-4-1.8-4-4v-38c0-2.2 1.8-4 4-4z" fill="#006600"/><path class="st1" d="m551.67 230.58h38c2.2 0 4 1.8 4 4v38c0 2.2-1.8 4-4 4h-38c-2.2 0-4-1.8-4-4v-38c0-2.2 1.8-4 4-4z" fill="#006600"/><path class="st1" d="m605.67 230.58h38c2.2 0 4 1.8 4 4v38c0 2.2-1.8 4-4 4h-38c-2.2 0-4-1.8-4-4v-38c0-2.2 1.8-4 4-4z" fill="#00cccc"/><path class="st1" d="m659.67 230.58h38c2.2 0 4 1.8 4 4v38c0 2.2-1.8 4-4 4h-38c-2.2 0-4-1.8-4-4v-38c0-2.2 1.8-4 4-4z" fill="#00cccc"/><path class="st1" d="m713.67 230.58h38c2.2 0 4 1.8 4 4v38c0 2.2-1.8 4-4 4h-38c-2.2 0-4-1.8-4-4v-38c0-2.2 1.8-4 4-4z" fill="#00cccc"/><path class="st1" d="m767.67 230.58h38c2.2 0 4 1.8 4 4v38c0 2.2-1.8 4-4 4h-38c-2.2 0-4-1.8-4-4v-38c0-2.2 1.8-4 4-4z" fill="#006666"/><path class="st1" d="m821.67 230.58h38c2.2 0 4 1.8 4 4v38c0 2.2-1.8 4-4 4h-38c-2.2 0-4-1.8-4-4v-38c0-2.2 1.8-4 4-4z" fill="#006666"/><path class="st1" d="m875.67 230.58h65c2.2 0 4 1.8 4 4v38c0 2.2-1.8 4-4 4h-65c-2.2 0-4-1.8-4-4v-38c0-2.2 1.8-4 4-4z" fill="#006666"/><path class="st1" d="m970.17 230.58h38c2.2 0 4 1.8 4 4v38c0 2.2-1.8 4-4 4h-38c-2.2 0-4-1.8-4-4v-38c0-2.2 1.8-4 4-4z"/><path class="st1" d="m1024.2 230.58h38c2.2 0 4 1.8 4 4v38c0 2.2-1.8 4-4 4h-38c-2.2 0-4-1.8-4-4v-38c0-2.2 1.8-4 4-4z"/><path class="st1" d="m1078.2 230.58h38c2.2 0 4 1.8 4 4v38c0 2.2-1.8 4-4 4h-38c-2.2 0-4-1.8-4-4v-38c0-2.2 1.8-4 4-4z"/><path class="st1" d="m1145.7 230.58h38c2.2 0 4 1.8 4 4v38c0 2.2-1.8 4-4 4h-38c-2.2 0-4-1.8-4-4v-38c0-2.2 1.8-4 4-4z"/><path class="st1" d="m1199.7 230.58h38c2.2 0 4 1.8 4 4v38c0 2.2-1.8 4-4 4h-38c-2.2 0-4-1.8-4-4v-38c0-2.2 1.8-4 4-4z"/><path class="st1" d="m1253.7 230.58h38c2.2 0 4 1.8 4 4v38c0 2.2-1.8 4-4 4h-38c-2.2 0-4-1.8-4-4v-38c0-2.2 1.8-4 4-4z"/><path class="st1" d="m1307.7 230.58h38c2.2 0 4 1.8 4 4v92c0 2.2-1.8 4-4 4h-38c-2.2 0-4-1.8-4-4v-92c0-2.2 1.8-4 4-4z"/><path class="st1" d="m146.67 284.58h78.5c2.2 0 4 1.8 4 4v38c0 2.2-1.8 4-4 4h-78.5c-2.2 0-4-1.8-4-4v-38c0-2.2 1.8-4 4-4z"/><path class="st1" d="m241.17 284.58h38c2.2 0 4 1.8 4 4v38c0 2.2-1.8 4-4 4h-38c-2.2 0-4-1.8-4-4v-38c0-2.2 1.8-4 4-4z" fill="#cc0000"/><path class="st1" d="m295.17 284.58h38c2.2 0 4 1.8 4 4v38c0 2.2-1.8 4-4 4h-38c-2.2 0-4-1.8-4-4v-38c0-2.2 1.8-4 4-4z" fill="#cc0000"/><path class="st1" d="m349.17 284.58h38c2.2 0 4 1.8 4 4v38c0 2.2-1.8 4-4 4h-38c-2.2 0-4-1.8-4-4v-38c0-2.2 1.8-4 4-4z" fill="#cc0000"/><path class="st1" d="m403.17 284.58h38c2.2 0 4 1.8 4 4v38c0 2.2-1.8 4-4 4h-38c-2.2 0-4-1.8-4-4v-38c0-2.2 1.8-4 4-4z" fill="#cc0000"/><path class="st1" d="m457.17 284.58h38c2.2 0 4 1.8 4 4v38c0 2.2-1.8 4-4 4h-38c-2.2 0-4-1.8-4-4v-38c0-2.2 1.8-4 4-4z" fill="#006600"/><path class="st1" d="m511.17 284.58h38c2.2 0 4 1.8 4 4v38c0 2.2-1.8 4-4 4h-38c-2.2 0-4-1.8-4-4v-38c0-2.2 1.8-4 4-4z" fill="#006600"/><path class="st1" d="m565.17 284.58h38c2.2 0 4 1.8 4 4v38c0 2.2-1.8 4-4 4h-38c-2.2 0-4-1.8-4-4v-38c0-2.2 1.8-4 4-4z" fill="#00cc00"/><path class="st1" d="m619.17 284.58h38c2.2 0 4 1.8 4 4v38c0 2.2-1.8 4-4 4h-38c-2.2 0-4-1.8-4-4v-38c0-2.2 1.8-4 4-4z" fill="#00cc00"/><path class="st1" d="m673.17 284.58h38c2.2 0 4 1.8 4 4v38c0 2.2-1.8 4-4 4h-38c-2.2 0-4-1.8-4-4v-38c0-2.2 1.8-4 4-4z" fill="#00cc00"/><path class="st1" d="m727.17 284.58h38c2.2 0 4 1.8 4 4v38c0 2.2-1.8 4-4 4h-38c-2.2 0-4-1.8-4-4v-38c0-2.2 1.8-4 4-4z" fill="#00cc00"/><path class="st1" d="m781.17 284.58h38c2.2 0 4 1.8 4 4v38c0 2.2-1.8 4-4 4h-38c-2.2 0-4-1.8-4-4v-38c0-2.2 1.8-4 4-4z" fill="#006666"/><path class="st2" d="m835.17 284.58h105.5c2.2 0 4 1.8 4 4v38c0 2.2-1.8 4-4 4h-105.5c-2.2 0-4-1.8-4-4v-38c0-2.2 1.8-4 4-4z" fill="#006666"/><path class="st1" d="m1145.7 284.58h38c2.2 0 4 1.8 4 4v38c0 2.2-1.8 4-4 4h-38c-2.2 0-4-1.8-4-4v-38c0-2.2 1.8-4 4-4z"/><path class="st1" d="m1199.7 284.58h38c2.2 0 4 1.8 4 4v38c0 2.2-1.8 4-4 4h-38c-2.2 0-4-1.8-4-4v-38c0-2.2 1.8-4 4-4z"/><path class="st1" d="m1253.7 284.58h38c2.2 0 4 1.8 4 4v38c0 2.2-1.8 4-4 4h-38c-2.2 0-4-1.8-4-4v-38c0-2.2 1.8-4 4-4z"/><path class="st1" d="m146.67 338.58h105.5c2.2 0 4 1.8 4 4v38c0 2.2-1.8 4-4 4h-105.5c-2.2 0-4-1.8-4-4v-38c0-2.2 1.8-4 4-4z"/><path class="st1" d="m268.17 338.58h38c2.2 0 4 1.8 4 4v38c0 2.2-1.8 4-4 4h-38c-2.2 0-4-1.8-4-4v-38c0-2.2 1.8-4 4-4z" fill="#cc0000"/><path class="st1" d="m322.17 338.58h38c2.2 0 4 1.8 4 4v38c0 2.2-1.8 4-4 4h-38c-2.2 0-4-1.8-4-4v-38c0-2.2 1.8-4 4-4z" fill="#cc0000"/><path class="st1" d="m376.17 338.58h38c2.2 0 4 1.8 4 4v38c0 2.2-1.8 4-4 4h-38c-2.2 0-4-1.8-4-4v-38c0-2.2 1.8-4 4-4z" fill="#cc0000"/><path class="st1" d="m430.17 338.58h38c2.2 0 4 1.8 4 4v38c0 2.2-1.8 4-4 4h-38c-2.2 0-4-1.8-4-4v-38c0-2.2 1.8-4 4-4z" fill="#660000"/><path class="st1" d="m484.17 338.58h38c2.2 0 4 1.8 4 4v38c0 2.2-1.8 4-4 4h-38c-2.2 0-4-1.8-4-4v-38c0-2.2 1.8-4 4-4z" fill="#660000"/><path class="st1" d="m538.17 338.58h38c2.2 0 4 1.8 4 4v38c0 2.2-1.8 4-4 4h-38c-2.2 0-4-1.8-4-4v-38c0-2.2 1.8-4 4-4z" fill="#660000"/><path class="st1" d="m592.17 338.58h38c2.2 0 4 1.8 4 4v38c0 2.2-1.8 4-4 4h-38c-2.2 0-4-1.8-4-4v-38c0-2.2 1.8-4 4-4z" fill="#00cc00"/><path class="st1" d="m646.17 338.58h38c2.2 0 4 1.8 4 4v38c0 2.2-1.8 4-4 4h-38c-2.2 0-4-1.8-4-4v-38c0-2.2 1.8-4 4-4z" fill="#00cc00"/><path class="st1" d="m700.17 338.58h38c2.2 0 4 1.8 4 4v38c0 2.2-1.8 4-4 4h-38c-2.2 0-4-1.8-4-4v-38c0-2.2 1.8-4 4-4z" fill="#00cc00"/><path class="st1" d="m754.17 338.58h38c2.2 0 4 1.8 4 4v38c0 2.2-1.8 4-4 4h-38c-2.2 0-4-1.8-4-4v-38c0-2.2 1.8-4 4-4z" fill="#006600"/><path class="st1" d="m808.17 338.58h132.5c2.2 0 4 1.8 4 4v38c0 2.2-1.8 4-4 4h-132.5c-2.2 0-4-1.8-4-4v-38c0-2.2 1.8-4 4-4z" fill="#006600"/><path class="st1" d="m1024.2 338.58h38c2.2 0 4 1.8 4 4v38c0 2.2-1.8 4-4 4h-38c-2.2 0-4-1.8-4-4v-38c0-2.2 1.8-4 4-4z"/><path class="st1" d="m1145.7 338.58h38c2.2 0 4 1.8 4 4v38c0 2.2-1.8 4-4 4h-38c-2.2 0-4-1.8-4-4v-38c0-2.2 1.8-4 4-4z"/><path class="st1" d="m1199.7 338.58h38c2.2 0 4 1.8 4 4v38c0 2.2-1.8 4-4 4h-38c-2.2 0-4-1.8-4-4v-38c0-2.2 1.8-4 4-4z"/><path class="st1" d="m1253.7 338.58h38c2.2 0 4 1.8 4 4v38c0 2.2-1.8 4-4 4h-38c-2.2 0-4-1.8-4-4v-38c0-2.2 1.8-4 4-4z"/><path class="st3" d="m1307.7 338.58h38c2.2 0 4 1.8 4 4v92c0 2.2-1.8 4-4 4h-38c-2.2 0-4-1.8-4-4v-92c0-2.2 1.8-4 4-4z"/><path class="st1" d="m146.67 392.58h51.5c2.2 0 4 1.8 4 4v38c0 2.2-1.8 4-4 4h-51.5c-2.2 0-4-1.8-4-4v-38c0-2.2 1.8-4 4-4z"/><path class="st1" d="m214.17 392.58h51.5c2.2 0 4 1.8 4 4v38c0 2.2-1.8 4-4 4h-51.5c-2.2 0-4-1.8-4-4v-38c0-2.2 1.8-4 4-4z"/><path class="st1" d="m281.67 392.58h51.5c2.2 0 4 1.8 4 4v38c0 2.2-1.8 4-4 4h-51.5c-2.2 0-4-1.8-4-4v-38c0-2.2 1.8-4 4-4z"/><path class="st1" d="m349.17 392.58h321.5c2.2 0 4 1.8 4 4v38c0 2.2-1.8 4-4 4h-321.5c-2.2 0-4-1.8-4-4v-38c0-2.2 1.8-4 4-4z"/><path class="st1" d="m686.67 392.58h51.5c2.2 0 4 1.8 4 4v38c0 2.2-1.8 4-4 4h-51.5c-2.2 0-4-1.8-4-4v-38c0-2.2 1.8-4 4-4z"/><path class="st1" d="m754.17 392.58h51.5c2.2 0 4 1.8 4 4v38c0 2.2-1.8 4-4 4h-51.5c-2.2 0-4-1.8-4-4v-38c0-2.2 1.8-4 4-4z"/><path class="st1" d="m821.67 392.58h51.5c2.2 0 4 1.8 4 4v38c0 2.2-1.8 4-4 4h-51.5c-2.2 0-4-1.8-4-4v-38c0-2.2 1.8-4 4-4z"/><path class="st1" d="m889.17 392.58h51.5c2.2 0 4 1.8 4 4v38c0 2.2-1.8 4-4 4h-51.5c-2.2 0-4-1.8-4-4v-38c0-2.2 1.8-4 4-4z"/><path class="st1" d="m970.17 392.58h38c2.2 0 4 1.8 4 4v38c0 2.2-1.8 4-4 4h-38c-2.2 0-4-1.8-4-4v-38c0-2.2 1.8-4 4-4z"/><path class="st1" d="m1024.2 392.58h38c2.2 0 4 1.8 4 4v38c0 2.2-1.8 4-4 4h-38c-2.2 0-4-1.8-4-4v-38c0-2.2 1.8-4 4-4z"/><path class="st1" d="m1078.2 392.58h38c2.2 0 4 1.8 4 4v38c0 2.2-1.8 4-4 4h-38c-2.2 0-4-1.8-4-4v-38c0-2.2 1.8-4 4-4z"/><path class="st1" d="m1145.7 392.58h92c2.2 0 4 1.8 4 4v38c0 2.2-1.8 4-4 4h-92c-2.2 0-4-1.8-4-4v-38c0-2.2 1.8-4 4-4z"/><path class="st1" d="m1253.7 392.58h38c2.2 0 4 1.8 4 4v38c0 2.2-1.8 4-4 4h-38c-2.2 0-4-1.8-4-4v-38c0-2.2 1.8-4 4-4z"/><path class="st4" d="m147.67 110.18h36c2.2 0 4 1.8 4 4v34c0 2.2-1.8 4-4 4h-36c-2.2 0-4-1.8-4-4v-34c0-2.3 1.8-4 4-4z"/><path class="st4" d="m255.67 110.18h36c2.2 0 4 1.8 4 4v34c0 2.2-1.8 4-4 4h-36c-2.2 0-4-1.8-4-4v-34c0-2.3 1.8-4 4-4z"/><path class="st4" d="m309.67 110.18h36c2.2 0 4 1.8 4 4v34c0 2.2-1.8 4-4 4h-36c-2.2 0-4-1.8-4-4v-34c0-2.3 1.8-4 4-4z"/><path class="st4" d="m363.67 110.18h36c2.2 0 4 1.8 4 4v34c0 2.2-1.8 4-4 4h-36c-2.2 0-4-1.8-4-4v-34c0-2.3 1.8-4 4-4z"/><path class="st4" d="m417.67 110.18h36c2.2 0 4 1.8 4 4v34c0 2.2-1.8 4-4 4h-36c-2.2 0-4-1.8-4-4v-34c0-2.3 1.8-4 4-4z"/><path class="st4" d="m498.67 110.18h36c2.2 0 4 1.8 4 4v34c0 2.2-1.8 4-4 4h-36c-2.2 0-4-1.8-4-4v-34c0-2.3 1.8-4 4-4z"/><path class="st4" d="m552.67 110.18h36c2.2 0 4 1.8 4 4v34c0 2.2-1.8 4-4 4h-36c-2.2 0-4-1.8-4-4v-34c0-2.3 1.8-4 4-4z"/><path class="st4" d="m606.67 110.18h36c2.2 0 4 1.8 4 4v34c0 2.2-1.8 4-4 4h-36c-2.2 0-4-1.8-4-4v-34c0-2.3 1.8-4 4-4z"/><path class="st4" d="m660.67 110.18h36c2.2 0 4 1.8 4 4v34c0 2.2-1.8 4-4 4h-36c-2.2 0-4-1.8-4-4v-34c0-2.3 1.8-4 4-4z"/><path class="st4" d="m741.67 110.18h36c2.2 0 4 1.8 4 4v34c0 2.2-1.8 4-4 4h-36c-2.2 0-4-1.8-4-4v-34c0-2.3 1.8-4 4-4z"/><path class="st4" d="m795.67 110.18h36c2.2 0 4 1.8 4 4v34c0 2.2-1.8 4-4 4h-36c-2.2 0-4-1.8-4-4v-34c0-2.3 1.8-4 4-4z"/><path class="st4" d="m849.67 110.18h36c2.2 0 4 1.8 4 4v34c0 2.2-1.8 4-4 4h-36c-2.2 0-4-1.8-4-4v-34c0-2.3 1.8-4 4-4z"/><path class="st4" d="m903.67 110.18h36c2.2 0 4 1.8 4 4v34c0 2.2-1.8 4-4 4h-36c-2.2 0-4-1.8-4-4v-34c0-2.3 1.8-4 4-4z"/><path class="st4" d="m971.17 110.18h36c2.2 0 4 1.8 4 4v34c0 2.2-1.8 4-4 4h-36c-2.2 0-4-1.8-4-4v-34c0-2.3 1.8-4 4-4z"/><path class="st4" d="m1025.2 110.18h36c2.2 0 4 1.8 4 4v34c0 2.2-1.8 4-4 4h-36c-2.2 0-4-1.8-4-4v-34c0-2.3 1.8-4 4-4z"/><path class="st4" d="m1079.2 110.18h36c2.2 0 4 1.8 4 4v34c0 2.2-1.8 4-4 4h-36c-2.2 0-4-1.8-4-4v-34c0-2.3 1.8-4 4-4z"/><path class="st4" d="m147.67 177.58h36c2.2 0 4 1.8 4 4v34c0 2.2-1.8 4-4 4h-36c-2.2 0-4-1.8-4-4v-34c0-2.2 1.8-4 4-4z"/><path class="st4" d="m201.67 177.58h36c2.2 0 4 1.8 4 4v34c0 2.2-1.8 4-4 4h-36c-2.2 0-4-1.8-4-4v-34c0-2.2 1.8-4 4-4z" fill="#00cc00"/><path class="st4" d="m255.67 177.58h36c2.2 0 4 1.8 4 4v34c0 2.2-1.8 4-4 4h-36c-2.2 0-4-1.8-4-4v-34c0-2.2 1.8-4 4-4z" fill="#66ff66"/><path class="st4" d="m309.67 177.58h36c2.2 0 4 1.8 4 4v34c0 2.2-1.8 4-4 4h-36c-2.2 0-4-1.8-4-4v-34c0-2.2 1.8-4 4-4z" fill="#66ff66"/><path class="st4" d="m363.67 177.58h36c2.2 0 4 1.8 4 4v34c0 2.2-1.8 4-4 4h-36c-2.2 0-4-1.8-4-4v-34c0-2.2 1.8-4 4-4z" fill="#66ff66"/><path class="st4" d="m417.67 177.58h36c2.2 0 4 1.8 4 4v34c0 2.2-1.8 4-4 4h-36c-2.2 0-4-1.8-4-4v-34c0-2.2 1.8-4 4-4z" fill="#66ff66"/><path class="st4" d="m471.67 177.58h36c2.2 0 4 1.8 4 4v34c0 2.2-1.8 4-4 4h-36c-2.2 0-4-1.8-4-4v-34c0-2.2 1.8-4 4-4z" fill="#00cccc"/><path class="st4" d="m525.67 177.58h36c2.2 0 4 1.8 4 4v34c0 2.2-1.8 4-4 4h-36c-2.2 0-4-1.8-4-4v-34c0-2.2 1.8-4 4-4z" fill="#00cccc"/><path class="st4" d="m579.67 177.58h36c2.2 0 4 1.8 4 4v34c0 2.2-1.8 4-4 4h-36c-2.2 0-4-1.8-4-4v-34c0-2.2 1.8-4 4-4z" fill="#66ffff"/><path class="st4" d="m633.67 177.58h36c2.2 0 4 1.8 4 4v34c0 2.2-1.8 4-4 4h-36c-2.2 0-4-1.8-4-4v-34c0-2.2 1.8-4 4-4z" fill="#66ffff"/><path class="st4" d="m687.67 177.58h36c2.2 0 4 1.8 4 4v34c0 2.2-1.8 4-4 4h-36c-2.2 0-4-1.8-4-4v-34c0-2.2 1.8-4 4-4z" fill="#66ffff"/><path class="st4" d="m741.67 177.58h36c2.2 0 4 1.8 4 4v34c0 2.2-1.8 4-4 4h-36c-2.2 0-4-1.8-4-4v-34c0-2.2 1.8-4 4-4z" fill="#66ffff"/><path class="st4" d="m795.67 177.58h36c2.2 0 4 1.8 4 4v34c0 2.2-1.8 4-4 4h-36c-2.2 0-4-1.8-4-4v-34c0-2.2 1.8-4 4-4z" fill="#cc00cc"/><path class="st4" d="m849.67 177.58h90c2.2 0 4 1.8 4 4v34c0 2.2-1.8 4-4 4h-90c-2.2 0-4-1.8-4-4v-34c0-2.2 1.8-4 4-4z" fill="#cc00cc"/><path class="st4" d="m971.17 177.58h36c2.2 0 4 1.8 4 4v34c0 2.2-1.8 4-4 4h-36c-2.2 0-4-1.8-4-4v-34c0-2.2 1.8-4 4-4z"/><path class="st4" d="m1025.2 177.58h36c2.2 0 4 1.8 4 4v34c0 2.2-1.8 4-4 4h-36c-2.2 0-4-1.8-4-4v-34c0-2.2 1.8-4 4-4z"/><path class="st4" d="m1079.2 177.58h36c2.2 0 4 1.8 4 4v34c0 2.2-1.8 4-4 4h-36c-2.2 0-4-1.8-4-4v-34c0-2.2 1.8-4 4-4z"/><path class="st4" d="m1146.7 177.58h36c2.2 0 4 1.8 4 4v34c0 2.2-1.8 4-4 4h-36c-2.2 0-4-1.8-4-4v-34c0-2.2 1.8-4 4-4z"/><path class="st4" d="m1200.7 177.58h36c2.2 0 4 1.8 4 4v34c0 2.2-1.8 4-4 4h-36c-2.2 0-4-1.8-4-4v-34c0-2.2 1.8-4 4-4z"/><path class="st4" d="m1254.7 177.58h36c2.2 0 4 1.8 4 4v34c0 2.2-1.8 4-4 4h-36c-2.2 0-4-1.8-4-4v-34c0-2.2 1.8-4 4-4z"/><path class="st4" d="m1308.7 177.58h36c2.2 0 4 1.8 4 4v34c0 2.2-1.8 4-4 4h-36c-2.2 0-4-1.8-4-4v-34c0-2.2 1.8-4 4-4z"/><path class="st4" d="m147.67 231.58h63c2.2 0 4 1.8 4 4v34c0 2.2-1.8 4-4 4h-63c-2.2 0-4-1.8-4-4v-34c0-2.2 1.8-4 4-4z"/><path class="st4" d="m228.67 231.58h36c2.2 0 4 1.8 4 4v34c0 2.2-1.8 4-4 4h-36c-2.2 0-4-1.8-4-4v-34c0-2.2 1.8-4 4-4z" fill="#cc0000"/><path class="st4" d="m282.67 231.58h36c2.2 0 4 1.8 4 4v34c0 2.2-1.8 4-4 4h-36c-2.2 0-4-1.8-4-4v-34c0-2.2 1.8-4 4-4z" fill="#66ff66"/><path class="st4" d="m336.67 231.58h36c2.2 0 4 1.8 4 4v34c0 2.2-1.8 4-4 4h-36c-2.2 0-4-1.8-4-4v-34c0-2.2 1.8-4 4-4z" fill="#66ff66"/><path class="st4" d="m390.67 231.58h36c2.2 0 4 1.8 4 4v34c0 2.2-1.8 4-4 4h-36c-2.2 0-4-1.8-4-4v-34c0-2.2 1.8-4 4-4z" fill="#66ff66"/><path class="st4" d="m444.67 231.58h36c2.2 0 4 1.8 4 4v34c0 2.2-1.8 4-4 4h-36c-2.2 0-4-1.8-4-4v-34c0-2.2 1.8-4 4-4z" fill="#00cc00"/><path class="st4" d="m498.67 231.58h36c2.2 0 4 1.8 4 4v34c0 2.2-1.8 4-4 4h-36c-2.2 0-4-1.8-4-4v-34c0-2.2 1.8-4 4-4z" fill="#00cc00"/><path class="st4" d="m552.67 231.58h36c2.2 0 4 1.8 4 4v34c0 2.2-1.8 4-4 4h-36c-2.2 0-4-1.8-4-4v-34c0-2.2 1.8-4 4-4z" fill="#00cc00"/><path class="st4" d="m606.67 231.58h36c2.2 0 4 1.8 4 4v34c0 2.2-1.8 4-4 4h-36c-2.2 0-4-1.8-4-4v-34c0-2.2 1.8-4 4-4z" fill="#66ffff"/><path class="st4" d="m660.67 231.58h36c2.2 0 4 1.8 4 4v34c0 2.2-1.8 4-4 4h-36c-2.2 0-4-1.8-4-4v-34c0-2.2 1.8-4 4-4z" fill="#66ffff"/><path class="st4" d="m714.67 231.58h36c2.2 0 4 1.8 4 4v34c0 2.2-1.8 4-4 4h-36c-2.2 0-4-1.8-4-4v-34c0-2.2 1.8-4 4-4z" fill="#66ffff"/><path class="st4" d="m768.67 231.58h36c2.2 0 4 1.8 4 4v34c0 2.2-1.8 4-4 4h-36c-2.2 0-4-1.8-4-4v-34c0-2.2 1.8-4 4-4z" fill="#00cccc"/><path class="st4" d="m822.67 231.58h36c2.2 0 4 1.8 4 4v34c0 2.2-1.8 4-4 4h-36c-2.2 0-4-1.8-4-4v-34c0-2.2 1.8-4 4-4z" fill="#00cccc"/><path class="st4" d="m876.67 231.58h63c2.2 0 4 1.8 4 4v34c0 2.2-1.8 4-4 4h-63c-2.2 0-4-1.8-4-4v-34c0-2.2 1.8-4 4-4z" fill="#00cccc"/><path class="st4" d="m971.17 231.58h36c2.2 0 4 1.8 4 4v34c0 2.2-1.8 4-4 4h-36c-2.2 0-4-1.8-4-4v-34c0-2.2 1.8-4 4-4z"/><path class="st4" d="m1025.2 231.58h36c2.2 0 4 1.8 4 4v34c0 2.2-1.8 4-4 4h-36c-2.2 0-4-1.8-4-4v-34c0-2.2 1.8-4 4-4z"/><path class="st4" d="m1079.2 231.58h36c2.2 0 4 1.8 4 4v34c0 2.2-1.8 4-4 4h-36c-2.2 0-4-1.8-4-4v-34c0-2.2 1.8-4 4-4z"/><path class="st4" d="m1146.7 231.58h36c2.2 0 4 1.8 4 4v34c0 2.2-1.8 4-4 4h-36c-2.2 0-4-1.8-4-4v-34c0-2.2 1.8-4 4-4z"/><path class="st4" d="m1200.7 231.58h36c2.2 0 4 1.8 4 4v34c0 2.2-1.8 4-4 4h-36c-2.2 0-4-1.8-4-4v-34c0-2.2 1.8-4 4-4z"/><path class="st4" d="m1254.7 231.58h36c2.2 0 4 1.8 4 4v34c0 2.2-1.8 4-4 4h-36c-2.2 0-4-1.8-4-4v-34c0-2.2 1.8-4 4-4z"/><path class="st4" d="m1308.7 231.58h36c2.2 0 4 1.8 4 4v88c0 2.2-1.8 4-4 4h-36c-2.2 0-4-1.8-4-4v-88c0-2.2 1.8-4 4-4z"/><path class="st4" d="m147.67 285.58h76.5c2.2 0 4 1.8 4 4v34c0 2.2-1.8 4-4 4h-76.5c-2.2 0-4-1.8-4-4v-34c0-2.2 1.8-4 4-4z"/><path class="st4" d="m242.17 285.58h36c2.2 0 4 1.8 4 4v34c0 2.2-1.8 4-4 4h-36c-2.2 0-4-1.8-4-4v-34c0-2.2 1.8-4 4-4z" fill="#ff6666"/><path class="st4" d="m296.17 285.58h36c2.2 0 4 1.8 4 4v34c0 2.2-1.8 4-4 4h-36c-2.2 0-4-1.8-4-4v-34c0-2.2 1.8-4 4-4z" fill="#ff6666"/><path class="st4" d="m350.17 285.58h36c2.2 0 4 1.8 4 4v34c0 2.2-1.8 4-4 4h-36c-2.2 0-4-1.8-4-4v-34c0-2.2 1.8-4 4-4z" fill="#ff6666"/><path class="st4" d="m404.17 285.58h36c2.2 0 4 1.8 4 4v34c0 2.2-1.8 4-4 4h-36c-2.2 0-4-1.8-4-4v-34c0-2.2 1.8-4 4-4z" fill="#ff6666"/><path class="st4" d="m458.17 285.58h36c2.2 0 4 1.8 4 4v34c0 2.2-1.8 4-4 4h-36c-2.2 0-4-1.8-4-4v-34c0-2.2 1.8-4 4-4z" fill="#00cc00"/><path class="st4" d="m512.17 285.58h36c2.2 0 4 1.8 4 4v34c0 2.2-1.8 4-4 4h-36c-2.2 0-4-1.8-4-4v-34c0-2.2 1.8-4 4-4z" fill="#00cc00"/><path class="st4" d="m566.17 285.58h36c2.2 0 4 1.8 4 4v34c0 2.2-1.8 4-4 4h-36c-2.2 0-4-1.8-4-4v-34c0-2.2 1.8-4 4-4z" fill="#66ff66"/><path class="st4" d="m620.17 285.58h36c2.2 0 4 1.8 4 4v34c0 2.2-1.8 4-4 4h-36c-2.2 0-4-1.8-4-4v-34c0-2.2 1.8-4 4-4z" fill="#00cc00"/><path class="st4" d="m620.17 285.58h36c2.2 0 4 1.8 4 4v34c0 2.2-1.8 4-4 4h-36c-2.2 0-4-1.8-4-4v-34c0-2.2 1.8-4 4-4z" fill="#00cc00"/><path class="st4" d="m620.17 285.58h36c2.2 0 4 1.8 4 4v34c0 2.2-1.8 4-4 4h-36c-2.2 0-4-1.8-4-4v-34c0-2.2 1.8-4 4-4z" fill="#00cc00"/><path class="st4" d="m620.17 285.58h36c2.2 0 4 1.8 4 4v34c0 2.2-1.8 4-4 4h-36c-2.2 0-4-1.8-4-4v-34c0-2.2 1.8-4 4-4z" fill="#66ff66"/><path class="st4" d="m674.17 285.58h36c2.2 0 4 1.8 4 4v34c0 2.2-1.8 4-4 4h-36c-2.2 0-4-1.8-4-4v-34c0-2.2 1.8-4 4-4z" fill="#00cc00"/><path class="st4" d="m674.17 285.58h36c2.2 0 4 1.8 4 4v34c0 2.2-1.8 4-4 4h-36c-2.2 0-4-1.8-4-4v-34c0-2.2 1.8-4 4-4z" fill="#00cc00"/><path class="st4" d="m674.17 285.58h36c2.2 0 4 1.8 4 4v34c0 2.2-1.8 4-4 4h-36c-2.2 0-4-1.8-4-4v-34c0-2.2 1.8-4 4-4z" fill="#00cc00"/><path class="st4" d="m674.17 285.58h36c2.2 0 4 1.8 4 4v34c0 2.2-1.8 4-4 4h-36c-2.2 0-4-1.8-4-4v-34c0-2.2 1.8-4 4-4z" fill="#66ff66"/><path class="st4" d="m728.17 285.58h36c2.2 0 4 1.8 4 4v34c0 2.2-1.8 4-4 4h-36c-2.2 0-4-1.8-4-4v-34c0-2.2 1.8-4 4-4z" fill="#66ff66"/><path class="st4" d="m782.17 285.58h36c2.2 0 4 1.8 4 4v34c0 2.2-1.8 4-4 4h-36c-2.2 0-4-1.8-4-4v-34c0-2.2 1.8-4 4-4z" fill="#00cccc"/><path class="st5" d="m836.17 285.58h103.5c2.2 0 4 1.8 4 4v34c0 2.2-1.8 4-4 4h-103.5c-2.2 0-4-1.8-4-4v-34c0-2.2 1.8-4 4-4z" fill="#00cccc"/><path class="st4" d="m1146.7 285.58h36c2.2 0 4 1.8 4 4v34c0 2.2-1.8 4-4 4h-36c-2.2 0-4-1.8-4-4v-34c0-2.2 1.8-4 4-4z"/><path class="st4" d="m1200.7 285.58h36c2.2 0 4 1.8 4 4v34c0 2.2-1.8 4-4 4h-36c-2.2 0-4-1.8-4-4v-34c0-2.2 1.8-4 4-4z"/><path class="st4" d="m1254.7 285.58h36c2.2 0 4 1.8 4 4v34c0 2.2-1.8 4-4 4h-36c-2.2 0-4-1.8-4-4v-34c0-2.2 1.8-4 4-4z"/><path class="st4" d="m147.67 339.58h103.5c2.2 0 4 1.8 4 4v34c0 2.2-1.8 4-4 4h-103.5c-2.2 0-4-1.8-4-4v-34c0-2.2 1.8-4 4-4z"/><path class="st4" d="m269.17 339.58h36c2.2 0 4 1.8 4 4v34c0 2.2-1.8 4-4 4h-36c-2.2 0-4-1.8-4-4v-34c0-2.2 1.8-4 4-4z" fill="#ff6666"/><path class="st4" d="m323.17 339.58h36c2.2 0 4 1.8 4 4v34c0 2.2-1.8 4-4 4h-36c-2.2 0-4-1.8-4-4v-34c0-2.2 1.8-4 4-4z" fill="#ff6666"/><path class="st4" d="m377.17 339.58h36c2.2 0 4 1.8 4 4v34c0 2.2-1.8 4-4 4h-36c-2.2 0-4-1.8-4-4v-34c0-2.2 1.8-4 4-4z" fill="#ff6666"/><path class="st4" d="m431.17 339.58h36c2.2 0 4 1.8 4 4v34c0 2.2-1.8 4-4 4h-36c-2.2 0-4-1.8-4-4v-34c0-2.2 1.8-4 4-4z" fill="#cc0000"/><path class="st4" d="m485.17 339.58h36c2.2 0 4 1.8 4 4v34c0 2.2-1.8 4-4 4h-36c-2.2 0-4-1.8-4-4v-34c0-2.2 1.8-4 4-4z" fill="#cc0000"/><path class="st4" d="m539.17 339.58h36c2.2 0 4 1.8 4 4v34c0 2.2-1.8 4-4 4h-36c-2.2 0-4-1.8-4-4v-34c0-2.2 1.8-4 4-4z" fill="#cc0000"/><path class="st4" d="m593.17 339.58h36c2.2 0 4 1.8 4 4v34c0 2.2-1.8 4-4 4h-36c-2.2 0-4-1.8-4-4v-34c0-2.2 1.8-4 4-4z" fill="#66ff66"/><path class="st4" d="m647.17 339.58h36c2.2 0 4 1.8 4 4v34c0 2.2-1.8 4-4 4h-36c-2.2 0-4-1.8-4-4v-34c0-2.2 1.8-4 4-4z" fill="#00cc00"/><path class="st4" d="m647.17 339.58h36c2.2 0 4 1.8 4 4v34c0 2.2-1.8 4-4 4h-36c-2.2 0-4-1.8-4-4v-34c0-2.2 1.8-4 4-4z" fill="#00cc00"/><path class="st4" d="m647.17 339.58h36c2.2 0 4 1.8 4 4v34c0 2.2-1.8 4-4 4h-36c-2.2 0-4-1.8-4-4v-34c0-2.2 1.8-4 4-4z" fill="#00cc00"/><path class="st4" d="m647.17 339.58h36c2.2 0 4 1.8 4 4v34c0 2.2-1.8 4-4 4h-36c-2.2 0-4-1.8-4-4v-34c0-2.2 1.8-4 4-4z" fill="#00cc00"/><path class="st4" d="m647.17 339.58h36c2.2 0 4 1.8 4 4v34c0 2.2-1.8 4-4 4h-36c-2.2 0-4-1.8-4-4v-34c0-2.2 1.8-4 4-4z" fill="#66ff66"/><path class="st4" d="m701.17 339.58h36c2.2 0 4 1.8 4 4v34c0 2.2-1.8 4-4 4h-36c-2.2 0-4-1.8-4-4v-34c0-2.2 1.8-4 4-4z" fill="#00cc00"/><path class="st4" d="m701.17 339.58h36c2.2 0 4 1.8 4 4v34c0 2.2-1.8 4-4 4h-36c-2.2 0-4-1.8-4-4v-34c0-2.2 1.8-4 4-4z" fill="#00cc00"/><path class="st4" d="m701.17 339.58h36c2.2 0 4 1.8 4 4v34c0 2.2-1.8 4-4 4h-36c-2.2 0-4-1.8-4-4v-34c0-2.2 1.8-4 4-4z" fill="#00cc00"/><path class="st4" d="m701.17 339.58h36c2.2 0 4 1.8 4 4v34c0 2.2-1.8 4-4 4h-36c-2.2 0-4-1.8-4-4v-34c0-2.2 1.8-4 4-4z" fill="#00cc00"/><path class="st4" d="m701.17 339.58h36c2.2 0 4 1.8 4 4v34c0 2.2-1.8 4-4 4h-36c-2.2 0-4-1.8-4-4v-34c0-2.2 1.8-4 4-4z" fill="#66ff66"/><path class="st4" d="m755.17 339.58h36c2.2 0 4 1.8 4 4v34c0 2.2-1.8 4-4 4h-36c-2.2 0-4-1.8-4-4v-34c0-2.2 1.8-4 4-4z" fill="#00cc00"/><path class="st4" d="m809.17 339.58h130.5c2.2 0 4 1.8 4 4v34c0 2.2-1.8 4-4 4h-130.5c-2.2 0-4-1.8-4-4v-34c0-2.2 1.8-4 4-4z" fill="#00cc00"/><path class="st4" d="m1025.2 339.58h36c2.2 0 4 1.8 4 4v34c0 2.2-1.8 4-4 4h-36c-2.2 0-4-1.8-4-4v-34c0-2.2 1.8-4 4-4z"/><path class="st4" d="m1146.7 339.58h36c2.2 0 4 1.8 4 4v34c0 2.2-1.8 4-4 4h-36c-2.2 0-4-1.8-4-4v-34c0-2.2 1.8-4 4-4z"/><path class="st4" d="m1200.7 339.58h36c2.2 0 4 1.8 4 4v34c0 2.2-1.8 4-4 4h-36c-2.2 0-4-1.8-4-4v-34c0-2.2 1.8-4 4-4z"/><path class="st4" d="m1254.7 339.58h36c2.2 0 4 1.8 4 4v34c0 2.2-1.8 4-4 4h-36c-2.2 0-4-1.8-4-4v-34c0-2.2 1.8-4 4-4z"/><path class="st6" d="m1308.7 339.58h36c2.2 0 4 1.8 4 4v88c0 2.2-1.8 4-4 4h-36c-2.2 0-4-1.8-4-4v-88c0-2.2 1.8-4 4-4z"/><path class="st4" d="m147.67 393.58h49.5c2.2 0 4 1.8 4 4v34c0 2.2-1.8 4-4 4h-49.5c-2.2 0-4-1.8-4-4v-34c0-2.2 1.8-4 4-4z"/><path class="st4" d="m215.17 393.58h49.5c2.2 0 4 1.8 4 4v34c0 2.2-1.8 4-4 4h-49.5c-2.2 0-4-1.8-4-4v-34c0-2.2 1.8-4 4-4z"/><path class="st4" d="m282.67 393.58h49.5c2.2 0 4 1.8 4 4v34c0 2.2-1.8 4-4 4h-49.5c-2.2 0-4-1.8-4-4v-34c0-2.2 1.8-4 4-4z"/><path class="st4" d="m350.17 393.58h319.5c2.2 0 4 1.8 4 4v34c0 2.2-1.8 4-4 4h-319.5c-2.2 0-4-1.8-4-4v-34c0-2.2 1.8-4 4-4z"/><path class="st4" d="m687.67 393.58h49.5c2.2 0 4 1.8 4 4v34c0 2.2-1.8 4-4 4h-49.5c-2.2 0-4-1.8-4-4v-34c0-2.2 1.8-4 4-4z"/><path class="st4" d="m755.17 393.58h49.5c2.2 0 4 1.8 4 4v34c0 2.2-1.8 4-4 4h-49.5c-2.2 0-4-1.8-4-4v-34c0-2.2 1.8-4 4-4z"/><path class="st4" d="m822.67 393.58h49.5c2.2 0 4 1.8 4 4v34c0 2.2-1.8 4-4 4h-49.5c-2.2 0-4-1.8-4-4v-34c0-2.2 1.8-4 4-4z"/><path class="st4" d="m890.17 393.58h49.5c2.2 0 4 1.8 4 4v34c0 2.2-1.8 4-4 4h-49.5c-2.2 0-4-1.8-4-4v-34c0-2.2 1.8-4 4-4z"/><path class="st4" d="m971.17 393.58h36c2.2 0 4 1.8 4 4v34c0 2.2-1.8 4-4 4h-36c-2.2 0-4-1.8-4-4v-34c0-2.2 1.8-4 4-4z"/><path class="st4" d="m1025.2 393.58h36c2.2 0 4 1.8 4 4v34c0 2.2-1.8 4-4 4h-36c-2.2 0-4-1.8-4-4v-34c0-2.2 1.8-4 4-4z"/><path class="st4" d="m1079.2 393.58h36c2.2 0 4 1.8 4 4v34c0 2.2-1.8 4-4 4h-36c-2.2 0-4-1.8-4-4v-34c0-2.2 1.8-4 4-4z"/><path class="st4" d="m1146.7 393.58h90c2.2 0 4 1.8 4 4v34c0 2.2-1.8 4-4 4h-90c-2.2 0-4-1.8-4-4v-34c0-2.2 1.8-4 4-4z"/><path class="st4" d="m1254.7 393.58h36c2.2 0 4 1.8 4 4v34c0 2.2-1.8 4-4 4h-36c-2.2 0-4-1.8-4-4v-34c0-2.2 1.8-4 4-4z"/><path class="st5" d="m661.53 517.24h103.5c2.2 0 4 1.8 4 4v34c0 2.2-1.8 4-4 4h-103.5c-2.2 0-4-1.8-4-4v-34c0-2.2 1.8-4 4-4z" fill="#ff6666"/><path class="st5" d="m569.34 557.68h103.5c2.2 0 4 1.8 4 4v34c0 2.2-1.8 4-4 4h-103.5c-2.2 0-4-1.8-4-4v-34c0-2.2 1.8-4 4-4z" fill="#ff6666"/><path class="st2" d="m650.73 549.87h105.5c2.2 0 4 1.8 4 4v38c0 2.2-1.8 4-4 4h-105.5c-2.2 0-4-1.8-4-4v-38c0-2.2 1.8-4 4-4z" fill="#cc0000" stroke="#000000" stroke-width="2"/><path class="st5" d="m314.84 541.61h103.5c2.2 0 4 1.8 4 4v34c0 2.2-1.8 4-4 4h-103.5c-2.2 0-4-1.8-4-4v-34c0-2.2 1.8-4 4-4z" fill="#ff66ff"/><path class="st2" d="m317.65 580.78h105.5c2.2 0 4 1.8 4 4v38c0 2.2-1.8 4-4 4h-105.5c-2.2 0-4-1.8-4-4v-38c0-2.2 1.8-4 4-4z" fill="#cc00cc" stroke="#000000" stroke-width="2"/><path class="st5" d="m150.29 521.81h103.5c2.2 0 4 1.8 4 4v34c0 2.2-1.8 4-4 4h-103.5c-2.2 0-4-1.8-4-4v-34c0-2.2 1.8-4 4-4z" fill="#cc00cc"/><path class="st2" d="m153.11 560.98h105.5c2.2 0 4 1.8 4 4v38c0 2.2-1.8 4-4 4h-105.5c-2.2 0-4-1.8-4-4v-38c0-2.2 1.8-4 4-4z" fill="#cc00cc" stroke="#000000" stroke-width="2"/><path class="st5" d="m594.04 641.51h103.5c2.2 0 4 1.8 4 4v34c0 2.2-1.8 4-4 4h-103.5c-2.2 0-4-1.8-4-4v-34c0-2.2 1.8-4 4-4z" fill="#ffff66"/><path class="st2" d="m596.86 680.69h105.5c2.2 0 4 1.8 4 4v38c0 2.2-1.8 4-4 4h-105.5c-2.2 0-4-1.8-4-4v-38c0-2.2 1.8-4 4-4z" fill="#cccc00" stroke="#000000" stroke-width="2"/><path class="st5" d="m767.12 613.3h103.5c2.2 0 4 1.8 4 4v34c0 2.2-1.8 4-4 4h-103.5c-2.2 0-4-1.8-4-4v-34c0-2.2 1.8-4 4-4z" fill="#66ff66"/><path class="st2" d="m769.93 652.47h105.5c2.2 0 4 1.8 4 4v38c0 2.2-1.8 4-4 4h-105.5c-2.2 0-4-1.8-4-4v-38c0-2.2 1.8-4 4-4z" fill="#00cc00" stroke="#000000" stroke-width="2"/><path class="st5" d="m907.41 483.68h103.5c2.2 0 4 1.8 4 4v34c0 2.2-1.8 4-4 4h-103.5c-2.2 0-4-1.8-4-4v-34c0-2.2 1.8-4 4-4z" fill="#6666ff"/><path class="st2" d="m910.23 522.86h105.5c2.2 0 4 1.8 4 4v38c0 2.2-1.8 4-4 4h-105.5c-2.2 0-4-1.8-4-4v-38c0-2.2 1.8-4 4-4z" fill="#0000cc" stroke="#000000" stroke-width="2"/><path class="st5" d="m377.51 670.49h103.5c2.2 0 4 1.8 4 4v34c0 2.2-1.8 4-4 4h-103.5c-2.2 0-4-1.8-4-4v-34c0-2.2 1.8-4 4-4z" fill="#66ffff"/><path class="st2" d="m380.32 709.66h105.5c2.2 0 4 1.8 4 4v38c0 2.2-1.8 4-4 4h-105.5c-2.2 0-4-1.8-4-4v-38c0-2.2 1.8-4 4-4z" fill="#00cccc" stroke="#000000" stroke-width="2"/><path class="st1" d="m422.76 472.13h38c2.2 0 4 1.8 4 4v38c0 2.2-1.8 4-4 4h-38c-2.2 0-4-1.8-4-4v-38c0-2.2 1.8-4 4-4z" fill="#5c705c" stroke="#000000" stroke-width="2"/><path class="st1" d="m476.76 472.13h38c2.2 0 4 1.8 4 4v38c0 2.2-1.8 4-4 4h-38c-2.2 0-4-1.8-4-4v-38c0-2.2 1.8-4 4-4z" fill="#006600" stroke="#000000" stroke-width="2"/><path class="st4" d="m423.38 454.45h36c2.2 0 4 1.8 4 4v34c0 2.2-1.8 4-4 4h-36c-2.2 0-4-1.8-4-4v-34c0-2.2 1.8-4 4-4z" fill="#abbaab"/><path class="st4" d="m477.76 453.69h36c2.2 0 4 1.8 4 4v34c0 2.2-1.8 4-4 4h-36c-2.2 0-4-1.8-4-4v-34c0-2.2 1.8-4 4-4z" fill="#00cc00"/><path class="st1" d="m537.13 474.37h38c2.2 0 4 1.8 4 4v38c0 2.2-1.8 4-4 4h-38c-2.2 0-4-1.8-4-4v-38c0-2.2 1.8-4 4-4z" fill="#705c5c" stroke="#000000" stroke-width="2"/><path class="st4" d="m537.75 456.69h36c2.2 0 4 1.8 4 4v34c0 2.2-1.8 4-4 4h-36c-2.2 0-4-1.8-4-4v-34c0-2.2 1.8-4 4-4z" fill="#baabab"/><path class="st1" d="m63.621 458.27h51.5c2.2 0 4 1.8 4 4v38c0 2.2-1.8 4-4 4h-51.5c-2.2 0-4-1.8-4-4v-38c0-2.2 1.8-4 4-4z" fill="#cccccc" stroke="#000000" stroke-width="2"/><path class="st4" d="m45.212 446.33h49.5c2.2 0 4 1.8 4 4v34c0 2.2-1.8 4-4 4h-49.5c-2.2 0-4-1.8-4-4v-34c0-2.2 1.8-4 4-4z" fill="#fcfcfc"/><path class="st1" d="m597.11 477.23h38c2.2 0 4 1.8 4 4v38c0 2.2-1.8 4-4 4h-38c-2.2 0-4-1.8-4-4v-38c0-2.2 1.8-4 4-4z" fill="#660000" stroke="#000000" stroke-width="2"/><path class="st4" d="m598.11 458.79h36c2.2 0 4 1.8 4 4v34c0 2.2-1.8 4-4 4h-36c-2.2 0-4-1.8-4-4v-34c0-2.2 1.8-4 4-4z" fill="#cc0000"/><path class="st1" d="m656.53 474.51h38c2.2 0 4 1.8 4 4v38c0 2.2-1.8 4-4 4h-38c-2.2 0-4-1.8-4-4v-38c0-2.2 1.8-4 4-4z" fill="#666600" stroke="#000000" stroke-width="2"/><path class="st4" d="m658.18 457.36h36c2.2 0 4 1.8 4 4v34c0 2.2-1.8 4-4 4h-36c-2.2 0-4-1.8-4-4v-34c0-2.2 1.8-4 4-4z" fill="#cccc00"/><path class="st1" d="m348.78 475.97h38c2.2 0 4 1.8 4 4v38c0 2.2-1.8 4-4 4h-38c-2.2 0-4-1.8-4-4v-38c0-2.2 1.8-4 4-4z" fill="#006666" stroke="#000000" stroke-width="2"/><path class="st4" d="m349.78 457.53h36c2.2 0 4 1.8 4 4v34c0 2.2-1.8 4-4 4h-36c-2.2 0-4-1.8-4-4v-34c0-2.2 1.8-4 4-4z" fill="#00cccc"/><path class="st1" d="m714.27 473.37h38c2.2 0 4 1.8 4 4v38c0 2.2-1.8 4-4 4h-38c-2.2 0-4-1.8-4-4v-38c0-2.2 1.8-4 4-4z" fill="#660066" stroke="#000000" stroke-width="2"/><path class="st4" d="m708.19 455.08h36c2.2 0 4 1.8 4 4v34c0 2.2-1.8 4-4 4h-36c-2.2 0-4-1.8-4-4v-34c0-2.2 1.8-4 4-4z" fill="#cc00cc"/><path class="st1" d="m814.43 468.31h38c2.2 0 4 1.8 4 4v38c0 2.2-1.8 4-4 4h-38c-2.2 0-4-1.8-4-4v-38c0-2.2 1.8-4 4-4z" fill="#000066" stroke="#000000" stroke-width="2"/><path class="st4" d="m808.35 450.02h36c2.2 0 4 1.8 4 4v34c0 2.2-1.8 4-4 4h-36c-2.2 0-4-1.8-4-4v-34c0-2.2 1.8-4 4-4z" fill="#0000cc"/></g><g transform="translate(-8.5 -8.8)"><g transform="matrix(2 0 0 2 -178.94 -44.237)"><path d="m225 158.2h-6.6v-9.9h6.4v1.4h-4.9v2.5h2.8v1.4h-2.8v3.1h5.1z"/></g><path d="m217.35 262.16c0 7-4.4 10-9.6 10h-5.4v-19.8h5.4c5.4-.2 9.6 2.8 9.6 9.8zm-3 0c0-4.2-2-7-6.6-7h-2.4v14h2.4c4.6 0 6.6-2.8 6.6-7z" stroke-width="2"/><path d="m161.36 268.36c-1.4 2.4-3.8 3.8-6.8 3.8-5.2 0-8.4-4.2-8.4-10.2s3.2-10.2 8.4-10.2c3.2 0 5.4 1.4 6.8 3.8l-2.6 1.6c-1-1.6-2-2.4-4.2-2.4-3.4 0-5.4 2.8-5.4 7.2s1.8 7.2 5.4 7.2c2 0 3.4-.8 4.4-2.4z" stroke-width="2"/><g transform="matrix(2 0 0 2 -449.59 -314.9)"><path d="m373.8 263.1c0 2-1.2 3-3.4 3h-3.9v-9.9h4.1c1.7 0 2.8.9 2.8 2.6 0 1-.5 1.6-1.3 2 .9.2 1.7 1 1.7 2.3zm-1.8-4.2c0-.7-.4-1.3-1.4-1.3h-2.7v2.6h2.7c1 0 1.4-.6 1.4-1.3zm.4 4.3c0-1-.6-1.6-1.8-1.6h-2.7v3.3h2.7c1.3-.1 1.8-.8 1.8-1.7z"/></g><path d="m135.53 200.3h-9.8v5.2h5.6v3h-5.6v8.8h-3v-19.8h12.8z" stroke-width="2"/><g transform="matrix(2 0 0 2 -18.827 -207.1)"><path d="m131.4 212.2h-1.6l-.8-2.4h-4l-.8 2.4h-1.5l3.6-9.9h1.6zm-2.9-3.7-.8-2.3c-.2-.7-.6-1.9-.8-2.3-.1.4-.5 1.6-.7 2.3l-.8 2.3z"/></g><path d="m189.74 209.3c0 5.2-3.2 8-7.6 8-5.2 0-8.4-4.2-8.4-10.2s3.2-10.2 8.4-10.2c3.2 0 5.4 1.4 6.8 3.8l-2.6 1.6c-1-1.6-2-2.4-4.2-2.4-3.4 0-5.4 2.8-5.4 7.2s1.8 7.2 5.4 7.2c3.2 0 4.6-2.2 4.6-4.4h-3.2v-2.8h6.2z" stroke-width="2"/><g transform="translate(959.67 122.38)"><g transform="matrix(2 0 0 2 -1062.7 -265.46)"><path d="m373.8 263.1c0 2-1.2 3-3.4 3h-3.9v-9.9h4.1c1.7 0 2.8.9 2.8 2.6 0 1-.5 1.6-1.3 2 .9.2 1.7 1 1.7 2.3zm-1.8-4.2c0-.7-.4-1.3-1.4-1.3h-2.7v2.6h2.7c1 0 1.4-.6 1.4-1.3zm.4 4.3c0-1-.6-1.6-1.8-1.6h-2.7v3.3h2.7c1.3-.1 1.8-.8 1.8-1.7z"/></g><path d="m-305.07 258.56h-1.7v2.3h-1.4v-2.3h-2.3v2.3h-1.4v-2.3h-1.7v-1.3h1.7v-2.7h-1.7v-1.4h1.7v-2.3h1.4v2.3h2.3v-2.3h1.4v2.3h1.7v1.3h-1.7v2.7h1.7zm-3.1-1.3v-2.7h-2.3v2.7z"/></g><g transform="matrix(2 0 0 2 -165.22 -151.08)"><path d="m225 158.2h-6.6v-9.9h6.4v1.4h-4.9v2.5h2.8v1.4h-2.8v3.1h5.1z"/></g><g transform="matrix(2 0 0 2 -246.93 -259.08)"><path d="m239 207.2c0 3.5-2.2 5-4.8 5h-2.7v-9.9h2.7c2.7-.1 4.8 1.4 4.8 4.9zm-1.5 0c0-2.1-1-3.5-3.3-3.5h-1.2v7h1.2c2.3 0 3.3-1.4 3.3-3.5z"/></g><path d="m175.08 161.52c-1.4 2.4-3.8 3.8-6.8 3.8-5.2 0-8.4-4.2-8.4-10.2s3.2-10.2 8.4-10.2c3.2 0 5.4 1.4 6.8 3.8l-2.6 1.6c-1-1.6-2-2.4-4.2-2.4-3.4 0-5.4 2.8-5.4 7.2s1.8 7.2 5.4 7.2c2 0 3.4-.8 4.4-2.4z" stroke-width="2"/><g transform="matrix(2 0 0 2 -435.88 -421.74)"><path d="m373.8 263.1c0 2-1.2 3-3.4 3h-3.9v-9.9h4.1c1.7 0 2.8.9 2.8 2.6 0 1-.5 1.6-1.3 2 .9.2 1.7 1 1.7 2.3zm-1.8-4.2c0-.7-.4-1.3-1.4-1.3h-2.7v2.6h2.7c1 0 1.4-.6 1.4-1.3zm.4 4.3c0-1-.6-1.6-1.8-1.6h-2.7v3.3h2.7c1.3-.1 1.8-.8 1.8-1.7z"/></g><path d="m149.25 93.461h-9.8v5.2h5.6v3h-5.6v8.8h-3v-19.8h12.8z" stroke-width="2"/><g transform="matrix(2 0 0 2 -5.1089 -313.94)"><path d="m131.4 212.2h-1.6l-.8-2.4h-4l-.8 2.4h-1.5l3.6-9.9h1.6zm-2.9-3.7-.8-2.3c-.2-.7-.6-1.9-.8-2.3-.1.4-.5 1.6-.7 2.3l-.8 2.3z"/></g><path d="m203.46 102.46c0 5.2-3.2 8-7.6 8-5.2 0-8.4-4.2-8.4-10.2 0-6 3.2-10.2 8.4-10.2 3.2 0 5.4 1.4 6.8 3.8l-2.6 1.6c-1-1.6-2-2.4-4.2-2.4-3.4 0-5.4 2.8-5.4 7.2 0 4.4 1.8 7.2 5.4 7.2 3.2 0 4.6-2.2 4.6-4.4h-3.2v-2.8h6.2z" stroke-width="2"/><g fill="none" stroke="#800000" stroke-linecap="round" stroke-linejoin="round" stroke-width="3.0236"><path d="m153.37-23.986c-20.241-25.126-37.17-52.678-56.422-78.533" style="paint-order:markers fill stroke"/><path d="m99.995-73.545c-1.1383-9.6221 2.8471-20.296-3.0498-28.973" style="paint-order:markers fill stroke"/><path d="m124.39-93.369c-9.6354-1.1249-19.228-3.8838-27.448-9.1495" style="paint-order:markers fill stroke"/></g><path d="m175.48-155.89c-5.716 14.203 8.3833 28.667 22.764 26.534 10.213.01 20.68-4.4423 26.795-12.81" fill="none" stroke="#800000" stroke-linecap="round" stroke-linejoin="round" stroke-width="3.0236" style="paint-order:markers fill stroke"/><path d="m202.16-159.7c-3.9832 17.603-.013 35.618 0 53.372" fill="none" stroke="#800000" stroke-linecap="round" stroke-linejoin="round" stroke-width="3.0236" style="paint-order:markers fill stroke"/><path d="m173.95-85.745c23.429-9.7575 49.336-5.8134 73.958-6.8621" fill="none" stroke="#800000" stroke-linecap="round" stroke-linejoin="round" stroke-width="3.0236" style="paint-order:markers fill stroke"/><path d="m192.08-72.34c11.586-6.7509 36.614-3.9595 37.686 11.565-14.455 8.7742 9.9079 21.516-6.2114 28.81-10.561 5.4193-26.834 2.9675-33.631-7.2176" fill="none" stroke="#800000" stroke-linecap="round" stroke-linejoin="round" stroke-width="3.0236" style="paint-order:markers fill stroke"/><g transform="rotate(79.749 281.95 125.52)" fill="none" stroke="#800000" stroke-linecap="round" stroke-linejoin="round" stroke-width="3.0236"><path d="m153.37-23.986c-20.217-25.119-37.213-52.69-56.422-78.533" style="paint-order:markers fill stroke"/><path d="m99.995-73.545c-1.1827-9.6115 2.9169-20.311-3.0498-28.973" style="paint-order:markers fill stroke"/><path d="m124.39-93.369c-9.6333-1.1281-19.23-3.8793-27.448-9.1495" style="paint-order:markers fill stroke"/></g><path d="m483.48-148.09c13.77-11.888 24.458 9.3599 19.323 15.969 13.799 7.99 9.4555 31.671-9.0797 23.388" fill="none" stroke="#800000" stroke-linecap="round" stroke-linejoin="round" stroke-width="3.0236" style="paint-order:markers fill stroke"/><path d="m485.1-90.401c17.443-7.3957 36.719-3.231 54.992-4.3131" fill="none" stroke="#800000" stroke-linecap="round" stroke-linejoin="round" stroke-width="3.0236" style="paint-order:markers fill stroke"/><path d="m492.65-69.914c14.203-21.7 37.58 13.755 10.983 18.352-29.054 16.163 25.648 7.6231 30.531 10.762" fill="none" stroke="#800000" stroke-linecap="round" stroke-linejoin="round" stroke-width="3.0236" style="paint-order:markers fill stroke"/><g transform="matrix(2 0 0 2 158.19 -151.65)"><path d="m225 158.2h-6.6v-9.9h6.4v1.4h-4.9v2.5h2.8v1.4h-2.8v3.1h5.1z"/></g><g transform="matrix(2 0 0 2 76.483 -259.65)"><path d="m239 207.2c0 3.5-2.2 5-4.8 5h-2.7v-9.9h2.7c2.7-.1 4.8 1.4 4.8 4.9zm-1.5 0c0-2.1-1-3.5-3.3-3.5h-1.2v7h1.2c2.3 0 3.3-1.4 3.3-3.5z"/></g><path d="m498.49 159.25c-1.4 2.4-3.8 3.8-6.8 3.8-5.2 0-8.4-4.2-8.4-10.2s3.2-10.2 8.4-10.2c3.2 0 5.4 1.4 6.8 3.8l-2.6 1.6c-1-1.6-2-2.4-4.2-2.4-3.4 0-5.4 2.8-5.4 7.2s1.8 7.2 5.4 7.2c2 0 3.4-.8 4.4-2.4z" stroke-width="2"/><g transform="matrix(2 0 0 2 -112.46 -422.31)"><path d="m373.8 263.1c0 2-1.2 3-3.4 3h-3.9v-9.9h4.1c1.7 0 2.8.9 2.8 2.6 0 1-.5 1.6-1.3 2 .9.2 1.7 1 1.7 2.3zm-1.8-4.2c0-.7-.4-1.3-1.4-1.3h-2.7v2.6h2.7c1 0 1.4-.6 1.4-1.3zm.4 4.3c0-1-.6-1.6-1.8-1.6h-2.7v3.3h2.7c1.3-.1 1.8-.8 1.8-1.7z"/></g><path d="m472.66 92.887h-9.8v5.2h5.6v3h-5.6v8.8h-3v-19.8h12.8z" stroke-width="2"/><g transform="matrix(2 0 0 2 318.3 -314.51)"><path d="m131.4 212.2h-1.6l-.8-2.4h-4l-.8 2.4h-1.5l3.6-9.9h1.6zm-2.9-3.7-.8-2.3c-.2-.7-.6-1.9-.8-2.3-.1.4-.5 1.6-.7 2.3l-.8 2.3z"/></g><path d="m526.87 101.89c0 5.2-3.2 8-7.6 8-5.2 0-8.4-4.2-8.4-10.2 0-6 3.2-10.2 8.4-10.2 3.2 0 5.4 1.4 6.8 3.8l-2.6 1.6c-1-1.6-2-2.4-4.2-2.4-3.4 0-5.4 2.8-5.4 7.2 0 4.4 1.8 7.2 5.4 7.2 3.2 0 4.6-2.2 4.6-4.4h-3.2v-2.8h6.2z" stroke-width="2"/><g transform="matrix(2 0 0 2 142.5 -44.177)"><path d="m225 158.2h-6.6v-9.9h6.4v1.4h-4.9v2.5h2.8v1.4h-2.8v3.1h5.1z"/></g><g transform="matrix(2 0 0 2 63.073 -152.35)"><path d="m239 207.2c0 3.5-2.2 5-4.8 5h-2.7v-9.9h2.7c2.7-.1 4.8 1.4 4.8 4.9zm-1.5 0c0-2.1-1-3.5-3.3-3.5h-1.2v7h1.2c2.3 0 3.3-1.4 3.3-3.5z"/></g><path d="m485.08 268.25c-1.4 2.4-3.8 3.8-6.8 3.8-5.2 0-8.4-4.2-8.4-10.2s3.2-10.2 8.4-10.2c3.2 0 5.4 1.4 6.8 3.8l-2.6 1.6c-1-1.6-2-2.4-4.2-2.4-3.4 0-5.4 2.8-5.4 7.2s1.8 7.2 5.4 7.2c2 0 3.4-.8 4.4-2.4z" stroke-width="2"/><g transform="matrix(2 0 0 2 -125.87 -315.01)"><path d="m373.8 263.1c0 2-1.2 3-3.4 3h-3.9v-9.9h4.1c1.7 0 2.8.9 2.8 2.6 0 1-.5 1.6-1.3 2 .9.2 1.7 1 1.7 2.3zm-1.8-4.2c0-.7-.4-1.3-1.4-1.3h-2.7v2.6h2.7c1 0 1.4-.6 1.4-1.3zm.4 4.3c0-1-.6-1.6-1.8-1.6h-2.7v3.3h2.7c1.3-.1 1.8-.8 1.8-1.7z"/></g><path d="m459.25 200.19h-9.8v5.2h5.6v3h-5.6v8.8h-3v-19.8h12.8z" stroke-width="2"/><g transform="matrix(2 0 0 2 304.89 -207.21)"><path d="m131.4 212.2h-1.6l-.8-2.4h-4l-.8 2.4h-1.5l3.6-9.9h1.6zm-2.9-3.7-.8-2.3c-.2-.7-.6-1.9-.8-2.3-.1.4-.5 1.6-.7 2.3l-.8 2.3z"/></g><path d="m513.46 209.19c0 5.2-3.2 8-7.6 8-5.2 0-8.4-4.2-8.4-10.2s3.2-10.2 8.4-10.2c3.2 0 5.4 1.4 6.8 3.8l-2.6 1.6c-1-1.6-2-2.4-4.2-2.4-3.4 0-5.4 2.8-5.4 7.2s1.8 7.2 5.4 7.2c3.2 0 4.6-2.2 4.6-4.4h-3.2v-2.8h6.2z" stroke-width="2"/><g><g transform="translate(170.2 57.569)"><g transform="matrix(.75722 0 0 .75722 402.09 -54.404)"><g transform="matrix(2,0,0,2,-713.17,-155.67)"><path d="m239 207.2c0 3.5-2.2 5-4.8 5h-2.7v-9.9h2.7c2.7-.1 4.8 1.4 4.8 4.9zm-1.5 0c0-2.1-1-3.5-3.3-3.5h-1.2v7h1.2c2.3 0 3.3-1.4 3.3-3.5z"/></g><path d="m-224.41 260.98h-1.7v2.3h-1.4v-2.3h-2.3v2.3h-1.4v-2.3h-1.7v-1.3h1.7v-2.7h-1.7v-1.4h1.7v-2.3h1.4v2.3h2.3v-2.3h1.4v2.3h1.7v1.3h-1.7v2.7h1.7zm-3.1-1.3v-2.7h-2.3v2.7z"/></g><g transform="matrix(.74776 0 0 .74776 138.02 238.83)"><g transform="matrix(2,0,0,2,-316.6,-413.97)"><path d="m225 158.2h-6.6v-9.9h6.4v1.4h-4.9v2.5h2.8v1.4h-2.8v3.1h5.1z"/></g><text x="132.94505" y="-103.37805" font-family="'Century Schoolbook'" font-size="18.667px" font-weight="bold" letter-spacing="0px" word-spacing="0px" style="line-height:1" xml:space="preserve"><tspan x="132.94505" y="-103.37805" font-family="'Century Schoolbook'" font-size="18.667px" font-weight="bold">♭</tspan></text></g></g><g transform="translate(189.55 -52.834)"><g transform="matrix(.73529 0 0 .73529 352.4 85.609)"><path d="m-266.31 228.23h-1.7v2.3h-1.4v-2.3h-2.3v2.3h-1.4v-2.3h-1.7v-1.3h1.7v-2.7h-1.7v-1.4h1.7v-2.3h1.4v2.3h2.3v-2.3h1.4v2.3h1.7v1.3h-1.7v2.7h1.7zm-3.1-1.3v-2.7h-2.3v2.7z"/><g transform="matrix(2,0,0,2,-807.23,-296.34)"><path d="m265.8 264.4c-.7 1.2-1.9 1.9-3.4 1.9-2.6 0-4.2-2.1-4.2-5.1s1.6-5.1 4.2-5.1c1.6 0 2.7.7 3.4 1.9l-1.3.8c-.5-.8-1-1.2-2.1-1.2-1.7 0-2.7 1.4-2.7 3.6s.9 3.6 2.7 3.6c1 0 1.7-.4 2.2-1.2z"/></g></g><g transform="matrix(.75489 0 0 .75489 123.74 335.92)"><g transform="matrix(2,0,0,2,-422.58,-504.68)"><path d="m239 207.2c0 3.5-2.2 5-4.8 5h-2.7v-9.9h2.7c2.7-.1 4.8 1.4 4.8 4.9zm-1.5 0c0-2.1-1-3.5-3.3-3.5h-1.2v7h1.2c2.3 0 3.3-1.4 3.3-3.5z"/></g><text x="56.475048" y="-86.50576" font-family="'Century Schoolbook'" font-size="18.667px" font-weight="bold" letter-spacing="0px" word-spacing="0px" style="line-height:1" xml:space="preserve"><tspan x="56.475048" y="-86.50576" font-family="'Century Schoolbook'" font-size="18.667px" font-weight="bold">♭</tspan></text></g></g></g><g transform="translate(337.97 -108.13)"><g transform="translate(170.2 57.569)"><g transform="matrix(.75722 0 0 .75722 402.09 -54.404)"><g transform="matrix(2,0,0,2,-713.17,-155.67)"><path d="m239 207.2c0 3.5-2.2 5-4.8 5h-2.7v-9.9h2.7c2.7-.1 4.8 1.4 4.8 4.9zm-1.5 0c0-2.1-1-3.5-3.3-3.5h-1.2v7h1.2c2.3 0 3.3-1.4 3.3-3.5z"/></g><path d="m-224.41 260.98h-1.7v2.3h-1.4v-2.3h-2.3v2.3h-1.4v-2.3h-1.7v-1.3h1.7v-2.7h-1.7v-1.4h1.7v-2.3h1.4v2.3h2.3v-2.3h1.4v2.3h1.7v1.3h-1.7v2.7h1.7zm-3.1-1.3v-2.7h-2.3v2.7z"/></g><g transform="matrix(.74776 0 0 .74776 138.02 238.83)"><g transform="matrix(2,0,0,2,-316.6,-413.97)"><path d="m225 158.2h-6.6v-9.9h6.4v1.4h-4.9v2.5h2.8v1.4h-2.8v3.1h5.1z"/></g><text x="132.94505" y="-103.37805" font-family="'Century Schoolbook'" font-size="18.667px" font-weight="bold" letter-spacing="0px" word-spacing="0px" style="line-height:1" xml:space="preserve"><tspan x="132.94505" y="-103.37805" font-family="'Century Schoolbook'" font-size="18.667px" font-weight="bold">♭</tspan></text></g></g><g transform="translate(189.55 -52.834)"><g transform="matrix(.73529 0 0 .73529 352.4 85.609)"><path d="m-266.31 228.23h-1.7v2.3h-1.4v-2.3h-2.3v2.3h-1.4v-2.3h-1.7v-1.3h1.7v-2.7h-1.7v-1.4h1.7v-2.3h1.4v2.3h2.3v-2.3h1.4v2.3h1.7v1.3h-1.7v2.7h1.7zm-3.1-1.3v-2.7h-2.3v2.7z"/><g transform="matrix(2,0,0,2,-807.23,-296.34)"><path d="m265.8 264.4c-.7 1.2-1.9 1.9-3.4 1.9-2.6 0-4.2-2.1-4.2-5.1s1.6-5.1 4.2-5.1c1.6 0 2.7.7 3.4 1.9l-1.3.8c-.5-.8-1-1.2-2.1-1.2-1.7 0-2.7 1.4-2.7 3.6s.9 3.6 2.7 3.6c1 0 1.7-.4 2.2-1.2z"/></g></g><g transform="matrix(.75489 0 0 .75489 123.74 335.92)"><g transform="matrix(2,0,0,2,-422.58,-504.68)"><path d="m239 207.2c0 3.5-2.2 5-4.8 5h-2.7v-9.9h2.7c2.7-.1 4.8 1.4 4.8 4.9zm-1.5 0c0-2.1-1-3.5-3.3-3.5h-1.2v7h1.2c2.3 0 3.3-1.4 3.3-3.5z"/></g><text x="56.475048" y="-86.50576" font-family="'Century Schoolbook'" font-size="18.667px" font-weight="bold" letter-spacing="0px" word-spacing="0px" style="line-height:1" xml:space="preserve"><tspan x="56.475048" y="-86.50576" font-family="'Century Schoolbook'" font-size="18.667px" font-weight="bold">♭</tspan></text></g></g></g><g transform="translate(-139.23 -50.853)"><g transform="matrix(.75722 0 0 .75722 402.09 -54.404)"><g transform="matrix(2,0,0,2,-713.17,-155.67)"><path d="m239 207.2c0 3.5-2.2 5-4.8 5h-2.7v-9.9h2.7c2.7-.1 4.8 1.4 4.8 4.9zm-1.5 0c0-2.1-1-3.5-3.3-3.5h-1.2v7h1.2c2.3 0 3.3-1.4 3.3-3.5z"/></g><path d="m-224.41 260.98h-1.7v2.3h-1.4v-2.3h-2.3v2.3h-1.4v-2.3h-1.7v-1.3h1.7v-2.7h-1.7v-1.4h1.7v-2.3h1.4v2.3h2.3v-2.3h1.4v2.3h1.7v1.3h-1.7v2.7h1.7zm-3.1-1.3v-2.7h-2.3v2.7z"/></g><g transform="matrix(.74776 0 0 .74776 138.02 238.83)"><g transform="matrix(2,0,0,2,-316.6,-413.97)"><path d="m225 158.2h-6.6v-9.9h6.4v1.4h-4.9v2.5h2.8v1.4h-2.8v3.1h5.1z"/></g><text x="132.94505" y="-103.37805" font-family="'Century Schoolbook'" font-size="18.667px" font-weight="bold" letter-spacing="0px" word-spacing="0px" style="line-height:1" xml:space="preserve"><tspan x="132.94505" y="-103.37805" font-family="'Century Schoolbook'" font-size="18.667px" font-weight="bold">♭</tspan></text></g></g><g transform="translate(521.09 -48.002)"><g transform="translate(-493.35 102.58)"><g transform="matrix(.75758 0 0 .75758 466.56 77.397)"><g transform="matrix(2,0,0,2,-806.36,-483.41)"><path d="m373.8 263.1c0 2-1.2 3-3.4 3h-3.9v-9.9h4.1c1.7 0 2.8.9 2.8 2.6 0 1-.5 1.6-1.3 2 .9.2 1.7 1 1.7 2.3zm-1.8-4.2c0-.7-.4-1.3-1.4-1.3h-2.7v2.6h2.7c1 0 1.4-.6 1.4-1.3zm.4 4.3c0-1-.6-1.6-1.8-1.6h-2.7v3.3h2.7c1.3-.1 1.8-.8 1.8-1.7z"/></g><text x="-58.423237" y="43.680428" font-family="'Century Schoolbook'" font-size="18.667px" font-weight="bold" letter-spacing="0px" word-spacing="0px" style="line-height:1" xml:space="preserve"><tspan x="-58.423237" y="43.680428" font-family="'Century Schoolbook'" font-size="18.667px" font-weight="bold">♭</tspan></text></g><g transform="matrix(.75758 0 0 .75758 428.95 -69.206)"><g transform="matrix(2,0,0,2,-290.83,-204.32)"><path d="m131.4 212.2h-1.6l-.8-2.4h-4l-.8 2.4h-1.5l3.6-9.9h1.6zm-2.9-3.7-.8-2.3c-.2-.7-.6-1.9-.8-2.3-.1.4-.5 1.6-.7 2.3l-.8 2.3z"/></g><path d="m-20.609 212.6h-1.7v2.3h-1.4v-2.3h-2.3v2.3h-1.4v-2.3h-1.7v-1.3h1.7v-2.7h-1.7v-1.4h1.7v-2.3h1.4v2.3h2.3v-2.3h1.4v2.3h1.7v1.3h-1.7v2.7h1.7zm-3.1-1.3v-2.7h-2.3v2.7z"/></g></g><g transform="translate(-495.17 102.13)"><g transform="matrix(.75758 0 0 .75758 443.38 157.91)"><g transform="matrix(2,0,0,2,-360.87,-482.25)"><path d="m131.4 212.2h-1.6l-.8-2.4h-4l-.8 2.4h-1.5l3.6-9.9h1.6zm-2.9-3.7-.8-2.3c-.2-.7-.6-1.9-.8-2.3-.1.4-.5 1.6-.7 2.3l-.8 2.3z"/></g><text x="-99.106789" y="-62.746986" font-family="'Century Schoolbook'" font-size="18.667px" font-weight="bold" letter-spacing="0px" word-spacing="0px" style="line-height:1" xml:space="preserve"><tspan x="-99.106789" y="-62.746986" font-family="'Century Schoolbook'" font-size="18.667px" font-weight="bold">♭</tspan></text></g><g transform="matrix(.73529 0 0 .73529 415.2 -63.25)"><g transform="matrix(2,0,0,2,-776.31,-204.86)"><path d="m347 208.3c0 2.6-1.6 4-3.8 4-2.6 0-4.2-2.1-4.2-5.1s1.6-5.1 4.2-5.1c1.6 0 2.7.7 3.4 1.9l-1.3.8c-.5-.8-1-1.2-2.1-1.2-1.7 0-2.7 1.4-2.7 3.6s.9 3.6 2.7 3.6c1.6 0 2.3-1.1 2.3-2.2h-1.6v-1.4h3.1z"/></g><path d="m-72.602 211.82h-1.7v2.3h-1.4v-2.3h-2.3v2.3h-1.4v-2.3h-1.7v-1.3h1.7v-2.7h-1.7v-1.4h1.7v-2.3h1.4v2.3h2.3v-2.3h1.4v2.3h1.7v1.3h-1.7v2.7h1.7zm-3.1-1.3v-2.7h-2.3v2.7z"/></g></g><g transform="translate(-494.71 101.67)"><g transform="matrix(.75758 0 0 .75758 97.907 -107.21)"><path d="m272.24 265.18h-1.7v2.3h-1.4v-2.3h-2.3v2.3h-1.4v-2.3h-1.7v-1.3h1.7v-2.7h-1.7v-1.4h1.7v-2.3h1.4v2.3h2.3v-2.3h1.4v2.3h1.7v1.3h-1.7v2.7h1.7zm-3.1-1.3v-2.7h-2.3v2.7z"/><g transform="matrix(2,0,0,2,-319.55,-152.64)"><path d="m292.6 203.7h-4.9v2.6h2.8v1.5h-2.8v4.4h-1.5v-9.9h6.4z"/></g></g><g transform="matrix(.73529 0 0 .73529 426.3 156.69)"><g transform="matrix(2,0,0,2,-846.8,-481.84)"><path d="m347 208.3c0 2.6-1.6 4-3.8 4-2.6 0-4.2-2.1-4.2-5.1s1.6-5.1 4.2-5.1c1.6 0 2.7.7 3.4 1.9l-1.3.8c-.5-.8-1-1.2-2.1-1.2-1.7 0-2.7 1.4-2.7 3.6s.9 3.6 2.7 3.6c1.6 0 2.3-1.1 2.3-2.2h-1.6v-1.4h3.1z"/></g><text x="-151.87219" y="-63.103462" font-family="'Century Schoolbook'" font-size="18.667px" font-weight="bold" letter-spacing="0px" word-spacing="0px" style="line-height:1" xml:space="preserve"><tspan x="-151.87219" y="-63.103462" font-family="'Century Schoolbook'" font-size="18.667px" font-weight="bold">♭</tspan></text></g></g></g><g transform="translate(507.53 60.754)"><g transform="translate(-493.35 102.58)"><g transform="matrix(.75758 0 0 .75758 466.56 77.397)"><g transform="matrix(2,0,0,2,-806.36,-483.41)"><path d="m373.8 263.1c0 2-1.2 3-3.4 3h-3.9v-9.9h4.1c1.7 0 2.8.9 2.8 2.6 0 1-.5 1.6-1.3 2 .9.2 1.7 1 1.7 2.3zm-1.8-4.2c0-.7-.4-1.3-1.4-1.3h-2.7v2.6h2.7c1 0 1.4-.6 1.4-1.3zm.4 4.3c0-1-.6-1.6-1.8-1.6h-2.7v3.3h2.7c1.3-.1 1.8-.8 1.8-1.7z"/></g><text x="-58.423237" y="43.680428" font-family="'Century Schoolbook'" font-size="18.667px" font-weight="bold" letter-spacing="0px" word-spacing="0px" style="line-height:1" xml:space="preserve"><tspan x="-58.423237" y="43.680428" font-family="'Century Schoolbook'" font-size="18.667px" font-weight="bold">♭</tspan></text></g><g transform="matrix(.75758 0 0 .75758 428.95 -69.206)"><g transform="matrix(2,0,0,2,-290.83,-204.32)"><path d="m131.4 212.2h-1.6l-.8-2.4h-4l-.8 2.4h-1.5l3.6-9.9h1.6zm-2.9-3.7-.8-2.3c-.2-.7-.6-1.9-.8-2.3-.1.4-.5 1.6-.7 2.3l-.8 2.3z"/></g><path d="m-20.609 212.6h-1.7v2.3h-1.4v-2.3h-2.3v2.3h-1.4v-2.3h-1.7v-1.3h1.7v-2.7h-1.7v-1.4h1.7v-2.3h1.4v2.3h2.3v-2.3h1.4v2.3h1.7v1.3h-1.7v2.7h1.7zm-3.1-1.3v-2.7h-2.3v2.7z"/></g></g><g transform="translate(-495.17 102.13)"><g transform="matrix(.75758 0 0 .75758 443.38 157.91)"><g transform="matrix(2,0,0,2,-360.87,-482.25)"><path d="m131.4 212.2h-1.6l-.8-2.4h-4l-.8 2.4h-1.5l3.6-9.9h1.6zm-2.9-3.7-.8-2.3c-.2-.7-.6-1.9-.8-2.3-.1.4-.5 1.6-.7 2.3l-.8 2.3z"/></g><text x="-99.106789" y="-62.746986" font-family="'Century Schoolbook'" font-size="18.667px" font-weight="bold" letter-spacing="0px" word-spacing="0px" style="line-height:1" xml:space="preserve"><tspan x="-99.106789" y="-62.746986" font-family="'Century Schoolbook'" font-size="18.667px" font-weight="bold">♭</tspan></text></g><g transform="matrix(.73529 0 0 .73529 415.2 -63.25)"><g transform="matrix(2,0,0,2,-776.31,-204.86)"><path d="m347 208.3c0 2.6-1.6 4-3.8 4-2.6 0-4.2-2.1-4.2-5.1s1.6-5.1 4.2-5.1c1.6 0 2.7.7 3.4 1.9l-1.3.8c-.5-.8-1-1.2-2.1-1.2-1.7 0-2.7 1.4-2.7 3.6s.9 3.6 2.7 3.6c1.6 0 2.3-1.1 2.3-2.2h-1.6v-1.4h3.1z"/></g><path d="m-72.602 211.82h-1.7v2.3h-1.4v-2.3h-2.3v2.3h-1.4v-2.3h-1.7v-1.3h1.7v-2.7h-1.7v-1.4h1.7v-2.3h1.4v2.3h2.3v-2.3h1.4v2.3h1.7v1.3h-1.7v2.7h1.7zm-3.1-1.3v-2.7h-2.3v2.7z"/></g></g><g transform="translate(-494.71 101.67)"><g transform="matrix(.75758 0 0 .75758 97.907 -107.21)"><path d="m272.24 265.18h-1.7v2.3h-1.4v-2.3h-2.3v2.3h-1.4v-2.3h-1.7v-1.3h1.7v-2.7h-1.7v-1.4h1.7v-2.3h1.4v2.3h2.3v-2.3h1.4v2.3h1.7v1.3h-1.7v2.7h1.7zm-3.1-1.3v-2.7h-2.3v2.7z"/><g transform="matrix(2,0,0,2,-319.55,-152.64)"><path d="m292.6 203.7h-4.9v2.6h2.8v1.5h-2.8v4.4h-1.5v-9.9h6.4z"/></g></g><g transform="matrix(.73529 0 0 .73529 426.3 156.69)"><g transform="matrix(2,0,0,2,-846.8,-481.84)"><path d="m347 208.3c0 2.6-1.6 4-3.8 4-2.6 0-4.2-2.1-4.2-5.1s1.6-5.1 4.2-5.1c1.6 0 2.7.7 3.4 1.9l-1.3.8c-.5-.8-1-1.2-2.1-1.2-1.7 0-2.7 1.4-2.7 3.6s.9 3.6 2.7 3.6c1.6 0 2.3-1.1 2.3-2.2h-1.6v-1.4h3.1z"/></g><text x="-151.87219" y="-63.103462" font-family="'Century Schoolbook'" font-size="18.667px" font-weight="bold" letter-spacing="0px" word-spacing="0px" style="line-height:1" xml:space="preserve"><tspan x="-151.87219" y="-63.103462" font-family="'Century Schoolbook'" font-size="18.667px" font-weight="bold">♭</tspan></text></g></g></g><g transform="translate(325.12 -.41287)"><g transform="translate(170.2 57.569)"><g transform="matrix(.75722 0 0 .75722 402.09 -54.404)"><g transform="matrix(2,0,0,2,-713.17,-155.67)"><path d="m239 207.2c0 3.5-2.2 5-4.8 5h-2.7v-9.9h2.7c2.7-.1 4.8 1.4 4.8 4.9zm-1.5 0c0-2.1-1-3.5-3.3-3.5h-1.2v7h1.2c2.3 0 3.3-1.4 3.3-3.5z"/></g><path d="m-224.41 260.98h-1.7v2.3h-1.4v-2.3h-2.3v2.3h-1.4v-2.3h-1.7v-1.3h1.7v-2.7h-1.7v-1.4h1.7v-2.3h1.4v2.3h2.3v-2.3h1.4v2.3h1.7v1.3h-1.7v2.7h1.7zm-3.1-1.3v-2.7h-2.3v2.7z"/></g><g transform="matrix(.74776 0 0 .74776 138.02 238.83)"><g transform="matrix(2,0,0,2,-316.6,-413.97)"><path d="m225 158.2h-6.6v-9.9h6.4v1.4h-4.9v2.5h2.8v1.4h-2.8v3.1h5.1z"/></g><text x="132.94505" y="-103.37805" font-family="'Century Schoolbook'" font-size="18.667px" font-weight="bold" letter-spacing="0px" word-spacing="0px" style="line-height:1" xml:space="preserve"><tspan x="132.94505" y="-103.37805" font-family="'Century Schoolbook'" font-size="18.667px" font-weight="bold">♭</tspan></text></g></g><g transform="translate(189.55 -52.834)"><g transform="matrix(.73529 0 0 .73529 352.4 85.609)"><path d="m-266.31 228.23h-1.7v2.3h-1.4v-2.3h-2.3v2.3h-1.4v-2.3h-1.7v-1.3h1.7v-2.7h-1.7v-1.4h1.7v-2.3h1.4v2.3h2.3v-2.3h1.4v2.3h1.7v1.3h-1.7v2.7h1.7zm-3.1-1.3v-2.7h-2.3v2.7z"/><g transform="matrix(2,0,0,2,-807.23,-296.34)"><path d="m265.8 264.4c-.7 1.2-1.9 1.9-3.4 1.9-2.6 0-4.2-2.1-4.2-5.1s1.6-5.1 4.2-5.1c1.6 0 2.7.7 3.4 1.9l-1.3.8c-.5-.8-1-1.2-2.1-1.2-1.7 0-2.7 1.4-2.7 3.6s.9 3.6 2.7 3.6c1 0 1.7-.4 2.2-1.2z"/></g></g><g transform="matrix(.75489 0 0 .75489 123.74 335.92)"><g transform="matrix(2,0,0,2,-422.58,-504.68)"><path d="m239 207.2c0 3.5-2.2 5-4.8 5h-2.7v-9.9h2.7c2.7-.1 4.8 1.4 4.8 4.9zm-1.5 0c0-2.1-1-3.5-3.3-3.5h-1.2v7h1.2c2.3 0 3.3-1.4 3.3-3.5z"/></g><text x="56.475048" y="-86.50576" font-family="'Century Schoolbook'" font-size="18.667px" font-weight="bold" letter-spacing="0px" word-spacing="0px" style="line-height:1" xml:space="preserve"><tspan x="56.475048" y="-86.50576" font-family="'Century Schoolbook'" font-size="18.667px" font-weight="bold">♭</tspan></text></g></g></g><g transform="translate(846.21 -48.415)"><g transform="translate(-493.35 102.58)"><g transform="matrix(.75758 0 0 .75758 466.56 77.397)"><g transform="matrix(2,0,0,2,-806.36,-483.41)"><path d="m373.8 263.1c0 2-1.2 3-3.4 3h-3.9v-9.9h4.1c1.7 0 2.8.9 2.8 2.6 0 1-.5 1.6-1.3 2 .9.2 1.7 1 1.7 2.3zm-1.8-4.2c0-.7-.4-1.3-1.4-1.3h-2.7v2.6h2.7c1 0 1.4-.6 1.4-1.3zm.4 4.3c0-1-.6-1.6-1.8-1.6h-2.7v3.3h2.7c1.3-.1 1.8-.8 1.8-1.7z"/></g><text x="-58.423237" y="43.680428" font-family="'Century Schoolbook'" font-size="18.667px" font-weight="bold" letter-spacing="0px" word-spacing="0px" style="line-height:1" xml:space="preserve"><tspan x="-58.423237" y="43.680428" font-family="'Century Schoolbook'" font-size="18.667px" font-weight="bold">♭</tspan></text></g><g transform="matrix(.75758 0 0 .75758 428.95 -69.206)"><g transform="matrix(2,0,0,2,-290.83,-204.32)"><path d="m131.4 212.2h-1.6l-.8-2.4h-4l-.8 2.4h-1.5l3.6-9.9h1.6zm-2.9-3.7-.8-2.3c-.2-.7-.6-1.9-.8-2.3-.1.4-.5 1.6-.7 2.3l-.8 2.3z"/></g><path d="m-20.609 212.6h-1.7v2.3h-1.4v-2.3h-2.3v2.3h-1.4v-2.3h-1.7v-1.3h1.7v-2.7h-1.7v-1.4h1.7v-2.3h1.4v2.3h2.3v-2.3h1.4v2.3h1.7v1.3h-1.7v2.7h1.7zm-3.1-1.3v-2.7h-2.3v2.7z"/></g></g><g transform="translate(-495.17 102.13)"><g transform="matrix(.75758 0 0 .75758 443.38 157.91)"><g transform="matrix(2,0,0,2,-360.87,-482.25)"><path d="m131.4 212.2h-1.6l-.8-2.4h-4l-.8 2.4h-1.5l3.6-9.9h1.6zm-2.9-3.7-.8-2.3c-.2-.7-.6-1.9-.8-2.3-.1.4-.5 1.6-.7 2.3l-.8 2.3z"/></g><text x="-99.106789" y="-62.746986" font-family="'Century Schoolbook'" font-size="18.667px" font-weight="bold" letter-spacing="0px" word-spacing="0px" style="line-height:1" xml:space="preserve"><tspan x="-99.106789" y="-62.746986" font-family="'Century Schoolbook'" font-size="18.667px" font-weight="bold">♭</tspan></text></g><g transform="matrix(.73529 0 0 .73529 415.2 -63.25)"><g transform="matrix(2,0,0,2,-776.31,-204.86)"><path d="m347 208.3c0 2.6-1.6 4-3.8 4-2.6 0-4.2-2.1-4.2-5.1s1.6-5.1 4.2-5.1c1.6 0 2.7.7 3.4 1.9l-1.3.8c-.5-.8-1-1.2-2.1-1.2-1.7 0-2.7 1.4-2.7 3.6s.9 3.6 2.7 3.6c1.6 0 2.3-1.1 2.3-2.2h-1.6v-1.4h3.1z"/></g><path d="m-72.602 211.82h-1.7v2.3h-1.4v-2.3h-2.3v2.3h-1.4v-2.3h-1.7v-1.3h1.7v-2.7h-1.7v-1.4h1.7v-2.3h1.4v2.3h2.3v-2.3h1.4v2.3h1.7v1.3h-1.7v2.7h1.7zm-3.1-1.3v-2.7h-2.3v2.7z"/></g></g><g transform="translate(-494.71 101.67)"><g transform="matrix(.75758 0 0 .75758 97.907 -107.21)"><path d="m272.24 265.18h-1.7v2.3h-1.4v-2.3h-2.3v2.3h-1.4v-2.3h-1.7v-1.3h1.7v-2.7h-1.7v-1.4h1.7v-2.3h1.4v2.3h2.3v-2.3h1.4v2.3h1.7v1.3h-1.7v2.7h1.7zm-3.1-1.3v-2.7h-2.3v2.7z"/><g transform="matrix(2,0,0,2,-319.55,-152.64)"><path d="m292.6 203.7h-4.9v2.6h2.8v1.5h-2.8v4.4h-1.5v-9.9h6.4z"/></g></g><g transform="matrix(.73529 0 0 .73529 426.3 156.69)"><g transform="matrix(2,0,0,2,-846.8,-481.84)"><path d="m347 208.3c0 2.6-1.6 4-3.8 4-2.6 0-4.2-2.1-4.2-5.1s1.6-5.1 4.2-5.1c1.6 0 2.7.7 3.4 1.9l-1.3.8c-.5-.8-1-1.2-2.1-1.2-1.7 0-2.7 1.4-2.7 3.6s.9 3.6 2.7 3.6c1.6 0 2.3-1.1 2.3-2.2h-1.6v-1.4h3.1z"/></g><text x="-151.87219" y="-63.103462" font-family="'Century Schoolbook'" font-size="18.667px" font-weight="bold" letter-spacing="0px" word-spacing="0px" style="line-height:1" xml:space="preserve"><tspan x="-151.87219" y="-63.103462" font-family="'Century Schoolbook'" font-size="18.667px" font-weight="bold">♭</tspan></text></g></g></g><g transform="translate(14.085 -107.79)"><g transform="translate(170.2 57.569)"><g transform="matrix(.75722 0 0 .75722 402.09 -54.404)"><g transform="matrix(2,0,0,2,-713.17,-155.67)"><path d="m239 207.2c0 3.5-2.2 5-4.8 5h-2.7v-9.9h2.7c2.7-.1 4.8 1.4 4.8 4.9zm-1.5 0c0-2.1-1-3.5-3.3-3.5h-1.2v7h1.2c2.3 0 3.3-1.4 3.3-3.5z"/></g><path d="m-224.41 260.98h-1.7v2.3h-1.4v-2.3h-2.3v2.3h-1.4v-2.3h-1.7v-1.3h1.7v-2.7h-1.7v-1.4h1.7v-2.3h1.4v2.3h2.3v-2.3h1.4v2.3h1.7v1.3h-1.7v2.7h1.7zm-3.1-1.3v-2.7h-2.3v2.7z"/></g><g transform="matrix(.74776 0 0 .74776 138.02 238.83)"><g transform="matrix(2,0,0,2,-316.6,-413.97)"><path d="m225 158.2h-6.6v-9.9h6.4v1.4h-4.9v2.5h2.8v1.4h-2.8v3.1h5.1z"/></g><text x="132.94505" y="-103.37805" font-family="'Century Schoolbook'" font-size="18.667px" font-weight="bold" letter-spacing="0px" word-spacing="0px" style="line-height:1" xml:space="preserve"><tspan x="132.94505" y="-103.37805" font-family="'Century Schoolbook'" font-size="18.667px" font-weight="bold">♭</tspan></text></g></g><g transform="translate(189.55 -52.834)"><g transform="matrix(.73529 0 0 .73529 352.4 85.609)"><path d="m-266.31 228.23h-1.7v2.3h-1.4v-2.3h-2.3v2.3h-1.4v-2.3h-1.7v-1.3h1.7v-2.7h-1.7v-1.4h1.7v-2.3h1.4v2.3h2.3v-2.3h1.4v2.3h1.7v1.3h-1.7v2.7h1.7zm-3.1-1.3v-2.7h-2.3v2.7z"/><g transform="matrix(2,0,0,2,-807.23,-296.34)"><path d="m265.8 264.4c-.7 1.2-1.9 1.9-3.4 1.9-2.6 0-4.2-2.1-4.2-5.1s1.6-5.1 4.2-5.1c1.6 0 2.7.7 3.4 1.9l-1.3.8c-.5-.8-1-1.2-2.1-1.2-1.7 0-2.7 1.4-2.7 3.6s.9 3.6 2.7 3.6c1 0 1.7-.4 2.2-1.2z"/></g></g><g transform="matrix(.75489 0 0 .75489 123.74 335.92)"><g transform="matrix(2,0,0,2,-422.58,-504.68)"><path d="m239 207.2c0 3.5-2.2 5-4.8 5h-2.7v-9.9h2.7c2.7-.1 4.8 1.4 4.8 4.9zm-1.5 0c0-2.1-1-3.5-3.3-3.5h-1.2v7h1.2c2.3 0 3.3-1.4 3.3-3.5z"/></g><text x="56.475048" y="-86.50576" font-family="'Century Schoolbook'" font-size="18.667px" font-weight="bold" letter-spacing="0px" word-spacing="0px" style="line-height:1" xml:space="preserve"><tspan x="56.475048" y="-86.50576" font-family="'Century Schoolbook'" font-size="18.667px" font-weight="bold">♭</tspan></text></g></g></g><g transform="translate(-295.49 55.248)"><g transform="matrix(.75758 0 0 .75758 466.56 77.397)"><g transform="matrix(2,0,0,2,-806.36,-483.41)"><path d="m373.8 263.1c0 2-1.2 3-3.4 3h-3.9v-9.9h4.1c1.7 0 2.8.9 2.8 2.6 0 1-.5 1.6-1.3 2 .9.2 1.7 1 1.7 2.3zm-1.8-4.2c0-.7-.4-1.3-1.4-1.3h-2.7v2.6h2.7c1 0 1.4-.6 1.4-1.3zm.4 4.3c0-1-.6-1.6-1.8-1.6h-2.7v3.3h2.7c1.3-.1 1.8-.8 1.8-1.7z"/></g><text x="-58.423237" y="43.680428" font-family="'Century Schoolbook'" font-size="18.667px" font-weight="bold" letter-spacing="0px" word-spacing="0px" style="line-height:1" xml:space="preserve"><tspan x="-58.423237" y="43.680428" font-family="'Century Schoolbook'" font-size="18.667px" font-weight="bold">♭</tspan></text></g><g transform="matrix(.75758 0 0 .75758 428.95 -69.206)"><g transform="matrix(2,0,0,2,-290.83,-204.32)"><path d="m131.4 212.2h-1.6l-.8-2.4h-4l-.8 2.4h-1.5l3.6-9.9h1.6zm-2.9-3.7-.8-2.3c-.2-.7-.6-1.9-.8-2.3-.1.4-.5 1.6-.7 2.3l-.8 2.3z"/></g><path d="m-20.609 212.6h-1.7v2.3h-1.4v-2.3h-2.3v2.3h-1.4v-2.3h-1.7v-1.3h1.7v-2.7h-1.7v-1.4h1.7v-2.3h1.4v2.3h2.3v-2.3h1.4v2.3h1.7v1.3h-1.7v2.7h1.7zm-3.1-1.3v-2.7h-2.3v2.7z"/></g></g><g transform="translate(832.04 60.061)"><g transform="translate(-495.17 102.13)"><g transform="matrix(.75758 0 0 .75758 443.38 157.91)"><g transform="matrix(2,0,0,2,-360.87,-482.25)"><path d="m131.4 212.2h-1.6l-.8-2.4h-4l-.8 2.4h-1.5l3.6-9.9h1.6zm-2.9-3.7-.8-2.3c-.2-.7-.6-1.9-.8-2.3-.1.4-.5 1.6-.7 2.3l-.8 2.3z"/></g><text x="-99.106789" y="-62.746986" font-family="'Century Schoolbook'" font-size="18.667px" font-weight="bold" letter-spacing="0px" word-spacing="0px" style="line-height:1" xml:space="preserve"><tspan x="-99.106789" y="-62.746986" font-family="'Century Schoolbook'" font-size="18.667px" font-weight="bold">♭</tspan></text></g><g transform="matrix(.73529 0 0 .73529 415.2 -63.25)"><g transform="matrix(2,0,0,2,-776.31,-204.86)"><path d="m347 208.3c0 2.6-1.6 4-3.8 4-2.6 0-4.2-2.1-4.2-5.1s1.6-5.1 4.2-5.1c1.6 0 2.7.7 3.4 1.9l-1.3.8c-.5-.8-1-1.2-2.1-1.2-1.7 0-2.7 1.4-2.7 3.6s.9 3.6 2.7 3.6c1.6 0 2.3-1.1 2.3-2.2h-1.6v-1.4h3.1z"/></g><path d="m-72.602 211.82h-1.7v2.3h-1.4v-2.3h-2.3v2.3h-1.4v-2.3h-1.7v-1.3h1.7v-2.7h-1.7v-1.4h1.7v-2.3h1.4v2.3h2.3v-2.3h1.4v2.3h1.7v1.3h-1.7v2.7h1.7zm-3.1-1.3v-2.7h-2.3v2.7z"/></g></g><g transform="translate(-494.71 101.67)"><g transform="matrix(.75758 0 0 .75758 97.907 -107.21)"><path d="m272.24 265.18h-1.7v2.3h-1.4v-2.3h-2.3v2.3h-1.4v-2.3h-1.7v-1.3h1.7v-2.7h-1.7v-1.4h1.7v-2.3h1.4v2.3h2.3v-2.3h1.4v2.3h1.7v1.3h-1.7v2.7h1.7zm-3.1-1.3v-2.7h-2.3v2.7z"/><g transform="matrix(2,0,0,2,-319.55,-152.64)"><path d="m292.6 203.7h-4.9v2.6h2.8v1.5h-2.8v4.4h-1.5v-9.9h6.4z"/></g></g><g transform="matrix(.73529 0 0 .73529 426.3 156.69)"><g transform="matrix(2,0,0,2,-846.8,-481.84)"><path d="m347 208.3c0 2.6-1.6 4-3.8 4-2.6 0-4.2-2.1-4.2-5.1s1.6-5.1 4.2-5.1c1.6 0 2.7.7 3.4 1.9l-1.3.8c-.5-.8-1-1.2-2.1-1.2-1.7 0-2.7 1.4-2.7 3.6s.9 3.6 2.7 3.6c1.6 0 2.3-1.1 2.3-2.2h-1.6v-1.4h3.1z"/></g><text x="-151.87219" y="-63.103462" font-family="'Century Schoolbook'" font-size="18.667px" font-weight="bold" letter-spacing="0px" word-spacing="0px" style="line-height:1" xml:space="preserve"><tspan x="-151.87219" y="-63.103462" font-family="'Century Schoolbook'" font-size="18.667px" font-weight="bold">♭</tspan></text></g></g></g></g><g><text x="-50.234657" y="114.41996" fill="#800000" font-family="'CMU Concrete'" font-size="8.5537px" letter-spacing="0px" stroke-width=".64153" word-spacing="0px" style="line-height:1" xml:space="preserve"><tspan x="-50.234657" y="114.41996" fill="#800000" font-family="'CMU Concrete'" stroke-width=".64153">110 Hz</tspan></text><text x="213.59795" y="216.90483" fill="#800000" font-family="'CMU Concrete'" font-size="8.5537px" letter-spacing="0px" stroke-width=".64153" word-spacing="0px" style="line-height:1" xml:space="preserve"><tspan x="213.59795" y="216.90483" fill="#800000" font-family="'CMU Concrete'" stroke-width=".64153">220 Hz</tspan></text><rect x="273.32" y="214.18" width="15.635" height=".53914" fill="#800000" stroke="#800000" stroke-linecap="round" stroke-linejoin="round" stroke-width="3.0236" style="paint-order:markers fill stroke"/><rect x="435.76" y="214.74" width="15.635" height=".53914" fill="#008000" stroke="#008000" stroke-linecap="round" stroke-linejoin="round" stroke-width="3.0236" style="paint-order:markers fill stroke"/><text x="537.25433" y="216.85515" fill="#008000" font-family="'CMU Concrete'" font-size="8.5537px" letter-spacing="0px" stroke-width=".64153" word-spacing="0px" style="line-height:1" xml:space="preserve"><tspan x="537.25433" y="216.85515" fill="#008000" font-family="'CMU Concrete'" stroke-width=".64153">440 Hz</tspan></text><text x="227.63734" y="109.26041" fill="#008000" font-family="'CMU Concrete'" font-size="8.5537px" letter-spacing="0px" stroke-width=".64153" word-spacing="0px" style="line-height:1" xml:space="preserve"><tspan x="227.63734" y="109.26041" fill="#008000" font-family="'CMU Concrete'" stroke-width=".64153">440 Hz</tspan></text><text x="551.13733" y="109.26941" fill="#008080" font-family="'CMU Concrete'" font-size="8.5537px" letter-spacing="0px" stroke-width=".64153" word-spacing="0px" style="line-height:1" xml:space="preserve"><tspan x="551.13733" y="109.26941" fill="#008080" font-family="'CMU Concrete'" stroke-width=".64153">880 Hz</tspan></text></g></svg>
